<?xml version="1.0" encoding="UTF-8" standalone="no"?>
<svg
   viewBox="0 0 2666.6667 3999.9999"
   height="4000"
   width="2666.6667"
   xml:space="preserve"
   id="svg2"
   version="1.1"
   sodipodi:docname="programer-learning_mobile.svg"
   inkscape:version="1.3.2 (091e20e, 2023-11-25, custom)"
   xmlns:inkscape="http://www.inkscape.org/namespaces/inkscape"
   xmlns:sodipodi="http://sodipodi.sourceforge.net/DTD/sodipodi-0.dtd"
   xmlns="http://www.w3.org/2000/svg"
   xmlns:svg="http://www.w3.org/2000/svg"
   xmlns:rdf="http://www.w3.org/1999/02/22-rdf-syntax-ns#"
   xmlns:cc="http://creativecommons.org/ns#"
   xmlns:dc="http://purl.org/dc/elements/1.1/"><sodipodi:namedview
     id="namedview1"
     pagecolor="#ffffff"
     bordercolor="#000000"
     borderopacity="0.25"
     inkscape:showpageshadow="2"
     inkscape:pageopacity="0.0"
     inkscape:pagecheckerboard="0"
     inkscape:deskcolor="#d1d1d1"
     inkscape:zoom="0.10714537"
     inkscape:cx="4111.237"
     inkscape:cy="709.31671"
     inkscape:window-width="1920"
     inkscape:window-height="991"
     inkscape:window-x="-9"
     inkscape:window-y="-9"
     inkscape:window-maximized="1"
     inkscape:current-layer="svg2" /><metadata
     id="metadata8"><rdf:RDF><cc:Work
         rdf:about=""><dc:format>image/svg+xml</dc:format><dc:type
           rdf:resource="http://purl.org/dc/dcmitype/StillImage" /></cc:Work></rdf:RDF></metadata><defs
     id="defs6"><clipPath
       id="clipPath94"
       clipPathUnits="userSpaceOnUse"><path
         id="path92"
         d="m 24802.8,5163.9 c 23,39.8 45.2,80 66.5,120.5 648.1,1232.4 1020.6,2608.7 1082.5,3999.7 C 25284.6,8672 24613.4,8041 24048.3,7333.6 c -431.8,-540.5 -802.2,-1140.5 -1037.6,-1788.3 414.6,1531.4 632.3,3121.3 587.9,4705.5 C 22023,8064.2 20963.1,5514.6 20507.5,2858.3 l 3682.1,41.7 c 1354.5,806.2 2407.4,2106.6 2914.3,3599.1 -842.6,-284.3 -1637.9,-739.4 -2301.1,-1335.2" /></clipPath><clipPath
       id="clipPath114"
       clipPathUnits="userSpaceOnUse"><path
         id="path112"
         d="m 14550.8,8656.6 c -1459.7,-1482.2 -3844.4,-1500.5 -5326.61,-40.8 -1482.17,1459.6 -1500.46,3844.3 -40.85,5326.5 1459.56,1482.2 3844.36,1500.5 5326.56,40.9 1482.2,-1459.6 1500.5,-3844.4 40.9,-5326.6" /></clipPath><clipPath
       id="clipPath154"
       clipPathUnits="userSpaceOnUse"><path
         id="path152"
         d="m 21771.4,5371.6 c 0,0 1157.8,-493.6 603.3,-1979.9 -522.3,-1400.2 -8639.6,-740.8 -8683.2,-621 -52.6,144.2 -214.3,1290 -45.7,1357.1 168.6,67.1 6222.7,1293.2 6222.7,1293.2 l 1902.9,-49.4" /></clipPath><clipPath
       id="clipPath174"
       clipPathUnits="userSpaceOnUse"><path
         id="path172"
         d="m 20386.9,11841.6 c 0,0 1305.1,-545.8 1689.2,-1332.2 384.1,-786.5 -987.6,-4864.9 -1243.6,-4938.1 -256.1,-73.1 -2908,-128 -3109.2,0 -201.2,128 -101.7,4723.4 172.6,5107.5 274.4,384.1 1310.3,1162.8 1310.3,1162.8 h 1180.7" /></clipPath><clipPath
       id="clipPath202"
       clipPathUnits="userSpaceOnUse"><path
         id="path200"
         d="m 20119.1,14731.2 c 207.8,-107.5 497,-563.9 305,-937.8 -214.7,-418.1 -677.5,-848 -739.6,-857.9 -62.1,-9.9 -145.6,486.1 -145.6,486.1 448,89.3 244.4,529.8 174.3,527 -70.1,-2.7 -209.5,-291.3 -251.4,-237.4 -32.1,41.4 16.3,491.8 40.7,700.1 0,0 -943.4,-583.2 -1556.1,-354.1 0,0 -298.5,1009.5 594.7,1213.8 893.2,204.2 1578,-539.8 1578,-539.8" /></clipPath><clipPath
       id="clipPath270"
       clipPathUnits="userSpaceOnUse"><path
         id="path268"
         d="m 14906.1,5548.8 c 0,0 6957.5,151.5 6995,82.2 37.5,-69.3 24.6,-315.2 -41.8,-326.8 -66.5,-11.5 -6789.5,-155.5 -6881.9,-97.8 -92.5,57.8 -71.3,342.4 -71.3,342.4" /></clipPath></defs><path
     id="path20"
     style="fill:#2dffff;fill-opacity:1;fill-rule:nonzero;stroke:none;stroke-width:0.152674"
     d="m 2411.7331,1935.5225 c 9.2216,-19.2247 17.4202,-38.9807 24.5043,-59.2178 52.3519,-149.6756 29.7409,-336.4588 -68.505,-464.8012 -49.8328,-65.0973 -119.4981,-112.2598 -200.2169,-128.9593 -68.4133,-14.1514 -135.9258,-3.2016 -203.5605,7.7482 -52.123,8.4367 -104.307,16.875 -157.0254,13.8307 -79.1158,-4.571 -154.1246,-35.7547 -225.3776,-70.424 -192.4367,-93.632 -374.6228,-214.5515 -583.51626,-270.03485 -163.72015,-43.49687 -357.53545,-34.16848 -496.54835,71.46835 -234.59763,178.2853 -221.26613,510.8707 -121.38972,757.6808 29.03405,71.7492 67.21786,140.561 116.7698,200.2306 171.35083,206.3637 425.106,283.5267 685.29953,300.5147 226.7944,14.8125 461.0959,6.736 688.3056,-1.5099 227.9273,-8.2719 442.9842,-151.752 541.2605,-356.5263" /><path
     id="path22"
     style="fill:#cccccc;fill-opacity:1;fill-rule:nonzero;stroke:none;stroke-width:0.0887546"
     d="M 622.22068,1882.7475 H 242.32983 c -10.79969,0 -19.55446,-8.7601 -19.55446,-19.5527 v -149.8181 c 0,-10.8015 8.75477,-19.5527 19.55446,-19.5527 h 379.89085 c 10.79968,0 19.55445,8.7513 19.55445,19.5527 v 149.8181 c 0,10.7926 -8.75477,19.5527 -19.55445,19.5527" /><path
     id="path24"
     style="fill:#ffffff;fill-opacity:1;fill-rule:nonzero;stroke:none;stroke-width:0.0887546"
     d="m 325.92972,1732.175 h -73.92296 c -1.20352,0 -2.17893,-0.9763 -2.17893,-2.1745 v -13.9079 c 0,-1.1982 0.97541,-2.1745 2.17893,-2.1745 h 73.92296 c 1.20352,0 2.17982,0.9763 2.17982,2.1745 v 13.9079 c 0,1.1982 -0.9763,2.1745 -2.17982,2.1745" /><path
     id="path26"
     style="fill:#d0ffff;fill-opacity:1;fill-rule:nonzero;stroke:none;stroke-width:0.0887546"
     d="M 605.33242,1732.175 H 343.38069 c -2.23484,0 -4.04722,-1.8106 -4.04722,-4.0472 v -10.1625 c 0,-2.2366 1.81238,-4.0472 4.04722,-4.0472 h 261.95173 c 2.23573,0 4.04722,1.8106 4.04722,4.0472 v 10.1625 c 0,2.2366 -1.81149,4.0472 -4.04722,4.0472" /><path
     id="path28"
     style="fill:#ffffff;fill-opacity:1;fill-rule:nonzero;stroke:none;stroke-width:0.0887546"
     d="M 428.94828,1762.6001 H 253.15436 c -1.83723,0 -3.32653,-1.4911 -3.32653,-3.3283 v -11.6091 c 0,-1.8373 1.4893,-3.3283 3.32653,-3.3283 h 175.79392 c 1.83722,0 3.32653,1.491 3.32653,3.3283 v 11.6091 c 0,1.8372 -1.48931,3.3283 -3.32653,3.3283" /><path
     id="path30"
     style="fill:#ffffff;fill-opacity:1;fill-rule:nonzero;stroke:none;stroke-width:0.0887546"
     d="M 606.20488,1762.6001 H 446.35043 c -1.75379,0 -3.17476,-1.4289 -3.17476,-3.1774 v -11.9109 c 0,-1.7485 1.42097,-3.1774 3.17476,-3.1774 h 159.85445 c 1.7538,0 3.17476,1.4289 3.17476,3.1774 v 11.9109 c 0,1.7485 -1.42096,3.1774 -3.17476,3.1774" /><path
     id="path32"
     style="fill:#d0ffff;fill-opacity:1;fill-rule:nonzero;stroke:none;stroke-width:0.0887546"
     d="M 375.68122,1793.0164 H 252.62094 c -1.54255,0 -2.79311,-1.2514 -2.79311,-2.7958 v -12.6742 c 0,-1.5354 1.25056,-2.7869 2.79311,-2.7869 h 123.06028 c 1.54255,0 2.79311,1.2515 2.79311,2.7869 v 12.6742 c 0,1.5444 -1.25056,2.7958 -2.79311,2.7958" /><path
     id="path34"
     style="fill:#d0ffff;fill-opacity:1;fill-rule:nonzero;stroke:none;stroke-width:0.0887546"
     d="M 513.87329,1793.0164 H 390.81302 c -1.54256,0 -2.79312,-1.2514 -2.79312,-2.7958 v -12.6653 c 0,-1.5443 1.25056,-2.7958 2.79312,-2.7958 h 123.06027 c 1.54167,0 2.79222,1.2515 2.79222,2.7958 v 12.6653 c 0,1.5444 -1.25055,2.7958 -2.79222,2.7958" /><path
     id="path36"
     style="fill:#ffffff;fill-opacity:1;fill-rule:nonzero;stroke:none;stroke-width:0.0887546"
     d="m 607.18029,1793.0164 h -75.36522 c -1.21417,0 -2.19935,-0.9852 -2.19935,-2.2011 v -13.8546 c 0,-1.216 0.98518,-2.2012 2.19935,-2.2012 h 75.36522 c 1.21506,0 2.19935,0.9852 2.19935,2.2012 v 13.8546 c 0,1.2159 -0.98429,2.2011 -2.19935,2.2011" /><path
     id="path38"
     style="fill:#d0ffff;fill-opacity:1;fill-rule:nonzero;stroke:none;stroke-width:0.0887546"
     d="M 604.70936,1823.4326 H 254.49811 c -2.57922,0 -4.67028,-2.0857 -4.67028,-4.6684 v -8.9199 c 0,-2.5739 2.09106,-4.6685 4.67028,-4.6685 h 350.21125 c 2.5801,0 4.67028,2.0946 4.67028,4.6685 v 8.9199 c 0,2.5827 -2.09018,4.6684 -4.67028,4.6684" /><path
     id="path40"
     style="fill:#ffffff;fill-opacity:1;fill-rule:nonzero;stroke:none;stroke-width:0.0887546"
     d="M 428.94828,1853.8578 H 253.15436 c -1.83723,0 -3.32653,-1.4911 -3.32653,-3.3283 v -11.6091 c 0,-1.8373 1.4893,-3.3195 3.32653,-3.3195 h 175.79392 c 1.83722,0 3.32653,1.4822 3.32653,3.3195 v 11.6091 c 0,1.8372 -1.48931,3.3283 -3.32653,3.3283" /><path
     id="path42"
     style="fill:#d0ffff;fill-opacity:1;fill-rule:nonzero;stroke:none;stroke-width:0.0887546"
     d="M 606.26967,1853.8578 H 452.96178 c -1.71741,0 -3.10997,-1.3935 -3.10997,-3.1153 v -12.0351 c 0,-1.7131 1.39256,-3.1065 3.10997,-3.1065 h 153.30789 c 1.7174,0 3.10997,1.3934 3.10997,3.1065 v 12.0351 c 0,1.7218 -1.39257,3.1153 -3.10997,3.1153" /><path
     id="path44"
     style="fill:#cccccc;fill-opacity:1;fill-rule:nonzero;stroke:none;stroke-width:0.0887546"
     d="M 522.46919,1665.529 H 242.04936 c -10.64436,0 -19.27399,-8.6359 -19.27399,-19.2775 v -488.1069 c 0,-10.6506 8.62963,-19.2776 19.27399,-19.2776 h 280.41983 c 10.64613,0 19.27576,8.627 19.27576,19.2776 v 488.1069 c 0,10.6417 -8.62963,19.2775 -19.27576,19.2775" /><path
     id="path46"
     style="fill:#d0ffff;fill-opacity:1;fill-rule:nonzero;stroke:none;stroke-width:0.0887546"
     d="M 512.04316,1184.7089 H 252.47627 c -2.00763,0 -3.6354,-1.6242 -3.6354,-3.639 v -11.973 c 0,-2.0058 1.62777,-3.63 3.6354,-3.63 h 259.56689 c 2.00764,0 3.6354,1.6242 3.6354,3.63 v 11.973 c 0,2.0148 -1.62776,3.639 -3.6354,3.639" /><path
     id="path48"
     style="fill:#f6f9ff;fill-opacity:1;fill-rule:nonzero;stroke:none;stroke-width:0.0887546"
     d="M 512.04316,1215.5423 H 252.47627 c -2.00763,0 -3.6354,-1.6331 -3.6354,-3.639 v -11.973 c 0,-2.0058 1.62777,-3.6389 3.6354,-3.6389 h 259.56689 c 2.00764,0 3.6354,1.6331 3.6354,3.6389 v 11.973 c 0,2.0059 -1.62776,3.639 -3.6354,3.639" /><path
     id="path50"
     style="fill:#d0ffff;fill-opacity:1;fill-rule:nonzero;stroke:none;stroke-width:0.0887546"
     d="m 429.51276,1246.3668 h -177.656 c -1.66593,0 -3.01589,-1.3491 -3.01589,-3.0088 v -13.2155 c 0,-1.6686 1.34996,-3.0177 3.01589,-3.0177 h 177.656 c 1.66682,0 3.01678,1.3491 3.01678,3.0177 v 13.2155 c 0,1.6597 -1.34996,3.0088 -3.01678,3.0088" /><path
     id="path52"
     style="fill:#f6f9ff;fill-opacity:1;fill-rule:nonzero;stroke:none;stroke-width:0.0887546"
     d="M 512.04316,1277.2002 H 252.47627 c -2.00763,0 -3.6354,-1.6242 -3.6354,-3.63 v -11.9819 c 0,-2.0059 1.62777,-3.6301 3.6354,-3.6301 h 259.56689 c 2.00764,0 3.6354,1.6242 3.6354,3.6301 v 11.9819 c 0,2.0058 -1.62776,3.63 -3.6354,3.63" /><path
     id="path54"
     style="fill:#f6f9ff;fill-opacity:1;fill-rule:nonzero;stroke:none;stroke-width:0.0887546"
     d="M 513.02124,1308.0336 H 375.78328 c -1.468,0 -2.65732,-1.1893 -2.65732,-2.6626 v -13.9256 c 0,-1.4734 1.18932,-2.6627 2.65732,-2.6627 h 137.23796 c 1.46801,0 2.65732,1.1893 2.65732,2.6627 v 13.9256 c 0,1.4733 -1.18931,2.6626 -2.65732,2.6626" /><path
     id="path56"
     style="fill:#d0ffff;fill-opacity:1;fill-rule:nonzero;stroke:none;stroke-width:0.0887546"
     d="M 356.51196,1308.0336 H 251.17513 c -1.28961,0 -2.33426,-1.0473 -2.33426,-2.3342 v -14.5824 c 0,-1.287 1.04465,-2.3343 2.33426,-2.3343 h 105.33683 c 1.28872,0 2.33425,1.0473 2.33425,2.3343 v 14.5824 c 0,1.2869 -1.04553,2.3342 -2.33425,2.3342" /><path
     id="path58"
     style="fill:#f6f9ff;fill-opacity:1;fill-rule:nonzero;stroke:none;stroke-width:0.0887546"
     d="M 512.04316,1338.867 H 252.47627 c -2.00763,0 -3.6354,-1.633 -3.6354,-3.6389 v -11.973 c 0,-2.0148 1.62777,-3.639 3.6354,-3.639 h 259.56689 c 2.00764,0 3.6354,1.6242 3.6354,3.639 v 11.973 c 0,2.0059 -1.62776,3.6389 -3.6354,3.6389" /><path
     id="path60"
     style="fill:#f6f9ff;fill-opacity:1;fill-rule:nonzero;stroke:none;stroke-width:0.0887546"
     d="M 512.04316,1369.6916 H 252.47627 c -2.00763,0 -3.6354,-1.6242 -3.6354,-3.6301 v -11.9819 c 0,-2.0058 1.62777,-3.63 3.6354,-3.63 h 259.56689 c 2.00764,0 3.6354,1.6242 3.6354,3.63 v 11.9819 c 0,2.0059 -1.62776,3.6301 -3.6354,3.6301" /><path
     id="path62"
     style="fill:#d0ffff;fill-opacity:1;fill-rule:nonzero;stroke:none;stroke-width:0.0887546"
     d="M 512.04316,1400.525 H 252.47627 c -2.00763,0 -3.6354,-1.6242 -3.6354,-3.6301 v -11.9819 c 0,-2.0058 1.62777,-3.6389 3.6354,-3.6389 h 259.56689 c 2.00764,0 3.6354,1.6331 3.6354,3.6389 v 11.9819 c 0,2.0059 -1.62776,3.6301 -3.6354,3.6301" /><path
     id="path64"
     style="fill:#f6f9ff;fill-opacity:1;fill-rule:nonzero;stroke:none;stroke-width:0.0887546"
     d="M 512.04316,1431.3584 H 252.47627 c -2.00763,0 -3.6354,-1.6331 -3.6354,-3.639 v -11.9729 c 0,-2.0148 1.62777,-3.639 3.6354,-3.639 h 259.56689 c 2.00764,0 3.6354,1.6242 3.6354,3.639 v 11.9729 c 0,2.0059 -1.62776,3.639 -3.6354,3.639" /><path
     id="path66"
     style="fill:#f6f9ff;fill-opacity:1;fill-rule:nonzero;stroke:none;stroke-width:0.0887546"
     d="m 331.46536,1462.183 h -80.57691 c -1.13073,0 -2.04758,-0.9143 -2.04758,-2.0414 v -15.1505 c 0,-1.136 0.91685,-2.0502 2.04758,-2.0502 h 80.57691 c 1.13074,0 2.04846,0.9141 2.04846,2.0502 v 15.1505 c 0,1.1271 -0.91772,2.0414 -2.04846,2.0414" /><path
     id="path68"
     style="fill:#d0ffff;fill-opacity:1;fill-rule:nonzero;stroke:none;stroke-width:0.0887546"
     d="m 453.25377,1462.183 h -98.0829 c -1.24523,0 -2.25437,-1.003 -2.25437,-2.2456 v -14.7421 c 0,-1.2426 1.00914,-2.2544 2.25437,-2.2544 h 98.0829 c 1.24524,0 2.25438,1.0118 2.25438,2.2544 v 14.7421 c 0,1.2426 -1.00914,2.2456 -2.25438,2.2456" /><path
     id="path70"
     style="fill:#f6f9ff;fill-opacity:1;fill-rule:nonzero;stroke:none;stroke-width:0.0887546"
     d="M 512.04316,1493.0164 H 252.47627 c -2.00763,0 -3.6354,-1.6242 -3.6354,-3.6301 v -11.9819 c 0,-2.0059 1.62777,-3.6301 3.6354,-3.6301 h 259.56689 c 2.00764,0 3.6354,1.6242 3.6354,3.6301 v 11.9819 c 0,2.0059 -1.62776,3.6301 -3.6354,3.6301" /><path
     id="path72"
     style="fill:#d0ffff;fill-opacity:1;fill-rule:nonzero;stroke:none;stroke-width:0.0887546"
     d="M 477.00988,1523.8498 H 252.22776 c -1.87095,0 -3.38689,-1.5177 -3.38689,-3.3905 v -12.47 c 0,-1.8727 1.51594,-3.3904 3.38689,-3.3904 h 224.78212 c 1.87007,0 3.386,1.5177 3.386,3.3904 v 12.47 c 0,1.8728 -1.51593,3.3905 -3.386,3.3905" /><path
     id="path74"
     style="fill:#f6f9ff;fill-opacity:1;fill-rule:nonzero;stroke:none;stroke-width:0.0887546"
     d="M 512.04316,1554.6832 H 252.47627 c -2.00763,0 -3.6354,-1.6331 -3.6354,-3.639 v -11.973 c 0,-2.0147 1.62777,-3.6389 3.6354,-3.6389 h 259.56689 c 2.00764,0 3.6354,1.6242 3.6354,3.6389 v 11.973 c 0,2.0059 -1.62776,3.639 -3.6354,3.639" /><path
     id="path76"
     style="fill:#d0ffff;fill-opacity:1;fill-rule:nonzero;stroke:none;stroke-width:0.0887546"
     d="m 350.64616,1585.5077 h -99.53494 c -1.2541,0 -2.27035,-1.0118 -2.27035,-2.2633 v -14.7155 c 0,-1.2514 1.01625,-2.2632 2.27035,-2.2632 h 99.53494 c 1.2541,0 2.27034,1.0118 2.27034,2.2632 v 14.7155 c 0,1.2515 -1.01624,2.2633 -2.27034,2.2633" /><path
     id="path78"
     style="fill:#d0ffff;fill-opacity:1;fill-rule:nonzero;stroke:none;stroke-width:0.0887546"
     d="M 512.93338,1585.5077 H 366.18534 c -1.51682,0 -2.74607,-1.2248 -2.74607,-2.7426 v -13.7569 c 0,-1.5177 1.22925,-2.7425 2.74607,-2.7425 h 146.74804 c 1.51593,0 2.74518,1.2248 2.74518,2.7425 v 13.7569 c 0,1.5178 -1.22925,2.7426 -2.74518,2.7426" /><path
     id="path80"
     style="fill:#f6f9ff;fill-opacity:1;fill-rule:nonzero;stroke:none;stroke-width:0.0887546"
     d="M 512.04316,1616.3411 H 252.47627 c -2.00763,0 -3.6354,-1.6242 -3.6354,-3.6389 v -11.9731 c 0,-2.0058 1.62777,-3.6389 3.6354,-3.6389 h 259.56689 c 2.00764,0 3.6354,1.6331 3.6354,3.6389 v 11.9731 c 0,2.0147 -1.62776,3.6389 -3.6354,3.6389" /><path
     id="path82"
     style="fill:#f6f9ff;fill-opacity:1;fill-rule:nonzero;stroke:none;stroke-width:0.0887546"
     d="M 512.04316,1647.1745 H 252.47627 c -2.00763,0 -3.6354,-1.6331 -3.6354,-3.6389 v -11.9731 c 0,-2.0058 1.62777,-3.6389 3.6354,-3.6389 h 259.56689 c 2.00764,0 3.6354,1.6331 3.6354,3.6389 v 11.9731 c 0,2.0058 -1.62776,3.6389 -3.6354,3.6389" /><g
     transform="matrix(0.14758322,0,0,-0.14758322,0,2495.0933)"
     id="g84"
     style="fill:#00ff00"><path
       id="path86"
       style="fill:#00ff00;fill-opacity:1;fill-rule:nonzero;stroke:none"
       d="m 14916.1,3105.52 c 13.9,23.93 27.2,48.11 40,72.46 389.8,741.16 613.8,1568.85 651,2405.38 -401.2,-368.11 -804.9,-747.59 -1144.7,-1173.01 -259.7,-325.05 -482.4,-685.88 -624,-1075.46 249.3,920.96 380.3,1877.11 353.6,2829.8 -947.6,-1314.97 -1585,-2848.27 -1859,-4445.74 l 2214.4,25.08 c 814.6,484.84 1447.8,1266.89 1752.6,2164.46 -506.7,-170.97 -985,-444.67 -1383.9,-802.97" /></g><g
     id="g88"
     transform="matrix(0.08875478,0,0,-0.08875478,0,2495.0933)"><g
       clip-path="url(#clipPath94)"
       id="g90"><g
         transform="scale(1.66282)"
         id="g96"><path
           id="path98"
           style="fill:#6880e4;fill-opacity:1;fill-rule:nonzero;stroke:none"
           d="m 13616.1,1779.69 5.3,10.7 c 79.2,158.71 1941.2,3889.59 2136,4084.38 2.6,2.59 6.8,2.59 9.4,0 2.5,-2.58 2.5,-6.79 0,-9.38 -188.2,-188.17 -2013.6,-3840.76 -2128.1,-4069.95 327.6,43.96 1025,609.93 1555.8,1080.27 582.8,516.53 1095.6,1032.29 1100.7,1037.4 2.6,2.64 6.8,2.64 9.4,0.06 2.6,-2.59 2.6,-6.8 0,-9.38 -5.1,-5.18 -518.2,-521.17 -1101.3,-1037.94 -342.6,-303.64 -642,-548.1 -889.8,-726.72 -310.6,-223.71 -541.3,-344.29 -685.5,-358.3 l -11.9,-1.14" /></g><g
         transform="scale(1.44852)"
         id="g100"><path
           id="path102"
           style="fill:#6880e4;fill-opacity:1;fill-rule:nonzero;stroke:none"
           d="m 15040,1840.77 c -4.1,0 -7.5,3.32 -7.6,7.46 -5.6,283.81 203.4,1250.17 621,2872.24 310.9,1207.85 627.6,2346.9 630.8,2358.26 1.2,4.07 5.4,6.42 9.4,5.29 4.1,-1.12 6.4,-5.31 5.3,-9.37 -3.2,-11.36 -319.8,-1150.33 -630.8,-2358.05 -286.8,-1114.24 -627.4,-2516.29 -620.5,-2868.09 0.1,-4.22 -3.2,-7.67 -7.4,-7.74 h -0.2" /></g></g></g><path
     id="path104"
     style="fill:#1a1a1a;fill-opacity:1;fill-rule:nonzero;stroke:none;stroke-width:0.0887546"
     d="m 782.0272,1826.3793 -60.39407,-59.4746 31.33665,-31.8186 60.39407,59.4746 -31.33665,31.8186" /><path
     id="path106"
     style="fill:#eafffc;fill-opacity:1;fill-rule:nonzero;stroke:none;stroke-width:0.0887546"
     d="m 1291.453,1726.7787 c -129.5553,131.5523 -341.20884,133.1765 -472.76206,3.6212 -131.5497,-129.5465 -133.17304,-341.2 -3.62566,-472.7523 129.54292,-131.5524 341.20532,-133.1766 472.75762,-3.6301 131.5523,129.5465 133.1765,341.2088 3.6301,472.7612" /><g
     id="g108"
     transform="matrix(0.08875478,0,0,-0.08875478,0,2495.0933)"
     style="fill:#d0ffff;fill-opacity:1"><g
       clip-path="url(#clipPath114)"
       id="g110"
       style="fill:#d0ffff;fill-opacity:1"><path
         id="path116"
         style="fill:#d0ffff;fill-opacity:1;fill-rule:nonzero;stroke:none"
         d="m 10776.5,7693.4 c -566.8,170.9 -1101.25,478.2 -1552.31,922.4 -222.36,218.9 -411.82,458.8 -568.24,713.3 l 2521.15,177.5 c 0,0 -1214.16,8.7 -2209.51,144.5 -176.09,24 -348.25,36.2 -508.03,41 -239.12,507 -358.95,1056.8 -359.07,1606.7 -0.07,324.1 41.38,648.1 124.49,963.6 l 4889.22,-212.2 -4711.74,729.5 c 179.84,421.3 440.03,816.5 780.88,1162.6 361.51,367.1 780.01,644.5 1227.26,831.8 l 4098,-789.6 c 0.4,-0.5 0.8,-0.9 1.3,-1.3 748.3,-737 1123.5,-1709.7 1123.7,-2683.1 0.1,-485.4 -93,-970.7 -279.6,-1427.3 h -2541.7 l 2410,-287.1 C 15051.6,9251.8 14827.8,8938 14550.8,8656.6 14109,8208 13582.2,7893.4 13021.6,7713.4 l -2245.1,-20" /></g></g><path
     id="path118"
     style="fill:#ffffff;fill-opacity:1;fill-rule:nonzero;stroke:none;stroke-width:0.0887546"
     d="m 1285.036,1256.8488 c -62.865,-61.9065 -146.0815,-95.6333 -234.3126,-94.9588 -88.23109,0.6834 -170.91774,35.6795 -232.82859,98.5445 -61.90913,62.865 -95.63243,146.0814 -94.95519,234.3126 0.67631,88.2311 35.67143,170.9151 98.5391,232.8304 62.86768,61.9064 146.08147,95.6333 234.31258,94.9498 88.2311,-0.6745 170.9151,-35.6705 232.8304,-98.5355 61.9065,-62.865 95.6333,-146.0815 94.9499,-234.3127 -0.6746,-88.231 -35.6706,-170.915 -98.5356,-232.8303 z M 778.06253,1771.662 c -37.71635,-37.1439 -67.03651,-80.5716 -87.14566,-129.0939 -19.41779,-46.8536 -29.46125,-96.4231 -29.85177,-147.3507 -0.39141,-50.9185 8.89058,-100.639 27.58766,-147.7855 19.36361,-48.824 48.01365,-92.6955 85.15486,-130.4163 37.14208,-37.7119 80.57512,-67.0365 129.09474,-87.1394 46.84475,-19.4196 96.42317,-29.4666 147.34174,-29.8571 50.9275,-0.3905 100.6479,8.8932 147.7945,27.585 48.8151,19.3663 92.6955,48.0163 130.4163,85.1602 37.7119,37.1438 67.0364,80.5716 87.1394,129.0938 19.4196,46.8448 29.4666,96.4232 29.8571,147.3418 0.3905,50.9275 -8.8932,100.6479 -27.5939,147.7945 -19.3574,48.8151 -48.0074,92.6954 -85.1513,130.4162 -37.1438,37.7119 -80.5715,67.0276 -129.0938,87.1395 -46.8448,19.4195 -96.4232,29.4665 -147.3507,29.8571 -50.9186,0.3905 -100.63901,-8.8933 -147.78557,-27.5939 -48.81956,-19.3574 -92.69726,-48.0074 -130.4136,-85.1513" /><path
     id="path120"
     style="fill:#000000;fill-opacity:1;fill-rule:nonzero;stroke:none;stroke-width:0.0887546"
     d="m 525.75223,2086.1734 -58.29059,-57.4066 c -10.67098,-10.5086 -10.80323,-27.6826 -0.29466,-38.3509 l 223.83423,-227.2921 c 10.50852,-10.6684 27.67904,-10.8015 38.35005,-0.2929 l 58.29059,57.3977 c 10.67188,10.5085 10.80321,27.6826 0.29462,38.3509 l -223.83419,227.301 c -10.50857,10.6683 -27.67906,10.8014 -38.35005,0.2929" /><path
     id="path122"
     style="fill:#1a1a1a;fill-opacity:1;fill-rule:nonzero;stroke:none;stroke-width:0.0887546"
     d="m 1053.3328,1132.6187 c -0.9496,0 -1.8905,0 -2.8313,0.01 -46.7027,0.355 -92.16291,9.5678 -135.11135,27.3631 -44.46794,18.4344 -84.28597,45.3182 -118.3483,79.9059 -34.0632,34.5878 -60.33197,74.8114 -78.07756,119.5616 -17.14123,43.2147 -25.65017,88.808 -25.29245,135.5108 0.35853,46.7028 9.56595,92.1629 27.36838,135.1114 18.42995,44.4661 45.31287,84.2816 79.9024,118.3457 34.58953,34.064 74.81409,60.3355 119.55981,78.0775 43.2147,17.1386 88.80797,25.6236 135.51077,25.2951 46.7028,-0.3638 92.1629,-9.5677 135.1114,-27.3719 44.4661,-18.4255 84.2816,-45.3093 118.3456,-79.897 34.0641,-34.5967 60.3355,-74.8204 78.0776,-119.5617 17.1474,-43.2147 25.6501,-88.808 25.2951,-135.5108 -0.355,-46.7116 -9.5678,-92.1629 -27.372,-135.1114 -18.4255,-44.4661 -45.3093,-84.2815 -79.897,-118.3456 -34.5877,-34.0641 -74.8203,-60.3355 -119.5616,-78.0776 -42.3449,-16.8013 -86.9708,-25.304 -132.6795,-25.304 z m -0.1509,723.7064 c -46.2856,0 -91.47067,-8.618 -134.34808,-25.6235 -45.30668,-17.9639 -86.038,-44.5637 -121.05975,-79.0538 -35.02261,-34.4901 -62.24374,-74.8115 -80.90621,-119.8367 -18.0261,-43.4899 -27.34974,-89.5181 -27.71186,-136.8067 -0.36305,-47.2885 8.25326,-93.4498 25.6093,-137.2148 17.97018,-45.3093 44.56906,-86.0389 79.05828,-121.0615 34.48922,-35.0227 74.80696,-62.2438 119.83586,-80.9089 43.48981,-18.0261 89.51806,-27.3453 136.80666,-27.7092 47.2796,-0.3639 93.4498,8.2542 137.2148,25.6146 45.3094,17.964 86.0389,44.5638 121.0616,79.0539 35.0226,34.4901 62.2436,74.8114 80.8999,119.8367 18.0261,43.4898 27.3542,89.5181 27.7181,136.8066 0.3639,47.2886 -8.2542,93.4499 -25.6146,137.2149 -17.964,45.3093 -44.5638,86.0388 -79.0539,121.0615 l -1.6064,-1.5887 1.6064,1.5887 c -34.4901,35.0226 -74.8114,62.2437 -119.8367,80.9 -43.4898,18.0261 -89.5181,27.3542 -136.8066,27.7181 -0.9497,0 -1.9082,0.01 -2.8668,0.01" /><path
     id="path124"
     style="fill:#1a1a1a;fill-opacity:1;fill-rule:nonzero;stroke:none;stroke-width:0.0887546"
     d="m 564.64546,2076.6855 -88.29236,-86.953 c -4.28509,-4.2159 -4.33834,-11.1122 -0.11805,-15.399 l 6.99033,-7.1004 c 4.2194,-4.2868 11.11387,-4.3401 15.39895,-0.1154 l 88.29236,86.9442 c 4.28508,4.2247 4.33833,11.121 0.11804,15.399 l -6.99032,7.1003 c -4.2194,4.2869 -11.11387,4.3401 -15.39895,0.1243" /><g
     transform="matrix(0.14068697,0,0,-0.14068697,0,2495.0933)"
     id="g126"
     style="fill:#cccccc"><path
       id="path128"
       style="fill:#cccccc;fill-opacity:1;fill-rule:nonzero;stroke:none"
       d="m 16300,1824.28 c 0,-266.29 -2645.7,-482.17 -5909.2,-482.17 -3263.59,0 -5909.23,215.88 -5909.23,482.17 0,266.35 2645.64,482.23 5909.23,482.23 3263.5,0 5909.2,-215.88 5909.2,-482.23" /></g><g
     transform="matrix(0.09802965,0,0,-0.09802965,0,2495.0933)"
     id="g130"
     style="fill:#550000"><path
       id="path132"
       style="fill:#550000;fill-opacity:1;fill-rule:nonzero;stroke:none"
       d="m 16202.8,9668.48 c 0,0 -375.8,-447.36 -582.1,-1195.03 -190.6,-690.27 -746.2,-3238.76 -746.2,-3238.76 H 16300 l -97.2,4433.79" /></g><path
     id="path134"
     style="fill:#666666;fill-opacity:1;fill-rule:nonzero;stroke:none;stroke-width:0.0887546"
     d="m 1048.0253,2110.0129 c 0,0 -25.0733,-0.9053 -37.9871,13.3576 -12.43454,13.7304 -15.66519,51.4245 3.4526,78.8941 0,0 13.3842,14.2629 33.3541,20.1562 0,0 -17.0321,-39.5579 -16.3664,-66.3885 0.6745,-26.8306 17.5468,-46.0194 17.5468,-46.0194" /><path
     id="path136"
     style="fill:#2b0000;fill-opacity:1;fill-rule:nonzero;stroke:none;stroke-width:0.0887546"
     d="m 1031.3216,2205.7083 c -21.2301,-34.286 -15.2924,-98.9616 16.7037,-95.6954 46.1081,4.7129 166.6548,42.5491 166.6548,42.5491 l 7.1004,77.4918 c 0,0 -107.4998,5.5294 -171.8914,-6.7365 -8.698,-1.6509 -13.9877,-10.2157 -18.5675,-17.609" /><path
     id="path138"
     style="fill:#916f6f;fill-opacity:1;fill-rule:nonzero;stroke:none;stroke-width:0.0887546"
     d="m 1212.5412,2159.831 c 0,0 -52.2323,-16.3664 -57.6907,0 -5.4584,16.3752 -1.2603,45.7442 12.7719,54.3268 14.0321,8.5737 48.8062,3.2129 48.8062,3.2129 l -3.8874,-57.5397" /><g
     transform="matrix(0.10933168,0,0,-0.10933168,0,2495.0933)"
     id="g140"><path
       id="path142"
       style="fill:#1c056d;fill-opacity:1;fill-rule:nonzero;stroke:none"
       d="m 12256.8,4471.11 c 0,0 -579.4,74.37 -859.7,-463.94 -258.6,-496.49 -15,-1326.87 1019.5,-1416.9 1034.6,-89.95 3883.4,142.47 3883.4,142.47 v 1538.27 l -4043.2,200.1" /></g><g
     transform="matrix(0.12485135,0,0,-0.12485135,0,2495.0933)"
     id="g144"><path
       id="path146"
       style="fill:#1b3d9e;fill-opacity:1;fill-rule:nonzero;stroke:none"
       d="m 15476.9,3818.59 c 0,0 823.1,-350.9 428.9,-1407.48 -371.3,-995.38 -6141.74,-526.63 -6172.73,-441.46 -37.39,102.51 -152.34,917.04 -32.49,964.74 119.85,47.7 4423.62,919.31 4423.62,919.31 l 1352.7,-35.11" /></g><g
     id="g148"
     transform="matrix(0.08875478,0,0,-0.08875478,0,2495.0933)"><g
       clip-path="url(#clipPath154)"
       id="g150"><g
         transform="scale(1.35751)"
         id="g156"><path
           id="path158"
           style="fill:#1b2387;fill-opacity:1;fill-rule:nonzero;stroke:none"
           d="m 14773.8,3561.89 c -563,0 -1135.5,92.23 -1476.7,159.12 752.9,153.66 1338.9,272.33 1338.9,272.33 l 1401.8,-36.39 c 0,0 128.7,-54.88 262.2,-186.22 -204.9,-62.84 -615.5,-162.51 -1250.9,-200.88 -90.8,-5.46 -182.9,-7.96 -275.3,-7.96" /></g><g
         transform="scale(1.3819)"
         id="g160"><path
           id="path162"
           style="fill:#1c056d;fill-opacity:1;fill-rule:nonzero;stroke:none"
           d="m 9820.52,2479.55 c -9.62,0 -17.51,7.68 -17.73,17.37 -0.21,9.77 7.53,17.95 17.37,18.17 13.1,0.28 1331.04,30.32 2791.94,124.1 1932.2,124.1 3235.9,302.84 3770.1,516.9 9.1,3.69 19.5,-0.73 23.1,-9.85 3.7,-9.11 -0.7,-19.46 -9.9,-23.08 -300.3,-120.41 -833.2,-229.1 -1583.6,-323.11 -599.6,-75.11 -1338.9,-141.18 -2197.5,-196.32 -1461.7,-93.85 -2780.24,-123.89 -2793.34,-124.18 h -0.44" /></g></g></g><g
     transform="matrix(0.12229787,0,0,-0.12229787,0,2495.0933)"
     id="g164"
     style="fill:#800000"><path
       id="path166"
       style="fill:#800000;fill-opacity:1;fill-rule:nonzero;stroke:none"
       d="m 14795.3,8593.8 c 0,0 947.3,-396.11 1225.9,-966.85 278.8,-570.77 -716.7,-3530.58 -902.5,-3583.7 -185.8,-53.05 -2110.4,-92.89 -2256.4,0 -146,92.89 -73.8,3427.93 125.3,3706.66 199.1,278.73 950.9,843.89 950.9,843.89 h 856.8" /></g><g
     id="g168"
     transform="matrix(0.08875478,0,0,-0.08875478,0,2495.0933)"
     style="fill:#550000"><g
       clip-path="url(#clipPath174)"
       id="g170"
       style="fill:#550000"><g
         transform="scale(1.27125)"
         id="g176"
         style="fill:#550000"><path
           id="path178"
           style="fill:#550000;fill-opacity:1;fill-rule:nonzero;stroke:none"
           d="m 15453.3,7384.06 c 0,11.25 8.9,20.45 20.2,20.61 120.7,2.2 741.2,11.88 781.7,-20.92 44.8,-36.27 -12.2,-1052.59 -84.8,-1057.78 -72.6,-5.19 -674.1,-36.34 -694.9,15.58 -18.9,47.43 -21.8,899.58 -22.2,1042.51" /></g></g></g><g
     transform="matrix(0.11215142,0,0,-0.11215142,0,2495.0933)"
     id="g180"
     style="fill:#916f6f"><path
       id="path182"
       style="fill:#916f6f;fill-opacity:1;fill-rule:nonzero;stroke:none"
       d="m 15715,11527 c -135.5,144.3 -611.2,285.9 -984.8,196.4 -210.6,-50.4 -368.2,-225.9 -403.4,-439.5 -43.9,-266 -83.7,-533.4 -101,-802.6 -14.6,-224.8 -40.1,-516.16 75.9,-720.95 76.3,-134.6 267.2,-145.03 404.5,-147.3 22.8,-0.38 239.4,21.65 234.3,51.7 49.3,-289.42 220.6,-945.39 250.1,-1032.8 41.3,-122.84 850.3,340.29 979.9,501.77 129.5,161.49 -592.6,1103.18 -592.6,1103.18 71.3,201.1 325.6,1089.4 137.1,1290.1" /></g><g
     transform="matrix(0.10164996,0,0,-0.10164996,0,2495.0933)"
     id="g184"
     style="fill:#483737"><path
       id="path186"
       style="fill:#483737;fill-opacity:1;fill-rule:nonzero;stroke:none"
       d="m 16240.4,12133.6 c 0,0 -345.6,-488.1 -266.3,-537.6 79.5,-49.4 325.9,72.3 325.9,72.3 -1.9,-34.4 -23.8,-64.4 -56.1,-76.6 -93.1,-35.4 -274.2,-96.2 -315,-22.1 -71.7,130.1 311.5,564 311.5,564" /></g><g
     transform="matrix(0.10528535,0,0,-0.10528535,0,2495.0933)"
     id="g188"
     style="fill:#916f6f"><path
       id="path190"
       style="fill:#916f6f;fill-opacity:1;fill-rule:nonzero;stroke:none"
       d="m 15914.8,10295 c 0,0 205.7,128 320.2,281.6 0,0 65,-474.3 -238.1,-668.92 l -82.1,387.32" /></g><g
     transform="matrix(0.11225615,0,0,-0.11225615,0,2495.0933)"
     id="g192"
     style="fill:#1a1a1a"><path
       id="path194"
       style="fill:#1a1a1a;fill-opacity:1;fill-rule:nonzero;stroke:none"
       d="m 15907.1,11647.1 c 164.2,-85 392.9,-445.8 241.1,-741.4 -169.8,-330.6 -535.7,-670.5 -584.8,-678.3 -49.1,-7.9 -115.1,384.3 -115.1,384.3 354.2,70.6 193.3,418.9 137.8,416.7 -55.4,-2.2 -165.6,-230.4 -198.7,-187.7 -25.4,32.7 12.8,388.8 32.1,553.5 l -1230.3,-280 c -98.574,65.716 -19.621,805.034 205.612,763.904 33.469,8.663 -302.814,-318.635 -295.509,-283.211 25.13,121.859 150.672,241.417 261.175,336.327 73.197,62.867 170.474,113.305 298.922,142.68 706.2,161.5 1247.7,-426.8 1247.7,-426.8"
       sodipodi:nodetypes="cccccccccsssc" /></g><g
     id="g196"
     transform="matrix(0.08875478,0,0,-0.08875478,0,2495.0933)"><g
       clip-path="url(#clipPath202)"
       id="g198"><g
         transform="scale(1.20625)"
         id="g204"><path
           id="path206"
           style="fill:#000000;fill-opacity:1;fill-rule:nonzero;stroke:none"
           d="m 16134.2,11366.9 v 0 0 c 0,0 -3.3,21.6 -8.6,55.4 -0.2,5.7 -0.3,11.7 -0.3,18.1 0,125.4 27.2,374.8 42.6,506.9 v 0 0 c 0,0 -546.4,-337.9 -1022.4,-337.9 -93.5,0 -184.2,13.1 -267.6,44.3 0,0 -22.1,0.09 -33.3,109.489 107.218,232.978 840.845,243.341 970.5,243.341 23,0 6.1,-9.53 -10.4,-43.93 -16.5,-34.4 -32.6,-68.8 -8.2,-68.8 5.4,0 13,1.8 22.9,5.6 95.4,36.7 404.5,141.2 460.3,141.2 4.6,0 7.5,-0.7 8.4,-2.2 11.9,-19.9 -153.9,-671.5 -153.9,-671.5"
           sodipodi:nodetypes="ccccssccsccssscscc" /></g></g></g><g
     transform="matrix(0.10298927,0,0,-0.10298927,0,2495.0933)"
     id="g208"
     style="fill:#483737"><path
       id="path210"
       style="fill:#483737;fill-opacity:1;fill-rule:nonzero;stroke:none"
       d="m 16288.9,11254 -116.1,37.1 c -7.2,2.3 -14.8,-1.6 -17.1,-8.8 -2.3,-7.2 1.7,-14.8 8.8,-17.1 l 40.5,-13 c -43.5,-252.1 -487.1,-240.4 -491.5,-240.2 -7.4,0.6 -13.8,-5.7 -14.1,-13.2 -0.2,-7.5 5.6,-13.8 13.2,-14.1 1,0 6.3,-0.2 15.2,-0.2 35.6,0 127.6,2.6 224.6,26.4 161.3,39.6 257.5,120.2 278.7,233 l 49.4,-15.9 c 1.4,-0.4 2.9,-0.6 4.2,-0.6 5.8,0 11.2,3.7 13,9.5 2.3,7.1 -1.7,14.8 -8.8,17.1" /></g><g
     transform="matrix(0.10677821,0,0,-0.10677821,0,2495.0933)"
     id="g212"
     style="fill:#d1ffff;fill-opacity:1"><path
       id="path214"
       style="fill:#d1ffff;fill-opacity:1;fill-rule:nonzero;stroke:none"
       d="m 16278.2,11538.4 -253.7,-17.3 c -11,121.2 -112.8,216.2 -236.9,216.2 -98.5,0 -183,-59.8 -219.2,-145 -86.4,50.1 -154,32.5 -191,13.8 -16.7,114.9 -115.5,203.3 -235.1,203.3 -131.5,0 -238.1,-106.6 -238.1,-238 0,-131.5 106.6,-238.1 238.1,-238.1 128.3,0 232.6,101.6 237.5,228.6 19.2,14.2 82.8,50.2 176.3,-8.2 -4.2,-17.5 -6.5,-35.6 -6.5,-54.4 0,-131.4 106.5,-238 238,-238 125.4,0 228,97.1 237.1,220.2 l 256.2,17.6 c 10.9,0.7 19.1,10.2 18.4,21 -0.8,10.9 -10.4,19.1 -21.1,18.3" /></g><g
     transform="matrix(0.1125091,0,0,-0.1125091,0,2495.0933)"
     id="g216"
     style="fill:#550000"><path
       id="path218"
       style="fill:#550000;fill-opacity:1;fill-rule:nonzero;stroke:none"
       d="m 15198,8584.81 151.7,-229.28 c 79.1,-119.51 246.8,-139.49 351.2,-41.34 241.3,226.91 599.1,629.67 520.1,963.56 l -138.5,63.69 c 0,0 -440.7,-651.38 -884.5,-756.63" /></g><g
     transform="matrix(0.10451851,0,0,-0.10451851,0,2495.0933)"
     id="g220"
     style="fill:#550000"><path
       id="path222"
       style="fill:#550000;fill-opacity:1;fill-rule:nonzero;stroke:none"
       d="m 16300,9262.38 -200.7,-158.84 c -98.2,-77.72 -244.2,-20.08 -261.8,103.9 -27.4,192.11 -34.8,449.29 69.8,635.13 l 212.4,115.09 180.3,-695.28" /></g><g
     transform="matrix(0.10490282,0,0,-0.10490282,0,2495.0933)"
     id="g224"
     style="fill:#2b0000"><path
       id="path226"
       style="fill:#2b0000;fill-opacity:1;fill-rule:nonzero;stroke:none"
       d="m 16300,8512.77 c 0,-57.47 -46.6,-104.08 -104.1,-104.08 -57.5,0 -104.1,46.61 -104.1,104.08 0,57.51 46.6,104.13 104.1,104.13 57.5,0 104.1,-46.62 104.1,-104.13" /></g><g
     transform="matrix(0.10472709,0,0,-0.10472709,0,2495.0933)"
     id="g228"
     style="fill:#2b0000"><path
       id="path230"
       style="fill:#2b0000;fill-opacity:1;fill-rule:nonzero;stroke:none"
       d="m 16300,7757.95 c 0,-57.62 -46.7,-104.32 -104.3,-104.32 -57.7,0 -104.4,46.7 -104.4,104.32 0,57.63 46.7,104.33 104.4,104.33 57.6,0 104.3,-46.7 104.3,-104.33" /></g><g
     transform="matrix(0.1044697,0,0,-0.1044697,0,2495.0933)"
     id="g232"
     style="fill:#2b0000"><path
       id="path234"
       style="fill:#2b0000;fill-opacity:1;fill-rule:nonzero;stroke:none"
       d="m 16300,7006.09 c 0,-57.77 -46.8,-104.58 -104.6,-104.58 -57.8,0 -104.6,46.81 -104.6,104.58 0,57.69 46.8,104.5 104.6,104.5 57.8,0 104.6,-46.81 104.6,-104.5" /></g><g
     transform="matrix(0.10423361,0,0,-0.10423361,0,2495.0933)"
     id="g236"
     style="fill:#2b0000"><path
       id="path238"
       style="fill:#2b0000;fill-opacity:1;fill-rule:nonzero;stroke:none"
       d="m 16300,6249.15 c 0,-57.9 -46.9,-104.82 -104.8,-104.82 -57.9,0 -104.8,46.92 -104.8,104.82 0,57.91 46.9,104.83 104.8,104.83 57.9,0 104.8,-46.92 104.8,-104.83" /></g><g
     transform="matrix(0.10423361,0,0,-0.10423361,0,2495.0933)"
     id="g240"
     style="fill:#2b0000"><path
       id="path242"
       style="fill:#2b0000;fill-opacity:1;fill-rule:nonzero;stroke:none"
       d="m 16300,5476.42 c 0,-57.9 -46.9,-104.82 -104.8,-104.82 -57.9,0 -104.8,46.92 -104.8,104.82 0,57.81 46.9,104.73 104.8,104.73 57.9,0 104.8,-46.92 104.8,-104.73" /></g><g
     transform="matrix(0.12579303,0,0,-0.12579303,0,2495.0933)"
     id="g244"
     style="fill:#800000"><path
       id="path246"
       style="fill:#800000;fill-opacity:1;fill-rule:nonzero;stroke:none"
       d="m 15576.1,7415.03 c 0,0 723.9,-1683.39 646.8,-2570.14 -55.8,-641.56 -2879.1,-1054.88 -2879.1,-1054.88 l -312.9,504.47 2093.4,1024.69 c 0,0 -809.2,1817.55 451.8,2095.86" /></g><g
     transform="matrix(0.11671963,0,0,-0.11671963,0,2495.0933)"
     id="g248"
     style="fill:#550000"><path
       id="path250"
       style="fill:#550000;fill-opacity:1;fill-rule:nonzero;stroke:none"
       d="m 14770.8,4984.11 1529.2,748.55 c 0,0 -385.6,795.16 -304.4,1321.82 0,0 -207.9,-776.31 127.3,-1241.3 0,0 -1323.9,-761.24 -1352.1,-829.07" /></g><g
     transform="matrix(0.12020592,0,0,-0.12020592,0,2495.0933)"
     id="g252"
     style="fill:#550000"><path
       id="path254"
       style="fill:#550000;fill-opacity:1;fill-rule:nonzero;stroke:none"
       d="m 16300,7759.65 c 0,0 -615.8,130.18 -768.3,-909.78 0,0 -58.9,988.14 695.4,1034.88 l 72.9,-125.1" /></g><g
     transform="matrix(0.11427355,0,0,-0.11427355,0,2495.0933)"
     id="g256"
     style="fill:#550000"><path
       id="path258"
       style="fill:#550000;fill-opacity:1;fill-rule:nonzero;stroke:none"
       d="m 16300,4500.68 -949.6,-198.44 c 0,0 715.9,-17.09 830,24.93 0,0 97.7,84.35 119.6,173.51" /></g><g
     transform="matrix(0.11945772,0,0,-0.11945772,0,2495.0933)"
     id="g260"><path
       id="path262"
       style="fill:#1b3d9e;fill-opacity:1;fill-rule:nonzero;stroke:none"
       d="m 11075,4122.66 c 0,0 5169.3,112.56 5197.1,61.08 27.9,-51.49 18.3,-234.19 -31,-242.81 -49.4,-8.55 -5044.5,-115.54 -5113.2,-72.66 -68.7,42.94 -52.9,254.39 -52.9,254.39" /></g><g
     id="g264"
     transform="matrix(0.08875478,0,0,-0.08875478,0,2495.0933)"><g
       clip-path="url(#clipPath270)"
       id="g266"><g
         transform="scale(1.18869)"
         id="g272"><path
           id="path274"
           style="fill:#1c056d;fill-opacity:1;fill-rule:nonzero;stroke:none"
           d="m 16270.3,4815.14 c 0,0 29.7,-435.1 0,-446.62 -29.7,-11.53 -3634.1,-83.63 -3732.1,-37.27 -98,46.44 -132.2,362.5 -62.9,384.12 69.3,21.62 3795,99.77 3795,99.77" /></g></g></g><g
     transform="matrix(0.10566966,0,0,-0.10566966,0,2495.0933)"
     id="g276"
     style="fill:#000000"><path
       id="path278"
       style="fill:#000000;fill-opacity:1;fill-rule:nonzero;stroke:none"
       d="m 11026.1,6964.49 c -10.9,23.35 6,50.14 31.8,50.39 464.8,4.96 3773.6,38.56 3879.4,-14.95 113.8,-57.53 1362.7,-2253.68 1305.2,-2292.07 -57.6,-38.3 -3599.5,-94.74 -3722.5,-47.28 -220.1,84.99 -1260.6,1804.41 -1493.9,2303.91" /></g><g
     transform="matrix(0.09080856,0,0,-0.09080856,0,2495.0933)"
     id="g280"
     style="fill:#1a1a1a"><path
       id="path282"
       style="fill:#1a1a1a;fill-opacity:1;fill-rule:nonzero;stroke:none"
       d="m 16184,6802.58 c 116,-152.96 101.3,-359.28 -32.8,-460.93 -134,-101.65 -336.7,-60.11 -452.6,92.85 -116,152.96 -101.3,359.28 32.7,460.93 134.1,101.65 336.7,60.11 452.7,-92.85" /></g><path
     id="path284"
     style="fill:#ffffff;fill-opacity:1;fill-rule:nonzero;stroke:none;stroke-width:0.0887546"
     d="m 663.18279,1471.3335 c -29.25801,0 -53.06116,-23.804 -53.06116,-53.0575 v -128.659 c 0,-29.2624 23.80315,-53.0576 53.06116,-53.0576 h 319.88284 c 29.26247,0 53.06647,23.7952 53.06647,53.0576 v 128.659 c 0,29.2535 -23.804,53.0575 -53.06647,53.0575 H 663.18279" /><path
     id="path286"
     style="fill:#ff6600;fill-opacity:1;fill-rule:nonzero;stroke:none;stroke-width:0.0887546"
     d="M 983.06563,1453.3518 H 663.18279 c -19.36985,0 -35.07234,-15.7096 -35.07234,-35.0758 v -128.659 c 0,-19.3751 15.70249,-35.0759 35.07234,-35.0759 h 319.88284 c 19.37517,0 35.07597,15.7008 35.07597,35.0759 v 128.659 c 0,19.3662 -15.7008,35.0758 -35.07597,35.0758" /><path
     id="path288"
     style="fill:#ffffff;fill-opacity:1;fill-rule:nonzero;stroke:none;stroke-width:0.0887546"
     d="m 727.82291,1316.3943 c 0.3275,-1.5265 1.01087,-2.6892 2.05023,-3.488 1.03843,-0.7899 2.17358,-1.1982 3.40459,-1.2248 1.23014,-0.027 2.39105,0.3106 3.4854,1.0206 1.09348,0.7101 1.85853,1.8106 2.297,3.284 1.47597,13.0114 2.50202,25.8897 3.07535,38.6349 0.57427,12.7363 0.88846,25.6679 0.94344,38.7947 -0.0553,1.2071 -0.38342,2.2012 -0.98425,2.991 -0.60268,0.7988 -1.35355,1.3846 -2.25525,1.7663 -0.90264,0.3816 -1.88695,0.5769 -2.95381,0.5769 -1.06592,0 -2.06441,-0.2041 -2.99367,-0.6213 -0.93013,-0.4082 -1.72273,-0.994 -2.37861,-1.7573 -0.65594,-0.7634 -1.06599,-1.7485 -1.23014,-2.9556 -0.0553,-6.1773 0.0539,-12.2304 0.32837,-18.1681 0.27245,-5.9288 0.27245,-11.9907 0,-18.1681 -0.27425,0.1065 -0.57427,0.2219 -0.90264,0.3284 -0.32837,0.1065 -0.6843,0.2219 -1.06592,0.3284 -3.06297,-0.053 -6.01584,-0.1952 -8.85861,-0.4083 -2.84371,-0.2218 -5.65992,-0.3816 -8.44857,-0.497 -2.78872,-0.1065 -5.59155,-0.08 -8.4069,0.08 -2.81794,0.1686 -5.70072,0.5769 -8.65359,1.2337 l -0.82096,32.8127 c -0.11003,1.8017 -0.69675,3.1419 -1.76267,4.0206 -1.06685,0.8697 -2.24281,1.3047 -3.52714,1.3047 -1.28605,0 -2.50195,-0.435 -3.65048,-1.3047 -1.14846,-0.8787 -1.83276,-2.1923 -2.05023,-3.9408 v -74.6427 c 0.3275,-1.5266 1.01093,-2.6538 2.05023,-3.3638 1.03843,-0.7101 2.17365,-1.0474 3.40466,-1.0207 1.23014,0.027 2.40523,0.4349 3.5262,1.2248 1.12011,0.7988 1.8994,1.9348 2.3378,3.4082 l 0.49259,30.2653 c 3.00613,-0.5414 5.91819,-0.8697 8.73527,-0.9851 2.81528,-0.1065 5.61904,-0.098 8.40776,0.044 2.78865,0.1331 5.60393,0.3106 8.44764,0.5325 2.84283,0.213 5.79571,0.355 8.85861,0.4083 0.21834,0.1065 0.41098,0.1775 0.57427,0.2041 0.16421,0.027 0.35499,0.098 0.57426,0.2041 -0.32844,-5.414 -0.61507,-10.5618 -0.86096,-15.461 -0.24583,-4.8904 -0.64343,-10.0471 -1.18927,-15.4611" /><path
     id="path290"
     style="fill:#ffffff;fill-opacity:1;fill-rule:nonzero;stroke:none;stroke-width:0.0887546"
     d="m 756.61314,1323.6101 c -1.53189,-0.213 -2.7354,-0.7367 -3.60875,-1.5532 -0.87601,-0.8254 -1.38191,-1.7396 -1.51771,-2.7514 -0.13759,-1.0118 0.10917,-2.0236 0.73842,-3.0354 0.62752,-1.0118 1.68106,-1.784 3.15703,-2.3343 5.68741,-0.71 10.82811,-1.1804 15.42117,-1.3934 4.59305,-0.2219 9.07601,-0.3195 13.45167,-0.2929 4.37379,0.035 8.871,0.142 13.49248,0.3284 4.62055,0.1952 9.7737,0.3195 15.46197,0.3728 1.47597,0.4348 2.56945,1.136 3.28037,2.0946 0.71007,0.9585 1.05261,1.9526 1.02512,2.991 -0.0273,1.0384 -0.43754,1.997 -1.23014,2.8668 -0.79347,0.8787 -1.95524,1.4822 -3.4854,1.8106 -2.29699,0 -4.3481,0.01 -6.15157,0.035 -1.80527,0.036 -3.56887,0.062 -5.29067,0.089 -1.72273,0.027 -3.48633,0.062 -5.29067,0.1242 -1.80528,0.053 -3.85551,0.08 -6.15164,0.08 0.0533,5.7425 0.0941,11.4405 0.12248,17.1031 0.0266,5.6537 0.095,11.2896 0.20502,16.89 0.10917,5.6093 0.27339,11.2364 0.49259,16.8989 0.21747,5.6626 0.57427,11.3606 1.06599,17.1031 -0.0553,1.5354 -0.56095,2.8135 -1.51684,3.8519 -0.95769,1.0385 -2.0511,1.7574 -3.28124,2.1391 -1.23014,0.3816 -2.4754,0.355 -3.73216,-0.089 -1.25857,-0.4349 -2.21446,-1.3668 -2.8712,-2.7869 -0.54677,-5.9022 -0.86096,-11.8222 -0.94351,-17.7599 -0.0816,-5.9288 -0.0683,-11.8576 0.0419,-17.7953 0.1083,-5.9288 0.25828,-11.8665 0.45085,-17.7953 0.19085,-5.9377 0.2867,-11.8577 0.2867,-17.7599 -2.46028,0.053 -4.62148,0.053 -6.48001,0 -1.85939,-0.053 -3.64955,-0.098 -5.37228,-0.1242 -1.72186,-0.027 -3.49964,0 -5.33154,0.08 -1.83277,0.08 -3.97799,0.284 -6.43827,0.6124" /><path
     id="path292"
     style="fill:#ffffff;fill-opacity:1;fill-rule:nonzero;stroke:none;stroke-width:0.0887546"
     d="m 873.74195,1390.1318 c -1.14846,1.9704 -2.29699,3.1597 -3.44459,3.568 -1.14847,0.4171 -2.20201,0.4171 -3.1579,0 -0.95762,-0.4083 -1.76353,-1.0385 -2.42034,-1.8817 -0.65588,-0.852 -1.09435,-1.5443 -1.31175,-2.0946 -0.98431,-2.2987 -1.92776,-4.988 -2.83039,-8.0766 -0.90177,-3.0887 -1.77692,-6.3549 -2.6245,-9.8074 -0.84852,-3.4437 -1.72273,-6.985 -2.6245,-10.6151 -0.90264,-3.639 -1.83277,-7.1536 -2.78866,-10.5441 -0.95768,-3.3904 -1.96856,-6.5767 -3.03541,-9.5589 -1.06592,-2.9733 -2.22863,-5.556 -3.4854,-7.7483 -1.31268,4.7573 -2.3378,9.5412 -3.07622,14.3517 -0.73755,4.8194 -1.34024,9.6388 -1.80441,14.4848 -0.46509,4.8371 -0.87514,9.6654 -1.23014,14.4759 -0.35679,4.8105 -0.83427,9.5943 -1.43603,14.3516 -0.27425,1.9704 -0.88845,3.4171 -1.84521,4.349 -0.95769,0.9319 -2.05023,1.4023 -3.28038,1.4378 -1.23107,0.027 -2.46121,-0.3816 -3.69135,-1.2337 -1.23014,-0.852 -2.22863,-2.0946 -2.99454,-3.7366 0.21833,-6.7187 0.71092,-13.5528 1.47683,-20.5023 0.76511,-6.9406 1.6535,-13.6682 2.66531,-20.174 1.0118,-6.5146 2.06448,-12.6475 3.15789,-18.4166 1.09348,-5.769 2.05117,-10.7837 2.87126,-15.0528 0.49259,-1.1982 1.32507,-2.1479 2.50196,-2.8313 1.17516,-0.6834 2.44697,-1.0739 3.81383,-1.1893 1.36681,-0.1065 2.6928,0.044 3.97799,0.4527 1.28426,0.4082 2.2277,1.1094 2.82946,2.0946 3.11796,4.207 5.72828,8.7246 7.8335,13.5351 2.10442,4.8105 3.86882,9.5944 5.29067,14.3516 1.42185,4.7573 2.61119,9.3104 3.56794,13.6594 0.95589,4.3401 1.8994,8.1566 2.83039,11.4405 1.20179,-5.201 2.63695,-10.3399 4.30643,-15.4256 1.66681,-5.0856 3.32118,-9.8784 4.96137,-14.396 1.64105,-4.5088 3.15876,-8.6092 4.55312,-12.3014 1.39436,-3.6922 2.39105,-6.7365 2.99368,-9.1418 0.32843,-1.2603 1.01093,-2.352 2.05469,-3.2839 1.02958,-0.9319 2.1656,-1.5177 3.39933,-1.7662 1.23367,-0.2397 2.40523,-0.089 3.52354,0.4526 1.12717,0.5503 1.93488,1.642 2.42301,3.284 0.98518,6.6743 2.12126,13.1889 3.40818,19.5615 1.27807,6.3726 2.55614,12.6476 3.80758,18.8249 1.2603,6.1773 2.43186,12.328 3.53246,18.4521 1.09169,6.1241 1.88156,12.2481 2.37861,18.3722 0.15976,1.8106 -0.23964,3.1863 -1.18934,4.1449 -0.95855,0.9585 -2.06794,1.4644 -3.3283,1.5177 -1.25144,0.053 -2.49396,-0.3373 -3.7277,-1.1893 -1.23367,-0.8432 -2.04132,-2.2011 -2.42301,-4.0561 -1.09168,-4.8105 -2.12119,-9.5056 -3.07089,-14.0676 -0.95855,-4.5709 -1.84608,-9.1063 -2.6715,-13.615 -0.81656,-4.5176 -1.57096,-9.0707 -2.25439,-13.6594 -0.68343,-4.5975 -1.29584,-9.3281 -1.84608,-14.1919 -1.19819,4.3224 -2.35204,8.6536 -3.44193,13.0026 -1.09521,4.349 -2.25612,8.7246 -3.48626,13.118 -1.23015,4.4111 -2.62451,8.8754 -4.18302,13.4108 -1.55858,4.5443 -3.37716,9.1684 -5.45489,13.8635" /><path
     id="path294"
     style="fill:#ffffff;fill-opacity:1;fill-rule:nonzero;stroke:none;stroke-width:0.0887546"
     d="m 926.48446,1317.7878 c 0.32843,-1.5266 1.06505,-2.6538 2.20999,-3.3638 1.15386,-0.7101 2.4053,-1.0385 3.78095,-0.9852 1.35795,0.062 2.66265,0.497 3.88746,1.3136 1.23374,0.8254 2.06801,1.9703 2.50289,3.4437 0,6.1329 -0.0533,12.0351 -0.15976,17.7243 -0.11536,5.6803 -0.23072,11.334 -0.37277,16.9344 -0.13313,5.6093 -0.25734,11.263 -0.36385,16.9788 -0.11543,5.7158 -0.19531,11.6357 -0.24856,17.7598 3.06204,0.4349 6.32824,0.7101 9.79853,0.8166 3.47921,0.1153 7.00275,0.1509 10.58847,0.1242 3.57679,-0.027 7.1004,-0.098 10.57954,-0.2041 3.47036,-0.1065 6.76312,-0.1598 9.87841,-0.1598 1.48223,0.4349 2.57391,1.1361 3.28397,2.0857 0.71,0.9586 1.05614,1.9615 1.02066,3 -0.0266,1.0384 -0.43488,1.997 -1.22482,2.8668 -0.79879,0.8786 -1.9615,1.4733 -3.48806,1.8016 -3.44366,0 -7.16251,0.1155 -11.15647,0.3285 -3.99397,0.2219 -8.03233,0.3816 -12.14166,0.497 -4.10047,0.1065 -8.12991,0.1242 -12.09725,0.035 -3.95849,-0.08 -7.64179,-0.3639 -11.03227,-0.861 -1.25144,0.2752 -2.46733,-0.01 -3.64782,-0.8609 -1.17156,-0.8432 -1.89933,-2.2544 -2.17444,-4.2247 0,-6.4525 0.0266,-12.7807 0.0799,-18.9847 0.0619,-6.2039 0.12422,-12.3901 0.21302,-18.5408 0.0799,-6.1507 0.14198,-12.3281 0.20409,-18.532 0.0532,-6.2129 0.0799,-12.5411 0.0799,-18.9935" /><path
     id="path296"
     style="fill:#ffffff;fill-opacity:1;fill-rule:nonzero;stroke:none;stroke-width:0.0887546"
     d="m 1095.8109,1614.8234 c -18.8161,0 -34.1263,-15.3102 -34.1263,-34.1262 v -99.9556 c 0,-18.816 15.3102,-34.1262 34.1263,-34.1262 h 225.6856 c 18.816,0 34.1173,15.3102 34.1173,34.1262 v 99.9556 c 0,18.816 -15.3013,34.1262 -34.1173,34.1262 h -225.6856" /><path
     id="path298"
     style="fill:#803300;fill-opacity:1;fill-rule:nonzero;stroke:none;stroke-width:0.0887546"
     d="m 1321.4965,1600.5694 h -225.6856 c -10.979,0 -19.8723,-8.8932 -19.8723,-19.8722 v -99.9556 c 0,-10.979 8.8933,-19.8811 19.8723,-19.8811 h 225.6856 c 10.97,0 19.8722,8.9021 19.8722,19.8811 v 99.9556 c 0,10.979 -8.9022,19.8722 -19.8722,19.8722" /><path
     id="path300"
     style="fill:#ffffff;fill-opacity:1;fill-rule:nonzero;stroke:none;stroke-width:0.0887546"
     d="m 1124.6561,1508.1136 c -1.2159,-0.1687 -2.1655,-0.5858 -2.8578,-1.2338 -0.7012,-0.6479 -1.1006,-1.3756 -1.2071,-2.1744 -0.1065,-0.7988 0.089,-1.6065 0.5857,-2.4053 0.4971,-0.7988 1.3314,-1.4201 2.5029,-1.855 1.7751,-0.1242 3.7366,-0.3018 5.8756,-0.5148 2.1479,-0.213 4.2957,-0.355 6.4348,-0.426 2.1478,-0.062 4.2158,0.018 6.2039,0.2308 1.997,0.213 3.7277,0.6745 5.201,1.3668 1.1716,0.8165 1.8905,1.7839 2.1745,2.8846 0.284,1.1094 0.2485,2.1035 -0.098,2.991 -0.3462,0.8875 -0.9763,1.5265 -1.8816,1.9171 -0.9142,0.3905 -2.0147,0.284 -3.3106,-0.3284 -1.0473,-0.4704 -2.4762,-0.7101 -4.2957,-0.7101 0.2219,2.423 0.5148,5.0945 0.8787,7.988 0.3728,2.9111 0.7278,5.9288 1.0739,9.0707 0.3461,3.142 0.6213,6.3105 0.8166,9.5145 0.1864,3.2041 0.2218,6.3283 0.098,9.3548 -0.1332,3.0354 -0.4882,5.9022 -1.074,8.6092 -0.5857,2.7159 -1.491,5.13 -2.6981,7.2513 -0.9142,1.5531 -2.1656,2.8046 -3.7721,3.7365 -1.5976,0.9319 -3.3638,1.5799 -5.2898,1.9437 -1.9348,0.3728 -3.9407,0.4793 -6.0442,0.3285 -2.1035,-0.1509 -4.1271,-0.5237 -6.0797,-1.1095 -1.9437,-0.5769 -3.7365,-1.3579 -5.3607,-2.3343 -1.6242,-0.9762 -2.9112,-2.1123 -3.8609,-3.4081 -0.7367,-1.0029 -1.3047,-2.1035 -1.6864,-3.3194 -0.3993,-1.2071 -0.6833,-2.4674 -0.8786,-3.7633 -0.1953,-1.3047 -0.3195,-2.5916 -0.3639,-3.8696 -0.045,-1.2781 -0.08,-2.5029 -0.1243,-3.6745 0.2575,-1.207 0.8077,-2.1123 1.6509,-2.6893 0.852,-0.5857 1.7662,-0.8786 2.7691,-0.8786 0.9941,0 1.9438,0.3017 2.8579,0.9053 0.9053,0.6124 1.5355,1.4999 1.8816,2.6626 0.045,1.7396 0.035,3.2218 -0.035,4.4555 -0.062,1.2337 0.035,2.3076 0.2929,3.2129 0.2573,0.9142 0.781,1.713 1.562,2.4052 0.7811,0.6923 2.0591,1.3669 3.8342,2.0148 3.6834,1.2603 6.5146,1.2603 8.5116,0 1.9881,-1.2514 3.3816,-3.8076 4.1537,-7.6684 0.6124,-2.991 0.9142,-6.1685 0.9142,-9.55 0,-3.3816 -0.1509,-6.7986 -0.4527,-10.2689 -0.3106,-3.4615 -0.6833,-6.9318 -1.136,-10.3933 -0.4616,-3.4614 -0.8166,-6.7986 -1.074,-10.0115 -1.2603,0.1775 -2.4939,0.1598 -3.7099,-0.062 -1.207,-0.213 -2.2011,-0.284 -2.9822,-0.1952" /><path
     id="path302"
     style="fill:#ffffff;fill-opacity:1;fill-rule:nonzero;stroke:none;stroke-width:0.0887546"
     d="m 1178.5835,1509.7378 c -0.6035,-0.1687 -1.2159,0.2218 -1.8194,1.1715 -0.6036,0.9497 -1.1982,2.2544 -1.784,3.8963 -0.5858,1.6509 -1.1627,3.5325 -1.7219,5.6537 -0.568,2.1213 -1.1183,4.2691 -1.6597,6.4347 -0.5413,2.1656 -1.0472,4.2336 -1.5265,6.204 -0.4793,1.9704 -0.9319,3.6478 -1.3669,5.0324 1.8639,0.045 3.5857,0.089 5.1655,0.1331 1.5799,0.045 3.142,0.098 4.6774,0.1598 1.5444,0.071 3.0976,0.1331 4.6774,0.1952 1.5887,0.071 3.284,0.1243 5.1034,0.1687 -1.0384,-2.5561 -1.9171,-5.0413 -2.6271,-7.4465 -0.7189,-2.3964 -1.4112,-4.7928 -2.0858,-7.1714 -0.6656,-2.3875 -1.3934,-4.7661 -2.1744,-7.1537 -0.7811,-2.3786 -1.7307,-4.8016 -2.858,-7.2778 z m -24.8158,52.8268 c 0.7722,-1.8195 1.5088,-4.1005 2.2011,-6.8519 0.6923,-2.7514 1.3935,-5.769 2.0857,-9.0618 0.6923,-3.2929 1.429,-6.7365 2.21,-10.3311 0.7722,-3.6034 1.6065,-7.1359 2.4941,-10.6239 0.8875,-3.4881 1.8727,-6.8076 2.9644,-9.9495 1.0828,-3.133 2.2898,-5.8933 3.6389,-8.2808 1.3402,-2.3786 2.8313,-4.2779 4.4821,-5.6803 1.642,-1.4112 3.4792,-2.1123 5.5206,-2.1123 1.1716,0 2.3254,0.7011 3.4792,2.1123 1.1449,1.4024 2.2721,3.2839 3.3727,5.6448 1.1094,2.3609 2.21,5.1034 3.3194,8.2276 1.1005,3.1153 2.1922,6.3815 3.2751,9.8074 1.0827,3.4171 2.1656,6.9051 3.2484,10.4642 1.0828,3.5502 2.1567,6.9228 3.2218,10.1358 1.0561,3.204 2.1212,6.1507 3.1774,8.8311 1.065,2.6893 2.139,4.8726 3.2218,6.5678 0.3461,1.1627 0.3017,2.1923 -0.1331,3.0798 -0.4349,0.8965 -1.0473,1.5532 -1.8461,1.9881 -0.8077,0.4349 -1.7219,0.5681 -2.7692,0.4171 -1.0384,-0.1508 -1.9881,-0.6567 -2.8579,-1.5265 -1.0385,-1.5976 -1.9881,-3.3105 -2.8579,-5.13 -0.8609,-1.8195 -1.6154,-3.5769 -2.2366,-5.2632 -0.6302,-1.6863 -1.145,-3.2129 -1.5266,-4.5797 -0.3905,-1.3669 -0.6568,-2.4142 -0.7811,-3.1508 -2.1656,0 -4.2513,-0.01 -6.2394,-0.035 -1.997,-0.018 -3.9673,-0.035 -5.9111,-0.035 -1.9526,0 -3.9141,-0.01 -5.8844,-0.027 -1.9704,-0.027 -4.0561,-0.053 -6.2661,-0.098 -0.5237,1.9882 -0.9231,3.7366 -1.2071,5.2277 -0.284,1.4911 -0.5502,2.9378 -0.8076,4.3224 -0.2575,1.3846 -0.5858,2.8135 -0.9764,4.2868 -0.3904,1.4733 -0.9496,3.1597 -1.6863,5.0679 -0.781,0.9586 -1.6863,1.5355 -2.6981,1.7574 -1.0207,0.213 -1.9527,0.1419 -2.7958,-0.2308 -0.8432,-0.3639 -1.5266,-0.9852 -2.0502,-1.8461 -0.5148,-0.8698 -0.648,-1.9083 -0.3817,-3.1242" /><path
     id="path304"
     style="fill:#ffffff;fill-opacity:1;fill-rule:nonzero;stroke:none;stroke-width:0.0887546"
     d="m 1235.2446,1565.813 c -0.6479,0.7367 -1.3224,1.2249 -2.0147,1.4645 -0.6923,0.2396 -1.358,0.2929 -1.9793,0.1598 -0.6301,-0.1243 -1.207,-0.4172 -1.7218,-0.8787 -0.5237,-0.4527 -0.9763,-1.003 -1.3669,-1.6509 -3.5945,-10.2245 -7.2334,-20.1917 -10.9168,-29.8926 -3.6833,-9.7009 -7.4731,-19.5527 -11.3695,-29.5642 -0.1331,-1.2071 0.1509,-2.21 0.8432,-2.9911 0.6923,-0.781 1.5621,-1.2957 2.6006,-1.5531 1.0384,-0.2663 2.1123,-0.2219 3.2128,0.1242 1.1095,0.3462 2.0236,1.0207 2.7603,2.0147 1.6065,4.42 3.1597,8.5471 4.6774,12.3813 1.5177,3.8342 2.9822,7.6418 4.3934,11.4317 1.4023,3.7898 2.7691,7.6684 4.0915,11.6357 1.3225,3.9584 2.6094,8.2808 3.8609,12.9582 1.6952,-4.1537 3.3194,-8.2719 4.8726,-12.3458 1.5621,-4.065 3.071,-8.1388 4.5176,-12.2127 1.4556,-4.0738 2.8668,-8.1565 4.2603,-12.2481 1.3846,-4.0916 2.7691,-8.2454 4.1537,-12.4434 0.6124,-1.0384 1.4112,-1.6864 2.4052,-1.9527 0.9941,-0.2573 1.9527,-0.1863 2.858,0.1953 0.9141,0.3905 1.6774,1.0473 2.3076,1.9526 0.6301,0.9142 0.923,1.9704 0.8786,3.1863 -1.4289,5.0679 -3.0531,10.1003 -4.8726,15.1061 -1.8195,5.0057 -3.7632,10.0027 -5.8134,15.0084 -2.0591,5.0058 -4.1626,10.0027 -6.3016,15.0084 -2.1479,5.0058 -4.2603,10.0382 -6.3371,15.1061" /><path
     id="path306"
     style="fill:#ffffff;fill-opacity:1;fill-rule:nonzero;stroke:none;stroke-width:0.0887546"
     d="m 1289.5625,1509.7378 c -0.6035,-0.1687 -1.2159,0.2218 -1.8194,1.1715 -0.6036,0.9497 -1.1982,2.2544 -1.784,3.8963 -0.5858,1.6509 -1.1627,3.5325 -1.7219,5.6537 -0.568,2.1213 -1.1183,4.2691 -1.6597,6.4347 -0.5414,2.1656 -1.0473,4.2336 -1.5265,6.204 -0.4793,1.9704 -0.932,3.6478 -1.3669,5.0324 1.8638,0.045 3.5857,0.089 5.1655,0.1331 1.5799,0.045 3.1419,0.098 4.6774,0.1598 1.5444,0.071 3.0975,0.1331 4.6774,0.1952 1.5798,0.071 3.2839,0.1243 5.1034,0.1687 -1.0385,-2.5561 -1.9171,-5.0413 -2.6271,-7.4465 -0.7189,-2.3964 -1.4112,-4.7928 -2.0858,-7.1714 -0.6657,-2.3875 -1.3934,-4.7661 -2.1744,-7.1537 -0.7811,-2.3786 -1.7308,-4.8016 -2.858,-7.2778 z m -24.8247,52.8268 c 0.781,-1.8195 1.5177,-4.1005 2.21,-6.8519 0.6923,-2.7514 1.3846,-5.769 2.0857,-9.0618 0.6923,-3.2929 1.429,-6.7365 2.21,-10.3311 0.7722,-3.6034 1.6065,-7.1359 2.494,-10.6239 0.8876,-3.4881 1.8728,-6.8076 2.9556,-9.9495 1.0828,-3.133 2.2987,-5.8933 3.6389,-8.2808 1.3491,-2.3786 2.8402,-4.2779 4.491,-5.6803 1.642,-1.4112 3.4792,-2.1123 5.5206,-2.1123 1.1716,0 2.3253,0.7011 3.4703,2.1123 1.1538,1.4024 2.281,3.2839 3.3815,5.6448 1.1095,2.3609 2.21,5.1034 3.3106,8.2276 1.1094,3.1153 2.2011,6.3815 3.2839,9.8074 1.0828,3.4171 2.1656,6.9051 3.2485,10.4642 1.0827,3.5502 2.1567,6.9228 3.2218,10.1358 1.0561,3.204 2.1212,6.1507 3.1774,8.8311 1.065,2.6893 2.1389,4.8726 3.2218,6.5678 0.3461,1.1627 0.3017,2.1923 -0.1332,3.0798 -0.4348,0.8965 -1.0473,1.5532 -1.855,1.9881 -0.7988,0.4349 -1.7129,0.5681 -2.7602,0.4171 -1.0384,-0.1508 -1.9881,-0.6567 -2.8579,-1.5265 -1.0385,-1.5976 -1.9881,-3.3105 -2.8579,-5.13 -0.8698,-1.8195 -1.6154,-3.5769 -2.2367,-5.2632 -0.6301,-1.6863 -1.1449,-3.2129 -1.5265,-4.5797 -0.3906,-1.3669 -0.6568,-2.4142 -0.7811,-3.1508 -2.1656,0 -4.2513,-0.01 -6.2394,-0.035 -1.997,-0.018 -3.9674,-0.035 -5.9111,-0.035 -1.9526,0 -3.9141,-0.01 -5.8844,-0.027 -1.9704,-0.027 -4.0561,-0.053 -6.2661,-0.098 -0.5237,1.9882 -0.9231,3.7366 -1.2071,5.2277 -0.284,1.4911 -0.5503,2.9378 -0.8077,4.3224 -0.2574,1.3846 -0.5857,2.8135 -0.9763,4.2868 -0.3905,1.4733 -0.9496,3.1597 -1.6863,5.0679 -0.781,0.9586 -1.6863,1.5355 -2.6981,1.7574 -1.0208,0.213 -1.9527,0.1419 -2.7958,-0.2308 -0.8432,-0.3639 -1.5266,-0.9852 -2.0502,-1.8461 -0.5149,-0.8698 -0.648,-1.9083 -0.3906,-3.1242" /><path
     id="path308"
     style="fill:#ffffff;fill-opacity:1;fill-rule:nonzero;stroke:none;stroke-width:0.0887546"
     d="m 1138.2889,1381.6557 c -21.745,0 -39.4338,-17.6977 -39.4338,-39.4426 V 1235.734 c 0,-21.7449 17.6888,-39.4426 39.4338,-39.4426 h 250.963 c 21.7449,0 39.4337,17.6977 39.4337,39.4426 v 106.4791 c 0,21.7449 -17.6888,39.4426 -39.4337,39.4426 h -250.963" /><path
     id="path310"
     style="fill:#0077fd;fill-opacity:1;fill-rule:nonzero;stroke:none;stroke-width:0.0887546"
     d="m 1389.2519,1364.0113 h -250.963 c -12.0352,0 -21.7893,-9.763 -21.7893,-21.7982 V 1235.734 c 0,-12.0352 9.7541,-21.7982 21.7893,-21.7982 h 250.963 c 12.0351,0 21.7892,9.763 21.7892,21.7982 v 106.4791 c 0,12.0352 -9.7541,21.7982 -21.7892,21.7982" /><path
     id="path312"
     style="fill:#ffffff;fill-opacity:1;fill-rule:nonzero;stroke:none;stroke-width:0.0887546"
     d="m 1184.752,1265.0675 c 0.213,2.6271 0.3816,5.1211 0.4881,7.482 0.1065,2.3609 0.1687,4.7129 0.1953,7.0382 0.027,2.3343 0.027,4.6863 0,7.0472 -0.027,2.3608 -0.062,4.8548 -0.1154,7.482 0.7456,-0.1065 1.6065,-0.027 2.5739,0.2396 1.6065,1.5532 3.4881,2.6183 5.6271,3.1774 2.1478,0.5681 4.3312,0.7278 6.559,0.4882 2.2277,-0.2485 4.4288,-0.8609 6.6033,-1.855 2.1745,-0.994 4.1005,-2.2898 5.7868,-3.9052 1.6953,-1.6064 3.0621,-3.4792 4.1093,-5.627 1.0474,-2.1479 1.571,-4.5088 1.571,-7.0827 0,-2.7336 -0.5946,-5.1655 -1.775,-7.2779 -1.1805,-2.1212 -2.7249,-3.9318 -4.6242,-5.4317 -1.9082,-1.5089 -4.065,-2.6716 -6.4791,-3.5059 -2.4141,-0.8254 -4.8549,-1.3224 -7.3222,-1.4822 -2.4674,-0.1686 -4.855,0.027 -7.1625,0.5592 -2.3077,0.5325 -4.3135,1.4201 -6.0354,2.6538 z m -10.6151,-7.2424 c -0.1153,-1.6065 0.1687,-2.9201 0.8432,-3.9407 0.6657,-1.0207 1.4911,-1.6864 2.4496,-2.0148 0.9674,-0.3195 1.9704,-0.2751 3.0177,0.1243 1.0473,0.3994 1.8905,1.2426 2.5384,2.5384 1.6064,-1.2426 3.8608,-2.1213 6.7542,-2.6627 2.9023,-0.5325 6.062,-0.6923 9.4968,-0.4793 3.4348,0.2131 6.9317,0.8432 10.4997,1.8905 3.5679,1.0473 6.8163,2.5739 9.7364,4.5887 2.9289,2.0058 5.343,4.5176 7.2424,7.5175 1.9082,3.0088 2.9111,6.5767 3.0176,10.7038 0.1065,5.0413 -0.5591,9.5234 -2.0147,13.4375 -1.4467,3.9141 -3.3993,7.2424 -5.8667,9.976 -2.4674,2.7425 -5.3164,4.9082 -8.5293,6.5235 -3.2218,1.6064 -6.4969,2.6005 -9.8163,2.9733 -3.3283,0.3816 -6.6034,0.1331 -9.8163,-0.7189 -3.2218,-0.861 -6.0886,-2.3343 -8.6092,-4.4289 -0.1154,2.3076 -0.142,4.5176 -0.08,6.6389 0.045,2.1212 0.1065,4.2069 0.1598,6.2749 0.053,2.068 0.1065,4.1537 0.1597,6.275 0.053,2.1212 0.053,4.3312 0,6.6388 -0.1065,1.7663 -0.6212,3.1153 -1.5265,4.0206 -0.9142,0.9142 -1.9349,1.3846 -3.0621,1.4112 -1.1271,0.027 -2.1834,-0.3727 -3.1774,-1.207 -0.9941,-0.8343 -1.5976,-2.1035 -1.8106,-3.8254 0,-6.4347 -0.018,-12.7097 -0.045,-18.8249 -0.027,-6.1152 -0.089,-12.1505 -0.1952,-18.1059 -0.1065,-5.9555 -0.2752,-11.8577 -0.4882,-17.6977 -0.213,-5.849 -0.5059,-11.7245 -0.8787,-17.6267" /><path
     id="path314"
     style="fill:#ffffff;fill-opacity:1;fill-rule:nonzero;stroke:none;stroke-width:0.0887546"
     d="m 1286.0567,1254.8518 c 0.3284,-1.5 0.9941,-2.6449 2.0147,-3.4259 1.0207,-0.7722 2.1301,-1.1716 3.3372,-1.1982 1.2071,-0.036 2.352,0.3017 3.4171,1.0029 1.0739,0.6923 1.8284,1.7662 2.2544,3.2129 1.4467,12.7718 2.4585,25.4016 3.0176,37.8983 0.568,12.5055 0.8698,25.1886 0.9231,38.0669 -0.053,1.1805 -0.3728,2.1568 -0.9586,2.9378 -0.5947,0.7722 -1.3313,1.3491 -2.2189,1.7307 -0.8786,0.3728 -1.8461,0.5592 -2.8933,0.5592 -1.0474,0 -2.0236,-0.2042 -2.9379,-0.6035 -0.9141,-0.3994 -1.6863,-0.9763 -2.3342,-1.7308 -0.639,-0.7544 -1.0473,-1.7129 -1.2071,-2.8934 -0.053,-6.0619 0.053,-12.0085 0.3195,-17.8219 0.2752,-5.8224 0.2752,-11.7689 0,-17.8309 -0.2662,0.1154 -0.5591,0.2219 -0.8786,0.3284 -0.3284,0.1065 -0.6746,0.213 -1.0473,0.3195 -3.0088,-0.053 -5.9022,-0.1864 -8.6891,-0.3994 -2.7958,-0.213 -5.5561,-0.3816 -8.2897,-0.4881 -2.7336,-0.1065 -5.4851,-0.08 -8.2453,0.08 -2.7692,0.1597 -5.5916,0.568 -8.4938,1.2071 l -0.7988,32.1913 c -0.1155,1.7662 -0.6835,3.0798 -1.7307,3.9407 -1.0474,0.8609 -2.2012,1.287 -3.4615,1.287 -1.2603,0 -2.4585,-0.4261 -3.5768,-1.287 -1.1272,-0.8609 -1.8017,-2.1478 -2.0147,-3.8608 v -73.2227 c 0.3195,-1.4999 0.994,-2.6005 2.0147,-3.3017 1.0118,-0.6923 2.1301,-1.0295 3.3372,-1.0029 1.207,0.027 2.3608,0.426 3.4614,1.2071 1.0917,0.7721 1.8549,1.8904 2.2899,3.3371 l 0.4793,29.6885 c 2.9555,-0.5325 5.8134,-0.852 8.5737,-0.9585 2.7602,-0.1154 5.5116,-0.098 8.2452,0.035 2.7337,0.1331 5.5029,0.3106 8.2898,0.5236 2.7868,0.213 5.6803,0.3462 8.6891,0.3994 0.213,0.1065 0.3994,0.1775 0.5591,0.2041 0.1686,0.027 0.355,0.098 0.568,0.2042 -0.3195,-5.3164 -0.6035,-10.3666 -0.8431,-15.1682 -0.2396,-4.8016 -0.6302,-9.8607 -1.1716,-15.1682" /><path
     id="path316"
     style="fill:#ffffff;fill-opacity:1;fill-rule:nonzero;stroke:none;stroke-width:0.0887546"
     d="m 1323.3958,1265.0675 c 0.2131,2.6271 0.3728,5.1211 0.4793,7.482 0.1065,2.3609 0.1776,4.7129 0.2042,7.0382 0.027,2.3343 0.027,4.6863 0,7.0472 -0.027,2.3608 -0.071,4.8548 -0.1243,7.482 0.7544,-0.1065 1.6154,-0.027 2.5739,0.2396 1.6153,1.5532 3.4881,2.6183 5.6359,3.1774 2.1479,0.5681 4.3313,0.7278 6.559,0.4882 2.2277,-0.2485 4.4199,-0.8609 6.5945,-1.855 2.1745,-0.994 4.1093,-2.2898 5.7957,-3.9052 1.6863,-1.6064 3.062,-3.4792 4.1004,-5.627 1.0473,-2.1479 1.571,-4.5088 1.571,-7.0827 0,-2.7336 -0.5858,-5.1655 -1.7663,-7.2779 -1.1804,-2.1212 -2.7247,-3.9318 -4.633,-5.4317 -1.8993,-1.5089 -4.056,-2.6716 -6.4702,-3.5059 -2.4141,-0.8254 -4.8549,-1.3224 -7.3223,-1.4822 -2.4673,-0.1686 -4.8548,0.027 -7.1624,0.5592 -2.3077,0.5325 -4.3224,1.4201 -6.0354,2.6538 z m -10.6239,-7.2424 c -0.1065,-1.6065 0.1775,-2.9201 0.8432,-3.9407 0.6745,-1.0207 1.4911,-1.6864 2.4585,-2.0148 0.9674,-0.3195 1.9703,-0.2751 3.0176,0.1243 1.0474,0.3994 1.8905,1.2426 2.5295,2.5384 1.6154,-1.2426 3.8698,-2.1213 6.7631,-2.6627 2.8935,-0.5325 6.062,-0.6923 9.4968,-0.4793 3.4259,0.2131 6.9318,0.8432 10.4997,1.8905 3.5679,1.0473 6.8075,2.5739 9.7364,4.5887 2.92,2.0058 5.3342,4.5176 7.2424,7.5175 1.8993,3.0088 2.9023,6.5767 3.0176,10.7038 0.1066,5.0413 -0.568,9.5234 -2.0147,13.4375 -1.4467,3.9141 -3.4082,7.2424 -5.8755,9.976 -2.4674,2.7425 -5.3076,4.9082 -8.5294,6.5235 -3.2129,1.6064 -6.4879,2.6005 -9.8162,2.9733 -3.3283,0.3816 -6.5945,0.1331 -9.8163,-0.7189 -3.2129,-0.861 -6.0886,-2.3343 -8.6092,-4.4289 -0.1065,2.3076 -0.1332,4.5176 -0.08,6.6389 0.053,2.1212 0.1065,4.2069 0.1597,6.2749 0.053,2.068 0.1065,4.1537 0.1598,6.275 0.053,2.1212 0.053,4.3312 0,6.6388 -0.1065,1.7663 -0.6124,3.1153 -1.5266,4.0206 -0.9142,0.9142 -1.9348,1.3846 -3.0531,1.4112 -1.1272,0.027 -2.1923,-0.3727 -3.1864,-1.207 -0.994,-0.8343 -1.5886,-2.1035 -1.8106,-3.8254 0,-6.4347 -0.01,-12.7097 -0.035,-18.8249 -0.027,-6.1152 -0.098,-12.1505 -0.2042,-18.1059 -0.1065,-5.9555 -0.2663,-11.8577 -0.4793,-17.6977 -0.213,-5.849 -0.5147,-11.7245 -0.8875,-17.6267" /><path
     id="path318"
     style="fill:#ffffff;fill-opacity:1;fill-rule:nonzero;stroke:none;stroke-width:0.0887546"
     d="m 739.86691,1641.2279 v -91.16 c 0,-17.5202 14.20433,-31.7209 31.72539,-31.7209 h 187.82905 c 17.5202,0 31.72101,14.2007 31.72101,31.7209 v 91.16 c 0,17.5202 -14.20081,31.721 -31.72101,31.721 H 771.59144 c -17.52113,0 -31.72453,-14.2008 -31.72453,-31.721" /><path
     id="path320"
     style="fill:#ffcc00;fill-opacity:1;fill-rule:nonzero;stroke:none;stroke-width:0.0887546"
     d="M 962.91834,1657.4967 H 767.57437 c -8.21512,0 -14.87532,-6.6655 -14.87532,-14.8753 v -93.9469 c 0,-8.2098 6.6602,-14.8754 14.87532,-14.8754 h 195.34397 c 8.21865,0 14.87525,6.6656 14.87525,14.8754 v 93.9469 c 0,8.2098 -6.6566,14.8753 -14.87525,14.8753" /><path
     id="path322"
     style="fill:#ffffff;fill-opacity:1;fill-rule:nonzero;stroke:none;stroke-width:0.0887546"
     d="m 823.64698,1561.5794 c -0.18638,-1.4911 0.0586,-2.6892 0.73402,-3.5945 0.67452,-0.9143 1.48929,-1.4734 2.44338,-1.6775 0.95502,-0.213 1.9207,-0.027 2.89875,0.5592 0.97806,0.5768 1.6766,1.5886 2.0955,3.0354 0.4189,2.423 0.72158,4.846 0.90796,7.269 0.18552,2.4141 0.27958,4.8815 0.27958,7.3932 -0.0941,1.5444 -0.59377,2.7248 -1.50173,3.568 -0.90796,0.8343 -1.92063,1.3136 -3.03808,1.4289 -1.11744,0.1154 -2.16559,-0.1509 -3.14278,-0.7988 -0.97812,-0.6568 -1.56031,-1.7218 -1.74583,-3.2129 v -0.5592 c -2.23482,-2.9377 -4.78477,-5.0057 -7.64798,-6.2216 -2.86327,-1.2071 -5.79657,-1.7041 -8.80003,-1.5 -3.0026,0.213 -5.97145,1.0473 -8.90481,2.5206 -2.9333,1.4645 -5.58709,3.3816 -7.96217,5.7602 -1.49022,1.4911 -2.71237,3.284 -3.6656,5.3785 -0.95495,2.0947 -1.67653,4.3135 -2.16559,6.6656 -0.48906,2.3519 -0.75706,4.7483 -0.80325,7.198 -0.0473,2.4407 0.0808,4.7927 0.38435,7.0471 0.30261,2.2633 0.76857,4.349 1.39695,6.2572 0.62839,1.9082 1.38458,3.4703 2.26951,4.6773 1.34996,1.9083 3.03807,3.4881 5.06341,4.7485 2.02541,1.2603 4.20166,2.201 6.5306,2.8312 2.32715,0.6213 4.73685,0.9497 7.22821,0.9764 2.48958,0.027 4.91165,-0.2486 7.2637,-0.8078 2.35018,-0.5591 4.52735,-1.4022 6.52966,-2.5472 2.00144,-1.1361 3.70108,-2.5739 5.0981,-4.2958 0.65141,-0.8342 1.11738,-1.775 1.39789,-2.8312 0.27864,-1.0473 0.62745,-2.0591 1.04642,-3.0354 0.7446,-1.3047 1.57182,-2.1301 2.47978,-2.4763 0.90796,-0.355 1.73425,-0.3283 2.47979,0.071 0.74381,0.3905 1.36154,1.1272 1.85054,2.2011 0.48906,1.0651 0.70919,2.3697 0.66299,3.9052 -0.0932,3.3106 -1.21057,6.2661 -3.35226,8.8755 -2.14164,2.6005 -4.901,4.7573 -8.27637,6.4525 -3.37536,1.7041 -7.13501,2.9111 -11.27895,3.6389 -4.14487,0.7189 -8.2755,0.8343 -12.3964,0.3461 -4.12084,-0.4881 -7.99679,-1.6153 -11.62863,-3.3904 -3.63185,-1.7662 -6.61221,-4.3046 -8.93936,-7.6063 -1.3047,-1.8638 -2.42214,-4.1093 -3.3532,-6.7453 -0.93193,-2.6272 -1.61709,-5.4673 -2.05909,-8.5205 -0.4438,-3.0442 -0.6417,-6.2128 -0.59377,-9.4967 0.0453,-3.284 0.38342,-6.4969 1.0118,-9.6388 0.62839,-3.1419 1.57183,-6.1063 2.8286,-8.9021 1.2577,-2.7958 2.86414,-5.2366 4.81938,-7.3311 1.53635,-1.6332 3.3745,-3.142 5.51793,-4.5443 2.13983,-1.3934 4.44482,-2.5828 6.91395,-3.5591 2.46741,-0.9762 5.03952,-1.7218 7.71634,-2.2366 2.67776,-0.5148 5.30931,-0.7189 7.89301,-0.6301 2.58363,0.098 5.06342,0.5414 7.43763,1.3313 2.37508,0.7899 4.49274,1.997 6.35573,3.63 -0.0473,-0.284 -0.0941,-0.5503 -0.14026,-0.8076 -0.0473,-0.2486 -0.0932,-0.5237 -0.13932,-0.7988" /><path
     id="path324"
     style="fill:#ffffff;fill-opacity:1;fill-rule:nonzero;stroke:none;stroke-width:0.0887546"
     d="m 891.1157,1576.1796 c 0.37277,1.2514 0.23964,2.2899 -0.39054,3.1064 -0.62126,0.8165 -1.48216,1.358 -2.58277,1.6419 -1.09168,0.2752 -2.29074,0.2663 -3.59457,-0.035 -1.30376,-0.3017 -2.4212,-0.923 -3.35226,-1.855 -0.0932,-1.4378 -0.44287,-2.9199 -1.04729,-4.4377 -0.60622,-1.5088 -1.42005,-2.8668 -2.4443,-4.0827 -1.02426,-1.2071 -2.23483,-2.21 -3.63185,-2.9999 -1.39702,-0.7899 -2.88717,-1.1627 -4.46971,-1.1183 -2.18956,0.089 -4.14481,0.6657 -5.86667,1.7129 -1.7236,1.0473 -3.07356,2.4142 -4.05075,4.1183 -0.97719,1.6952 -1.53634,3.6212 -1.67573,5.7602 -0.14019,2.1389 0.30181,4.3312 1.32693,6.5678 0.37183,0.8876 1.38457,1.5621 3.03714,2.0236 1.65264,0.4704 3.62033,0.9674 5.90222,1.5 2.28102,0.5325 4.72532,1.1982 7.33292,1.9881 2.60672,0.7988 5.08651,1.9614 7.43856,3.4969 2.35018,1.5355 4.39955,3.5502 6.14271,6.0442 1.74843,2.4851 2.91999,5.6892 3.5324,9.6033 0.46157,3.3017 0.1509,6.2128 -0.94078,8.7246 -1.10054,2.5118 -2.7159,4.6419 -4.85932,6.3903 -2.14163,1.7485 -4.6561,3.0976 -7.54241,4.0561 -2.88717,0.9497 -5.88976,1.4911 -9.00858,1.6065 -3.12062,0.1153 -6.19331,-0.1864 -9.21987,-0.9142 -3.02743,-0.7189 -5.738,-1.8727 -8.13611,-3.4526 -2.39818,-1.5798 -4.3419,-3.6212 -5.83212,-6.1152 -1.49015,-2.4851 -2.25879,-5.4318 -2.30405,-8.831 0,-0.932 0.0453,-1.8284 0.14025,-2.6893 0.0923,-0.861 0.30175,-1.642 0.62745,-2.3431 0.32578,-0.7012 0.79174,-1.287 1.39789,-1.7752 0.60356,-0.4881 1.41919,-0.8076 2.44344,-0.9497 0.93106,-0.045 1.72273,0.1155 2.37508,0.4882 0.65148,0.3728 1.17509,0.8787 1.57096,1.5088 0.39494,0.6214 0.65148,1.3669 0.76864,2.2367 0.11536,0.8609 0.12781,1.7751 0.0346,2.7514 -0.23344,2.0502 0.0579,3.8076 0.87242,5.272 0.81477,1.4733 1.9207,2.6804 3.31765,3.6389 1.39789,0.9497 2.98043,1.6509 4.74929,2.0947 1.76886,0.4438 3.49253,0.6124 5.16906,0.5236 1.67573,-0.098 3.37537,-0.3372 5.0981,-0.7366 1.72186,-0.3906 3.28304,-1.0207 4.67913,-1.8817 1.39702,-0.8697 2.51446,-1.997 3.35226,-3.3904 0.83787,-1.3934 1.16358,-3.1419 0.97813,-5.2365 -0.0941,-1.1183 -0.40832,-2.281 -0.94351,-3.4969 -0.53519,-1.2071 -1.24612,-2.3343 -2.13012,-3.3816 -0.88486,-1.0473 -1.88515,-1.997 -3.00253,-2.8313 -1.11831,-0.8432 -2.30498,-1.4467 -3.56175,-1.8195 -1.86385,-0.5591 -3.79606,-1.0917 -5.79744,-1.6064 -2.00231,-0.5059 -3.94604,-1.0917 -5.83119,-1.7396 -1.88608,-0.6568 -3.66739,-1.4201 -5.34306,-2.3076 -1.67566,-0.8876 -3.15436,-1.9792 -4.43509,-3.2839 -1.28074,-1.3047 -2.29341,-2.8757 -3.03808,-4.7129 -0.74554,-1.8372 -1.14134,-4.0384 -1.18754,-6.6034 -0.0459,-3.1153 0.52454,-5.9377 1.71121,-8.4495 1.18754,-2.5117 2.75937,-4.6507 4.71468,-6.4258 1.95525,-1.7662 4.14394,-3.1331 6.56515,-4.0827 2.42034,-0.9585 4.81852,-1.429 7.19359,-1.429 3.25821,0 6.23858,0.4172 8.93936,1.2515 2.69992,0.8432 5.07414,2.0502 7.12351,3.63 2.04843,1.5888 3.72503,3.5059 5.03146,5.7691 1.3047,2.2544 2.18337,4.7573 2.65379,7.5087" /><path
     id="path326"
     style="fill:#ffffff;fill-opacity:1;fill-rule:nonzero;stroke:none;stroke-width:0.0887546"
     d="m 943.70291,1576.1796 c 0.37277,1.2514 0.24849,2.2899 -0.38163,3.1064 -0.63018,0.8165 -1.49108,1.358 -2.58276,1.6419 -1.10061,0.2752 -2.29879,0.2663 -3.60349,-0.035 -1.29578,-0.3017 -2.41409,-0.923 -3.34601,-1.855 -0.0977,-1.4378 -0.4438,-2.9199 -1.04735,-4.4377 -0.61241,-1.5088 -1.42006,-2.8668 -2.44963,-4.0827 -1.02066,-1.2071 -2.23662,-2.21 -3.63005,-2.9999 -1.39343,-0.7899 -2.88451,-1.1627 -4.47324,-1.1183 -2.18337,0.089 -4.14487,0.6657 -5.86667,1.7129 -1.72187,1.0473 -3.07096,2.4142 -4.04722,4.1183 -0.97632,1.6952 -1.53548,3.6212 -1.67746,5.7602 -0.14206,2.1389 0.30174,4.3312 1.33132,6.5678 0.37277,0.8876 1.38457,1.5621 3.03541,2.0236 1.65084,0.4704 3.6212,0.9674 5.90215,1.5 2.28102,0.5325 4.7218,1.1982 7.33119,1.9881 2.60939,0.7988 5.08565,1.9614 7.43763,3.4969 2.35198,1.5355 4.40221,3.5502 6.1507,6.0442 1.73957,2.4851 2.92006,5.6892 3.52355,9.6033 0.46156,3.3017 0.1509,6.2128 -0.94078,8.7246 -1.09169,2.5118 -2.7159,4.6419 -4.85487,6.3903 -2.13903,1.7485 -4.65962,3.0976 -7.5442,4.0561 -2.88451,0.9497 -5.89329,1.4911 -9.00859,1.6065 -3.12414,0.1153 -6.1951,-0.1864 -9.2216,-0.9142 -3.02656,-0.7189 -5.7336,-1.8727 -8.12998,-3.4526 -2.40523,-1.5798 -4.34896,-3.6212 -5.84004,-6.1152 -1.48223,-2.4851 -2.25439,-5.4318 -2.29873,-8.831 0,-0.932 0.0446,-1.8284 0.14199,-2.6893 0.0887,-0.861 0.30174,-1.642 0.62126,-2.3431 0.32844,-0.7012 0.79879,-1.287 1.40235,-1.7752 0.60355,-0.4881 1.42005,-0.8076 2.44078,-0.9497 0.93192,-0.045 1.7218,0.1155 2.3786,0.4882 0.64789,0.3728 1.17157,0.8787 1.57096,1.5088 0.39055,0.6214 0.64789,1.3669 0.76332,2.2367 0.11535,0.8609 0.13313,1.7751 0.0353,2.7514 -0.23079,2.0502 0.0619,3.8076 0.87867,5.272 0.80764,1.4733 1.9171,2.6804 3.31053,3.6389 1.40235,0.9497 2.98216,1.6509 4.74842,2.0947 1.77506,0.4438 3.49692,0.6124 5.17439,0.5236 1.67746,-0.098 3.3727,-0.3372 5.0945,-0.7366 1.72186,-0.3906 3.28397,-1.0207 4.6774,-1.8817 1.40234,-0.8697 2.52065,-1.997 3.35493,-3.3904 0.84319,-1.3934 1.16271,-3.1419 0.97632,-5.2365 -0.0888,-1.1183 -0.40831,-2.281 -0.94084,-3.4969 -0.53253,-1.2071 -1.24253,-2.3343 -2.13012,-3.3816 -0.88752,-1.0473 -1.88155,-1.997 -2.99986,-2.8313 -1.11832,-0.8432 -2.30765,-1.4467 -3.56795,-1.8195 -1.85499,-0.5591 -3.78987,-1.0917 -5.79571,-1.6064 -1.99698,-0.5059 -3.94071,-1.0917 -5.83119,-1.7396 -1.88162,-0.6568 -3.66559,-1.4201 -5.34305,-2.3076 -1.67747,-0.8876 -3.15078,-1.9792 -4.42885,-3.2839 -1.28692,-1.3047 -2.29872,-2.8757 -3.04426,-4.7129 -0.74554,-1.8372 -1.13609,-4.0384 -1.18934,-6.6034 -0.0446,-3.1153 0.53253,-5.9377 1.71295,-8.4495 1.18933,-2.5117 2.76029,-4.6507 4.71287,-6.4258 1.96151,-1.7662 4.14488,-3.1331 6.56788,-4.0827 2.42301,-0.9585 4.81938,-1.429 7.19799,-1.429 3.25735,0 6.23951,0.4172 8.93763,1.2515 2.69812,0.8432 5.07679,2.0502 7.11811,3.63 2.05024,1.5888 3.7277,3.5059 5.0324,5.7691 1.30469,2.2544 2.19228,4.7573 2.65379,7.5087" /><g
     transform="matrix(0.13027071,0,0,-0.13027071,0,2495.0933)"
     id="g328"
     style="fill:#ffffff"><path
       id="path330"
       style="fill:#ffffff;fill-opacity:1;fill-rule:nonzero;stroke:none"
       d="m 14062.7,11015.9 c 114.1,62.3 1975.2,374.3 2012.9,163.1 0,0 224.4,-1184.68 111.8,-1225.63 -70.7,-25.74 -839.2,-129.75 -1420.1,-175.68 -121,-188.9 -271,-382.77 -316.2,-407.86 -49,-27.28 -21.2,184.25 15.7,389.08 -193.6,-7.84 -329.8,-2.1 -350.3,26.19 -81.2,111.57 -168,1168.5 -53.8,1230.8" /></g><g
     transform="matrix(0.12642231,0,0,-0.12642231,0,2495.0933)"
     id="g332"
     style="fill:#333333"><path
       id="path334"
       style="fill:#333333;fill-opacity:1;fill-rule:nonzero;stroke:none"
       d="m 16074.4,10859.1 c 17,-57.6 77.5,-90.6 135.1,-73.5 57.6,17 90.5,77.4 73.5,135.1 -17,57.6 -77.5,90.5 -135.1,73.5 -57.6,-17.1 -90.5,-77.5 -73.5,-135.1" /></g><g
     transform="matrix(0.12196593,0,0,-0.12196593,0,2495.0933)"
     id="g336"
     style="fill:#333333"><path
       id="path338"
       style="fill:#333333;fill-opacity:1;fill-rule:nonzero;stroke:none"
       d="m 16066.1,11197.5 c 17.7,-59.7 80.4,-93.8 140.1,-76.2 59.7,17.7 93.8,80.4 76.2,140.1 -17.7,59.7 -80.3,93.8 -140.1,76.2 -59.7,-17.7 -93.8,-80.4 -76.2,-140.1" /></g><g
     transform="matrix(0.11734802,0,0,-0.11734802,0,2495.0933)"
     id="g340"
     style="fill:#333333"><path
       id="path342"
       style="fill:#333333;fill-opacity:1;fill-rule:nonzero;stroke:none"
       d="m 16057,11570.9 c 18.3,-62 83.4,-97.5 145.5,-79.1 62,18.3 97.5,83.4 79.2,145.5 -18.3,62.1 -83.5,97.5 -145.6,79.2 -62,-18.3 -97.5,-83.5 -79.1,-145.6" /></g><path
     id="path344"
     style="fill:#f6f9ff;fill-opacity:1;fill-rule:nonzero;stroke:none;stroke-width:0.0887546"
     d="m 513.06134,1461.8738 h -46.37703 c -1.68367,0 -3.04961,-1.3668 -3.04961,-3.0532 v -13.1446 c 0,-1.6863 1.36594,-3.0531 3.04961,-3.0531 h 46.37703 c 1.68369,0 3.04873,1.3668 3.04873,3.0531 v 13.1446 c 0,1.6864 -1.36504,3.0532 -3.04873,3.0532" /></svg>
