<?xml version="1.0" encoding="UTF-8" standalone="no"?>
<!-- Generator: Adobe Illustrator 24.0.3, SVG Export Plug-In . SVG Version: 6.00 Build 0)  -->

<svg
   version="1.1"
   id="Layer_1"
   x="0px"
   y="0px"
   viewBox="0 0 2000 1134"
   xml:space="preserve"
   width="2000"
   height="1134"
   xmlns:xlink="http://www.w3.org/1999/xlink"
   xmlns="http://www.w3.org/2000/svg"
   xmlns:svg="http://www.w3.org/2000/svg"><defs
   id="defs239">
	<linearGradient
   id="SVGID_33_"
   gradientUnits="userSpaceOnUse"
   x1="655.77533"
   y1="843.12207"
   x2="758.91058"
   y2="843.12207">
		<stop
   offset="1"
   style="stop-color:#4A7AB7"
   id="stop229" />
		<stop
   offset="1"
   style="stop-color:#9ECBE1"
   id="stop230" />
	</linearGradient>
	
	

	<linearGradient
   id="SVGID_19_"
   gradientUnits="userSpaceOnUse"
   x1="1091.87"
   y1="512.29993"
   x2="1240.2822"
   y2="512.29993">
		<stop
   offset="0"
   style="stop-color:#00b01f;stop-opacity:1;"
   id="stop151" />
		<stop
   offset="1"
   style="stop-color:#009540;stop-opacity:1;"
   id="stop152" />
	</linearGradient>
	
	
<linearGradient
   id="SVGID_33_-6"
   gradientUnits="userSpaceOnUse"
   x1="655.77533"
   y1="843.12207"
   x2="758.91058"
   y2="843.12207"
   gradientTransform="translate(-125.85712,-670.42669)">
		<stop
   offset="1"
   style="stop-color:#0000b0;stop-opacity:1;"
   id="stop229-4" />
		<stop
   offset="1"
   style="stop-color:#9ECBE1"
   id="stop230-3" />
	</linearGradient></defs>
<style
   type="text/css"
   id="style1">
	.st0{fill:url(#SVGID_1_);}
	.st1{fill:#B9E0ED;}
	.st2{fill:#E5E5E5;}
	.st3{fill:url(#SVGID_2_);}
	.st4{fill:#140B4C;}
	.st5{fill:#FFFFFF;}
	.st6{fill:#E1E9F3;}
	.st7{fill:#4FA2CA;}
	.st8{fill:url(#SVGID_3_);}
	.st9{fill:url(#SVGID_4_);}
	.st10{fill:#FFFFFF;stroke:#070606;stroke-miterlimit:10;}
	.st11{fill:url(#SVGID_5_);}
	.st12{fill:url(#SVGID_6_);}
	.st13{fill:#CDC9C1;}
	.st14{fill:url(#SVGID_7_);}
	.st15{fill:#D5E8F2;}
	.st16{fill:url(#SVGID_8_);}
	.st17{fill:url(#SVGID_9_);}
	.st18{fill:url(#SVGID_10_);}
	.st19{fill:url(#SVGID_11_);}
	.st20{fill:url(#SVGID_12_);}
	.st21{fill:url(#SVGID_13_);}
	.st22{fill:url(#SVGID_14_);}
	.st23{fill:url(#SVGID_15_);}
	.st24{fill:url(#SVGID_16_);}
	.st25{fill:#0D156A;}
	.st26{fill:#5670B2;}
	.st27{fill:#DB013F;}
	.st28{fill:#F7426E;}
	.st29{fill:#9096BF;}
	.st30{fill:#6B749C;}
	.st31{fill:url(#SVGID_17_);}
	.st32{fill:#060E35;}
	.st33{fill:url(#SVGID_18_);}
	.st34{fill:#080F42;}
	.st35{fill:url(#SVGID_19_);}
	.st36{clip-path:url(#SVGID_21_);fill:url(#SVGID_22_);}
	.st37{clip-path:url(#SVGID_21_);fill:#FFFFFF;}
	.st38{clip-path:url(#SVGID_21_);}
	.st39{fill:none;}
	.st40{fill:url(#SVGID_23_);}
	.st41{fill:url(#SVGID_24_);}
	.st42{fill:#CCCCCC;}
	.st43{clip-path:url(#SVGID_26_);fill:url(#SVGID_27_);}
	.st44{fill:url(#SVGID_28_);}
	.st45{fill:url(#SVGID_29_);}
	.st46{fill:url(#SVGID_30_);}
	.st47{fill:#D0D8E2;}
	.st48{fill:url(#SVGID_31_);}
	.st49{fill:url(#SVGID_32_);}
	.st50{fill:url(#SVGID_33_);}
	.st51{font-family:'ArialRoundedMTBold';}
	.st52{font-size:43.8402px;}
	.st53{fill:url(#SVGID_34_);}
	.st54{fill:url(#SVGID_35_);}
	.st55{fill:url(#SVGID_36_);}
</style>
<linearGradient
   id="SVGID_1_"
   gradientUnits="userSpaceOnUse"
   x1="1448.1161"
   y1="462.14691"
   x2="1889.0089"
   y2="462.14691">
	<stop
   offset="0"
   style="stop-color:#4A7AB7"
   id="stop1" />
	<stop
   offset="1"
   style="stop-color:#9ECBE1"
   id="stop2" />
</linearGradient>









<linearGradient
   id="SVGID_5_"
   gradientUnits="userSpaceOnUse"
   x1="1273.8857"
   y1="691.99799"
   x2="1357.064"
   y2="757.19769">
	<stop
   offset="0"
   style="stop-color:#FEB01F"
   id="stop43" />
	<stop
   offset="1"
   style="stop-color:#FA3A40"
   id="stop44" />
</linearGradient>




<linearGradient
   id="SVGID_14_"
   gradientUnits="userSpaceOnUse"
   x1="1246.8834"
   y1="791.06097"
   x2="1321.9124"
   y2="791.06097">
	<stop
   offset="0.2957"
   style="stop-color:#FDDC70"
   id="stop69" />
	<stop
   offset="0.4036"
   style="stop-color:#FDC96B"
   id="stop70" />
	<stop
   offset="0.6217"
   style="stop-color:#FC995C"
   id="stop71" />
	<stop
   offset="0.9277"
   style="stop-color:#FB4C45"
   id="stop72" />
	<stop
   offset="1"
   style="stop-color:#FA3A40"
   id="stop73" />
</linearGradient>

<linearGradient
   id="SVGID_15_"
   gradientUnits="userSpaceOnUse"
   x1="1306.3647"
   y1="726.3186"
   x2="1412.1138"
   y2="726.3186">
	<stop
   offset="0"
   style="stop-color:#FEB01F"
   id="stop74" />
	<stop
   offset="1"
   style="stop-color:#FA3A40"
   id="stop75" />
</linearGradient>



















<g
   id="g241"
   transform="translate(0,-42)"><circle
     class="st0"
     cx="1668.6"
     cy="462.10001"
     r="220.39999"
     id="circle2"
     style="fill:url(#SVGID_1_)" /><g
     id="g2">
	<path
   class="st1"
   d="m 532.1,381.7 h 36 c 5.1,0 9.4,1.8 13.1,5.5 3.7,3.7 5.5,8.1 5.5,13.1 v 66.4 c 0,5.1 -1.8,9.5 -5.5,13.1 -3.7,3.7 -8.1,5.5 -13.1,5.5 h -51.2 l -11.1,71.9 H 550 c 5.1,0 9.4,1.8 13.1,5.5 3.7,3.7 5.5,8.1 5.5,13.1 v 66.4 c 0,5.1 -1.8,9.5 -5.5,13.1 -3.7,3.7 -8.1,5.5 -13.1,5.5 h -59.5 l -9,58.8 c -0.9,4.1 -2.9,7.6 -5.9,10.4 -3,2.8 -6.8,4.1 -11.4,4.1 h -72.6 c -4.1,0 -7.7,-1.5 -10.7,-4.5 -3,-3 -4.5,-6.6 -4.5,-10.7 v -1.4 l 8.3,-56.7 h -51.2 l -9,58.8 c -0.9,4.1 -2.9,7.6 -5.9,10.4 -3,2.8 -6.8,4.1 -11.4,4.1 h -72.6 c -4.1,0 -7.7,-1.5 -10.7,-4.5 -3,-3 -4.5,-6.6 -4.5,-10.7 v -1.4 l 8.3,-56.7 h -35.3 c -5.1,0 -9.5,-1.8 -13.1,-5.5 -3.7,-3.7 -5.5,-8.1 -5.5,-13.1 V 576 c 0,-5.1 1.8,-9.4 5.5,-13.1 3.7,-3.7 8.1,-5.5 13.1,-5.5 h 51.2 L 254,485.5 h -43.6 c -5.1,0 -9.5,-1.8 -13.1,-5.5 -3.7,-3.7 -5.5,-8.1 -5.5,-13.1 v -66.4 c 0,-5.1 1.8,-9.4 5.5,-13.1 3.7,-3.7 8.1,-5.5 13.1,-5.5 H 270 l 9,-58.8 c 0.9,-3.7 2.8,-7 5.5,-10 2.8,-3 6.5,-4.5 11.1,-4.5 h 73.3 c 4.2,0 7.7,1.5 10.7,4.5 3,3 4.5,6.6 4.5,10.7 v 2.1 l -9,56 H 427 l 9,-58.8 c 0.9,-3.7 2.8,-7 5.5,-10 2.8,-3 6.4,-4.5 11.1,-4.5 h 73.3 c 4.1,0 7.7,1.5 10.7,4.5 3,3 4.5,6.6 4.5,10.7 v 2.1 z M 348.8,557.3 h 51.9 l 10.4,-71.9 h -51.2 z"
   id="path2" />
</g><path
     class="st1"
     d="m 706.8,832 c 0,0 81.9,50.3 135.6,137.5 53.7,87.2 266.5,184.1 435.5,86.8 16.1,-9.3 30.2,-17.6 42.7,-25 6.3,-3.7 12.1,-7.2 17.6,-10.5 40.3,-26.7 84.7,-52.6 134.2,-50.7 5.5,0.2 11.1,0.8 16.7,1.7 6.2,1 12.4,1.9 18.7,2.6 6.3,0.8 12.6,1.6 19,2.5 18.3,5.7 37.2,8 55.6,6.9 6.1,-0.4 12.2,-1.1 18.2,-2.2 13.5,-2.4 26.9,-5.6 39.7,-10.3 4.3,-1.6 8.4,-3.4 12.6,-5.3 4.9,-2.2 9.5,-4.8 14.1,-7.6 4.5,-2.8 8.9,-5.9 13,-9.3 4.6,-3.9 9.1,-8.1 13.4,-12.4 4.3,-4.3 8.5,-8.8 12.6,-13.4 14.1,-13 26.3,-27.6 36.2,-43.5 3.3,-5.3 6.3,-10.7 9.2,-16.4 2.4,-4.6 4.9,-9.3 7.3,-14 2.4,-4.7 4.7,-9.5 6.9,-14.3 3.1,-5.8 5.7,-11.7 7.9,-17.6 2.1,-6 3.8,-12 5.1,-18.1 11.4,-63.7 -4.1,-135.6 -50.7,-181.6 -4.1,-4.3 -8.4,-8.4 -12.9,-12.3 -31.1,-27.2 -69.4,-44.8 -110.9,-52.1 -5.7,-1.8 -11.3,-3.8 -16.8,-5.9 -44.2,-17.1 -84.9,-45.5 -124,-70.4 -3.4,-2.6 -6.8,-5.1 -10.1,-7.6 -13.4,-10.1 -26.7,-19.8 -40.9,-29.8 -4.7,-3.4 -8.9,-7.2 -12.4,-11.9 -3.6,-4.3 -6.6,-9 -9,-14.2 -2.1,-4.5 -3.9,-9.1 -5.7,-13.7 -1.8,-4.6 -3.5,-9.1 -5.3,-13.7 -4.1,-12.7 -9.9,-24.8 -17.2,-35.8 -3.7,-5.5 -7.8,-10.7 -12.2,-15.5 -3,-3 -6.1,-5.8 -9.3,-8.5 -4.7,-3.6 -9.3,-7.3 -14,-10.8 -52,-31.6 -114.5,-49.4 -175.2,-45.8 -6.2,0.7 -12.3,1.5 -18.4,2.4 -12.2,1.9 -24.4,4.5 -36.4,7.8 -6.4,1.4 -12.7,3.2 -18.8,5.3 -42.9,15.1 -78.2,50.5 -91.1,96.1 -1.1,5.6 -1.6,11.5 -2,17.3 -0.2,3.9 -0.4,7.8 -0.7,11.6 -5.6,31.9 -29.6,55.3 -54.7,74.8 -5,3.9 -10.1,7.7 -15.1,11.3 -2.7,2.9 -6.2,4.3 -9.6,5.8 -48.9,21.2 -102.1,25.6 -141.8,62.9 -23.8,22.1 -34.7,52.9 -48.1,81.5 -1.6,3.7 -3.1,7.5 -4.5,11.2 -23.1,60.3 -27.8,125 -2.1,161.5"
     id="path3" /><g
     id="g9">
	<path
   class="st2"
   d="m 1147,208.5 -592.5,-6.9 c -42.1,-0.5 -48,33.7 -48.5,75.8 l -0.2,19.2 -4.8,409.8 c -0.5,42.1 36.3,76.6 78.4,77.1 l 560.8,6.6 c 42.1,0.5 76.7,-33.2 77.2,-75.3 l 4.8,-409.8 0.2,-19.2 c 0.5,-42.1 -8.1,-77.3 -75.4,-77.3 z"
   id="path4" />
	<g
   id="g6">
		
			<linearGradient
   id="SVGID_2_"
   gradientUnits="userSpaceOnUse"
   x1="491.22641"
   y1="26.117399"
   x2="1207.6586"
   y2="26.117399"
   gradientTransform="matrix(0.9999,0.0117,-0.0117,0.9999,-8.9388,195.2465)">
			<stop
   offset="0"
   style="stop-color:#4A7AB7"
   id="stop4" />
			<stop
   offset="1"
   style="stop-color:#9ECBE1"
   id="stop5" />
		</linearGradient>
		<path
   class="st3"
   d="m 1198,264.1 c 0.5,-42.1 -8.1,-77.2 -75.4,-77.2 L 530.1,180 c -42.1,-0.5 -48,33.7 -48.5,75.8 l -0.2,19.2 716.4,8.4 z"
   id="path5"
   style="fill:url(#SVGID_2_)" />
		<path
   class="st4"
   d="m 481.4,274.9 -4.8,409.8 c -0.5,42.1 36.3,76.6 78.4,77.1 l 560.8,6.6 c 42.1,0.5 76.7,-33.2 77.2,-75.3 l 4.8,-409.8 z"
   id="path6" />
	</g>
	<path
   class="st5"
   d="m 1088.6,234.4 c -0.1,10.1 -8.4,18.2 -18.6,18.1 -10.1,-0.1 -18.2,-8.4 -18.1,-18.6 0.1,-10.1 8.4,-18.2 18.6,-18.1 10.1,0.1 18.2,8.5 18.1,18.6 z"
   id="path7" />
	<path
   class="st5"
   d="m 1149.7,235.1 c -0.1,10.1 -8.4,18.2 -18.6,18.1 -10.1,-0.1 -18.2,-8.4 -18.1,-18.6 0.1,-10.1 8.4,-18.2 18.6,-18.1 10.1,0.2 18.2,8.5 18.1,18.6 z"
   id="path8" />
	<path
   class="st5"
   d="m 792,227 c 0,4.3 -3.5,7.7 -7.7,7.7 H 548.4 c -4.3,0 -7.7,-3.5 -7.7,-7.7 v 0 c 0,-4.3 3.5,-7.7 7.7,-7.7 h 235.9 c 4.3,0 7.7,3.4 7.7,7.7 z"
   id="path9" />
</g><path
     class="st6"
     d="m 1361.8,455.6 c -0.8,-2.7 -1.6,-5.3 -2.3,-7.7 -0.7,-2.4 -1.5,-4.6 -2.2,-6.7 -0.7,-2.1 -1.3,-4 -1.9,-5.7 -0.8,-2.2 -1.5,-4.1 -2.1,-5.7 -5.3,-2.3 -44.4,-21.3 -37.5,-71.9 0,0 53.9,14.5 38.2,71.6 0.8,1.5 1.8,3.2 2.9,5.3 1.7,3.2 3.6,7.2 5.7,11.9 1,2.3 2.1,4.8 3.2,7.5 1.2,2.6 1.8,5.6 2.8,8.5 0.7,2.3 1.5,4.8 2.2,7.3 0.8,-2.7 1.8,-6.1 2.9,-9.7 0.5,-1.8 1,-3.5 1.5,-5.2 0.2,-0.6 0.4,-1.2 0.6,-1.8 -28.4,-55.7 10.5,-80 10.5,-80 22.3,61.7 -0.5,76.5 -8.1,79.5 -0.3,0.9 -0.6,1.9 -1,2.9 -0.5,1.6 -1,3.4 -1.5,5.1 -1,3.5 -2.1,7 -2.9,9.7 -0.1,0.3 -0.1,0.7 -0.3,0.9 -0.2,0.3 -0.3,0.5 -0.5,0.8 -0.2,0.3 -0.3,0.4 -0.4,0.7 0.8,3 1.6,6 2.4,9.2 0.4,1.7 0.9,3.5 1.4,5.3 0.4,1.8 0.8,3.6 1.2,5.5 0.8,3.7 1.6,7.5 2.4,11.3 0.7,3.9 1.4,7.7 1.9,11.7 0.3,1.9 0.5,3.8 0.8,5.7 0.1,-0.6 0.1,-1.1 0.3,-1.7 0.2,-1 0.4,-2 0.6,-3.1 0.4,-2.1 0.7,-4.1 1.1,-6.1 0.5,-1.9 0.9,-3.7 1.2,-5.2 0.1,-0.4 0.1,-0.8 0.3,-1.1 0.2,-0.3 0.3,-0.6 0.5,-0.9 0.1,-0.3 0.3,-0.5 0.4,-0.7 -2.2,-9.5 -8.1,-48.1 32.7,-72.9 0,0 22.6,50.9 -31.5,74.7 0,0.1 0,0.2 0,0.3 0,0.4 -0.2,0.7 -0.3,1.1 -0.4,1.5 -0.8,3.3 -1.2,5.1 -0.3,1.9 -0.7,3.9 -1.1,6 -0.2,1 -0.4,2 -0.6,3 -0.2,1 -0.3,2 -0.4,2.9 -0.2,1.9 -0.4,3.7 -0.5,5.3 -0.1,0.4 0,0.8 -0.1,1.1 -0.1,0.2 -0.1,0.4 -0.2,0.6 1,7.4 1.9,14.8 3.4,22.1 0.7,4.1 1.7,8 2.6,12 0.5,2 1.1,3.9 1.7,5.9 0.6,1.9 1.1,3.9 1.8,5.8 0.2,0.4 0.3,0.8 0.5,1.3 0,-0.3 0.1,-0.6 0.1,-0.9 0.1,-1.4 0.4,-2.8 0.7,-4.2 0.2,-1.5 0.7,-2.9 1.1,-4.5 0.5,-1.5 1,-3 1.6,-4.5 0.6,-1.3 1.2,-2.7 1.9,-4 -0.3,0 -0.6,0 -0.9,0.1 0,0 -2,-48.4 47.6,-58.1 0,0 7.8,53.3 -44.1,57.8 -0.2,0.3 -0.4,0.6 -0.5,0.9 -0.8,1.3 -1.3,2.7 -2,4.1 -0.6,1.4 -1,2.9 -1.5,4.3 -0.3,1.5 -0.8,2.9 -1,4.3 -0.3,1.4 -0.5,2.8 -0.7,4.1 -0.2,1.3 -0.3,2.5 -0.3,3.7 -0.1,0.6 0,1.1 -0.1,1.6 0,0.1 0,0.1 0,0.2 0.6,1.7 1.3,3.4 2,5 0.8,1.8 1.5,3.6 2.3,5.4 0.8,1.8 1.8,3.5 2.6,5.2 0.9,1.7 1.7,3.4 2.6,5.1 0.9,1.6 1.9,3.3 2.8,4.9 1.9,3.2 3.6,6.4 5.6,9.3 2,3 3.8,5.8 5.7,8.6 0.5,0.6 0.9,1.3 1.4,1.9 -0.1,-0.7 -0.2,-1.5 -0.2,-2.3 -0.2,-3.4 0.2,-6.7 0.8,-9.2 0.1,-0.3 0.1,-0.6 0.2,-0.9 0.2,-0.3 0.3,-0.5 0.4,-0.7 0.2,-0.3 0.4,-0.5 0.5,-0.8 -1.4,-4.9 -10.3,-41.5 26.8,-60.1 0,0 19.9,44.8 -25.7,60.4 0,0.3 0,0.6 0,1 0,0.3 0,0.5 0,0.8 0,0.3 -0.2,0.5 -0.2,0.8 -0.5,2.3 -1,5.4 -0.8,8.6 0.1,1.6 0.3,3.1 0.6,4.5 0.1,0.7 0.4,1.4 0.5,2 0,0.1 0.1,0.2 0.1,0.3 0.4,0.5 0.7,1 1.1,1.5 0.9,1.2 1.8,2.5 2.7,3.7 0.9,1.2 1.8,2.3 2.6,3.5 1.6,2.3 3.1,4.5 4.6,6.6 2.8,4.2 5.5,7.7 7.7,10.6 4.4,5.8 6.8,9.2 6.8,9.2 0,0 -2.9,-2.9 -8,-8.2 -2.5,-2.6 -5.7,-5.8 -9,-9.6 -1.2,-1.3 -2.4,-2.7 -3.7,-4.1 -0.2,0 -0.3,0 -0.5,0 -0.3,0 -0.6,-0.1 -0.9,-0.1 -0.3,0 -0.6,-0.2 -0.9,-0.3 -0.6,-0.2 -1.2,-0.5 -1.9,-0.7 -0.7,-0.2 -1.5,-0.3 -2.3,-0.5 -0.8,-0.2 -1.6,-0.4 -2.4,-0.6 -0.8,-0.1 -1.7,-0.2 -2.5,-0.3 -0.8,-0.1 -1.7,-0.2 -2.5,-0.2 -0.8,0 -1.7,0 -2.5,0 -0.8,0 -1.6,0.1 -2.3,0.2 -0.7,0.1 -1.4,0.1 -2,0.2 -0.3,0 -0.6,0.2 -0.9,0.2 -0.2,0 -0.3,0 -0.4,0 -7.1,5.1 -41.2,26.4 -80.2,-2.7 0,0 38.3,-39.7 80.5,0.5 0.2,0 0.5,-0.1 0.7,-0.1 0.7,-0.1 1.4,-0.2 2.2,-0.3 0.8,-0.1 1.6,-0.2 2.4,-0.2 0.8,0 1.7,0 2.6,0 0.9,-0.1 1.8,0.1 2.7,0.2 0.9,0.1 1.8,0.2 2.7,0.3 0.9,0.1 1.7,0.4 2.6,0.6 0.8,0.2 1.6,0.4 2.4,0.6 0.4,0.1 0.7,0.2 1,0.3 -1.6,-1.9 -3,-4.1 -4.6,-6.2 -1.8,-2.5 -3.8,-5.2 -5.7,-7.9 -1.8,-2.8 -3.8,-5.8 -5.7,-8.8 -2,-3 -3.8,-6.2 -5.7,-9.5 -0.9,-1.6 -1.9,-3.3 -2.9,-5 -0.5,-0.9 -0.9,-1.8 -1.4,-2.7 -0.1,0 -0.2,0 -0.4,0 -0.2,0 -0.4,-0.2 -0.6,-0.3 -1.6,-0.7 -3.8,-1.7 -6,-2.7 -2.2,-1 -4.4,-2 -6,-2.7 -0.1,-0.1 -0.3,-0.1 -0.4,-0.2 -10.7,2.4 -47.9,7.3 -72.3,-32.4 0,0 51,-23.1 75.1,31.2 1.4,0.6 2.9,1.3 4.5,2 1.6,0.7 3.2,1.4 4.6,2.1 -0.8,-1.7 -1.7,-3.3 -2.5,-5 -0.8,-1.8 -1.6,-3.7 -2.4,-5.5 -1.7,-3.7 -3,-7.6 -4.4,-11.5 -0.7,-1.9 -1.3,-3.9 -1.9,-5.9 -0.6,-2 -1.2,-4 -1.7,-6 -0.7,-3 -1.4,-6.1 -2,-9.1 -0.2,-0.3 -0.3,-0.6 -0.5,-0.9 -0.9,-1.7 -1.8,-3.8 -3.1,-5.9 -1.2,-2.1 -2.5,-4.4 -3.9,-6.6 -2.7,-4.5 -5.6,-8.9 -7.8,-12.2 -0.3,-0.4 -0.6,-0.8 -0.8,-1.2 -0.1,-0.2 -0.2,-0.4 -0.3,-0.7 -6,-0.6 -50.7,-6.7 -51.7,-58.2 0,0 63.3,12.1 52.7,56.6 0,0 0.1,0.1 0.1,0.1 0.3,0.3 0.6,0.6 0.9,0.9 0.3,0.3 0.5,0.8 0.8,1.2 2.2,3.3 5.1,7.7 7.9,12.2 1.4,2.2 2.7,4.6 3.9,6.7 0.1,0.2 0.2,0.3 0.2,0.5 -1.2,-6.8 -2,-13.6 -2.9,-20.3 -0.5,-4.1 -1.1,-8 -1.6,-12 -0.6,-3.9 -1.3,-7.9 -1.9,-11.7 -0.8,-3.8 -1.6,-7.5 -2.3,-11.1 -0.4,-1.8 -0.8,-3.6 -1.1,-5.4 -0.4,-1.8 -0.9,-3.5 -1.3,-5.2 -0.8,-3.1 -1.6,-6 -2.4,-9 -0.4,-0.7 -0.8,-1.5 -1.4,-2.2 -0.6,-0.9 -1.3,-1.9 -2,-2.7 -0.7,-0.9 -1.4,-1.8 -2.2,-2.6 -0.7,-0.8 -1.6,-1.6 -2.3,-2.3 -1.6,-1.4 -3.1,-2.7 -4.5,-3.7 -0.3,-0.3 -0.7,-0.4 -1,-0.7 -0.3,-0.3 -0.6,-0.6 -0.8,-0.8 0,0 0,0 0,-0.1 -9,0.6 -38.9,-0.3 -44.2,-34.9 0,0 40.3,-5.4 46.7,34.3 0.2,0.2 0.4,0.3 0.6,0.4 1.5,1 3.1,2.3 4.8,3.8 0.8,0.8 1.7,1.6 2.4,2.4 0.7,0.8 1.4,1.6 2,2.4 -0.4,-1.2 -0.8,-2.4 -1.1,-3.6 -1.1,-2.4 -2.1,-5.2 -2.9,-7.9 z"
     id="path10" /><g
     id="g35">
	<g
   id="g16">
		<path
   class="st7"
   d="m 1717.3,944.6 c 0,2.9 -2.4,5.3 -5.3,5.3 -2.9,0 -5.3,-2.4 -5.3,-5.3 0,-2.9 2.4,-5.3 5.3,-5.3 2.9,-0.1 5.3,2.3 5.3,5.3 z"
   id="path11" />
		<path
   class="st7"
   d="m 1747.6,944.6 c 0,2.9 -2.4,5.3 -5.3,5.3 -2.9,0 -5.3,-2.4 -5.3,-5.3 0,-2.9 2.4,-5.3 5.3,-5.3 2.9,-0.1 5.3,2.3 5.3,5.3 z"
   id="path12" />
		<path
   class="st7"
   d="m 1777.9,944.6 c 0,2.9 -2.4,5.3 -5.3,5.3 -2.9,0 -5.3,-2.4 -5.3,-5.3 0,-2.9 2.4,-5.3 5.3,-5.3 2.9,-0.1 5.3,2.3 5.3,5.3 z"
   id="path13" />
		<path
   class="st7"
   d="m 1808.1,944.6 c 0,2.9 -2.4,5.3 -5.3,5.3 -2.9,0 -5.3,-2.4 -5.3,-5.3 0,-2.9 2.4,-5.3 5.3,-5.3 3,-0.1 5.3,2.3 5.3,5.3 z"
   id="path14" />
		<path
   class="st7"
   d="m 1838.4,944.6 c 0,2.9 -2.4,5.3 -5.3,5.3 -2.9,0 -5.3,-2.4 -5.3,-5.3 0,-2.9 2.4,-5.3 5.3,-5.3 2.9,-0.1 5.3,2.3 5.3,5.3 z"
   id="path15" />
		<path
   class="st7"
   d="m 1868.7,944.6 c 0,2.9 -2.4,5.3 -5.3,5.3 -2.9,0 -5.3,-2.4 -5.3,-5.3 0,-2.9 2.4,-5.3 5.3,-5.3 2.9,0 5.3,2.3 5.3,5.3 z"
   id="path16" />
	</g>
	<g
   id="g22">
		<path
   class="st7"
   d="m 1717.3,977.7 c 0,2.9 -2.4,5.3 -5.3,5.3 -2.9,0 -5.3,-2.4 -5.3,-5.3 0,-2.9 2.4,-5.3 5.3,-5.3 2.9,-0.1 5.3,2.3 5.3,5.3 z"
   id="path17" />
		<path
   class="st7"
   d="m 1747.6,977.7 c 0,2.9 -2.4,5.3 -5.3,5.3 -2.9,0 -5.3,-2.4 -5.3,-5.3 0,-2.9 2.4,-5.3 5.3,-5.3 2.9,-0.1 5.3,2.3 5.3,5.3 z"
   id="path18" />
		<path
   class="st7"
   d="m 1777.9,977.7 c 0,2.9 -2.4,5.3 -5.3,5.3 -2.9,0 -5.3,-2.4 -5.3,-5.3 0,-2.9 2.4,-5.3 5.3,-5.3 2.9,-0.1 5.3,2.3 5.3,5.3 z"
   id="path19" />
		<path
   class="st7"
   d="m 1808.1,977.7 c 0,2.9 -2.4,5.3 -5.3,5.3 -2.9,0 -5.3,-2.4 -5.3,-5.3 0,-2.9 2.4,-5.3 5.3,-5.3 3,-0.1 5.3,2.3 5.3,5.3 z"
   id="path20" />
		<path
   class="st7"
   d="m 1838.4,977.7 c 0,2.9 -2.4,5.3 -5.3,5.3 -2.9,0 -5.3,-2.4 -5.3,-5.3 0,-2.9 2.4,-5.3 5.3,-5.3 2.9,-0.1 5.3,2.3 5.3,5.3 z"
   id="path21" />
		<path
   class="st7"
   d="m 1868.7,977.7 c 0,2.9 -2.4,5.3 -5.3,5.3 -2.9,0 -5.3,-2.4 -5.3,-5.3 0,-2.9 2.4,-5.3 5.3,-5.3 2.9,0 5.3,2.3 5.3,5.3 z"
   id="path22" />
	</g>
	<g
   id="g28">
		<path
   class="st7"
   d="m 1717.3,1010.8 c 0,2.9 -2.4,5.3 -5.3,5.3 -2.9,0 -5.3,-2.4 -5.3,-5.3 0,-2.9 2.4,-5.3 5.3,-5.3 2.9,0 5.3,2.3 5.3,5.3 z"
   id="path23" />
		<path
   class="st7"
   d="m 1747.6,1010.8 c 0,2.9 -2.4,5.3 -5.3,5.3 -2.9,0 -5.3,-2.4 -5.3,-5.3 0,-2.9 2.4,-5.3 5.3,-5.3 2.9,0 5.3,2.3 5.3,5.3 z"
   id="path24" />
		<path
   class="st7"
   d="m 1777.9,1010.8 c 0,2.9 -2.4,5.3 -5.3,5.3 -2.9,0 -5.3,-2.4 -5.3,-5.3 0,-2.9 2.4,-5.3 5.3,-5.3 2.9,0 5.3,2.3 5.3,5.3 z"
   id="path25" />
		<path
   class="st7"
   d="m 1808.1,1010.8 c 0,2.9 -2.4,5.3 -5.3,5.3 -2.9,0 -5.3,-2.4 -5.3,-5.3 0,-2.9 2.4,-5.3 5.3,-5.3 3,0 5.3,2.3 5.3,5.3 z"
   id="path26" />
		<path
   class="st7"
   d="m 1838.4,1010.8 c 0,2.9 -2.4,5.3 -5.3,5.3 -2.9,0 -5.3,-2.4 -5.3,-5.3 0,-2.9 2.4,-5.3 5.3,-5.3 2.9,0 5.3,2.3 5.3,5.3 z"
   id="path27" />
		<path
   class="st7"
   d="m 1868.7,1010.8 c 0,2.9 -2.4,5.3 -5.3,5.3 -2.9,0 -5.3,-2.4 -5.3,-5.3 0,-2.9 2.4,-5.3 5.3,-5.3 2.9,0 5.3,2.3 5.3,5.3 z"
   id="path28" />
	</g>
	<g
   id="g34">
		<path
   class="st7"
   d="m 1717.3,1043.9 c 0,2.9 -2.4,5.3 -5.3,5.3 -2.9,0 -5.3,-2.4 -5.3,-5.3 0,-2.9 2.4,-5.3 5.3,-5.3 2.9,0 5.3,2.4 5.3,5.3 z"
   id="path29" />
		<path
   class="st7"
   d="m 1747.6,1043.9 c 0,2.9 -2.4,5.3 -5.3,5.3 -2.9,0 -5.3,-2.4 -5.3,-5.3 0,-2.9 2.4,-5.3 5.3,-5.3 2.9,0 5.3,2.4 5.3,5.3 z"
   id="path30" />
		<path
   class="st7"
   d="m 1777.9,1043.9 c 0,2.9 -2.4,5.3 -5.3,5.3 -2.9,0 -5.3,-2.4 -5.3,-5.3 0,-2.9 2.4,-5.3 5.3,-5.3 2.9,0 5.3,2.4 5.3,5.3 z"
   id="path31" />
		<path
   class="st7"
   d="m 1808.1,1043.9 c 0,2.9 -2.4,5.3 -5.3,5.3 -2.9,0 -5.3,-2.4 -5.3,-5.3 0,-2.9 2.4,-5.3 5.3,-5.3 3,0 5.3,2.4 5.3,5.3 z"
   id="path32" />
		<path
   class="st7"
   d="m 1838.4,1043.9 c 0,2.9 -2.4,5.3 -5.3,5.3 -2.9,0 -5.3,-2.4 -5.3,-5.3 0,-2.9 2.4,-5.3 5.3,-5.3 2.9,0 5.3,2.4 5.3,5.3 z"
   id="path33" />
		<path
   class="st7"
   d="m 1868.7,1043.9 c 0,2.9 -2.4,5.3 -5.3,5.3 -2.9,0 -5.3,-2.4 -5.3,-5.3 0,-2.9 2.4,-5.3 5.3,-5.3 2.9,0 5.3,2.4 5.3,5.3 z"
   id="path34" />
	</g>
</g><path
     class="st4"
     d="m 1441.8,884.9 c 0,7.5 -3.8,13.5 -8.5,13.5 h -77.8 c -4.7,0 -8.5,-6.1 -8.5,-13.5 V 656.4 c 0,-7.5 3.8,-13.5 8.5,-13.5 h 77.8 c 4.7,0 8.5,6 8.5,13.5 z"
     id="path35" /><path
     class="st4"
     d="m 1338.4,624.7 24.9,-58.3 -28.1,-23.5 -52.6,-9.2 c 0,0 -18.8,44.4 18.7,52.4"
     id="path36" /><g
     id="g42">
	<linearGradient
   id="SVGID_3_"
   gradientUnits="userSpaceOnUse"
   x1="1170.665"
   y1="720.36511"
   x2="1310.7227"
   y2="720.36511">
		<stop
   offset="0"
   style="stop-color:#FEB01F"
   id="stop36" />
		<stop
   offset="1"
   style="stop-color:#FA3A40"
   id="stop37" />
	</linearGradient>
	<path
   class="st8"
   d="m 1281.8,654 c -11,12.1 -15.5,35.5 -25.9,55.9 -14.5,28.3 -60.8,65.4 -85.2,71.1 l 9,16.4 c 0,0 72.4,-7.6 99.5,-44.2 20.7,-27.8 41.1,-97.9 26.8,-108.9 -3.4,-2.6 -14.7,-0.9 -24.2,9.7 z"
   id="path37"
   style="fill:url(#SVGID_3_)" />
	<linearGradient
   id="SVGID_4_"
   gradientUnits="userSpaceOnUse"
   x1="1128.8278"
   y1="792.7865"
   x2="1186.8448"
   y2="792.7865">
		<stop
   offset="0.2957"
   style="stop-color:#FDDC70"
   id="stop38" />
		<stop
   offset="0.4036"
   style="stop-color:#FDC96B"
   id="stop39" />
		<stop
   offset="0.6217"
   style="stop-color:#FC995C"
   id="stop40" />
		<stop
   offset="0.9277"
   style="stop-color:#FB4C45"
   id="stop41" />
		<stop
   offset="1"
   style="stop-color:#FA3A40"
   id="stop42" />
	</linearGradient>
	<path
   class="st9"
   d="m 1170.7,781.1 -27.2,5.3 c 0,0 -8.4,1.7 -9.4,3.8 -1,2.1 -5.2,14.3 -5.2,14.3 l 58,-1.2"
   id="path42"
   style="fill:url(#SVGID_4_)" />
	<polyline
   class="st10"
   points="1171.9,795.1 1168.3,801 1156.5,802.2  "
   id="polyline42" />
</g><path
     class="st11"
     d="m 1403.5,807.1 c 0,0 -32.8,-103.9 -23.1,-144.8 0,0 -3.2,-18.8 -33.4,-19.4 0,0 -7.2,-0.2 -10,-0.8 -7.4,-1.6 -37.8,1.4 -37.8,1.4 0,0 -15.4,17.4 -22.8,41.2 -13.1,42.4 -6.8,122.6 -6.8,122.6 l 25.5,-0.1 41.5,-0.2 c 0.1,1.1 0.1,1.6 0.1,1.6 z"
     id="path44"
     style="fill:url(#SVGID_5_)" /><g
     id="g54">
	
		<linearGradient
   id="SVGID_6_"
   gradientUnits="userSpaceOnUse"
   x1="1833.0719"
   y1="630.43597"
   x2="1796.5968"
   y2="628.69067"
   gradientTransform="matrix(-1,0,0,1,3145.2617,0)">
		<stop
   offset="0.2957"
   style="stop-color:#FDDC70"
   id="stop45" />
		<stop
   offset="0.4036"
   style="stop-color:#FDC96B"
   id="stop46" />
		<stop
   offset="0.6217"
   style="stop-color:#FC995C"
   id="stop47" />
		<stop
   offset="0.9277"
   style="stop-color:#FB4C45"
   id="stop48" />
		<stop
   offset="1"
   style="stop-color:#FA3A40"
   id="stop49" />
	</linearGradient>
	<path
   class="st12"
   d="m 1334.7,602.8 6.7,39.9 c 0,0 -18.2,15.7 -26.8,13.9 -7.1,-1.5 1.9,-40 1.9,-40 z"
   id="path49"
   style="fill:url(#SVGID_6_)" />
	<path
   class="st13"
   d="m 1313.5,634.1 c 0,0 20,2 23.1,-25.2 l 3.4,-2.8 -14.2,-0.7 -10.9,15.6 z"
   id="path50" />
	
		<linearGradient
   id="SVGID_7_"
   gradientUnits="userSpaceOnUse"
   x1="1860.2058"
   y1="597.95502"
   x2="1779.3633"
   y2="601.41138"
   gradientTransform="matrix(-1,0,0,1,3145.2617,0)">
		<stop
   offset="0.4358"
   style="stop-color:#FDDC70"
   id="stop50" />
		<stop
   offset="0.5222"
   style="stop-color:#FDC96B"
   id="stop51" />
		<stop
   offset="0.697"
   style="stop-color:#FC995C"
   id="stop52" />
		<stop
   offset="0.9421"
   style="stop-color:#FB4C45"
   id="stop53" />
		<stop
   offset="1"
   style="stop-color:#FA3A40"
   id="stop54" />
	</linearGradient>
	<path
   class="st14"
   d="m 1299.3,579.6 c 0,0 -8.2,44.9 10.4,49.3 18.6,4.5 24.6,-18.6 24.6,-18.6 0,0 15.3,1.9 13.4,-17.9 -1.2,-12.1 -13.4,-8.2 -13.4,-8.2 l -0.6,-12.8 c 0,0 -11.8,-6.1 -19.5,2 -7.8,8.1 -14.9,6.2 -14.9,6.2 z"
   id="path54"
   style="fill:url(#SVGID_7_)" />
</g><path
     class="st5"
     d="m 1324.3,609.9 -20.4,0.2 c 0,0 2.2,9.2 10.1,9.2"
     id="path55" /><g
     id="g69">
	<path
   class="st15"
   d="m 1380.3,398.6 c 27.9,-27.9 27.9,-73 0,-100.9 -27.9,-27.9 -73,-27.9 -100.9,0 -27.8,27.9 -27.8,73 0,100.9 27.9,27.9 73,27.9 100.9,0 z m -90.9,-90.9 c 22.4,-22.4 58.6,-22.4 81,0 22.4,22.4 22.4,58.6 0,81 -22.4,22.4 -58.6,22.4 -81,0 -22.4,-22.4 -22.4,-58.6 0,-81 z"
   id="path56" />
	<path
   class="st5"
   d="m 1375.3,342.2 c 0,31.6 -25.6,57.3 -57.3,57.3 -31.6,0 -57.3,-25.6 -57.3,-57.3 0,-31.6 25.6,-57.3 57.3,-57.3 31.6,0.1 57.3,25.7 57.3,57.3 z"
   id="path57" />
	<g
   id="g60">
		<linearGradient
   id="SVGID_8_"
   gradientUnits="userSpaceOnUse"
   x1="1316.0065"
   y1="290.87839"
   x2="1320.0277"
   y2="290.87839">
			<stop
   offset="0"
   style="stop-color:#FFFFFF"
   id="stop57" />
			<stop
   offset="1"
   style="stop-color:#9ECBE1"
   id="stop58" />
		</linearGradient>
		<rect
   x="1316"
   y="279.79999"
   class="st16"
   width="4"
   height="22.200001"
   id="rect58"
   style="fill:url(#SVGID_8_)" />
		<linearGradient
   id="SVGID_9_"
   gradientUnits="userSpaceOnUse"
   x1="1316.0065"
   y1="393.57401"
   x2="1320.0277"
   y2="393.57401">
			<stop
   offset="0"
   style="stop-color:#FFFFFF"
   id="stop59" />
			<stop
   offset="1"
   style="stop-color:#9ECBE1"
   id="stop60" />
		</linearGradient>
		<rect
   x="1316"
   y="382.5"
   class="st17"
   width="4"
   height="22.200001"
   id="rect60"
   style="fill:url(#SVGID_9_)" />
	</g>
	<g
   id="g64">
		<linearGradient
   id="SVGID_10_"
   gradientUnits="userSpaceOnUse"
   x1="1358.2499"
   y1="342.22559"
   x2="1380.4835"
   y2="342.22559">
			<stop
   offset="0"
   style="stop-color:#FFFFFF"
   id="stop61" />
			<stop
   offset="1"
   style="stop-color:#9ECBE1"
   id="stop62" />
		</linearGradient>
		<rect
   x="1358.2"
   y="340.20001"
   class="st18"
   width="22.200001"
   height="4"
   id="rect62"
   style="fill:url(#SVGID_10_)" />
		<linearGradient
   id="SVGID_11_"
   gradientUnits="userSpaceOnUse"
   x1="1255.5519"
   y1="342.22559"
   x2="1277.7886"
   y2="342.22559">
			<stop
   offset="0"
   style="stop-color:#FFFFFF"
   id="stop63" />
			<stop
   offset="1"
   style="stop-color:#9ECBE1"
   id="stop64" />
		</linearGradient>
		<rect
   x="1255.6"
   y="340.20001"
   class="st19"
   width="22.200001"
   height="4"
   id="rect64"
   style="fill:url(#SVGID_11_)" />
	</g>
	<linearGradient
   id="SVGID_12_"
   gradientUnits="userSpaceOnUse"
   x1="1318.0171"
   y1="413.54111"
   x2="1318.0171"
   y2="270.91269">
		<stop
   offset="0"
   style="stop-color:#4A7AB7"
   id="stop65" />
		<stop
   offset="1"
   style="stop-color:#9ECBE1"
   id="stop66" />
	</linearGradient>
	<path
   class="st20"
   d="m 1318,270.9 c -39.4,0 -71.3,31.9 -71.3,71.3 0,39.4 31.9,71.3 71.3,71.3 39.4,0 71.3,-31.9 71.3,-71.3 0,-39.4 -31.9,-71.3 -71.3,-71.3 z m 0,128.6 c -31.6,0 -57.3,-25.6 -57.3,-57.3 0,-31.6 25.6,-57.3 57.3,-57.3 31.6,0 57.3,25.6 57.3,57.3 0,31.7 -25.7,57.3 -57.3,57.3 z"
   id="path66"
   style="fill:url(#SVGID_12_)" />
	<g
   id="g66">
		<polygon
   class="st4"
   points="1329.9,361.3 1316.3,342.8 1316.3,312.7 1319.8,312.7 1319.8,341.6 1332.7,359.2 "
   id="polygon66" />
	</g>
	<g
   id="g68">
		<linearGradient
   id="SVGID_13_"
   gradientUnits="userSpaceOnUse"
   x1="1302.1687"
   y1="352.11789"
   x2="1320.028"
   y2="352.11789">
			<stop
   offset="0.1047"
   style="stop-color:#FC6F3D"
   id="stop67" />
			<stop
   offset="0.9543"
   style="stop-color:#F7426E"
   id="stop68" />
		</linearGradient>
		<path
   class="st21"
   d="m 1303.5,363.3 c -0.3,0 -0.6,-0.1 -0.8,-0.3 -0.6,-0.4 -0.7,-1.3 -0.2,-1.8 l 15.2,-19.8 c 0.4,-0.6 1.3,-0.7 1.8,-0.2 0.6,0.4 0.7,1.3 0.2,1.8 l -15.2,19.8 c -0.2,0.4 -0.6,0.5 -1,0.5 z"
   id="path68"
   style="fill:url(#SVGID_13_)" />
	</g>
</g><path
     class="st22"
     d="m 1308.3,778.9 -26.6,-1.4 c 0,0 -29.4,12.6 -31.2,14 -1.8,1.4 -3.2,10.8 -3.2,10.8 0,0 -2.2,0.4 3.6,0.7 5.7,0.4 26.2,1.8 26.2,1.8 0,0 22.6,-6.8 26.2,-7.2 3.6,-0.4 18.7,0 18.7,0"
     id="path73"
     style="fill:url(#SVGID_14_)" /><path
     class="st23"
     d="m 1369.3,648.6 c 0,0 30.6,4.8 33.7,38.8 2.7,29.3 14.1,106.9 6.6,113.4 -7.5,6.5 -103.2,1.4 -103.2,1.4 v -26.9 l 64.9,-1.1 -8.8,-87.2 c 0,0 -20.2,-36.2 6.8,-38.4 z"
     id="path75"
     style="fill:url(#SVGID_15_)" /><path
     class="st4"
     d="m 1590,809.2 c 0,2 -1.7,3.1 -3.7,3.1 h -511.1 c -2,0 -3.6,-1.1 -3.6,-3.1 v -1.8 c 0,-2 1.6,-4 3.6,-4 h 511.1 c 2,0 3.7,2 3.7,4 z"
     id="path76" /><g
     id="g80">
	<path
   class="st5"
   d="m 1212.1,756 c 0.6,2.9 -1.3,5.3 -4.2,5.3 h -255 c -2.9,0 -5.7,-2.4 -6.3,-5.3 L 918.2,608.6 c -0.6,-2.9 1.3,-5.5 4.2,-5.5 h 255 c 2.9,0 5.7,2.6 6.3,5.5 z"
   id="path77" />
	
		<linearGradient
   id="SVGID_16_"
   gradientUnits="userSpaceOnUse"
   x1="-3314.5498"
   y1="682.71161"
   x2="-3015.3806"
   y2="682.71161"
   gradientTransform="translate(4211.4062)">
		<stop
   offset="0"
   style="stop-color:#4A7AB7"
   id="stop77" />
		<stop
   offset="1"
   style="stop-color:#9ECBE1"
   id="stop78" />
	</linearGradient>
	<path
   class="st24"
   d="m 1195.9,756.4 c 0.6,2.9 -1.4,5.9 -4.3,5.9 H 932.2 c -2.9,0 -5.8,-2.9 -6.4,-5.9 L 897,608.3 c -0.6,-2.9 1.4,-5.1 4.3,-5.1 h 259.4 c 3,0 5.8,2.1 6.4,5.1 z"
   id="path78"
   style="fill:url(#SVGID_16_)" />
	<path
   class="st25"
   d="m 1092.4,733.7 c 0.2,1 -0.4,1.8 -1.4,1.8 h -85.2 c -1,0 -1.9,-0.9 -2.1,-1.8 l -9.6,-49.3 c -0.2,-1 0.4,-1.8 1.4,-1.8 h 85.2 c 1,0 1.9,0.8 2.1,1.8 z"
   id="path79" />
	<rect
   x="983"
   y="792.70001"
   class="st26"
   width="297.39999"
   height="12.5"
   id="rect79" />
	<rect
   x="982.29999"
   y="801"
   class="st25"
   width="297.39999"
   height="12.5"
   id="rect80" />
	<polyline
   class="st26"
   points="1046.1,811.7 1068.5,729.2 1053.9,729.2 1031.4,811.8  "
   id="polyline80" />
	<polygon
   class="st25"
   points="1020.4,728.9 1019,733.7 997.6,812.2 1037.1,812.2 1059.6,729.5 "
   id="polygon80" />
</g><g
     id="g125">
	<path
   class="st5"
   d="m 826.3,344 c 0,5 -4,9 -9,9 h -130 c -5,0 -9,-4 -9,-9 v 0 c 0,-5 4,-9 9,-9 h 129.9 c 5,0 9.1,4 9.1,9 z"
   id="path80" />
	<path
   class="st5"
   d="m 1066.9,344.8 c 0,5 -4,9 -9,9 H 928 c -5,0 -9,-4 -9,-9 v 0 c 0,-5 4,-9 9,-9 h 129.9 c 5,0 9,4 9,9 z"
   id="path81" />
	<path
   class="st5"
   d="m 903.3,344.6 c 0,5 -4,9 -9,9 h -45.7 c -5,0 -9,-4 -9,-9 v 0 c 0,-5 4,-9 9,-9 h 45.7 c 4.9,0 9,4 9,9 z"
   id="path82" />
	<path
   class="st5"
   d="m 761.3,377.5 c 0,5 -4,9 -9,9 h -45.7 c -5,0 -9,-4 -9,-9 v 0 c 0,-5 4,-9 9,-9 h 45.7 c 5,0 9,4 9,9 z"
   id="path83" />
	<path
   class="st5"
   d="m 918.5,412 c 0,5 -4,9 -9,9 h -45.7 c -5,0 -9,-4 -9,-9 v 0 c 0,-5 4,-9 9,-9 h 45.7 c 5,0 9,4 9,9 z"
   id="path84" />
	<path
   class="st27"
   d="m 927.3,378.3 c 0,5 -4,9 -9,9 H 788.4 c -5,0 -9,-4 -9,-9 v 0 c 0,-5 4,-9 9,-9 h 129.9 c 5,0 9,4 9,9 z"
   id="path85" />
	<path
   class="st28"
   d="m 849.5,477 c 0,5 -4,9 -9,9 h -69.8 c -5,0 -9,-4 -9,-9 v 0 c 0,-5 4,-9 9,-9 h 69.8 c 5,-0.1 9,4 9,9 z"
   id="path86" />
	<path
   class="st27"
   d="m 1087.8,380.7 c 0,5 -4,9 -9,9 h -130 c -5,0 -9,-4 -9,-9 v 0 c 0,-5 4,-9 9,-9 h 129.9 c 5,0 9.1,4 9.1,9 z"
   id="path87" />
	<path
   class="st7"
   d="m 838.9,410.8 c 0,5 -4,9 -9,9 h -130 c -5,0 -9,-4 -9,-9 v 0 c 0,-5 4,-9 9,-9 h 129.9 c 5.1,-0.1 9.1,4 9.1,9 z"
   id="path88" />
	<path
   class="st7"
   d="m 909.5,441.3 c 0,5 -4,9 -9,9 h -130 c -5,0 -9,-4 -9,-9 v 0 c 0,-5 4,-9 9,-9 h 129.9 c 5.1,-0.1 9.1,4 9.1,9 z"
   id="path89" />
	<path
   class="st7"
   d="m 862,543.5 c 0,5 -4,9 -9,9 h -81.8 c -5,0 -9,-4 -9,-9 v 0 c 0,-5 4,-9 9,-9 H 853 c 4.9,0 9,4 9,9 z"
   id="path90" />
	<path
   class="st28"
   d="m 910.7,509.2 c 0,5 -4,9 -9,9 h -130 c -5,0 -9,-4 -9,-9 v 0 c 0,-5 4,-9 9,-9 h 129.9 c 5.1,0 9.1,4.1 9.1,9 z"
   id="path91" />
	<path
   class="st7"
   d="m 1080.4,413.2 c 0,5 -4,9 -9,9 h -130 c -5,0 -9,-4 -9,-9 v 0 c 0,-5 4,-9 9,-9 h 129.9 c 5,0 9.1,4 9.1,9 z"
   id="path92" />
	<g
   id="g94">
		<path
   class="st5"
   d="m 657,336.6 c 0,5 -4,9 -9,9 h -45.7 c -5,0 -9,-4 -9,-9 v 0 c 0,-5 4,-9 9,-9 H 648 c 5,-0.1 9,4 9,9 z"
   id="path93" />
		<path
   class="st7"
   d="m 586.3,337.3 c 0,5.3 -4.3,9.6 -9.6,9.6 -5.3,0 -9.6,-4.3 -9.6,-9.6 0,-5.3 4.3,-9.6 9.6,-9.6 5.3,-0.1 9.6,4.2 9.6,9.6 z"
   id="path94" />
	</g>
	<g
   id="g96">
		<path
   class="st5"
   d="m 657,370.7 c 0,5 -4,9 -9,9 h -45.7 c -5,0 -9,-4 -9,-9 v 0 c 0,-5 4,-9 9,-9 H 648 c 5,0 9,4.1 9,9 z"
   id="path95" />
		<path
   class="st7"
   d="m 586.3,371.4 c 0,5.3 -4.3,9.6 -9.6,9.6 -5.3,0 -9.6,-4.3 -9.6,-9.6 0,-5.3 4.3,-9.6 9.6,-9.6 5.3,0 9.6,4.3 9.6,9.6 z"
   id="path96" />
	</g>
	<g
   id="g98">
		<path
   class="st5"
   d="m 657,404.9 c 0,5 -4,9 -9,9 h -45.7 c -5,0 -9,-4 -9,-9 v 0 c 0,-5 4,-9 9,-9 H 648 c 5,0 9,4 9,9 z"
   id="path97" />
		<path
   class="st7"
   d="m 586.3,405.6 c 0,5.3 -4.3,9.6 -9.6,9.6 -5.3,0 -9.6,-4.3 -9.6,-9.6 0,-5.3 4.3,-9.6 9.6,-9.6 5.3,0 9.6,4.3 9.6,9.6 z"
   id="path98" />
	</g>
	<g
   id="g100">
		<path
   class="st5"
   d="m 741.2,439.1 c 0,5 -4,9 -9,9 h -45.7 c -5,0 -9,-4 -9,-9 v 0 c 0,-5 4,-9 9,-9 h 45.7 c 5,0 9,4 9,9 z"
   id="path99" />
		<path
   class="st7"
   d="m 670.6,439.8 c 0,5.3 -4.3,9.6 -9.6,9.6 -5.3,0 -9.6,-4.3 -9.6,-9.6 0,-5.3 4.3,-9.6 9.6,-9.6 5.2,-0.1 9.6,4.3 9.6,9.6 z"
   id="path100" />
	</g>
	<g
   id="g102">
		<path
   class="st5"
   d="m 741.2,473.3 c 0,5 -4,9 -9,9 h -45.7 c -5,0 -9,-4 -9,-9 v 0 c 0,-5 4,-9 9,-9 h 45.7 c 5,-0.1 9,4 9,9 z"
   id="path101" />
		<path
   class="st7"
   d="m 670.6,473.9 c 0,5.3 -4.3,9.6 -9.6,9.6 -5.3,0 -9.6,-4.3 -9.6,-9.6 0,-5.3 4.3,-9.6 9.6,-9.6 5.2,0 9.6,4.3 9.6,9.6 z"
   id="path102" />
	</g>
	<g
   id="g104">
		<path
   class="st5"
   d="m 948.2,476.9 c 0,5 -4,9 -9,9 h -45.7 c -5,0 -9,-4 -9,-9 v 0 c 0,-5 4,-9 9,-9 h 45.7 c 5,-0.1 9,4 9,9 z"
   id="path103" />
		<path
   class="st5"
   d="m 877.5,477.6 c 0,5.3 -4.3,9.6 -9.6,9.6 -5.3,0 -9.6,-4.3 -9.6,-9.6 0,-5.3 4.3,-9.6 9.6,-9.6 5.3,-0.1 9.6,4.2 9.6,9.6 z"
   id="path104" />
	</g>
	<g
   id="g106">
		<path
   class="st5"
   d="m 1010.2,507 c 0,5 -4,9 -9,9 h -45.7 c -5,0 -9,-4 -9,-9 v 0 c 0,-5 4,-9 9,-9 h 45.7 c 4.9,-0.1 9,4 9,9 z"
   id="path105" />
		<path
   class="st5"
   d="m 939.5,507.6 c 0,5.3 -4.3,9.6 -9.6,9.6 -5.3,0 -9.6,-4.3 -9.6,-9.6 0,-5.3 4.3,-9.6 9.6,-9.6 5.3,0 9.6,4.3 9.6,9.6 z"
   id="path106" />
	</g>
	<path
   class="st28"
   d="m 761.7,612.9 c 0,5 -4,9 -9,9 h -69.8 c -5,0 -9,-4 -9,-9 v 0 c 0,-5 4,-9 9,-9 h 69.8 c 5,0 9,4 9,9 z"
   id="path107" />
	<path
   class="st27"
   d="m 821.7,577.2 c 0,5 -4,9 -9,9 h -130 c -5,0 -9,-4 -9,-9 v 0 c 0,-5 4,-9 9,-9 h 129.9 c 5,0 9.1,4 9.1,9 z"
   id="path108" />
	<path
   class="st7"
   d="m 774.1,679.5 c 0,5 -4,9 -9,9 h -81.8 c -5,0 -9,-4 -9,-9 v 0 c 0,-5 4,-9 9,-9 h 81.8 c 5,0 9,4 9,9 z"
   id="path109" />
	<path
   class="st28"
   d="m 822.9,645.2 c 0,5 -4,9 -9,9 h -130 c -5,0 -9,-4 -9,-9 v 0 c 0,-5 4,-9 9,-9 h 129.9 c 5,0 9.1,4 9.1,9 z"
   id="path110" />
	<g
   id="g112">
		<path
   class="st5"
   d="m 860.4,612.8 c 0,5 -4,9 -9,9 h -45.7 c -5,0 -9,-4 -9,-9 v 0 c 0,-5 4,-9 9,-9 h 45.7 c 4.9,0 9,4.1 9,9 z"
   id="path111" />
		<path
   class="st5"
   d="m 789.7,613.5 c 0,5.3 -4.3,9.6 -9.6,9.6 -5.3,0 -9.6,-4.3 -9.6,-9.6 0,-5.3 4.3,-9.6 9.6,-9.6 5.3,0 9.6,4.3 9.6,9.6 z"
   id="path112" />
	</g>
	<g
   id="g114">
		<path
   class="st7"
   d="m 922.3,642.9 c 0,5 -4,9 -9,9 h -45.7 c -5,0 -9,-4 -9,-9 v 0 c 0,-5 4,-9 9,-9 h 45.7 c 5,0 9,4 9,9 z"
   id="path113" />
		<path
   class="st7"
   d="m 851.7,643.6 c 0,5.3 -4.3,9.6 -9.6,9.6 -5.3,0 -9.6,-4.3 -9.6,-9.6 0,-5.3 4.3,-9.6 9.6,-9.6 5.2,0 9.6,4.3 9.6,9.6 z"
   id="path114" />
	</g>
	<g
   id="g116">
		<path
   class="st5"
   d="m 741.2,507.4 c 0,5 -4,9 -9,9 h -45.7 c -5,0 -9,-4 -9,-9 v 0 c 0,-5 4,-9 9,-9 h 45.7 c 5,0 9,4.1 9,9 z"
   id="path115" />
		<path
   class="st7"
   d="m 670.6,508.1 c 0,5.3 -4.3,9.6 -9.6,9.6 -5.3,0 -9.6,-4.3 -9.6,-9.6 0,-5.3 4.3,-9.6 9.6,-9.6 5.2,0 9.6,4.3 9.6,9.6 z"
   id="path116" />
	</g>
	<g
   id="g118">
		<path
   class="st5"
   d="m 741.2,541.6 c 0,5 -4,9 -9,9 h -45.7 c -5,0 -9,-4 -9,-9 v 0 c 0,-5 4,-9 9,-9 h 45.7 c 5,0 9,4 9,9 z"
   id="path117" />
		<path
   class="st7"
   d="m 670.6,542.3 c 0,5.3 -4.3,9.6 -9.6,9.6 -5.3,0 -9.6,-4.3 -9.6,-9.6 0,-5.3 4.3,-9.6 9.6,-9.6 5.2,0 9.6,4.3 9.6,9.6 z"
   id="path118" />
	</g>
	<g
   id="g120">
		<path
   class="st5"
   d="m 657,575.8 c 0,5 -4,9 -9,9 h -45.7 c -5,0 -9,-4 -9,-9 v 0 c 0,-5 4,-9 9,-9 H 648 c 5,0 9,4 9,9 z"
   id="path119" />
		<path
   class="st7"
   d="m 586.3,576.5 c 0,5.3 -4.3,9.6 -9.6,9.6 -5.3,0 -9.6,-4.3 -9.6,-9.6 0,-5.3 4.3,-9.6 9.6,-9.6 5.3,-0.1 9.6,4.3 9.6,9.6 z"
   id="path120" />
	</g>
	<g
   id="g121">
		<path
   class="st5"
   d="m 657,610 c 0,5 -4,9 -9,9 h -45.7 c -5,0 -9,-4 -9,-9 v 0 c 0,-5 4,-9 9,-9 H 648 c 5,-0.1 9,4 9,9 z"
   id="path121" />
		<circle
   class="st7"
   cx="576.70001"
   cy="610.59998"
   r="9.6000004"
   id="circle121" />
	</g>
	<g
   id="g122">
		<path
   class="st5"
   d="m 657,644.1 c 0,5 -4,9 -9,9 h -45.7 c -5,0 -9,-4 -9,-9 v 0 c 0,-5 4,-9 9,-9 H 648 c 5,0 9,4 9,9 z"
   id="path122" />
		<circle
   class="st7"
   cx="576.70001"
   cy="644.79999"
   r="9.6000004"
   id="circle122" />
	</g>
	<g
   id="g124">
		<path
   class="st5"
   d="m 657,678.3 c 0,5 -4,9 -9,9 h -45.7 c -5,0 -9,-4 -9,-9 v 0 c 0,-5 4,-9 9,-9 H 648 c 5,0 9,4 9,9 z"
   id="path123" />
		<path
   class="st7"
   d="m 586.3,679 c 0,5.3 -4.3,9.6 -9.6,9.6 -5.3,0 -9.6,-4.3 -9.6,-9.6 0,-5.3 4.3,-9.6 9.6,-9.6 5.3,0 9.6,4.3 9.6,9.6 z"
   id="path124" />
	</g>
</g><g
     id="g151">
	<g
   id="g128">
		<g
   id="g126">
			<path
   class="st29"
   d="m 830.2,1080.9 c 2.9,0 5.5,-1.6 6.5,-4.1 L 937.5,820.2 c 1.3,-3.2 -0.6,-6.7 -4.2,-7.8 -3.6,-1.1 -7.6,0.6 -8.8,3.8 l -100.8,256.6 c -1.3,3.2 0.6,6.7 4.2,7.8 0.8,0.2 1.6,0.3 2.3,0.3 z"
   id="path125" />
		</g>
		<g
   id="g127">
			<path
   class="st29"
   d="m 998.2,812 c 2.9,0 5.5,1.6 6.5,4.1 l 100.8,256.6 c 1.3,3.2 -0.6,6.7 -4.2,7.8 -3.6,1.1 -7.6,-0.6 -8.8,-3.8 L 991.7,820.2 c -1.3,-3.2 0.6,-6.7 4.2,-7.8 0.8,-0.3 1.6,-0.4 2.3,-0.4 z"
   id="path126" />
		</g>
		<rect
   x="907.5"
   y="875.70001"
   class="st29"
   width="118.6"
   height="9.1999998"
   id="rect127" />
	</g>
	<path
   class="st30"
   d="m 1171.3,923 c 0,7.3 4.5,13.2 10,13.2 h 231.6 c 5.5,0 10,-5.9 10,-13.2 v -10.5 c 0,-7.3 -4.5,-13.2 -10,-13.2 h -231.6 c -5.5,0 -10,5.9 -10,13.2 z"
   id="path128" />
	<g
   id="g137">
		
			<linearGradient
   id="SVGID_17_"
   gradientUnits="userSpaceOnUse"
   x1="1938.005"
   y1="1036.3995"
   x2="2017.1628"
   y2="1036.3995"
   gradientTransform="matrix(-1,0,0,1,3088.5938,0)">
			<stop
   offset="9.595919e-02"
   style="stop-color:#FDDC70"
   id="stop128" />
			<stop
   offset="0.225"
   style="stop-color:#FDD76F"
   id="stop129" />
			<stop
   offset="0.3674"
   style="stop-color:#FDCA6B"
   id="stop130" />
			<stop
   offset="0.5163"
   style="stop-color:#FDB464"
   id="stop131" />
			<stop
   offset="0.6696"
   style="stop-color:#FC965A"
   id="stop132" />
			<stop
   offset="0.8263"
   style="stop-color:#FB6E4F"
   id="stop133" />
			<stop
   offset="0.9838"
   style="stop-color:#FA3F42"
   id="stop134" />
			<stop
   offset="1"
   style="stop-color:#FA3A40"
   id="stop135" />
		</linearGradient>
		<path
   class="st31"
   d="m 1150.6,1014.5 -7.6,55.5 h -69.8 l -1.8,-17.5 c 0,0 26.2,3.5 39.2,-9.5 13,-13 17.5,-40.2 17.5,-40.2"
   id="path135"
   style="fill:url(#SVGID_17_)" />
		<path
   class="st32"
   d="m 1328.8,820.4 c 0,0 16.8,78.2 -7.6,84.1 -24.4,5.9 -131,2.6 -131,2.6 h -16 l -16.9,112 -39.5,-2 14.3,-139.5 100.6,-32.7"
   id="path136" />
		<path
   class="st5"
   d="m 1042.3,1071.7 c 0.2,-13.6 11.3,-24.5 24.9,-24.5 13.6,0 24.7,10.9 24.9,24.5 h 51 v 5.9 h -100.9 z"
   id="path137" />
	</g>
	<g
   id="g146">
		
			<linearGradient
   id="SVGID_18_"
   gradientUnits="userSpaceOnUse"
   x1="1874.4056"
   y1="1043.2745"
   x2="1953.5635"
   y2="1043.2745"
   gradientTransform="matrix(-1,0,0,1,3088.5938,0)">
			<stop
   offset="9.595919e-02"
   style="stop-color:#FDDC70"
   id="stop137" />
			<stop
   offset="0.225"
   style="stop-color:#FDD76F"
   id="stop138" />
			<stop
   offset="0.3674"
   style="stop-color:#FDCA6B"
   id="stop139" />
			<stop
   offset="0.5163"
   style="stop-color:#FDB464"
   id="stop140" />
			<stop
   offset="0.6696"
   style="stop-color:#FC965A"
   id="stop141" />
			<stop
   offset="0.8263"
   style="stop-color:#FB6E4F"
   id="stop142" />
			<stop
   offset="0.9838"
   style="stop-color:#FA3F42"
   id="stop143" />
			<stop
   offset="1"
   style="stop-color:#FA3A40"
   id="stop144" />
		</linearGradient>
		<path
   class="st33"
   d="m 1214.2,1021.4 -7.6,55.5 h -69.8 l -1.8,-17.5 c 0,0 26.2,3.5 39.2,-9.5 13,-13 17.5,-40.2 17.5,-40.2"
   id="path144"
   style="fill:url(#SVGID_18_)" />
		<path
   class="st34"
   d="m 1392.4,827.2 c 0,0 16.8,78.2 -7.6,84.1 -24.4,5.9 -131,2.6 -131,2.6 h -16 l -16.9,112 -39.5,-2 -0.3,-136.1 139,-39.8 -0.9,-20.6"
   id="path145" />
		<path
   class="st5"
   d="m 1105.9,1078.6 c 0.2,-13.6 11.3,-24.5 24.9,-24.5 13.6,0 24.7,10.9 24.9,24.5 h 51 v 5.9 h -100.9 z"
   id="path146" />
	</g>
	<g
   id="g147">
		<rect
   x="1285.8"
   y="930.70001"
   class="st30"
   width="22.5"
   height="85.699997"
   id="rect146" />
		<rect
   x="1291.3"
   y="964.5"
   class="st30"
   width="11.4"
   height="124.1"
   id="rect147" />
		<path
   class="st30"
   d="m 1219.6,1081.4 c 0,4 3.3,7.3 7.3,7.3 h 140.3 c 4,0 7.3,-3.3 7.3,-7.3 v 0 c 0,-4 -3.3,-7.3 -7.3,-7.3 h -140.3 c -4.1,0 -7.3,3.3 -7.3,7.3 z"
   id="path147" />
	</g>
	<g
   id="g150">
		<g
   id="g148">
			<path
   class="st29"
   d="m 1319.3,1080.9 c 2.9,0 5.5,-1.6 6.5,-4.1 l 100.8,-256.6 c 1.3,-3.2 -0.6,-6.7 -4.3,-7.8 -3.6,-1.1 -7.6,0.6 -8.8,3.8 l -100.8,256.6 c -1.3,3.2 0.6,6.7 4.2,7.8 0.9,0.2 1.6,0.3 2.4,0.3 z"
   id="path148" />
		</g>
		<g
   id="g149">
			<path
   class="st29"
   d="m 1487.3,812 c 2.9,0 5.5,1.6 6.5,4.1 l 100.8,256.6 c 1.3,3.2 -0.6,6.7 -4.2,7.8 -3.6,1.1 -7.6,-0.6 -8.8,-3.8 L 1480.8,820.1 c -1.3,-3.2 0.6,-6.7 4.2,-7.8 0.8,-0.2 1.6,-0.3 2.3,-0.3 z"
   id="path149" />
		</g>
		<rect
   x="1396.6"
   y="875.70001"
   class="st29"
   width="118.6"
   height="9.1999998"
   id="rect149" />
	</g>
	<rect
   x="841.5"
   y="812.40002"
   class="st5"
   width="728.59998"
   height="21.6"
   id="rect150" />
</g><path
     class="st35"
     d="m 1240.3,525.9 c 0,16.2 -13.1,29.3 -29.3,29.3 h -89.7 c -16.2,0 -29.3,-13.1 -29.3,-29.3 v -27.2 c 0,-16.2 13.1,-29.3 29.3,-29.3 h 89.7 c 16.2,0 29.3,13.1 29.3,29.3 z"
     id="path152"
     style="fill:url(#SVGID_19_)" /><g
     id="g155">
		<path
   class="st5"
   d="m 1132.2,512.3 c 1.3,0.8 2.3,1.7 3,2.6 0.7,1 1.2,2.2 1.5,3.7 0.3,1.5 0.4,3.4 0.4,5.8 0,1.8 0,3.1 0.1,3.9 0.1,0.8 0.2,1.5 0.5,1.9 0.2,0.4 0.5,0.7 0.9,0.9 0.3,0.1 0.9,0.3 1.7,0.4 0.7,0.1 1.2,0.4 1.7,1 0.4,0.6 0.7,1.3 0.7,2.2 0,2.2 -1.3,3.2 -3.9,3.2 -1.6,0 -3.1,-0.3 -4.3,-1 -1.3,-0.7 -2.3,-1.6 -3,-2.9 -0.7,-1.2 -1.1,-2.7 -1.1,-4.3 -0.1,-2.7 -0.1,-4.9 -0.2,-6.5 -0.1,-1.6 -0.1,-2.7 -0.2,-3.2 -0.3,-1.2 -0.7,-2.1 -1.2,-2.7 -0.5,-0.6 -1.2,-1.2 -2.1,-1.7 -0.8,-0.5 -1.4,-1 -1.8,-1.4 -0.4,-0.4 -0.5,-1.1 -0.5,-2 0,-1.3 0.5,-2.3 1.6,-3 1.3,-0.8 2.2,-1.5 2.7,-2 0.5,-0.6 0.9,-1.3 1.1,-2.2 0.2,-0.9 0.4,-1.8 0.4,-2.9 0,-1 0.1,-3.6 0.2,-7.5 0.1,-2.5 0.8,-4.4 2.3,-5.9 1.5,-1.5 3.5,-2.2 6,-2.2 2.6,0 3.9,1.1 3.9,3.2 0,1 -0.2,1.7 -0.7,2.3 -0.4,0.6 -1,0.9 -1.7,1 -1,0.1 -1.8,0.4 -2.2,0.6 -0.4,0.3 -0.7,0.8 -0.8,1.7 -0.1,0.8 -0.2,2.4 -0.2,4.8 0,2.3 -0.2,4.2 -0.4,5.7 -0.2,1.5 -0.7,2.7 -1.4,3.8 -0.7,0.9 -1.7,1.9 -3,2.7 z"
   id="path153" />
		<path
   class="st5"
   d="m 1165.7,527.2 c -1.2,0 -2.2,-0.4 -3,-1.1 -0.9,-0.7 -1.3,-1.7 -1.3,-3 0,-1.1 0.4,-2.1 1.3,-2.8 0.8,-0.8 1.8,-1.1 3,-1.1 0.9,0 1.6,0.2 2.3,0.7 0.7,0.5 1.2,1.1 1.6,2 0.4,0.9 0.6,2 0.6,3.3 0,1.8 -0.4,3.4 -1.1,5 -0.7,1.5 -1.7,2.8 -2.7,3.7 -1.1,0.9 -2.1,1.3 -2.9,1.3 -0.6,0 -1,-0.2 -1.3,-0.5 -0.3,-0.4 -0.5,-0.8 -0.5,-1.3 0,-0.7 0.4,-1.3 1.1,-1.8 1.9,-1.2 2.9,-2.6 2.9,-4.4 z m -3.6,-25.7 c 0,-1.3 0.4,-2.2 1.2,-2.9 0.8,-0.7 1.8,-1 2.9,-1 1.1,0 2,0.4 2.8,1.1 0.8,0.7 1.2,1.7 1.2,2.9 0,1 -0.4,1.9 -1.2,2.8 -0.8,0.8 -1.7,1.2 -2.7,1.2 -0.7,0 -1.4,-0.2 -2,-0.5 -0.6,-0.4 -1.1,-0.8 -1.5,-1.4 -0.6,-0.8 -0.7,-1.5 -0.7,-2.2 z"
   id="path154" />
		<path
   class="st5"
   d="m 1200,512.3 c -1,-0.6 -1.7,-1.2 -2.4,-1.9 -0.6,-0.7 -1.1,-1.5 -1.5,-2.4 -0.4,-0.9 -0.7,-2.1 -0.8,-3.4 -0.2,-1.3 -0.2,-2.8 -0.2,-4.6 0,-1.7 0,-3 -0.1,-3.9 -0.1,-0.9 -0.2,-1.6 -0.4,-2 -0.2,-0.4 -0.5,-0.7 -0.9,-0.8 -0.4,-0.2 -1,-0.3 -1.8,-0.4 -0.7,-0.1 -1.2,-0.4 -1.7,-1 -0.5,-0.6 -0.7,-1.3 -0.7,-2.3 0,-2.1 1.3,-3.2 3.9,-3.2 1.7,0 3.1,0.3 4.4,1 1.3,0.7 2.2,1.6 3,2.9 0.7,1.2 1.1,2.7 1.1,4.2 0.1,5.9 0.2,9.2 0.4,9.8 0.3,1.2 0.7,2.1 1.3,2.7 0.6,0.6 1.2,1.2 2,1.6 0.8,0.5 1.4,0.9 1.8,1.4 0.4,0.5 0.6,1.2 0.6,2.1 0,1.3 -0.5,2.3 -1.5,2.9 -1.2,0.8 -2.2,1.4 -2.7,2 -0.6,0.6 -1,1.3 -1.2,2.2 -0.2,0.9 -0.4,2.2 -0.4,3.9 0,1.7 -0.1,3.9 -0.1,6.5 -0.1,2.5 -0.8,4.4 -2.4,5.9 -1.5,1.5 -3.6,2.2 -6.1,2.2 -1.2,0 -2.2,-0.3 -2.9,-0.8 -0.7,-0.6 -1,-1.4 -1,-2.4 0,-0.6 0.1,-1.1 0.3,-1.6 0.2,-0.5 0.5,-0.9 0.8,-1.1 0.3,-0.3 0.7,-0.4 1.2,-0.5 0.8,-0.1 1.4,-0.2 1.8,-0.4 0.4,-0.2 0.7,-0.5 0.9,-0.9 0.2,-0.4 0.3,-1.1 0.4,-2 0.1,-0.9 0.1,-2.1 0.1,-3.8 0,-2.5 0.2,-4.4 0.4,-5.8 0.2,-1.4 0.7,-2.6 1.4,-3.6 0.6,-0.7 1.6,-1.6 3,-2.5 z"
   id="path155" />
	</g><g
     id="g163">
	<g
   id="g160">
		<path
   class="st25"
   d="m 157.3,1057.6 c -17.6,0 -31.9,-14.3 -31.9,-31.9 V 693.6 c 0,-17.6 14.3,-31.9 31.9,-31.9 H 682 c 17.6,0 31.9,14.3 31.9,31.9 v 332.1 c 0,17.6 -14.3,31.9 -31.9,31.9 z"
   id="path156" />
		<g
   id="g159">
			<defs
   id="defs156">
				<path
   id="SVGID_20_"
   d="m 695.3,1025.7 c 0,7.3 -5.9,13.3 -13.3,13.3 H 157.3 c -7.3,0 -13.3,-5.9 -13.3,-13.3 V 693.6 c 0,-7.3 5.9,-13.3 13.3,-13.3 H 682 c 7.3,0 13.3,5.9 13.3,13.3 z" />
			</defs>
			<clipPath
   id="SVGID_21_">
				<use
   xlink:href="#SVGID_20_"
   style="overflow:visible"
   id="use156" />
			</clipPath>
			<linearGradient
   id="SVGID_22_"
   gradientUnits="userSpaceOnUse"
   x1="69.300499"
   y1="856.88037"
   x2="752.78192"
   y2="856.88037">
				<stop
   offset="0.1047"
   style="stop-color:#FC6F3D"
   id="stop156" />
				<stop
   offset="0.9543"
   style="stop-color:#F7426E"
   id="stop157" />
			</linearGradient>
			<rect
   x="69.300003"
   y="621.70001"
   class="st36"
   width="683.5"
   height="470.29999"
   clip-path="url(#SVGID_21_)"
   id="rect157"
   style="fill:url(#SVGID_22_)" />
			<rect
   x="110.8"
   y="656.40002"
   class="st37"
   width="619.09998"
   height="47.799999"
   clip-path="url(#SVGID_21_)"
   id="rect158" />
			<g
   class="st38"
   clip-path="url(#SVGID_21_)"
   id="g158">
				<circle
   class="st39"
   cx="427.89999"
   cy="863.20001"
   r="122.7"
   id="circle158" />
			</g>
		</g>
	</g>
	<linearGradient
   id="SVGID_23_"
   gradientUnits="userSpaceOnUse"
   x1="-144.27589"
   y1="998.64758"
   x2="724.17627"
   y2="1117.2657">
		<stop
   offset="0"
   style="stop-color:#4A7AB7"
   id="stop160" />
		<stop
   offset="1"
   style="stop-color:#9ECBE1"
   id="stop161" />
	</linearGradient>
	<path
   class="st40"
   d="m 755.2,1091.9 c 0,3.3 -2.6,5.9 -5.9,5.9 H 90 c -3.3,0 -5.9,-2.6 -5.9,-5.9 v -32.5 c 0,-3.3 2.6,-5.9 5.9,-5.9 h 659.3 c 3.3,0 5.9,2.6 5.9,5.9 z"
   id="path161"
   style="fill:url(#SVGID_23_)" />
	<linearGradient
   id="SVGID_24_"
   gradientUnits="userSpaceOnUse"
   x1="417.7189"
   y1="1102.515"
   x2="422.32199"
   y2="998.95361">
		<stop
   offset="0"
   style="stop-color:#4A7AB7"
   id="stop162" />
		<stop
   offset="1"
   style="stop-color:#9ECBE1"
   id="stop163" />
	</linearGradient>
	<path
   class="st41"
   d="m 351.9,1053.7 c -0.6,1.5 -1,3.2 -1,4.9 v 0.9 c 0,7.1 5.8,12.9 12.9,12.9 h 111.7 c 7.1,0 12.9,-5.8 12.9,-12.9 v -0.9 c 0,-1.8 -0.4,-3.4 -1,-4.9 z"
   id="path163"
   style="fill:url(#SVGID_24_)" />
</g><g
     id="g168">
	<g
   id="g165">
		<path
   class="st5"
   d="m 450.3,848.6 -3.9,-14 -11.2,3.1 c -2.2,-4.4 -5.3,-8.3 -8.9,-11.4 l 5.7,-10.1 -12.6,-7.2 -5.7,10.1 c -4.5,-1.5 -9.4,-2.1 -14.3,-1.8 l -3.1,-11.2 -14,3.9 3.1,11.2 c -4.4,2.2 -8.3,5.3 -11.4,8.9 l -10.1,-5.7 -7.1,12.6 10.1,5.7 c -1.5,4.5 -2.1,9.4 -1.8,14.3 l -11.2,3.1 3.9,14 11.2,-3.1 c 2.2,4.4 5.3,8.3 8.9,11.4 l -5.7,10.1 12.6,7.2 5.7,-10.1 c 4.5,1.5 9.4,2.1 14.3,1.8 l 3.1,11.2 14,-3.9 -3.1,-11.2 c 4.4,-2.2 8.3,-5.3 11.4,-8.9 l 10.1,5.7 7.1,-12.6 -10.1,-5.7 c 1.5,-4.5 2.1,-9.4 1.8,-14.3 z m -42.7,25.6 c -10.9,3 -22.3,-3.4 -25.3,-14.3 -3,-10.9 3.4,-22.3 14.3,-25.3 10.9,-3 22.3,3.4 25.3,14.3 3.1,10.9 -3.4,22.3 -14.3,25.3 z"
   id="path164" />
		<path
   class="st5"
   d="m 411,851.9 c 1.4,4.9 -1.5,10 -6.4,11.4 -4.9,1.4 -10,-1.5 -11.4,-6.4 -1.4,-4.9 1.5,-10 6.4,-11.4 5,-1.4 10.1,1.5 11.4,6.4 z"
   id="path165" />
	</g>
	<g
   id="g166">
		<path
   class="st5"
   d="m 477.6,801 -1.8,-6.7 -5.3,1.5 c -1.1,-2.1 -2.5,-3.9 -4.2,-5.4 l 2.7,-4.8 -6,-3.4 -2.7,4.8 c -2.2,-0.7 -4.5,-1 -6.8,-0.8 l -1.5,-5.3 -6.7,1.8 1.5,5.3 c -2.1,1.1 -3.9,2.5 -5.4,4.2 l -4.8,-2.7 -3.4,6 4.8,2.7 c -0.7,2.2 -1,4.5 -0.8,6.8 l -5.3,1.5 1.8,6.7 5.3,-1.5 c 1.1,2.1 2.5,3.9 4.2,5.4 l -2.7,4.8 6,3.4 2.7,-4.8 c 2.2,0.7 4.5,1 6.8,0.8 l 1.5,5.3 6.7,-1.8 -1.5,-5.3 c 2.1,-1.1 3.9,-2.5 5.4,-4.2 l 4.8,2.7 3.4,-6 -4.8,-2.7 c 0.7,-2.2 1,-4.5 0.8,-6.8 z m -20.4,12.3 c -5.2,1.4 -10.6,-1.6 -12.1,-6.8 -1.4,-5.2 1.6,-10.6 6.8,-12.1 5.2,-1.4 10.6,1.6 12.1,6.8 1.5,5.2 -1.6,10.6 -6.8,12.1 z"
   id="path166" />
	</g>
	<g
   id="g167">
		<path
   class="st5"
   d="m 501.8,842 -1.8,-6.7 -5.3,1.5 c -1.1,-2.1 -2.5,-3.9 -4.2,-5.4 l 2.7,-4.8 -6,-3.4 -2.7,4.8 c -2.2,-0.7 -4.5,-1 -6.8,-0.8 l -1.5,-5.3 -6.7,1.8 1.5,5.3 c -2.1,1.1 -3.9,2.5 -5.4,4.2 l -4.8,-2.7 -3.4,6 4.8,2.7 c -0.7,2.2 -1,4.5 -0.8,6.8 l -5.3,1.5 1.8,6.7 5.3,-1.5 c 1.1,2.1 2.5,3.9 4.2,5.4 l -2.7,4.8 6,3.4 2.7,-4.8 c 2.2,0.7 4.5,1 6.8,0.8 l 1.5,5.3 6.7,-1.8 -1.5,-5.3 c 2.1,-1.1 3.9,-2.5 5.4,-4.2 l 4.8,2.7 3.4,-6 -4.8,-2.7 c 0.7,-2.2 1,-4.5 0.8,-6.8 z m -20.3,12.2 c -5.2,1.4 -10.6,-1.6 -12.1,-6.8 -1.4,-5.2 1.6,-10.6 6.8,-12.1 5.2,-1.4 10.6,1.6 12.1,6.8 1.5,5.2 -1.6,10.6 -6.8,12.1 z"
   id="path167" />
	</g>
</g><path
     class="st5"
     d="m 600.4,948.3 c 0,3.6 -2.9,6.4 -6.4,6.4 H 270.8 c -3.6,0 -6.4,-2.9 -6.4,-6.4 v 0 c 0,-3.6 2.9,-6.4 6.4,-6.4 h 323.1 c 3.6,-0.1 6.5,2.8 6.5,6.4 z"
     id="path168" /><path
     class="st42"
     d="m 600,953.4 c 0,3.6 -2.9,6.4 -6.4,6.4 H 270.4 c -3.6,0 -6.4,-2.9 -6.4,-6.4 v 0 c 0,-3.6 2.9,-6.4 6.4,-6.4 h 323.1 c 3.6,0 6.5,2.8 6.5,6.4 z"
     id="path169" /><g
     id="g170">
	<defs
   id="defs169">
		<path
   id="SVGID_25_"
   d="m 600.4,948.3 c 0,3.6 -2.9,6.4 -6.4,6.4 H 270.8 c -3.6,0 -6.4,-2.9 -6.4,-6.4 v 0 c 0,-3.6 2.9,-6.4 6.4,-6.4 h 323.1 c 3.6,-0.1 6.5,2.8 6.5,6.4 z" />
	</defs>
	<clipPath
   id="SVGID_26_">
		<use
   xlink:href="#SVGID_25_"
   style="overflow:visible"
   id="use169" />
	</clipPath>
	<linearGradient
   id="SVGID_27_"
   gradientUnits="userSpaceOnUse"
   x1="258.09341"
   y1="943.31207"
   x2="618.67029"
   y2="943.31207">
		<stop
   offset="0.1047"
   style="stop-color:#FC6F3D"
   id="stop169" />
		<stop
   offset="0.9543"
   style="stop-color:#F7426E"
   id="stop170" />
	</linearGradient>
	<path
   class="st43"
   d="m 272.3,970.4 h -14.2 l 24.1,-54.1 h 14.2 z m 50.9,-54.2 H 309 l -24,54.2 h 14.2 z m 26.9,0 h -14.2 l -24.1,54.1 H 326 Z m 26.9,0 h -14.2 l -24.1,54.1 h 14.2 z m 26.8,0 h -14.2 l -24.1,54.1 h 14.2 z m 26.9,0 h -14.2 l -24.1,54.1 h 14.2 z m 26.8,0 h -14.2 l -24.1,54.1 h 14.2 z m 26.9,0 h -14.2 l -24.1,54.1 h 14.2 z m 26.8,0 H 497 l -24,54.2 h 14.2 z m 26.9,0 h -14.2 l -24.1,54.1 H 514 Z m 26.9,0 h -14.2 l -24.1,54.1 h 14.2 z m 26.8,0 h -14.2 l -24.1,54.1 h 14.2 z m 26.9,0 h -14.2 l -24.1,54.1 h 14.2 z"
   clip-path="url(#SVGID_26_)"
   id="path170"
   style="fill:url(#SVGID_27_)" />
</g><g
     id="g172">
	<path
   class="st2"
   d="m 1914.3,574.6 c 0,-7.1 -5.8,-12.9 -12.9,-12.9 h -299.1 c -7.1,0 -12.9,5.8 -12.9,12.9 v 54.8 h 324.9 z"
   id="path171" />
	<path
   class="st2"
   d="m 1589.4,629.4 v 342.9 c 0,7.1 5.8,12.9 12.9,12.9 h 299.1 c 7.1,0 12.9,-5.8 12.9,-12.9 V 629.4 Z"
   id="path172" />
</g><g
     id="g174">
	<linearGradient
   id="SVGID_28_"
   gradientUnits="userSpaceOnUse"
   x1="1606.0885"
   y1="564.42572"
   x2="1930.9406"
   y2="564.42572">
		<stop
   offset="0"
   style="stop-color:#4A7AB7"
   id="stop172" />
		<stop
   offset="1"
   style="stop-color:#9ECBE1"
   id="stop173" />
	</linearGradient>
	<path
   class="st44"
   d="m 1930.9,543.5 c 0,-7.1 -5.8,-12.9 -12.9,-12.9 h -299 c -7.1,0 -12.9,5.8 -12.9,12.9 v 54.8 H 1931 v -54.8 z"
   id="path173"
   style="fill:url(#SVGID_28_)" />
	<path
   class="st4"
   d="m 1606.1,598.3 v 342.9 c 0,7.1 5.8,12.9 12.9,12.9 h 299 c 7.1,0 12.9,-5.8 12.9,-12.9 V 598.3 Z"
   id="path174" />
</g><g
     id="g217">
	<path
   class="st5"
   d="m 1820.5,655 c 0,3.2 -2.6,5.8 -5.8,5.8 h -83.1 c -3.2,0 -5.8,-2.6 -5.8,-5.8 v 0 c 0,-3.2 2.6,-5.8 5.8,-5.8 h 83.1 c 3.2,0 5.8,2.6 5.8,5.8 z"
   id="path175" />
	<path
   class="st5"
   d="m 1869.7,655.4 c 0,3.2 -2.6,5.8 -5.8,5.8 h -29.2 c -3.2,0 -5.8,-2.6 -5.8,-5.8 v 0 c 0,-3.2 2.6,-5.8 5.8,-5.8 h 29.2 c 3.3,0 5.8,2.6 5.8,5.8 z"
   id="path176" />
	<path
   class="st5"
   d="m 1778.9,676.4 c 0,3.2 -2.6,5.8 -5.8,5.8 h -29.3 c -3.2,0 -5.8,-2.6 -5.8,-5.8 v 0 c 0,-3.2 2.6,-5.8 5.8,-5.8 h 29.3 c 3.2,0 5.8,2.6 5.8,5.8 z"
   id="path177" />
	<path
   class="st5"
   d="m 1879.5,698.5 c 0,3.2 -2.6,5.8 -5.8,5.8 h -29.3 c -3.2,0 -5.8,-2.6 -5.8,-5.8 v 0 c 0,-3.2 2.6,-5.8 5.8,-5.8 h 29.3 c 3.2,0 5.8,2.6 5.8,5.8 z"
   id="path178" />
	<path
   class="st27"
   d="m 1885.1,676.9 c 0,3.2 -2.6,5.8 -5.8,5.8 h -83.1 c -3.2,0 -5.8,-2.6 -5.8,-5.8 v 0 c 0,-3.2 2.6,-5.8 5.8,-5.8 h 83.1 c 3.3,0 5.8,2.6 5.8,5.8 z"
   id="path179" />
	<path
   class="st28"
   d="m 1835.4,740 c 0,3.2 -2.6,5.8 -5.8,5.8 H 1785 c -3.2,0 -5.8,-2.6 -5.8,-5.8 v 0 c 0,-3.2 2.6,-5.8 5.8,-5.8 h 44.6 c 3.2,0.1 5.8,2.6 5.8,5.8 z"
   id="path180" />
	<path
   class="st7"
   d="m 1828.6,697.7 c 0,3.2 -2.6,5.8 -5.8,5.8 h -83.1 c -3.2,0 -5.8,-2.6 -5.8,-5.8 v 0 c 0,-3.2 2.6,-5.8 5.8,-5.8 h 83.1 c 3.2,0 5.8,2.6 5.8,5.8 z"
   id="path181" />
	<path
   class="st5"
   d="m 1818.3,892.9 c 0,3.2 -2.6,5.8 -5.8,5.8 h -83.1 c -3.2,0 -5.8,-2.6 -5.8,-5.8 v 0 c 0,-3.2 2.6,-5.8 5.8,-5.8 h 83.1 c 3.3,0 5.8,2.6 5.8,5.8 z"
   id="path182" />
	<path
   class="st7"
   d="m 1873.7,717.2 c 0,3.2 -2.6,5.8 -5.8,5.8 h -83.1 c -3.2,0 -5.8,-2.6 -5.8,-5.8 v 0 c 0,-3.2 2.6,-5.8 5.8,-5.8 h 83.1 c 3.2,0 5.8,2.6 5.8,5.8 z"
   id="path183" />
	<path
   class="st7"
   d="m 1843.3,782.6 c 0,3.2 -2.6,5.8 -5.8,5.8 h -52.3 c -3.2,0 -5.8,-2.6 -5.8,-5.8 v 0 c 0,-3.2 2.6,-5.8 5.8,-5.8 h 52.3 c 3.2,0.1 5.8,2.6 5.8,5.8 z"
   id="path184" />
	<path
   class="st28"
   d="m 1874.5,760.7 c 0,3.2 -2.6,5.8 -5.8,5.8 h -83.1 c -3.2,0 -5.8,-2.6 -5.8,-5.8 v 0 c 0,-3.2 2.6,-5.8 5.8,-5.8 h 83.1 c 3.2,0 5.8,2.6 5.8,5.8 z"
   id="path185" />
	<g
   id="g187">
		<path
   class="st5"
   d="m 1712.2,650.2 c 0,3.2 -2.6,5.8 -5.8,5.8 h -29.3 c -3.2,0 -5.8,-2.6 -5.8,-5.8 v 0 c 0,-3.2 2.6,-5.8 5.8,-5.8 h 29.3 c 3.2,0 5.8,2.6 5.8,5.8 z"
   id="path186" />
		<path
   class="st7"
   d="m 1667,650.7 c 0,3.4 -2.8,6.2 -6.2,6.2 -3.4,0 -6.2,-2.8 -6.2,-6.2 0,-3.4 2.8,-6.2 6.2,-6.2 3.4,0 6.2,2.8 6.2,6.2 z"
   id="path187" />
	</g>
	<g
   id="g189">
		<path
   class="st5"
   d="m 1712.2,672.1 c 0,3.2 -2.6,5.8 -5.8,5.8 h -29.3 c -3.2,0 -5.8,-2.6 -5.8,-5.8 v 0 c 0,-3.2 2.6,-5.8 5.8,-5.8 h 29.3 c 3.2,0 5.8,2.6 5.8,5.8 z"
   id="path188" />
		<path
   class="st7"
   d="m 1667,672.5 c 0,3.4 -2.8,6.2 -6.2,6.2 -3.4,0 -6.2,-2.8 -6.2,-6.2 0,-3.4 2.8,-6.2 6.2,-6.2 3.4,0.1 6.2,2.8 6.2,6.2 z"
   id="path189" />
	</g>
	<g
   id="g191">
		<path
   class="st5"
   d="m 1712.2,693.9 c 0,3.2 -2.6,5.8 -5.8,5.8 h -29.3 c -3.2,0 -5.8,-2.6 -5.8,-5.8 v 0 c 0,-3.2 2.6,-5.8 5.8,-5.8 h 29.3 c 3.2,0.1 5.8,2.7 5.8,5.8 z"
   id="path190" />
		<path
   class="st7"
   d="m 1667,694.4 c 0,3.4 -2.8,6.2 -6.2,6.2 -3.4,0 -6.2,-2.8 -6.2,-6.2 0,-3.4 2.8,-6.2 6.2,-6.2 3.4,0 6.2,2.8 6.2,6.2 z"
   id="path191" />
	</g>
	<g
   id="g193">
		<path
   class="st5"
   d="m 1766.1,715.8 c 0,3.2 -2.6,5.8 -5.8,5.8 H 1731 c -3.2,0 -5.8,-2.6 -5.8,-5.8 v 0 c 0,-3.2 2.6,-5.8 5.8,-5.8 h 29.3 c 3.2,0 5.8,2.6 5.8,5.8 z"
   id="path192" />
		<path
   class="st7"
   d="m 1720.9,716.3 c 0,3.4 -2.8,6.2 -6.2,6.2 -3.4,0 -6.2,-2.8 -6.2,-6.2 0,-3.4 2.8,-6.2 6.2,-6.2 3.4,0 6.2,2.7 6.2,6.2 z"
   id="path193" />
	</g>
	<g
   id="g195">
		<path
   class="st5"
   d="m 1766.1,737.7 c 0,3.2 -2.6,5.8 -5.8,5.8 H 1731 c -3.2,0 -5.8,-2.6 -5.8,-5.8 v 0 c 0,-3.2 2.6,-5.8 5.8,-5.8 h 29.3 c 3.2,0 5.8,2.6 5.8,5.8 z"
   id="path194" />
		<path
   class="st7"
   d="m 1720.9,738.1 c 0,3.4 -2.8,6.2 -6.2,6.2 -3.4,0 -6.2,-2.8 -6.2,-6.2 0,-3.4 2.8,-6.2 6.2,-6.2 3.4,0 6.2,2.8 6.2,6.2 z"
   id="path195" />
	</g>
	<g
   id="g197">
		<path
   class="st5"
   d="m 1898.5,740 c 0,3.2 -2.6,5.8 -5.8,5.8 h -29.2 c -3.2,0 -5.8,-2.6 -5.8,-5.8 v 0 c 0,-3.2 2.6,-5.8 5.8,-5.8 h 29.2 c 3.2,0 5.8,2.6 5.8,5.8 z"
   id="path196" />
		<path
   class="st5"
   d="m 1853.3,740.4 c 0,3.4 -2.8,6.2 -6.2,6.2 -3.4,0 -6.2,-2.8 -6.2,-6.2 0,-3.4 2.8,-6.2 6.2,-6.2 3.4,0.1 6.2,2.8 6.2,6.2 z"
   id="path197" />
	</g>
	<path
   class="st28"
   d="m 1779.2,827 c 0,3.2 -2.6,5.8 -5.8,5.8 h -44.6 c -3.2,0 -5.8,-2.6 -5.8,-5.8 v 0 c 0,-3.2 2.6,-5.8 5.8,-5.8 h 44.6 c 3.2,0.1 5.8,2.6 5.8,5.8 z"
   id="path198" />
	<path
   class="st27"
   d="m 1817.5,804.2 c 0,3.2 -2.6,5.8 -5.8,5.8 h -83.1 c -3.2,0 -5.8,-2.6 -5.8,-5.8 v 0 c 0,-3.2 2.6,-5.8 5.8,-5.8 h 83.1 c 3.2,0 5.8,2.6 5.8,5.8 z"
   id="path199" />
	<path
   class="st7"
   d="m 1787.1,869.6 c 0,3.2 -2.6,5.8 -5.8,5.8 H 1729 c -3.2,0 -5.8,-2.6 -5.8,-5.8 v 0 c 0,-3.2 2.6,-5.8 5.8,-5.8 h 52.3 c 3.2,0.1 5.8,2.6 5.8,5.8 z"
   id="path200" />
	<path
   class="st27"
   d="m 1818.3,847.7 c 0,3.2 -2.6,5.8 -5.8,5.8 h -83.1 c -3.2,0 -5.8,-2.6 -5.8,-5.8 v 0 c 0,-3.2 2.6,-5.8 5.8,-5.8 h 83.1 c 3.2,0 5.8,2.6 5.8,5.8 z"
   id="path201" />
	<g
   id="g203">
		<path
   class="st5"
   d="m 1842.3,827 c 0,3.2 -2.6,5.8 -5.8,5.8 h -29.3 c -3.2,0 -5.8,-2.6 -5.8,-5.8 v 0 c 0,-3.2 2.6,-5.8 5.8,-5.8 h 29.3 c 3.2,0 5.8,2.6 5.8,5.8 z"
   id="path202" />
		<path
   class="st5"
   d="m 1797.1,827.4 c 0,3.4 -2.8,6.2 -6.2,6.2 -3.4,0 -6.2,-2.8 -6.2,-6.2 0,-3.4 2.8,-6.2 6.2,-6.2 3.4,0.1 6.2,2.8 6.2,6.2 z"
   id="path203" />
	</g>
	<g
   id="g205">
		<path
   class="st7"
   d="m 1881.9,846.2 c 0,3.2 -2.6,5.8 -5.8,5.8 h -29.2 c -3.2,0 -5.8,-2.6 -5.8,-5.8 v 0 c 0,-3.2 2.6,-5.8 5.8,-5.8 h 29.2 c 3.2,0 5.8,2.6 5.8,5.8 z"
   id="path204" />
		<path
   class="st7"
   d="m 1836.7,846.7 c 0,3.4 -2.8,6.2 -6.2,6.2 -3.4,0 -6.2,-2.8 -6.2,-6.2 0,-3.4 2.8,-6.2 6.2,-6.2 3.5,0 6.2,2.8 6.2,6.2 z"
   id="path205" />
	</g>
	<g
   id="g207">
		<path
   class="st5"
   d="m 1766.1,759.5 c 0,3.2 -2.6,5.8 -5.8,5.8 H 1731 c -3.2,0 -5.8,-2.6 -5.8,-5.8 v 0 c 0,-3.2 2.6,-5.8 5.8,-5.8 h 29.3 c 3.2,0.1 5.8,2.7 5.8,5.8 z"
   id="path206" />
		<path
   class="st7"
   d="m 1720.9,760 c 0,3.4 -2.8,6.2 -6.2,6.2 -3.4,0 -6.2,-2.8 -6.2,-6.2 0,-3.4 2.8,-6.2 6.2,-6.2 3.4,0 6.2,2.8 6.2,6.2 z"
   id="path207" />
	</g>
	<g
   id="g209">
		<path
   class="st5"
   d="m 1766.1,781.4 c 0,3.2 -2.6,5.8 -5.8,5.8 H 1731 c -3.2,0 -5.8,-2.6 -5.8,-5.8 v 0 c 0,-3.2 2.6,-5.8 5.8,-5.8 h 29.3 c 3.2,0 5.8,2.6 5.8,5.8 z"
   id="path208" />
		<path
   class="st7"
   d="m 1720.9,781.8 c 0,3.4 -2.8,6.2 -6.2,6.2 -3.4,0 -6.2,-2.8 -6.2,-6.2 0,-3.4 2.8,-6.2 6.2,-6.2 3.4,0 6.2,2.8 6.2,6.2 z"
   id="path209" />
	</g>
	<g
   id="g210">
		<path
   class="st5"
   d="m 1712.2,803.3 c 0,3.2 -2.6,5.8 -5.8,5.8 h -29.3 c -3.2,0 -5.8,-2.6 -5.8,-5.8 v 0 c 0,-3.2 2.6,-5.8 5.8,-5.8 h 29.3 c 3.2,0 5.8,2.6 5.8,5.8 z"
   id="path210" />
		<circle
   class="st7"
   cx="1660.8"
   cy="803.70001"
   r="6.1999998"
   id="circle210" />
	</g>
	<g
   id="g212">
		<path
   class="st5"
   d="m 1712.2,825.1 c 0,3.2 -2.6,5.8 -5.8,5.8 h -29.3 c -3.2,0 -5.8,-2.6 -5.8,-5.8 v 0 c 0,-3.2 2.6,-5.8 5.8,-5.8 h 29.3 c 3.2,0.1 5.8,2.6 5.8,5.8 z"
   id="path211" />
		<path
   class="st7"
   d="m 1667,825.6 c 0,3.4 -2.8,6.2 -6.2,6.2 -3.4,0 -6.2,-2.8 -6.2,-6.2 0,-3.4 2.8,-6.2 6.2,-6.2 3.4,0 6.2,2.8 6.2,6.2 z"
   id="path212" />
	</g>
	<g
   id="g214">
		<path
   class="st5"
   d="m 1712.2,847 c 0,3.2 -2.6,5.8 -5.8,5.8 h -29.3 c -3.2,0 -5.8,-2.6 -5.8,-5.8 v 0 c 0,-3.2 2.6,-5.8 5.8,-5.8 h 29.3 c 3.2,0 5.8,2.6 5.8,5.8 z"
   id="path213" />
		<path
   class="st7"
   d="m 1667,847.4 c 0,3.4 -2.8,6.2 -6.2,6.2 -3.4,0 -6.2,-2.8 -6.2,-6.2 0,-3.4 2.8,-6.2 6.2,-6.2 3.4,0.1 6.2,2.8 6.2,6.2 z"
   id="path214" />
	</g>
	<g
   id="g216">
		<path
   class="st5"
   d="m 1712.2,868.9 c 0,3.2 -2.6,5.8 -5.8,5.8 h -29.3 c -3.2,0 -5.8,-2.6 -5.8,-5.8 v 0 c 0,-3.2 2.6,-5.8 5.8,-5.8 h 29.3 c 3.2,0 5.8,2.6 5.8,5.8 z"
   id="path215" />
		<path
   class="st7"
   d="m 1667,869.3 c 0,3.4 -2.8,6.2 -6.2,6.2 -3.4,0 -6.2,-2.8 -6.2,-6.2 0,-3.4 2.8,-6.2 6.2,-6.2 3.4,0 6.2,2.8 6.2,6.2 z"
   id="path216" />
	</g>
</g><path
     class="st5"
     d="m 1908.3,560.4 c 0,6.2 -5.1,11.3 -11.3,11.3 -6.2,0 -11.3,-5.1 -11.3,-11.3 0,-6.2 5.1,-11.3 11.3,-11.3 6.3,0.1 11.3,5.1 11.3,11.3 z"
     id="path217" /><g
     id="g225">
	<g
   id="g221">
		<g
   id="g220">
			<linearGradient
   id="SVGID_29_"
   gradientUnits="userSpaceOnUse"
   x1="1581.3961"
   y1="938.45349"
   x2="1672.1561"
   y2="938.45349">
				<stop
   offset="0"
   style="stop-color:#4A7AB7"
   id="stop217" />
				<stop
   offset="1"
   style="stop-color:#9ECBE1"
   id="stop218" />
			</linearGradient>
			<path
   class="st45"
   d="m 1583.4,1015.1 c 0,0 -5.5,-92.2 1.5,-106.7 6.9,-14.6 17.1,-23.6 27.1,-12.7 10,10.9 14.1,12.6 14.3,-0.5 0.2,-13.1 17.1,-41.7 35.7,-31 18.6,10.7 4.9,29 -0.6,36.8 -5.5,7.8 -13.7,18.4 -5.6,16.5 8.1,-1.9 17.3,-4.7 16.3,3.5 -1,8.2 -20.4,13 -30.1,21.1 -9.7,8.2 -10.4,14.9 -1.5,13.5 9,-1.4 23,8.6 13.7,15.9 -9.2,7.3 -58.2,39.6 -58.2,39.6 z"
   id="path218"
   style="fill:url(#SVGID_29_)" />
			<g
   id="g219">
				<path
   class="st25"
   d="m 1589.7,1008 c 0.4,-1.7 1,-3.7 1.7,-6.1 0.6,-2.4 1.6,-4.9 2.5,-7.8 0.9,-2.9 2.1,-5.9 3.4,-9.1 1.2,-3.2 2.6,-6.5 4.1,-10 0.1,-0.3 0.3,-0.7 0.4,-1 -0.4,-1.2 -0.9,-3 -1.5,-5.1 -0.6,-2.1 -1.1,-4.5 -1.7,-7.1 -0.3,-1.3 -0.6,-2.6 -0.8,-4 -0.3,-1.4 -0.5,-2.8 -0.8,-4.2 -0.2,-1.4 -0.5,-2.8 -0.7,-4.2 -0.2,-1.4 -0.4,-2.7 -0.6,-4.1 -0.4,-2.6 -0.7,-5.1 -0.9,-7.2 -0.4,-4.2 -0.5,-7.1 -0.5,-7.1 0,0 1,2.7 2,6.9 0.6,2.1 1.1,4.5 1.7,7.1 0.3,1.3 0.6,2.6 0.8,4 0.3,1.4 0.5,2.8 0.8,4.2 0.2,1.4 0.5,2.8 0.7,4.2 0.2,1.4 0.4,2.7 0.6,4.1 0.4,2.6 0.7,5.1 0.9,7.2 0.2,1.7 0.3,3.2 0.4,4.4 1.2,-2.8 2.5,-5.7 3.7,-8.5 1.6,-3.6 3.3,-7.2 5,-10.8 3.5,-7.2 6.9,-14.3 10.4,-21 3.4,-6.6 6.7,-12.8 9.6,-18 2.9,-5.2 5.4,-9.5 7.1,-12.6 1.7,-3 2.8,-4.7 2.8,-4.7 0,0 -0.8,1.8 -2.3,5 -1.5,3.1 -3.6,7.6 -6.2,13 -3.8,7.9 -8.5,17.8 -13.5,28.2 0.1,-0.1 0.2,-0.2 0.3,-0.3 1.1,-1.1 2.4,-2.4 3.8,-3.7 1.4,-1.3 3,-2.7 4.6,-4 1.6,-1.3 3.3,-2.6 4.8,-3.7 1.6,-1.2 3.1,-2.2 4.4,-3 2.6,-1.7 4.5,-2.7 4.5,-2.7 0,0 -1.3,1.7 -3.5,3.9 -1.1,1.1 -2.4,2.4 -3.9,3.7 -1.4,1.3 -3,2.7 -4.6,4 -1.6,1.3 -3.3,2.6 -4.8,3.7 -1.6,1.2 -3.1,2.2 -4.4,3 -0.9,0.6 -1.8,1.1 -2.4,1.5 -1.4,2.9 -2.8,5.8 -4.2,8.8 -1.7,3.6 -3.4,7.2 -5,10.7 -1.6,3.6 -3.2,7 -4.8,10.4 -1.5,3.4 -3.1,6.7 -4.4,9.8 -1.3,3.1 -2.7,6.1 -3.8,8.8 -0.6,1.4 -1.1,2.7 -1.6,4 -0.5,1.2 -1,2.4 -1.4,3.6 -0.8,2.3 -1.6,4.2 -2.1,5.9 -1,3.3 -1.6,5.2 -1.6,5.2 0,0 0.3,-1.8 1,-5.3 z"
   id="path219" />
			</g>
			<path
   class="st25"
   d="m 1624.7,976.5 c 0,0 -1.6,1.3 -4.1,2.8 -1.3,0.8 -2.7,1.7 -4.4,2.5 -1.6,0.9 -3.4,1.8 -5.1,2.6 -1.8,0.8 -3.6,1.6 -5.3,2.3 -1.7,0.7 -3.3,1.3 -4.7,1.8 -2.8,1 -4.8,1.4 -4.8,1.4 0,0 1.6,-1.3 4.1,-2.8 1.3,-0.8 2.7,-1.7 4.4,-2.5 1.6,-0.9 3.4,-1.8 5.1,-2.6 1.8,-0.8 3.6,-1.6 5.3,-2.3 1.7,-0.7 3.3,-1.3 4.7,-1.8 2.9,-1 4.8,-1.4 4.8,-1.4 z"
   id="path220" />
		</g>
	</g>
	<g
   id="g223">
		<linearGradient
   id="SVGID_30_"
   gradientUnits="userSpaceOnUse"
   x1="1471.6517"
   y1="878.34528"
   x2="1618.1876"
   y2="878.34528">
			<stop
   offset="0"
   style="stop-color:#4A7AB7"
   id="stop221" />
			<stop
   offset="1"
   style="stop-color:#9ECBE1"
   id="stop222" />
		</linearGradient>
		<path
   class="st46"
   d="m 1580.5,1015.8 c 0,0 42.9,-147.3 37.1,-173.5 -5.8,-26.2 -18.9,-44.5 -39.1,-30.5 -20.2,14 -27.6,15.3 -23,-6.1 4.6,-21.3 -12.3,-73.8 -46.4,-63.3 -34.1,10.5 -18.6,45.2 -12.6,59.8 6,14.6 15.4,34.8 3,28.8 -12.4,-6 -26.3,-14 -27.7,-0.3 -1.4,13.7 28.3,28.6 41,45.4 12.7,16.8 11.4,28 -2.6,22.4 -14,-5.6 -40.4,5.4 -28.1,20.6 12.3,15.2 79.7,85.7 79.7,85.7 z"
   id="path222"
   style="fill:url(#SVGID_30_)" />
		<path
   class="st47"
   d="m 1562.4,945.3 c -1.3,-6 -2.6,-12.3 -3.9,-18.7 -1.4,-6.3 -2.8,-12.8 -4.2,-19.2 -1.2,-5.3 -2.4,-10.5 -3.5,-15.7 -1,-0.9 -2.1,-2 -3.4,-3.4 -1.8,-1.9 -3.9,-4.1 -6,-6.5 -2.1,-2.4 -4.3,-5.1 -6.4,-7.8 -2.1,-2.7 -4.2,-5.5 -6,-8.2 -1.9,-2.6 -3.5,-5.2 -4.9,-7.4 -2.7,-4.4 -4.3,-7.6 -4.3,-7.6 0,0 2.7,2.2 6.3,6 1.8,1.9 3.9,4.1 6,6.5 2.1,2.4 4.3,5.1 6.5,7.8 2.1,2.7 4.2,5.5 6,8.1 1.9,2.6 3.5,5.2 4.9,7.4 0.1,0.2 0.2,0.4 0.3,0.6 -4.2,-18.7 -8.2,-36.4 -11.4,-50.7 -2.1,-9.7 -3.9,-17.8 -5.2,-23.4 -1.2,-5.7 -1.9,-8.9 -1.9,-8.9 0,0 1.1,3.1 2.8,8.7 1.7,5.6 4.2,13.4 6.8,23 2.7,9.5 5.8,20.7 8.8,32.7 3.1,12 6.1,24.9 9.1,37.8 1.4,6.5 2.7,13 4.1,19.3 1,5.2 2,10.2 2.9,15.2 0.5,-1.9 1.3,-4.2 2.2,-6.9 1.1,-3.4 2.5,-7.3 4.1,-11.4 0.8,-2.1 1.6,-4.2 2.5,-6.4 0.9,-2.2 1.8,-4.3 2.7,-6.5 0.9,-2.2 1.9,-4.3 2.8,-6.5 0.9,-2.1 1.9,-4.2 2.8,-6.2 1.9,-4 3.7,-7.7 5.4,-10.8 3.3,-6.3 5.8,-10.4 5.8,-10.4 0,0 -1.1,4.6 -3.4,11.4 -1.1,3.4 -2.5,7.3 -4.1,11.4 -0.8,2 -1.6,4.2 -2.5,6.3 -0.9,2.1 -1.8,4.3 -2.7,6.5 -0.9,2.2 -1.9,4.3 -2.8,6.4 -0.9,2.1 -1.9,4.2 -2.8,6.2 -1.9,4 -3.7,7.7 -5.4,10.9 -1.7,3.3 -3.2,5.9 -4.3,7.8 0.1,0.6 0.2,1.2 0.3,1.7 1,6.1 2.1,12 2.9,17.7 0.8,5.6 1.6,11 2.1,15.9 0.5,5 1.1,9.5 1.2,13.5 0.2,4 0.5,7.5 0.4,10.5 -0.1,5.8 -0.3,9.1 -0.3,9.1 0,0 -0.3,-3.3 -0.6,-9.1 -0.2,-2.9 -0.8,-6.3 -1.2,-10.3 -0.2,-2 -0.5,-4.1 -1,-6.3 -0.4,-2.2 -0.8,-4.6 -1.2,-7 -0.4,-2.9 -1,-5.9 -1.6,-9 -1.3,-0.7 -3.2,-1.7 -5.4,-3.1 -2.1,-1.3 -4.5,-2.9 -7,-4.6 -2.5,-1.8 -5.1,-3.7 -7.7,-5.7 -2.6,-2 -5.1,-4.1 -7.4,-6.2 -2.3,-2 -4.4,-4 -6.1,-5.7 -3.5,-3.5 -5.6,-6.1 -5.6,-6.1 0,0 3,1.4 7.2,4 2.1,1.3 4.5,2.9 7,4.6 2.5,1.8 5.1,3.7 7.7,5.7 2.6,2 5.1,4.1 7.4,6.2 2.3,2 4.4,4 6.1,5.7 1.4,1.4 2.6,2.7 3.5,3.7 -0.3,-1.7 -0.7,-3.4 -1,-5.2 -0.9,-5.5 -2.2,-11.3 -3.4,-17.4 z"
   id="path223" />
	</g>
	<g
   id="g224">
		<polygon
   class="st1"
   points="1556.3,997.5 1615.2,997.5 1629.6,997.5 1620.5,1077.1 1615.2,1077.1 1556.3,1077.1 1551,1077.1 1541.9,997.5 "
   id="polygon223" />
		<rect
   x="1536"
   y="995.70001"
   class="st34"
   width="101.2"
   height="16.200001"
   id="rect223" />
	</g>
</g><g
     id="g228">
	<linearGradient
   id="SVGID_31_"
   gradientUnits="userSpaceOnUse"
   x1="82.410103"
   y1="662.7019"
   x2="234.53081"
   y2="662.7019">
		<stop
   offset="0.1047"
   style="stop-color:#0A0245"
   id="stop225" />
		<stop
   offset="0.9543"
   style="stop-color:#300030"
   id="stop226" />
	</linearGradient>
	<circle
   class="st48"
   cx="158.5"
   cy="662.70001"
   r="76.099998"
   id="circle226"
   style="fill:url(#SVGID_31_)" />
	<linearGradient
   id="SVGID_32_"
   gradientUnits="userSpaceOnUse"
   x1="115.2281"
   y1="662.70172"
   x2="201.7128"
   y2="662.70172">
		<stop
   offset="0.1047"
   style="stop-color:#FC6F3D"
   id="stop227" />
		<stop
   offset="0.9543"
   style="stop-color:#F7426E"
   id="stop228" />
	</linearGradient>
	<path
   class="st49"
   d="m 201.7,662.7 c 0,-23.8 -19.4,-43.2 -43.2,-43.2 -23.8,0 -43.2,19.4 -43.2,43.2 0,11.9 4.9,23.3 13.6,31.5 v 0.1 l 1.2,1 c 0,0 0,0 0,0 l 5,4.4 v -0.6 c 6.9,4.5 15,6.9 23.4,6.9 8.3,0 16.4,-2.4 23.4,-6.9 v 0.6 l 5,-4.4 c 0,0 0,0 0,0 l 1.2,-1 v -0.1 c 8.7,-8.2 13.6,-19.6 13.6,-31.5 z m -79.9,0 c 0,-20.2 16.5,-36.7 36.7,-36.7 20.2,0 36.7,16.5 36.7,36.7 0,8.5 -3,16.7 -8.3,23.3 0,0 0,0 0,-0.1 -0.1,-0.5 -0.3,-1 -0.5,-1.5 0,-0.1 -0.1,-0.3 -0.1,-0.4 -0.1,-0.4 -0.3,-0.7 -0.4,-1.1 -0.1,-0.2 -0.1,-0.3 -0.2,-0.5 -0.1,-0.3 -0.3,-0.6 -0.4,-1 -0.1,-0.2 -0.1,-0.3 -0.2,-0.5 -0.2,-0.4 -0.4,-0.7 -0.6,-1.1 0,-0.1 -0.1,-0.2 -0.1,-0.3 -0.3,-0.4 -0.5,-0.9 -0.8,-1.3 -0.1,-0.1 -0.2,-0.2 -0.2,-0.4 -0.2,-0.3 -0.4,-0.6 -0.6,-0.9 -0.1,-0.1 -0.2,-0.3 -0.3,-0.4 -0.2,-0.3 -0.4,-0.6 -0.7,-0.8 -0.1,-0.1 -0.2,-0.3 -0.3,-0.4 -0.3,-0.4 -0.6,-0.7 -0.9,-1 0,0 -0.1,-0.1 -0.1,-0.1 -0.3,-0.4 -0.7,-0.7 -1.1,-1.1 -0.1,-0.1 -0.2,-0.2 -0.3,-0.3 -0.3,-0.3 -0.5,-0.5 -0.8,-0.7 -0.1,-0.1 -0.3,-0.2 -0.4,-0.3 -0.3,-0.2 -0.6,-0.5 -0.8,-0.7 -0.1,-0.1 -0.2,-0.2 -0.4,-0.3 -0.4,-0.3 -0.8,-0.6 -1.2,-0.9 0,0 0,0 0,0 -0.4,-0.3 -0.8,-0.5 -1.2,-0.8 -0.1,-0.1 -0.3,-0.2 -0.4,-0.2 -0.3,-0.2 -0.6,-0.4 -0.9,-0.5 -0.2,-0.1 -0.3,-0.2 -0.5,-0.2 -0.3,-0.2 -0.7,-0.3 -1,-0.5 -0.1,-0.1 -0.3,-0.1 -0.4,-0.2 -0.5,-0.2 -0.9,-0.4 -1.4,-0.6 0,0 0,0 0,0 0,0 0.1,-0.1 0.1,-0.2 0.2,-0.2 0.3,-0.4 0.5,-0.6 0.1,-0.1 0.2,-0.3 0.4,-0.4 0.2,-0.2 0.3,-0.4 0.5,-0.6 0.1,-0.2 0.2,-0.3 0.3,-0.5 0.1,-0.2 0.3,-0.5 0.4,-0.7 0.1,-0.2 0.2,-0.3 0.3,-0.5 0.1,-0.2 0.2,-0.5 0.3,-0.7 0.1,-0.2 0.2,-0.3 0.2,-0.5 0.1,-0.3 0.2,-0.5 0.3,-0.8 0.1,-0.2 0.1,-0.3 0.2,-0.5 0.1,-0.3 0.1,-0.6 0.2,-0.8 0,-0.2 0.1,-0.3 0.1,-0.5 0.1,-0.3 0.1,-0.6 0.1,-0.9 0,-0.2 0.1,-0.3 0.1,-0.5 0,-0.5 0.1,-0.9 0.1,-1.4 0,-8.2 -6.7,-14.9 -14.9,-14.9 -8.2,0 -14.9,6.7 -14.9,14.9 0,0.5 0,1 0.1,1.4 0,0.2 0,0.3 0.1,0.5 0,0.3 0.1,0.6 0.1,0.9 0,0.2 0.1,0.4 0.1,0.5 0.1,0.3 0.1,0.5 0.2,0.8 0.1,0.2 0.1,0.4 0.2,0.6 0.1,0.3 0.2,0.5 0.3,0.7 0.1,0.2 0.2,0.4 0.2,0.5 0.1,0.2 0.2,0.5 0.3,0.7 0.1,0.2 0.2,0.3 0.3,0.5 0.1,0.2 0.2,0.4 0.4,0.7 0.1,0.2 0.2,0.3 0.3,0.5 0.1,0.2 0.3,0.4 0.4,0.6 0.1,0.2 0.3,0.3 0.4,0.5 0.2,0.2 0.3,0.4 0.5,0.6 0,0.1 0.1,0.1 0.1,0.2 0,0 0,0 0,0 -0.5,0.2 -1,0.4 -1.4,0.6 -0.1,0.1 -0.3,0.1 -0.4,0.2 -0.3,0.2 -0.7,0.3 -1,0.5 -0.2,0.1 -0.3,0.2 -0.5,0.2 -0.3,0.2 -0.6,0.3 -0.9,0.5 -0.1,0.1 -0.3,0.2 -0.4,0.2 -0.4,0.3 -0.9,0.5 -1.3,0.8 0,0 0,0 0,0 -0.4,0.3 -0.8,0.6 -1.2,0.9 -0.1,0.1 -0.2,0.2 -0.3,0.3 -0.3,0.2 -0.6,0.5 -0.9,0.7 -0.1,0.1 -0.2,0.2 -0.4,0.3 -0.3,0.2 -0.6,0.5 -0.8,0.8 -0.1,0.1 -0.2,0.2 -0.3,0.3 -0.4,0.4 -0.7,0.7 -1.1,1.1 0,0 0,0 0,0.1 -0.3,0.4 -0.6,0.7 -1,1.1 -0.1,0.1 -0.2,0.2 -0.3,0.4 -0.2,0.3 -0.5,0.6 -0.7,0.9 -0.1,0.1 -0.2,0.3 -0.3,0.4 -0.2,0.3 -0.4,0.6 -0.6,0.9 -0.1,0.1 -0.2,0.2 -0.2,0.3 -0.3,0.4 -0.5,0.9 -0.8,1.3 0,0.1 -0.1,0.2 -0.1,0.2 -0.2,0.4 -0.4,0.7 -0.6,1.1 -0.1,0.2 -0.2,0.3 -0.2,0.5 -0.2,0.3 -0.3,0.6 -0.4,1 -0.1,0.2 -0.1,0.3 -0.2,0.5 -0.1,0.3 -0.3,0.7 -0.4,1.1 -0.1,0.1 -0.1,0.3 -0.2,0.4 -0.2,0.5 -0.3,1 -0.5,1.5 0,0 0,0.1 0,0.1 -5.8,-6.8 -8.8,-15 -8.8,-23.5 z m 44.9,-5.3 c 0,0.1 0,0.2 0,0.2 0,0.2 0,0.3 -0.1,0.5 0,0.1 0,0.2 -0.1,0.3 0,0.2 -0.1,0.3 -0.1,0.5 0,0.1 -0.1,0.2 -0.1,0.3 0,0.1 -0.1,0.3 -0.1,0.4 0,0.1 -0.1,0.2 -0.1,0.3 -0.1,0.1 -0.1,0.3 -0.2,0.4 0,0.1 -0.1,0.2 -0.1,0.3 -0.1,0.1 -0.1,0.3 -0.2,0.4 0,0.1 -0.1,0.2 -0.2,0.2 -0.1,0.1 -0.2,0.2 -0.2,0.4 -0.1,0.1 -0.1,0.2 -0.2,0.2 -0.1,0.1 -0.2,0.2 -0.3,0.3 -0.1,0.1 -0.1,0.1 -0.2,0.2 -0.1,0.1 -0.2,0.2 -0.3,0.3 -0.1,0.1 -0.2,0.1 -0.2,0.2 -0.1,0.1 -0.2,0.2 -0.3,0.3 -0.1,0.1 -0.2,0.1 -0.3,0.2 -0.1,0.1 -0.2,0.2 -0.3,0.2 -0.1,0.1 -0.2,0.1 -0.3,0.2 -0.1,0.1 -0.2,0.1 -0.3,0.2 -0.1,0.1 -0.2,0.1 -0.3,0.2 -0.1,0.1 -0.2,0.1 -0.4,0.2 -0.1,0 -0.2,0.1 -0.3,0.1 -0.1,0 -0.2,0.1 -0.4,0.1 -0.1,0 -0.2,0.1 -0.3,0.1 -0.1,0 -0.3,0.1 -0.4,0.1 -0.1,0 -0.2,0 -0.4,0.1 -0.1,0 -0.2,0 -0.3,0 h -0.1 c -0.4,0 -0.7,0 -1.1,0 -0.4,0 -0.7,0 -1.1,0 h -0.1 c -0.1,0 -0.2,0 -0.3,-0.1 -0.1,0 -0.2,0 -0.4,-0.1 -0.1,0 -0.3,-0.1 -0.4,-0.1 -0.1,0 -0.2,-0.1 -0.3,-0.1 -0.1,0 -0.3,-0.1 -0.4,-0.1 -0.1,0 -0.2,-0.1 -0.3,-0.1 -0.1,-0.1 -0.2,-0.1 -0.4,-0.2 -0.1,0 -0.2,-0.1 -0.3,-0.2 -0.1,-0.1 -0.2,-0.1 -0.4,-0.2 -0.1,-0.1 -0.2,-0.1 -0.3,-0.2 -0.1,-0.1 -0.2,-0.2 -0.3,-0.2 -0.1,-0.1 -0.2,-0.1 -0.3,-0.2 -0.1,-0.1 -0.2,-0.2 -0.3,-0.3 -0.1,-0.1 -0.2,-0.1 -0.2,-0.2 -0.1,-0.1 -0.2,-0.2 -0.3,-0.3 -0.1,-0.1 -0.2,-0.2 -0.2,-0.2 -0.1,-0.1 -0.2,-0.2 -0.3,-0.3 -0.1,-0.1 -0.1,-0.2 -0.2,-0.3 -0.1,-0.1 -0.2,-0.2 -0.2,-0.3 -0.1,-0.1 -0.1,-0.2 -0.2,-0.3 -0.1,-0.1 -0.1,-0.2 -0.2,-0.4 -0.1,-0.1 -0.1,-0.2 -0.1,-0.3 -0.1,-0.1 -0.1,-0.3 -0.2,-0.4 0,-0.1 -0.1,-0.2 -0.1,-0.3 -0.1,-0.1 -0.1,-0.3 -0.1,-0.4 0,-0.1 -0.1,-0.2 -0.1,-0.3 0,-0.1 -0.1,-0.3 -0.1,-0.4 0,-0.1 0,-0.2 -0.1,-0.3 0,-0.2 -0.1,-0.3 -0.1,-0.5 0,-0.1 0,-0.2 0,-0.2 0,-0.3 0,-0.5 0,-0.8 0,-4.6 3.7,-8.3 8.3,-8.3 4.6,0 8.3,3.7 8.3,8.3 0,0.4 0,0.6 -0.1,0.9 z m -31.1,34 c 0,-0.1 0,-0.2 0,-0.3 0,-0.3 0.1,-0.6 0.2,-1 0.1,-0.4 0.1,-0.7 0.2,-1.1 0.1,-0.3 0.2,-0.6 0.3,-0.9 0.1,-0.4 0.2,-0.7 0.3,-1 0.1,-0.3 0.2,-0.6 0.3,-0.9 0.1,-0.3 0.3,-0.7 0.4,-1 0.1,-0.3 0.3,-0.6 0.4,-0.9 0.2,-0.3 0.3,-0.6 0.5,-1 0.2,-0.3 0.3,-0.6 0.5,-0.8 0.2,-0.3 0.4,-0.6 0.6,-0.9 0.2,-0.3 0.4,-0.5 0.5,-0.8 0.2,-0.3 0.4,-0.6 0.7,-0.9 0.2,-0.2 0.4,-0.5 0.6,-0.7 0.2,-0.3 0.5,-0.5 0.7,-0.8 0.2,-0.2 0.4,-0.4 0.6,-0.7 0.3,-0.3 0.5,-0.5 0.8,-0.7 0.2,-0.2 0.5,-0.4 0.7,-0.6 0.3,-0.2 0.6,-0.5 0.9,-0.7 0.2,-0.2 0.5,-0.4 0.7,-0.5 0.3,-0.2 0.6,-0.4 1,-0.6 0.3,-0.2 0.5,-0.3 0.8,-0.5 0.3,-0.2 0.7,-0.4 1.1,-0.5 0.3,-0.1 0.5,-0.3 0.8,-0.4 0.4,-0.2 0.8,-0.3 1.2,-0.5 0.2,-0.1 0.5,-0.2 0.7,-0.3 0.6,-0.2 1.3,-0.4 2,-0.6 0.1,0 0.2,0 0.4,-0.1 0.6,-0.1 1.1,-0.2 1.7,-0.3 0.3,0 0.5,-0.1 0.8,-0.1 0.4,0 0.8,-0.1 1.3,-0.1 0,0 0,0 0.1,0 0.4,0 0.8,0.1 1.3,0.1 0.5,0 0.9,0 1.3,-0.1 0,0 0,0 0.1,0 0.4,0 0.8,0.1 1.3,0.1 0.3,0 0.5,0 0.8,0.1 0.6,0.1 1.1,0.2 1.7,0.3 0.1,0 0.3,0.1 0.4,0.1 0.7,0.2 1.3,0.3 1.9,0.6 0.2,0.1 0.5,0.2 0.7,0.3 0.4,0.2 0.8,0.3 1.2,0.5 0.3,0.1 0.5,0.3 0.8,0.4 0.3,0.2 0.7,0.3 1,0.5 0.3,0.1 0.5,0.3 0.8,0.5 0.3,0.2 0.6,0.4 0.9,0.6 0.3,0.2 0.5,0.4 0.8,0.5 0.3,0.2 0.6,0.4 0.9,0.7 0.2,0.2 0.5,0.4 0.7,0.6 0.3,0.2 0.5,0.5 0.8,0.7 0.2,0.2 0.4,0.4 0.7,0.7 0.2,0.3 0.5,0.5 0.7,0.8 0.2,0.2 0.4,0.5 0.6,0.7 0.2,0.3 0.4,0.5 0.6,0.8 0.2,0.3 0.4,0.5 0.6,0.8 0.2,0.3 0.4,0.6 0.6,0.9 0.2,0.3 0.3,0.6 0.5,0.8 0.2,0.3 0.3,0.6 0.5,0.9 0.1,0.3 0.3,0.6 0.4,0.9 0.1,0.3 0.3,0.7 0.4,1 0.1,0.3 0.2,0.6 0.3,0.9 0.1,0.3 0.2,0.7 0.3,1 0.1,0.3 0.2,0.6 0.3,1 0.1,0.4 0.2,0.7 0.2,1.1 0.1,0.3 0.1,0.6 0.2,1 0,0.1 0,0.2 0,0.3 -6.5,5.2 -14.5,8 -22.8,8 -8.7,0.1 -16.8,-2.7 -23.3,-7.9 z"
   id="path228"
   style="fill:url(#SVGID_32_)" />
</g><path
     class="st50"
     d="m 758.9,843.1 c 0,28.5 -23.1,51.6 -51.6,51.6 -28.5,0 -51.6,-23.1 -51.6,-51.6 0,-28.5 23.1,-51.6 51.6,-51.6 28.5,0.1 51.6,23.1 51.6,51.6 z"
     id="path230"
     style="fill:#ffd42a" /><path
     class="st50"
     d="m 633.04288,172.67331 c 0,28.5 -23.1,51.6 -51.6,51.6 -28.5,0 -51.6,-23.1 -51.6,-51.6 0,-28.5 23.1,-51.6 51.6,-51.6 28.5,0.1 51.6,23.1 51.6,51.6 z"
     id="path230-7"
     style="fill:url(#SVGID_33_-6)" /><g
     id="g239">
	<path
   class="st2"
   d="m 1730.8,554.8 c 0,8.2 -6.6,14.8 -14.8,14.8 h -259.8 c -8.2,0 -14.8,-6.6 -14.8,-14.8 V 292 c 0,-8.2 6.6,-14.8 14.8,-14.8 H 1716 c 8.2,0 14.8,6.6 14.8,14.8 z"
   id="path231" />
	<path
   class="st5"
   d="m 1714.7,538.1 c 0,8.2 -6.6,14.8 -14.8,14.8 h -259.8 c -8.2,0 -14.8,-6.6 -14.8,-14.8 V 275.4 c 0,-8.2 6.6,-14.8 14.8,-14.8 h 259.8 c 8.2,0 14.8,6.6 14.8,14.8 z"
   id="path232" />
	<g
   id="g238">
		<g
   id="g233">
			<linearGradient
   id="SVGID_34_"
   gradientUnits="userSpaceOnUse"
   x1="1469.6848"
   y1="406.71539"
   x2="1670.4199"
   y2="406.71539">
				<stop
   offset="0.1047"
   style="stop-color:#FC6F3D"
   id="stop232" />
				<stop
   offset="0.9543"
   style="stop-color:#F7426E"
   id="stop233" />
			</linearGradient>
			<path
   class="st53"
   d="m 1570.1,507.1 c -55.3,0 -100.4,-45 -100.4,-100.4 0,-55.3 45,-100.4 100.4,-100.4 55.3,0 100.4,45 100.4,100.4 -0.1,55.4 -45.1,100.4 -100.4,100.4 z m 0,-177 c -42.2,0 -76.6,34.4 -76.6,76.6 0,42.2 34.4,76.6 76.6,76.6 42.2,0 76.6,-34.4 76.6,-76.6 -0.1,-42.2 -34.4,-76.6 -76.6,-76.6 z"
   id="path233"
   style="fill:url(#SVGID_34_)" />
		</g>
		<g
   id="g237">
			<linearGradient
   id="SVGID_35_"
   gradientUnits="userSpaceOnUse"
   x1="1504.9036"
   y1="406.50711"
   x2="1639.9374"
   y2="406.50711">
				<stop
   offset="0.1047"
   style="stop-color:#FC6F3D"
   id="stop234" />
				<stop
   offset="0.9543"
   style="stop-color:#F7426E"
   id="stop235" />
			</linearGradient>
			<line
   class="st54"
   x1="1639.9"
   y1="340.29999"
   x2="1504.9"
   y2="472.70001"
   id="line235"
   style="fill:url(#SVGID_35_)" />
			<linearGradient
   id="SVGID_36_"
   gradientUnits="userSpaceOnUse"
   x1="1496.4329"
   y1="406.50809"
   x2="1648.4081"
   y2="406.50809">
				<stop
   offset="0.1047"
   style="stop-color:#FC6F3D"
   id="stop236" />
				<stop
   offset="0.9543"
   style="stop-color:#F7426E"
   id="stop237" />
			</linearGradient>
			<polygon
   class="st55"
   points="1513.4,481.1 1496.4,464.4 1631.5,331.9 1648.4,348.6 "
   id="polygon237"
   style="fill:url(#SVGID_36_)" />
		</g>
	</g>
</g><g
     id="g240"
     transform="translate(1082.1089,331.89283)"><rect
       style="fill:#ff0000"
       id="rect239"
       width="141.7459"
       height="82.973206"
       x="653.414"
       y="122.7312"
       ry="41.486603" /><text
       xml:space="preserve"
       style="font-size:30.6666px;fill:#ffffff;stroke-width:2.55555"
       x="681.58508"
       y="176.33215"
       id="text239"><tspan
         id="tspan239"
         x="681.58508"
         y="176.33215"
         style="font-style:normal;font-variant:normal;font-weight:bold;font-stretch:normal;font-family:Sans;-inkscape-font-specification:'Sans Bold';stroke-width:2.55555">JAVA</tspan></text></g><rect
     style="fill:#ff6600"
     id="rect239-4"
     width="141.7459"
     height="82.973206"
     x="802.74194"
     y="672.48468"
     ry="26.687777" /><text
     xml:space="preserve"
     style="font-size:30.6666px;fill:#ffffff;stroke-width:2.55555"
     x="825.62775"
     y="725.02856"
     id="text239-7"><tspan
       id="tspan239-8"
       x="825.62775"
       y="725.02856"
       style="font-style:normal;font-variant:normal;font-weight:bold;font-stretch:normal;font-family:Sans;-inkscape-font-specification:'Sans Bold';stroke-width:2.55555">HTML</tspan></text><text
     xml:space="preserve"
     style="font-size:30.6666px;fill:#ffffff;stroke-width:2.55555"
     x="547.57996"
     y="185.51305"
     id="text239-0"><tspan
       id="tspan239-3"
       x="547.57996"
       y="185.51305"
       style="font-style:normal;font-variant:normal;font-weight:bold;font-stretch:normal;font-family:Sans;-inkscape-font-specification:'Sans Bold';stroke-width:2.55555">PHP</tspan></text><path
     class="st50"
     d="m 412.2,663.6 c 0,28.5 -23.1,51.6 -51.6,51.6 -28.5,0 -51.6,-23.1 -51.6,-51.6 0,-28.5 23.1,-51.6 51.6,-51.6 28.5,0.1 51.6,23.1 51.6,51.6 z"
     id="path230-7-7"
     style="fill:#00adff;fill-opacity:1" /><text
     xml:space="preserve"
     style="font-size:30.6666px;fill:#ffffff;stroke-width:2.55555"
     x="326.73709"
     y="676.43976"
     id="text239-0-9"><tspan
       id="tspan239-3-1"
       x="326.73709"
       y="676.43976"
       style="font-style:normal;font-variant:normal;font-weight:bold;font-stretch:normal;font-family:Sans;-inkscape-font-specification:'Sans Bold';stroke-width:2.55555">CSS</tspan></text><text
     xml:space="preserve"
     style="font-size:30.6666px;fill:#ffffff;stroke-width:2.55555"
     x="687.4577"
     y="856.73041"
     id="text239-0-9-7"><tspan
       id="tspan239-3-1-8"
       x="687.4577"
       y="856.73041"
       style="font-style:normal;font-variant:normal;font-weight:bold;font-stretch:normal;font-family:Sans;-inkscape-font-specification:'Sans Bold';stroke-width:2.55555">JS</tspan></text><path
     style="fill:#4f7fba;fill-opacity:1"
     id="path240"
     d="M 207.86357,156.45645 100.18373,182.03678 24.190591,101.57346 55.877302,-4.4701863 163.55715,-30.050512 l 75.99313,80.46332 z"
     transform="matrix(0.58151057,0.15475446,-0.15475446,0.58151057,405.01925,369.57641)" /><text
     xml:space="preserve"
     style="font-size:62.7802px;fill:#ffffff;stroke-width:5.23168"
     x="443.49271"
     y="458.01328"
     id="text239-0-9-0"><tspan
       id="tspan239-3-1-9"
       x="443.49271"
       y="458.01328"
       style="font-style:normal;font-variant:normal;font-weight:bold;font-stretch:normal;font-family:Sans;-inkscape-font-specification:'Sans Bold';stroke-width:5.23168">C</tspan></text></g></svg>
