<?xml version="1.0" encoding="UTF-8" standalone="no"?>
<!-- Generator: Adobe Illustrator 24.0.3, SVG Export Plug-In . SVG Version: 6.00 Build 0)  -->

<svg
   version="1.1"
   id="Layer_1"
   x="0px"
   y="0px"
   viewBox="0 0 2000 1134"
   xml:space="preserve"
   width="2000"
   height="1134"
   sodipodi:docname="Programmer Illustration bg.svg"
   inkscape:version="1.2.2 (732a01da63, 2022-12-09)"
   xmlns:inkscape="http://www.inkscape.org/namespaces/inkscape"
   xmlns:sodipodi="http://sodipodi.sourceforge.net/DTD/sodipodi-0.dtd"
   xmlns:xlink="http://www.w3.org/1999/xlink"
   xmlns="http://www.w3.org/2000/svg"
   xmlns:svg="http://www.w3.org/2000/svg"><sodipodi:namedview
   id="namedview442"
   pagecolor="#ffffff"
   bordercolor="#000000"
   borderopacity="0.25"
   inkscape:showpageshadow="2"
   inkscape:pageopacity="0.0"
   inkscape:pagecheckerboard="0"
   inkscape:deskcolor="#d1d1d1"
   showgrid="false"
   inkscape:zoom="0.33609396"
   inkscape:cx="983.35595"
   inkscape:cy="687.30779"
   inkscape:window-width="1366"
   inkscape:window-height="697"
   inkscape:window-x="-8"
   inkscape:window-y="-8"
   inkscape:window-maximized="1"
   inkscape:current-layer="Layer_1" /><defs
   id="defs239">
	<linearGradient
   id="SVGID_33_"
   gradientUnits="userSpaceOnUse"
   x1="655.77533"
   y1="843.12207"
   x2="758.91058"
   y2="843.12207">
		<stop
   offset="1"
   style="stop-color:#4A7AB7"
   id="stop229" />
		<stop
   offset="1"
   style="stop-color:#9ECBE1"
   id="stop230" />
	</linearGradient>
	
	

	<linearGradient
   id="SVGID_19_"
   gradientUnits="userSpaceOnUse"
   x1="1091.87"
   y1="512.29993"
   x2="1240.2822"
   y2="512.29993"
   gradientTransform="translate(229.1026,-342.5112)">
		<stop
   offset="0"
   style="stop-color:#00b01f;stop-opacity:1;"
   id="stop151" />
		<stop
   offset="1"
   style="stop-color:#009540;stop-opacity:1;"
   id="stop152" />
	</linearGradient>
	
	
<linearGradient
   id="SVGID_33_-6"
   gradientUnits="userSpaceOnUse"
   x1="655.77533"
   y1="843.12207"
   x2="758.91058"
   y2="843.12207"
   gradientTransform="translate(-369.83651,-670.77167)">
		<stop
   offset="1"
   style="stop-color:#0000b0;stop-opacity:1;"
   id="stop229-4" />
		<stop
   offset="1"
   style="stop-color:#9ECBE1"
   id="stop230-3" />
	</linearGradient></defs>
<style
   type="text/css"
   id="style1">
	.st0{fill:url(#SVGID_1_);}
	.st1{fill:#B9E0ED;}
	.st2{fill:#E5E5E5;}
	.st3{fill:url(#SVGID_2_);}
	.st4{fill:#140B4C;}
	.st5{fill:#FFFFFF;}
	.st6{fill:#E1E9F3;}
	.st7{fill:#4FA2CA;}
	.st8{fill:url(#SVGID_3_);}
	.st9{fill:url(#SVGID_4_);}
	.st10{fill:#FFFFFF;stroke:#070606;stroke-miterlimit:10;}
	.st11{fill:url(#SVGID_5_);}
	.st12{fill:url(#SVGID_6_);}
	.st13{fill:#CDC9C1;}
	.st14{fill:url(#SVGID_7_);}
	.st15{fill:#D5E8F2;}
	.st16{fill:url(#SVGID_8_);}
	.st17{fill:url(#SVGID_9_);}
	.st18{fill:url(#SVGID_10_);}
	.st19{fill:url(#SVGID_11_);}
	.st20{fill:url(#SVGID_12_);}
	.st21{fill:url(#SVGID_13_);}
	.st22{fill:url(#SVGID_14_);}
	.st23{fill:url(#SVGID_15_);}
	.st24{fill:url(#SVGID_16_);}
	.st25{fill:#0D156A;}
	.st26{fill:#5670B2;}
	.st27{fill:#DB013F;}
	.st28{fill:#F7426E;}
	.st29{fill:#9096BF;}
	.st30{fill:#6B749C;}
	.st31{fill:url(#SVGID_17_);}
	.st32{fill:#060E35;}
	.st33{fill:url(#SVGID_18_);}
	.st34{fill:#080F42;}
	.st35{fill:url(#SVGID_19_);}
	.st36{clip-path:url(#SVGID_21_);fill:url(#SVGID_22_);}
	.st37{clip-path:url(#SVGID_21_);fill:#FFFFFF;}
	.st38{clip-path:url(#SVGID_21_);}
	.st39{fill:none;}
	.st40{fill:url(#SVGID_23_);}
	.st41{fill:url(#SVGID_24_);}
	.st42{fill:#CCCCCC;}
	.st43{clip-path:url(#SVGID_26_);fill:url(#SVGID_27_);}
	.st44{fill:url(#SVGID_28_);}
	.st45{fill:url(#SVGID_29_);}
	.st46{fill:url(#SVGID_30_);}
	.st47{fill:#D0D8E2;}
	.st48{fill:url(#SVGID_31_);}
	.st49{fill:url(#SVGID_32_);}
	.st50{fill:url(#SVGID_33_);}
	.st51{font-family:'ArialRoundedMTBold';}
	.st52{font-size:43.8402px;}
	.st53{fill:url(#SVGID_34_);}
	.st54{fill:url(#SVGID_35_);}
	.st55{fill:url(#SVGID_36_);}
</style>
<linearGradient
   id="SVGID_1_"
   gradientUnits="userSpaceOnUse"
   x1="1448.1161"
   y1="462.14691"
   x2="1889.0089"
   y2="462.14691"
   gradientTransform="translate(0,-42)">
	<stop
   offset="0"
   style="stop-color:#4A7AB7"
   id="stop1" />
	<stop
   offset="1"
   style="stop-color:#9ECBE1"
   id="stop2" />
</linearGradient>









<linearGradient
   id="SVGID_5_"
   gradientUnits="userSpaceOnUse"
   x1="1273.8857"
   y1="691.99799"
   x2="1357.064"
   y2="757.19769"
   gradientTransform="translate(0,-42)">
	<stop
   offset="0"
   style="stop-color:#FEB01F"
   id="stop43" />
	<stop
   offset="1"
   style="stop-color:#FA3A40"
   id="stop44" />
</linearGradient>




<linearGradient
   id="SVGID_14_"
   gradientUnits="userSpaceOnUse"
   x1="1246.8834"
   y1="791.06097"
   x2="1321.9124"
   y2="791.06097"
   gradientTransform="translate(0,-42)">
	<stop
   offset="0.2957"
   style="stop-color:#FDDC70"
   id="stop69" />
	<stop
   offset="0.4036"
   style="stop-color:#FDC96B"
   id="stop70" />
	<stop
   offset="0.6217"
   style="stop-color:#FC995C"
   id="stop71" />
	<stop
   offset="0.9277"
   style="stop-color:#FB4C45"
   id="stop72" />
	<stop
   offset="1"
   style="stop-color:#FA3A40"
   id="stop73" />
</linearGradient>

<linearGradient
   id="SVGID_15_"
   gradientUnits="userSpaceOnUse"
   x1="1306.3647"
   y1="726.3186"
   x2="1412.1138"
   y2="726.3186"
   gradientTransform="translate(0,-42)">
	<stop
   offset="0"
   style="stop-color:#FEB01F"
   id="stop74" />
	<stop
   offset="1"
   style="stop-color:#FA3A40"
   id="stop75" />
</linearGradient>



















<g
   id="g1484"
   inkscape:export-filename="g1484.png"
   inkscape:export-xdpi="96"
   inkscape:export-ydpi="96"><circle
     class="st0"
     cx="1668.6"
     cy="420.10001"
     r="220.39999"
     id="circle2"
     style="fill:url(#SVGID_1_)" /><g
     id="g2"
     transform="translate(0,-42)">
	<path
   class="st1"
   d="m 532.1,381.7 h 36 c 5.1,0 9.4,1.8 13.1,5.5 3.7,3.7 5.5,8.1 5.5,13.1 v 66.4 c 0,5.1 -1.8,9.5 -5.5,13.1 -3.7,3.7 -8.1,5.5 -13.1,5.5 h -51.2 l -11.1,71.9 H 550 c 5.1,0 9.4,1.8 13.1,5.5 3.7,3.7 5.5,8.1 5.5,13.1 v 66.4 c 0,5.1 -1.8,9.5 -5.5,13.1 -3.7,3.7 -8.1,5.5 -13.1,5.5 h -59.5 l -9,58.8 c -0.9,4.1 -2.9,7.6 -5.9,10.4 -3,2.8 -6.8,4.1 -11.4,4.1 h -72.6 c -4.1,0 -7.7,-1.5 -10.7,-4.5 -3,-3 -4.5,-6.6 -4.5,-10.7 v -1.4 l 8.3,-56.7 h -51.2 l -9,58.8 c -0.9,4.1 -2.9,7.6 -5.9,10.4 -3,2.8 -6.8,4.1 -11.4,4.1 h -72.6 c -4.1,0 -7.7,-1.5 -10.7,-4.5 -3,-3 -4.5,-6.6 -4.5,-10.7 v -1.4 l 8.3,-56.7 h -35.3 c -5.1,0 -9.5,-1.8 -13.1,-5.5 -3.7,-3.7 -5.5,-8.1 -5.5,-13.1 V 576 c 0,-5.1 1.8,-9.4 5.5,-13.1 3.7,-3.7 8.1,-5.5 13.1,-5.5 h 51.2 L 254,485.5 h -43.6 c -5.1,0 -9.5,-1.8 -13.1,-5.5 -3.7,-3.7 -5.5,-8.1 -5.5,-13.1 v -66.4 c 0,-5.1 1.8,-9.4 5.5,-13.1 3.7,-3.7 8.1,-5.5 13.1,-5.5 H 270 l 9,-58.8 c 0.9,-3.7 2.8,-7 5.5,-10 2.8,-3 6.5,-4.5 11.1,-4.5 h 73.3 c 4.2,0 7.7,1.5 10.7,4.5 3,3 4.5,6.6 4.5,10.7 v 2.1 l -9,56 H 427 l 9,-58.8 c 0.9,-3.7 2.8,-7 5.5,-10 2.8,-3 6.4,-4.5 11.1,-4.5 h 73.3 c 4.1,0 7.7,1.5 10.7,4.5 3,3 4.5,6.6 4.5,10.7 v 2.1 z M 348.8,557.3 h 51.9 l 10.4,-71.9 h -51.2 z"
   id="path2" />
</g><g
     id="g35"
     transform="translate(0,-42)">
	<g
   id="g16">
		<path
   class="st7"
   d="m 1717.3,944.6 c 0,2.9 -2.4,5.3 -5.3,5.3 -2.9,0 -5.3,-2.4 -5.3,-5.3 0,-2.9 2.4,-5.3 5.3,-5.3 2.9,-0.1 5.3,2.3 5.3,5.3 z"
   id="path11" />
		<path
   class="st7"
   d="m 1747.6,944.6 c 0,2.9 -2.4,5.3 -5.3,5.3 -2.9,0 -5.3,-2.4 -5.3,-5.3 0,-2.9 2.4,-5.3 5.3,-5.3 2.9,-0.1 5.3,2.3 5.3,5.3 z"
   id="path12" />
		<path
   class="st7"
   d="m 1777.9,944.6 c 0,2.9 -2.4,5.3 -5.3,5.3 -2.9,0 -5.3,-2.4 -5.3,-5.3 0,-2.9 2.4,-5.3 5.3,-5.3 2.9,-0.1 5.3,2.3 5.3,5.3 z"
   id="path13" />
		<path
   class="st7"
   d="m 1808.1,944.6 c 0,2.9 -2.4,5.3 -5.3,5.3 -2.9,0 -5.3,-2.4 -5.3,-5.3 0,-2.9 2.4,-5.3 5.3,-5.3 3,-0.1 5.3,2.3 5.3,5.3 z"
   id="path14" />
		<path
   class="st7"
   d="m 1838.4,944.6 c 0,2.9 -2.4,5.3 -5.3,5.3 -2.9,0 -5.3,-2.4 -5.3,-5.3 0,-2.9 2.4,-5.3 5.3,-5.3 2.9,-0.1 5.3,2.3 5.3,5.3 z"
   id="path15" />
		<path
   class="st7"
   d="m 1868.7,944.6 c 0,2.9 -2.4,5.3 -5.3,5.3 -2.9,0 -5.3,-2.4 -5.3,-5.3 0,-2.9 2.4,-5.3 5.3,-5.3 2.9,0 5.3,2.3 5.3,5.3 z"
   id="path16" />
	</g>
	<g
   id="g22">
		<path
   class="st7"
   d="m 1717.3,977.7 c 0,2.9 -2.4,5.3 -5.3,5.3 -2.9,0 -5.3,-2.4 -5.3,-5.3 0,-2.9 2.4,-5.3 5.3,-5.3 2.9,-0.1 5.3,2.3 5.3,5.3 z"
   id="path17" />
		<path
   class="st7"
   d="m 1747.6,977.7 c 0,2.9 -2.4,5.3 -5.3,5.3 -2.9,0 -5.3,-2.4 -5.3,-5.3 0,-2.9 2.4,-5.3 5.3,-5.3 2.9,-0.1 5.3,2.3 5.3,5.3 z"
   id="path18" />
		<path
   class="st7"
   d="m 1777.9,977.7 c 0,2.9 -2.4,5.3 -5.3,5.3 -2.9,0 -5.3,-2.4 -5.3,-5.3 0,-2.9 2.4,-5.3 5.3,-5.3 2.9,-0.1 5.3,2.3 5.3,5.3 z"
   id="path19" />
		<path
   class="st7"
   d="m 1808.1,977.7 c 0,2.9 -2.4,5.3 -5.3,5.3 -2.9,0 -5.3,-2.4 -5.3,-5.3 0,-2.9 2.4,-5.3 5.3,-5.3 3,-0.1 5.3,2.3 5.3,5.3 z"
   id="path20" />
		<path
   class="st7"
   d="m 1838.4,977.7 c 0,2.9 -2.4,5.3 -5.3,5.3 -2.9,0 -5.3,-2.4 -5.3,-5.3 0,-2.9 2.4,-5.3 5.3,-5.3 2.9,-0.1 5.3,2.3 5.3,5.3 z"
   id="path21" />
		<path
   class="st7"
   d="m 1868.7,977.7 c 0,2.9 -2.4,5.3 -5.3,5.3 -2.9,0 -5.3,-2.4 -5.3,-5.3 0,-2.9 2.4,-5.3 5.3,-5.3 2.9,0 5.3,2.3 5.3,5.3 z"
   id="path22" />
	</g>
	<g
   id="g28">
		<path
   class="st7"
   d="m 1717.3,1010.8 c 0,2.9 -2.4,5.3 -5.3,5.3 -2.9,0 -5.3,-2.4 -5.3,-5.3 0,-2.9 2.4,-5.3 5.3,-5.3 2.9,0 5.3,2.3 5.3,5.3 z"
   id="path23" />
		<path
   class="st7"
   d="m 1747.6,1010.8 c 0,2.9 -2.4,5.3 -5.3,5.3 -2.9,0 -5.3,-2.4 -5.3,-5.3 0,-2.9 2.4,-5.3 5.3,-5.3 2.9,0 5.3,2.3 5.3,5.3 z"
   id="path24" />
		<path
   class="st7"
   d="m 1777.9,1010.8 c 0,2.9 -2.4,5.3 -5.3,5.3 -2.9,0 -5.3,-2.4 -5.3,-5.3 0,-2.9 2.4,-5.3 5.3,-5.3 2.9,0 5.3,2.3 5.3,5.3 z"
   id="path25" />
		<path
   class="st7"
   d="m 1808.1,1010.8 c 0,2.9 -2.4,5.3 -5.3,5.3 -2.9,0 -5.3,-2.4 -5.3,-5.3 0,-2.9 2.4,-5.3 5.3,-5.3 3,0 5.3,2.3 5.3,5.3 z"
   id="path26" />
		<path
   class="st7"
   d="m 1838.4,1010.8 c 0,2.9 -2.4,5.3 -5.3,5.3 -2.9,0 -5.3,-2.4 -5.3,-5.3 0,-2.9 2.4,-5.3 5.3,-5.3 2.9,0 5.3,2.3 5.3,5.3 z"
   id="path27" />
		<path
   class="st7"
   d="m 1868.7,1010.8 c 0,2.9 -2.4,5.3 -5.3,5.3 -2.9,0 -5.3,-2.4 -5.3,-5.3 0,-2.9 2.4,-5.3 5.3,-5.3 2.9,0 5.3,2.3 5.3,5.3 z"
   id="path28" />
	</g>
	<g
   id="g34">
		<path
   class="st7"
   d="m 1717.3,1043.9 c 0,2.9 -2.4,5.3 -5.3,5.3 -2.9,0 -5.3,-2.4 -5.3,-5.3 0,-2.9 2.4,-5.3 5.3,-5.3 2.9,0 5.3,2.4 5.3,5.3 z"
   id="path29" />
		<path
   class="st7"
   d="m 1747.6,1043.9 c 0,2.9 -2.4,5.3 -5.3,5.3 -2.9,0 -5.3,-2.4 -5.3,-5.3 0,-2.9 2.4,-5.3 5.3,-5.3 2.9,0 5.3,2.4 5.3,5.3 z"
   id="path30" />
		<path
   class="st7"
   d="m 1777.9,1043.9 c 0,2.9 -2.4,5.3 -5.3,5.3 -2.9,0 -5.3,-2.4 -5.3,-5.3 0,-2.9 2.4,-5.3 5.3,-5.3 2.9,0 5.3,2.4 5.3,5.3 z"
   id="path31" />
		<path
   class="st7"
   d="m 1808.1,1043.9 c 0,2.9 -2.4,5.3 -5.3,5.3 -2.9,0 -5.3,-2.4 -5.3,-5.3 0,-2.9 2.4,-5.3 5.3,-5.3 3,0 5.3,2.4 5.3,5.3 z"
   id="path32" />
		<path
   class="st7"
   d="m 1838.4,1043.9 c 0,2.9 -2.4,5.3 -5.3,5.3 -2.9,0 -5.3,-2.4 -5.3,-5.3 0,-2.9 2.4,-5.3 5.3,-5.3 2.9,0 5.3,2.4 5.3,5.3 z"
   id="path33" />
		<path
   class="st7"
   d="m 1868.7,1043.9 c 0,2.9 -2.4,5.3 -5.3,5.3 -2.9,0 -5.3,-2.4 -5.3,-5.3 0,-2.9 2.4,-5.3 5.3,-5.3 2.9,0 5.3,2.4 5.3,5.3 z"
   id="path34" />
	</g>
</g><path
     class="st5"
     d="m 1324.3,567.9 -20.4,0.2 c 0,0 2.2,9.2 10.1,9.2"
     id="path55" /><g
     id="g69"
     transform="translate(529.6138,-77.704301)">
	<path
   class="st15"
   d="m 1380.3,398.6 c 27.9,-27.9 27.9,-73 0,-100.9 -27.9,-27.9 -73,-27.9 -100.9,0 -27.8,27.9 -27.8,73 0,100.9 27.9,27.9 73,27.9 100.9,0 z m -90.9,-90.9 c 22.4,-22.4 58.6,-22.4 81,0 22.4,22.4 22.4,58.6 0,81 -22.4,22.4 -58.6,22.4 -81,0 -22.4,-22.4 -22.4,-58.6 0,-81 z"
   id="path56" />
	<path
   class="st5"
   d="m 1375.3,342.2 c 0,31.6 -25.6,57.3 -57.3,57.3 -31.6,0 -57.3,-25.6 -57.3,-57.3 0,-31.6 25.6,-57.3 57.3,-57.3 31.6,0.1 57.3,25.7 57.3,57.3 z"
   id="path57" />
	<g
   id="g60">
		<linearGradient
   id="SVGID_8_"
   gradientUnits="userSpaceOnUse"
   x1="1316.0065"
   y1="290.87839"
   x2="1320.0277"
   y2="290.87839">
			<stop
   offset="0"
   style="stop-color:#FFFFFF"
   id="stop57" />
			<stop
   offset="1"
   style="stop-color:#9ECBE1"
   id="stop58" />
		</linearGradient>
		<rect
   x="1316"
   y="279.79999"
   class="st16"
   width="4"
   height="22.200001"
   id="rect58"
   style="fill:url(#SVGID_8_)" />
		<linearGradient
   id="SVGID_9_"
   gradientUnits="userSpaceOnUse"
   x1="1316.0065"
   y1="393.57401"
   x2="1320.0277"
   y2="393.57401">
			<stop
   offset="0"
   style="stop-color:#FFFFFF"
   id="stop59" />
			<stop
   offset="1"
   style="stop-color:#9ECBE1"
   id="stop60" />
		</linearGradient>
		<rect
   x="1316"
   y="382.5"
   class="st17"
   width="4"
   height="22.200001"
   id="rect60"
   style="fill:url(#SVGID_9_)" />
	</g>
	<g
   id="g64">
		<linearGradient
   id="SVGID_10_"
   gradientUnits="userSpaceOnUse"
   x1="1358.2499"
   y1="342.22559"
   x2="1380.4835"
   y2="342.22559">
			<stop
   offset="0"
   style="stop-color:#FFFFFF"
   id="stop61" />
			<stop
   offset="1"
   style="stop-color:#9ECBE1"
   id="stop62" />
		</linearGradient>
		<rect
   x="1358.2"
   y="340.20001"
   class="st18"
   width="22.200001"
   height="4"
   id="rect62"
   style="fill:url(#SVGID_10_)" />
		<linearGradient
   id="SVGID_11_"
   gradientUnits="userSpaceOnUse"
   x1="1255.5519"
   y1="342.22559"
   x2="1277.7886"
   y2="342.22559">
			<stop
   offset="0"
   style="stop-color:#FFFFFF"
   id="stop63" />
			<stop
   offset="1"
   style="stop-color:#9ECBE1"
   id="stop64" />
		</linearGradient>
		<rect
   x="1255.6"
   y="340.20001"
   class="st19"
   width="22.200001"
   height="4"
   id="rect64"
   style="fill:url(#SVGID_11_)" />
	</g>
	<linearGradient
   id="SVGID_12_"
   gradientUnits="userSpaceOnUse"
   x1="1318.0171"
   y1="413.54111"
   x2="1318.0171"
   y2="270.91269">
		<stop
   offset="0"
   style="stop-color:#4A7AB7"
   id="stop65" />
		<stop
   offset="1"
   style="stop-color:#9ECBE1"
   id="stop66" />
	</linearGradient>
	<path
   class="st20"
   d="m 1318,270.9 c -39.4,0 -71.3,31.9 -71.3,71.3 0,39.4 31.9,71.3 71.3,71.3 39.4,0 71.3,-31.9 71.3,-71.3 0,-39.4 -31.9,-71.3 -71.3,-71.3 z m 0,128.6 c -31.6,0 -57.3,-25.6 -57.3,-57.3 0,-31.6 25.6,-57.3 57.3,-57.3 31.6,0 57.3,25.6 57.3,57.3 0,31.7 -25.7,57.3 -57.3,57.3 z"
   id="path66"
   style="fill:url(#SVGID_12_)" />
	<g
   id="g66">
		<polygon
   class="st4"
   points="1319.8,312.7 1319.8,341.6 1332.7,359.2 1329.9,361.3 1316.3,342.8 1316.3,312.7 "
   id="polygon66" />
	</g>
	<g
   id="g68">
		<linearGradient
   id="SVGID_13_"
   gradientUnits="userSpaceOnUse"
   x1="1302.1687"
   y1="352.11789"
   x2="1320.028"
   y2="352.11789">
			<stop
   offset="0.1047"
   style="stop-color:#FC6F3D"
   id="stop67" />
			<stop
   offset="0.9543"
   style="stop-color:#F7426E"
   id="stop68" />
		</linearGradient>
		<path
   class="st21"
   d="m 1303.5,363.3 c -0.3,0 -0.6,-0.1 -0.8,-0.3 -0.6,-0.4 -0.7,-1.3 -0.2,-1.8 l 15.2,-19.8 c 0.4,-0.6 1.3,-0.7 1.8,-0.2 0.6,0.4 0.7,1.3 0.2,1.8 l -15.2,19.8 c -0.2,0.4 -0.6,0.5 -1,0.5 z"
   id="path68"
   style="fill:url(#SVGID_13_)" />
	</g>
</g><path
     class="st35"
     d="m 1469.4026,183.3888 c 0,16.2 -13.1,29.3 -29.3,29.3 h -89.7 c -16.2,0 -29.3,-13.1 -29.3,-29.3 v -27.2 c 0,-16.2 13.1,-29.3 29.3,-29.3 h 89.7 c 16.2,0 29.3,13.1 29.3,29.3 z"
     id="path152"
     style="fill:url(#SVGID_19_)" /><g
     id="g155"
     transform="translate(229.1026,-342.5112)">
		<path
   class="st5"
   d="m 1132.2,512.3 c 1.3,0.8 2.3,1.7 3,2.6 0.7,1 1.2,2.2 1.5,3.7 0.3,1.5 0.4,3.4 0.4,5.8 0,1.8 0,3.1 0.1,3.9 0.1,0.8 0.2,1.5 0.5,1.9 0.2,0.4 0.5,0.7 0.9,0.9 0.3,0.1 0.9,0.3 1.7,0.4 0.7,0.1 1.2,0.4 1.7,1 0.4,0.6 0.7,1.3 0.7,2.2 0,2.2 -1.3,3.2 -3.9,3.2 -1.6,0 -3.1,-0.3 -4.3,-1 -1.3,-0.7 -2.3,-1.6 -3,-2.9 -0.7,-1.2 -1.1,-2.7 -1.1,-4.3 -0.1,-2.7 -0.1,-4.9 -0.2,-6.5 -0.1,-1.6 -0.1,-2.7 -0.2,-3.2 -0.3,-1.2 -0.7,-2.1 -1.2,-2.7 -0.5,-0.6 -1.2,-1.2 -2.1,-1.7 -0.8,-0.5 -1.4,-1 -1.8,-1.4 -0.4,-0.4 -0.5,-1.1 -0.5,-2 0,-1.3 0.5,-2.3 1.6,-3 1.3,-0.8 2.2,-1.5 2.7,-2 0.5,-0.6 0.9,-1.3 1.1,-2.2 0.2,-0.9 0.4,-1.8 0.4,-2.9 0,-1 0.1,-3.6 0.2,-7.5 0.1,-2.5 0.8,-4.4 2.3,-5.9 1.5,-1.5 3.5,-2.2 6,-2.2 2.6,0 3.9,1.1 3.9,3.2 0,1 -0.2,1.7 -0.7,2.3 -0.4,0.6 -1,0.9 -1.7,1 -1,0.1 -1.8,0.4 -2.2,0.6 -0.4,0.3 -0.7,0.8 -0.8,1.7 -0.1,0.8 -0.2,2.4 -0.2,4.8 0,2.3 -0.2,4.2 -0.4,5.7 -0.2,1.5 -0.7,2.7 -1.4,3.8 -0.7,0.9 -1.7,1.9 -3,2.7 z"
   id="path153" />
		<path
   class="st5"
   d="m 1165.7,527.2 c -1.2,0 -2.2,-0.4 -3,-1.1 -0.9,-0.7 -1.3,-1.7 -1.3,-3 0,-1.1 0.4,-2.1 1.3,-2.8 0.8,-0.8 1.8,-1.1 3,-1.1 0.9,0 1.6,0.2 2.3,0.7 0.7,0.5 1.2,1.1 1.6,2 0.4,0.9 0.6,2 0.6,3.3 0,1.8 -0.4,3.4 -1.1,5 -0.7,1.5 -1.7,2.8 -2.7,3.7 -1.1,0.9 -2.1,1.3 -2.9,1.3 -0.6,0 -1,-0.2 -1.3,-0.5 -0.3,-0.4 -0.5,-0.8 -0.5,-1.3 0,-0.7 0.4,-1.3 1.1,-1.8 1.9,-1.2 2.9,-2.6 2.9,-4.4 z m -3.6,-25.7 c 0,-1.3 0.4,-2.2 1.2,-2.9 0.8,-0.7 1.8,-1 2.9,-1 1.1,0 2,0.4 2.8,1.1 0.8,0.7 1.2,1.7 1.2,2.9 0,1 -0.4,1.9 -1.2,2.8 -0.8,0.8 -1.7,1.2 -2.7,1.2 -0.7,0 -1.4,-0.2 -2,-0.5 -0.6,-0.4 -1.1,-0.8 -1.5,-1.4 -0.6,-0.8 -0.7,-1.5 -0.7,-2.2 z"
   id="path154" />
		<path
   class="st5"
   d="m 1200,512.3 c -1,-0.6 -1.7,-1.2 -2.4,-1.9 -0.6,-0.7 -1.1,-1.5 -1.5,-2.4 -0.4,-0.9 -0.7,-2.1 -0.8,-3.4 -0.2,-1.3 -0.2,-2.8 -0.2,-4.6 0,-1.7 0,-3 -0.1,-3.9 -0.1,-0.9 -0.2,-1.6 -0.4,-2 -0.2,-0.4 -0.5,-0.7 -0.9,-0.8 -0.4,-0.2 -1,-0.3 -1.8,-0.4 -0.7,-0.1 -1.2,-0.4 -1.7,-1 -0.5,-0.6 -0.7,-1.3 -0.7,-2.3 0,-2.1 1.3,-3.2 3.9,-3.2 1.7,0 3.1,0.3 4.4,1 1.3,0.7 2.2,1.6 3,2.9 0.7,1.2 1.1,2.7 1.1,4.2 0.1,5.9 0.2,9.2 0.4,9.8 0.3,1.2 0.7,2.1 1.3,2.7 0.6,0.6 1.2,1.2 2,1.6 0.8,0.5 1.4,0.9 1.8,1.4 0.4,0.5 0.6,1.2 0.6,2.1 0,1.3 -0.5,2.3 -1.5,2.9 -1.2,0.8 -2.2,1.4 -2.7,2 -0.6,0.6 -1,1.3 -1.2,2.2 -0.2,0.9 -0.4,2.2 -0.4,3.9 0,1.7 -0.1,3.9 -0.1,6.5 -0.1,2.5 -0.8,4.4 -2.4,5.9 -1.5,1.5 -3.6,2.2 -6.1,2.2 -1.2,0 -2.2,-0.3 -2.9,-0.8 -0.7,-0.6 -1,-1.4 -1,-2.4 0,-0.6 0.1,-1.1 0.3,-1.6 0.2,-0.5 0.5,-0.9 0.8,-1.1 0.3,-0.3 0.7,-0.4 1.2,-0.5 0.8,-0.1 1.4,-0.2 1.8,-0.4 0.4,-0.2 0.7,-0.5 0.9,-0.9 0.2,-0.4 0.3,-1.1 0.4,-2 0.1,-0.9 0.1,-2.1 0.1,-3.8 0,-2.5 0.2,-4.4 0.4,-5.8 0.2,-1.4 0.7,-2.6 1.4,-3.6 0.6,-0.7 1.6,-1.6 3,-2.5 z"
   id="path155" />
	</g><g
     id="g163"
     transform="translate(0,-42)">
	<g
   id="g160">
		<path
   class="st25"
   d="m 157.3,1057.6 c -17.6,0 -31.9,-14.3 -31.9,-31.9 V 693.6 c 0,-17.6 14.3,-31.9 31.9,-31.9 H 682 c 17.6,0 31.9,14.3 31.9,31.9 v 332.1 c 0,17.6 -14.3,31.9 -31.9,31.9 z"
   id="path156" />
		<g
   id="g159">
			<defs
   id="defs156">
				<path
   id="SVGID_20_"
   d="m 695.3,1025.7 c 0,7.3 -5.9,13.3 -13.3,13.3 H 157.3 c -7.3,0 -13.3,-5.9 -13.3,-13.3 V 693.6 c 0,-7.3 5.9,-13.3 13.3,-13.3 H 682 c 7.3,0 13.3,5.9 13.3,13.3 z" />
			</defs>
			<clipPath
   id="SVGID_21_">
				<use
   xlink:href="#SVGID_20_"
   style="overflow:visible"
   id="use156" />
			</clipPath>
			<linearGradient
   id="SVGID_22_"
   gradientUnits="userSpaceOnUse"
   x1="69.300499"
   y1="856.88037"
   x2="752.78192"
   y2="856.88037">
				<stop
   offset="0.1047"
   style="stop-color:#FC6F3D"
   id="stop156" />
				<stop
   offset="0.9543"
   style="stop-color:#F7426E"
   id="stop157" />
			</linearGradient>
			<rect
   x="69.300003"
   y="621.70001"
   class="st36"
   width="683.5"
   height="470.29999"
   clip-path="url(#SVGID_21_)"
   id="rect157"
   style="fill:url(#SVGID_22_)" />
			<rect
   x="110.8"
   y="656.40002"
   class="st37"
   width="619.09998"
   height="47.799999"
   clip-path="url(#SVGID_21_)"
   id="rect158" />
			<g
   class="st38"
   clip-path="url(#SVGID_21_)"
   id="g158">
				<circle
   class="st39"
   cx="427.89999"
   cy="863.20001"
   r="122.7"
   id="circle158" />
			</g>
		</g>
	</g>
	<linearGradient
   id="SVGID_23_"
   gradientUnits="userSpaceOnUse"
   x1="-144.27589"
   y1="998.64758"
   x2="724.17627"
   y2="1117.2657">
		<stop
   offset="0"
   style="stop-color:#4A7AB7"
   id="stop160" />
		<stop
   offset="1"
   style="stop-color:#9ECBE1"
   id="stop161" />
	</linearGradient>
	<path
   class="st40"
   d="m 755.2,1091.9 c 0,3.3 -2.6,5.9 -5.9,5.9 H 90 c -3.3,0 -5.9,-2.6 -5.9,-5.9 v -32.5 c 0,-3.3 2.6,-5.9 5.9,-5.9 h 659.3 c 3.3,0 5.9,2.6 5.9,5.9 z"
   id="path161"
   style="fill:url(#SVGID_23_)" />
	<linearGradient
   id="SVGID_24_"
   gradientUnits="userSpaceOnUse"
   x1="417.7189"
   y1="1102.515"
   x2="422.32199"
   y2="998.95361">
		<stop
   offset="0"
   style="stop-color:#4A7AB7"
   id="stop162" />
		<stop
   offset="1"
   style="stop-color:#9ECBE1"
   id="stop163" />
	</linearGradient>
	<path
   class="st41"
   d="m 351.9,1053.7 c -0.6,1.5 -1,3.2 -1,4.9 v 0.9 c 0,7.1 5.8,12.9 12.9,12.9 h 111.7 c 7.1,0 12.9,-5.8 12.9,-12.9 v -0.9 c 0,-1.8 -0.4,-3.4 -1,-4.9 z"
   id="path163"
   style="fill:url(#SVGID_24_)" />
</g><g
     id="g168"
     transform="translate(0,-42)">
	<g
   id="g165">
		<path
   class="st5"
   d="m 450.3,848.6 -3.9,-14 -11.2,3.1 c -2.2,-4.4 -5.3,-8.3 -8.9,-11.4 l 5.7,-10.1 -12.6,-7.2 -5.7,10.1 c -4.5,-1.5 -9.4,-2.1 -14.3,-1.8 l -3.1,-11.2 -14,3.9 3.1,11.2 c -4.4,2.2 -8.3,5.3 -11.4,8.9 l -10.1,-5.7 -7.1,12.6 10.1,5.7 c -1.5,4.5 -2.1,9.4 -1.8,14.3 l -11.2,3.1 3.9,14 11.2,-3.1 c 2.2,4.4 5.3,8.3 8.9,11.4 l -5.7,10.1 12.6,7.2 5.7,-10.1 c 4.5,1.5 9.4,2.1 14.3,1.8 l 3.1,11.2 14,-3.9 -3.1,-11.2 c 4.4,-2.2 8.3,-5.3 11.4,-8.9 l 10.1,5.7 7.1,-12.6 -10.1,-5.7 c 1.5,-4.5 2.1,-9.4 1.8,-14.3 z m -42.7,25.6 c -10.9,3 -22.3,-3.4 -25.3,-14.3 -3,-10.9 3.4,-22.3 14.3,-25.3 10.9,-3 22.3,3.4 25.3,14.3 3.1,10.9 -3.4,22.3 -14.3,25.3 z"
   id="path164" />
		<path
   class="st5"
   d="m 411,851.9 c 1.4,4.9 -1.5,10 -6.4,11.4 -4.9,1.4 -10,-1.5 -11.4,-6.4 -1.4,-4.9 1.5,-10 6.4,-11.4 5,-1.4 10.1,1.5 11.4,6.4 z"
   id="path165" />
	</g>
	<g
   id="g166">
		<path
   class="st5"
   d="m 477.6,801 -1.8,-6.7 -5.3,1.5 c -1.1,-2.1 -2.5,-3.9 -4.2,-5.4 l 2.7,-4.8 -6,-3.4 -2.7,4.8 c -2.2,-0.7 -4.5,-1 -6.8,-0.8 l -1.5,-5.3 -6.7,1.8 1.5,5.3 c -2.1,1.1 -3.9,2.5 -5.4,4.2 l -4.8,-2.7 -3.4,6 4.8,2.7 c -0.7,2.2 -1,4.5 -0.8,6.8 l -5.3,1.5 1.8,6.7 5.3,-1.5 c 1.1,2.1 2.5,3.9 4.2,5.4 l -2.7,4.8 6,3.4 2.7,-4.8 c 2.2,0.7 4.5,1 6.8,0.8 l 1.5,5.3 6.7,-1.8 -1.5,-5.3 c 2.1,-1.1 3.9,-2.5 5.4,-4.2 l 4.8,2.7 3.4,-6 -4.8,-2.7 c 0.7,-2.2 1,-4.5 0.8,-6.8 z m -20.4,12.3 c -5.2,1.4 -10.6,-1.6 -12.1,-6.8 -1.4,-5.2 1.6,-10.6 6.8,-12.1 5.2,-1.4 10.6,1.6 12.1,6.8 1.5,5.2 -1.6,10.6 -6.8,12.1 z"
   id="path166" />
	</g>
	<g
   id="g167">
		<path
   class="st5"
   d="m 501.8,842 -1.8,-6.7 -5.3,1.5 c -1.1,-2.1 -2.5,-3.9 -4.2,-5.4 l 2.7,-4.8 -6,-3.4 -2.7,4.8 c -2.2,-0.7 -4.5,-1 -6.8,-0.8 l -1.5,-5.3 -6.7,1.8 1.5,5.3 c -2.1,1.1 -3.9,2.5 -5.4,4.2 l -4.8,-2.7 -3.4,6 4.8,2.7 c -0.7,2.2 -1,4.5 -0.8,6.8 l -5.3,1.5 1.8,6.7 5.3,-1.5 c 1.1,2.1 2.5,3.9 4.2,5.4 l -2.7,4.8 6,3.4 2.7,-4.8 c 2.2,0.7 4.5,1 6.8,0.8 l 1.5,5.3 6.7,-1.8 -1.5,-5.3 c 2.1,-1.1 3.9,-2.5 5.4,-4.2 l 4.8,2.7 3.4,-6 -4.8,-2.7 c 0.7,-2.2 1,-4.5 0.8,-6.8 z m -20.3,12.2 c -5.2,1.4 -10.6,-1.6 -12.1,-6.8 -1.4,-5.2 1.6,-10.6 6.8,-12.1 5.2,-1.4 10.6,1.6 12.1,6.8 1.5,5.2 -1.6,10.6 -6.8,12.1 z"
   id="path167" />
	</g>
</g><path
     class="st5"
     d="m 600.4,906.3 c 0,3.6 -2.9,6.4 -6.4,6.4 H 270.8 c -3.6,0 -6.4,-2.9 -6.4,-6.4 v 0 c 0,-3.6 2.9,-6.4 6.4,-6.4 h 323.1 c 3.6,-0.1 6.5,2.8 6.5,6.4 z"
     id="path168" /><path
     class="st42"
     d="m 600,911.4 c 0,3.6 -2.9,6.4 -6.4,6.4 H 270.4 c -3.6,0 -6.4,-2.9 -6.4,-6.4 v 0 c 0,-3.6 2.9,-6.4 6.4,-6.4 h 323.1 c 3.6,0 6.5,2.8 6.5,6.4 z"
     id="path169" /><g
     id="g170"
     transform="translate(0,-42)">
	<defs
   id="defs169">
		<path
   id="SVGID_25_"
   d="m 600.4,948.3 c 0,3.6 -2.9,6.4 -6.4,6.4 H 270.8 c -3.6,0 -6.4,-2.9 -6.4,-6.4 v 0 c 0,-3.6 2.9,-6.4 6.4,-6.4 h 323.1 c 3.6,-0.1 6.5,2.8 6.5,6.4 z" />
	</defs>
	<clipPath
   id="SVGID_26_">
		<use
   xlink:href="#SVGID_25_"
   style="overflow:visible"
   id="use169" />
	</clipPath>
	<linearGradient
   id="SVGID_27_"
   gradientUnits="userSpaceOnUse"
   x1="258.09341"
   y1="943.31207"
   x2="618.67029"
   y2="943.31207">
		<stop
   offset="0.1047"
   style="stop-color:#FC6F3D"
   id="stop169" />
		<stop
   offset="0.9543"
   style="stop-color:#F7426E"
   id="stop170" />
	</linearGradient>
	<path
   class="st43"
   d="m 272.3,970.4 h -14.2 l 24.1,-54.1 h 14.2 z m 50.9,-54.2 H 309 l -24,54.2 h 14.2 z m 26.9,0 h -14.2 l -24.1,54.1 H 326 Z m 26.9,0 h -14.2 l -24.1,54.1 h 14.2 z m 26.8,0 h -14.2 l -24.1,54.1 h 14.2 z m 26.9,0 h -14.2 l -24.1,54.1 h 14.2 z m 26.8,0 h -14.2 l -24.1,54.1 h 14.2 z m 26.9,0 h -14.2 l -24.1,54.1 h 14.2 z m 26.8,0 H 497 l -24,54.2 h 14.2 z m 26.9,0 h -14.2 l -24.1,54.1 H 514 Z m 26.9,0 h -14.2 l -24.1,54.1 h 14.2 z m 26.8,0 h -14.2 l -24.1,54.1 h 14.2 z m 26.9,0 h -14.2 l -24.1,54.1 h 14.2 z"
   clip-path="url(#SVGID_26_)"
   id="path170"
   style="fill:url(#SVGID_27_)" />
</g><g
     id="g172"
     transform="translate(0,-42)">
	<path
   class="st2"
   d="m 1914.3,574.6 c 0,-7.1 -5.8,-12.9 -12.9,-12.9 h -299.1 c -7.1,0 -12.9,5.8 -12.9,12.9 v 54.8 h 324.9 z"
   id="path171" />
	<path
   class="st2"
   d="m 1589.4,629.4 v 342.9 c 0,7.1 5.8,12.9 12.9,12.9 h 299.1 c 7.1,0 12.9,-5.8 12.9,-12.9 V 629.4 Z"
   id="path172" />
</g><g
     id="g174"
     transform="translate(0,-42)">
	<linearGradient
   id="SVGID_28_"
   gradientUnits="userSpaceOnUse"
   x1="1606.0885"
   y1="564.42572"
   x2="1930.9406"
   y2="564.42572">
		<stop
   offset="0"
   style="stop-color:#4A7AB7"
   id="stop172" />
		<stop
   offset="1"
   style="stop-color:#9ECBE1"
   id="stop173" />
	</linearGradient>
	<path
   class="st44"
   d="m 1930.9,543.5 c 0,-7.1 -5.8,-12.9 -12.9,-12.9 h -299 c -7.1,0 -12.9,5.8 -12.9,12.9 v 54.8 H 1931 v -54.8 z"
   id="path173"
   style="fill:url(#SVGID_28_)" />
	<path
   class="st4"
   d="m 1606.1,598.3 v 342.9 c 0,7.1 5.8,12.9 12.9,12.9 h 299 c 7.1,0 12.9,-5.8 12.9,-12.9 V 598.3 Z"
   id="path174" />
</g><g
     id="g217"
     transform="translate(0,-42)">
	<path
   class="st5"
   d="m 1820.5,655 c 0,3.2 -2.6,5.8 -5.8,5.8 h -83.1 c -3.2,0 -5.8,-2.6 -5.8,-5.8 v 0 c 0,-3.2 2.6,-5.8 5.8,-5.8 h 83.1 c 3.2,0 5.8,2.6 5.8,5.8 z"
   id="path175" />
	<path
   class="st5"
   d="m 1869.7,655.4 c 0,3.2 -2.6,5.8 -5.8,5.8 h -29.2 c -3.2,0 -5.8,-2.6 -5.8,-5.8 v 0 c 0,-3.2 2.6,-5.8 5.8,-5.8 h 29.2 c 3.3,0 5.8,2.6 5.8,5.8 z"
   id="path176" />
	<path
   class="st5"
   d="m 1778.9,676.4 c 0,3.2 -2.6,5.8 -5.8,5.8 h -29.3 c -3.2,0 -5.8,-2.6 -5.8,-5.8 v 0 c 0,-3.2 2.6,-5.8 5.8,-5.8 h 29.3 c 3.2,0 5.8,2.6 5.8,5.8 z"
   id="path177" />
	<path
   class="st5"
   d="m 1879.5,698.5 c 0,3.2 -2.6,5.8 -5.8,5.8 h -29.3 c -3.2,0 -5.8,-2.6 -5.8,-5.8 v 0 c 0,-3.2 2.6,-5.8 5.8,-5.8 h 29.3 c 3.2,0 5.8,2.6 5.8,5.8 z"
   id="path178" />
	<path
   class="st27"
   d="m 1885.1,676.9 c 0,3.2 -2.6,5.8 -5.8,5.8 h -83.1 c -3.2,0 -5.8,-2.6 -5.8,-5.8 v 0 c 0,-3.2 2.6,-5.8 5.8,-5.8 h 83.1 c 3.3,0 5.8,2.6 5.8,5.8 z"
   id="path179" />
	<path
   class="st28"
   d="m 1835.4,740 c 0,3.2 -2.6,5.8 -5.8,5.8 H 1785 c -3.2,0 -5.8,-2.6 -5.8,-5.8 v 0 c 0,-3.2 2.6,-5.8 5.8,-5.8 h 44.6 c 3.2,0.1 5.8,2.6 5.8,5.8 z"
   id="path180" />
	<path
   class="st7"
   d="m 1828.6,697.7 c 0,3.2 -2.6,5.8 -5.8,5.8 h -83.1 c -3.2,0 -5.8,-2.6 -5.8,-5.8 v 0 c 0,-3.2 2.6,-5.8 5.8,-5.8 h 83.1 c 3.2,0 5.8,2.6 5.8,5.8 z"
   id="path181" />
	<path
   class="st5"
   d="m 1818.3,892.9 c 0,3.2 -2.6,5.8 -5.8,5.8 h -83.1 c -3.2,0 -5.8,-2.6 -5.8,-5.8 v 0 c 0,-3.2 2.6,-5.8 5.8,-5.8 h 83.1 c 3.3,0 5.8,2.6 5.8,5.8 z"
   id="path182" />
	<path
   class="st7"
   d="m 1873.7,717.2 c 0,3.2 -2.6,5.8 -5.8,5.8 h -83.1 c -3.2,0 -5.8,-2.6 -5.8,-5.8 v 0 c 0,-3.2 2.6,-5.8 5.8,-5.8 h 83.1 c 3.2,0 5.8,2.6 5.8,5.8 z"
   id="path183" />
	<path
   class="st7"
   d="m 1843.3,782.6 c 0,3.2 -2.6,5.8 -5.8,5.8 h -52.3 c -3.2,0 -5.8,-2.6 -5.8,-5.8 v 0 c 0,-3.2 2.6,-5.8 5.8,-5.8 h 52.3 c 3.2,0.1 5.8,2.6 5.8,5.8 z"
   id="path184" />
	<path
   class="st28"
   d="m 1874.5,760.7 c 0,3.2 -2.6,5.8 -5.8,5.8 h -83.1 c -3.2,0 -5.8,-2.6 -5.8,-5.8 v 0 c 0,-3.2 2.6,-5.8 5.8,-5.8 h 83.1 c 3.2,0 5.8,2.6 5.8,5.8 z"
   id="path185" />
	<g
   id="g187">
		<path
   class="st5"
   d="m 1712.2,650.2 c 0,3.2 -2.6,5.8 -5.8,5.8 h -29.3 c -3.2,0 -5.8,-2.6 -5.8,-5.8 v 0 c 0,-3.2 2.6,-5.8 5.8,-5.8 h 29.3 c 3.2,0 5.8,2.6 5.8,5.8 z"
   id="path186" />
		<path
   class="st7"
   d="m 1667,650.7 c 0,3.4 -2.8,6.2 -6.2,6.2 -3.4,0 -6.2,-2.8 -6.2,-6.2 0,-3.4 2.8,-6.2 6.2,-6.2 3.4,0 6.2,2.8 6.2,6.2 z"
   id="path187" />
	</g>
	<g
   id="g189">
		<path
   class="st5"
   d="m 1712.2,672.1 c 0,3.2 -2.6,5.8 -5.8,5.8 h -29.3 c -3.2,0 -5.8,-2.6 -5.8,-5.8 v 0 c 0,-3.2 2.6,-5.8 5.8,-5.8 h 29.3 c 3.2,0 5.8,2.6 5.8,5.8 z"
   id="path188" />
		<path
   class="st7"
   d="m 1667,672.5 c 0,3.4 -2.8,6.2 -6.2,6.2 -3.4,0 -6.2,-2.8 -6.2,-6.2 0,-3.4 2.8,-6.2 6.2,-6.2 3.4,0.1 6.2,2.8 6.2,6.2 z"
   id="path189" />
	</g>
	<g
   id="g191">
		<path
   class="st5"
   d="m 1712.2,693.9 c 0,3.2 -2.6,5.8 -5.8,5.8 h -29.3 c -3.2,0 -5.8,-2.6 -5.8,-5.8 v 0 c 0,-3.2 2.6,-5.8 5.8,-5.8 h 29.3 c 3.2,0.1 5.8,2.7 5.8,5.8 z"
   id="path190" />
		<path
   class="st7"
   d="m 1667,694.4 c 0,3.4 -2.8,6.2 -6.2,6.2 -3.4,0 -6.2,-2.8 -6.2,-6.2 0,-3.4 2.8,-6.2 6.2,-6.2 3.4,0 6.2,2.8 6.2,6.2 z"
   id="path191" />
	</g>
	<g
   id="g193">
		<path
   class="st5"
   d="m 1766.1,715.8 c 0,3.2 -2.6,5.8 -5.8,5.8 H 1731 c -3.2,0 -5.8,-2.6 -5.8,-5.8 v 0 c 0,-3.2 2.6,-5.8 5.8,-5.8 h 29.3 c 3.2,0 5.8,2.6 5.8,5.8 z"
   id="path192" />
		<path
   class="st7"
   d="m 1720.9,716.3 c 0,3.4 -2.8,6.2 -6.2,6.2 -3.4,0 -6.2,-2.8 -6.2,-6.2 0,-3.4 2.8,-6.2 6.2,-6.2 3.4,0 6.2,2.7 6.2,6.2 z"
   id="path193" />
	</g>
	<g
   id="g195">
		<path
   class="st5"
   d="m 1766.1,737.7 c 0,3.2 -2.6,5.8 -5.8,5.8 H 1731 c -3.2,0 -5.8,-2.6 -5.8,-5.8 v 0 c 0,-3.2 2.6,-5.8 5.8,-5.8 h 29.3 c 3.2,0 5.8,2.6 5.8,5.8 z"
   id="path194" />
		<path
   class="st7"
   d="m 1720.9,738.1 c 0,3.4 -2.8,6.2 -6.2,6.2 -3.4,0 -6.2,-2.8 -6.2,-6.2 0,-3.4 2.8,-6.2 6.2,-6.2 3.4,0 6.2,2.8 6.2,6.2 z"
   id="path195" />
	</g>
	<g
   id="g197">
		<path
   class="st5"
   d="m 1898.5,740 c 0,3.2 -2.6,5.8 -5.8,5.8 h -29.2 c -3.2,0 -5.8,-2.6 -5.8,-5.8 v 0 c 0,-3.2 2.6,-5.8 5.8,-5.8 h 29.2 c 3.2,0 5.8,2.6 5.8,5.8 z"
   id="path196" />
		<path
   class="st5"
   d="m 1853.3,740.4 c 0,3.4 -2.8,6.2 -6.2,6.2 -3.4,0 -6.2,-2.8 -6.2,-6.2 0,-3.4 2.8,-6.2 6.2,-6.2 3.4,0.1 6.2,2.8 6.2,6.2 z"
   id="path197" />
	</g>
	<path
   class="st28"
   d="m 1779.2,827 c 0,3.2 -2.6,5.8 -5.8,5.8 h -44.6 c -3.2,0 -5.8,-2.6 -5.8,-5.8 v 0 c 0,-3.2 2.6,-5.8 5.8,-5.8 h 44.6 c 3.2,0.1 5.8,2.6 5.8,5.8 z"
   id="path198" />
	<path
   class="st27"
   d="m 1817.5,804.2 c 0,3.2 -2.6,5.8 -5.8,5.8 h -83.1 c -3.2,0 -5.8,-2.6 -5.8,-5.8 v 0 c 0,-3.2 2.6,-5.8 5.8,-5.8 h 83.1 c 3.2,0 5.8,2.6 5.8,5.8 z"
   id="path199" />
	<path
   class="st7"
   d="m 1787.1,869.6 c 0,3.2 -2.6,5.8 -5.8,5.8 H 1729 c -3.2,0 -5.8,-2.6 -5.8,-5.8 v 0 c 0,-3.2 2.6,-5.8 5.8,-5.8 h 52.3 c 3.2,0.1 5.8,2.6 5.8,5.8 z"
   id="path200" />
	<path
   class="st27"
   d="m 1818.3,847.7 c 0,3.2 -2.6,5.8 -5.8,5.8 h -83.1 c -3.2,0 -5.8,-2.6 -5.8,-5.8 v 0 c 0,-3.2 2.6,-5.8 5.8,-5.8 h 83.1 c 3.2,0 5.8,2.6 5.8,5.8 z"
   id="path201" />
	<g
   id="g203">
		<path
   class="st5"
   d="m 1842.3,827 c 0,3.2 -2.6,5.8 -5.8,5.8 h -29.3 c -3.2,0 -5.8,-2.6 -5.8,-5.8 v 0 c 0,-3.2 2.6,-5.8 5.8,-5.8 h 29.3 c 3.2,0 5.8,2.6 5.8,5.8 z"
   id="path202" />
		<path
   class="st5"
   d="m 1797.1,827.4 c 0,3.4 -2.8,6.2 -6.2,6.2 -3.4,0 -6.2,-2.8 -6.2,-6.2 0,-3.4 2.8,-6.2 6.2,-6.2 3.4,0.1 6.2,2.8 6.2,6.2 z"
   id="path203" />
	</g>
	<g
   id="g205">
		<path
   class="st7"
   d="m 1881.9,846.2 c 0,3.2 -2.6,5.8 -5.8,5.8 h -29.2 c -3.2,0 -5.8,-2.6 -5.8,-5.8 v 0 c 0,-3.2 2.6,-5.8 5.8,-5.8 h 29.2 c 3.2,0 5.8,2.6 5.8,5.8 z"
   id="path204" />
		<path
   class="st7"
   d="m 1836.7,846.7 c 0,3.4 -2.8,6.2 -6.2,6.2 -3.4,0 -6.2,-2.8 -6.2,-6.2 0,-3.4 2.8,-6.2 6.2,-6.2 3.5,0 6.2,2.8 6.2,6.2 z"
   id="path205" />
	</g>
	<g
   id="g207">
		<path
   class="st5"
   d="m 1766.1,759.5 c 0,3.2 -2.6,5.8 -5.8,5.8 H 1731 c -3.2,0 -5.8,-2.6 -5.8,-5.8 v 0 c 0,-3.2 2.6,-5.8 5.8,-5.8 h 29.3 c 3.2,0.1 5.8,2.7 5.8,5.8 z"
   id="path206" />
		<path
   class="st7"
   d="m 1720.9,760 c 0,3.4 -2.8,6.2 -6.2,6.2 -3.4,0 -6.2,-2.8 -6.2,-6.2 0,-3.4 2.8,-6.2 6.2,-6.2 3.4,0 6.2,2.8 6.2,6.2 z"
   id="path207" />
	</g>
	<g
   id="g209">
		<path
   class="st5"
   d="m 1766.1,781.4 c 0,3.2 -2.6,5.8 -5.8,5.8 H 1731 c -3.2,0 -5.8,-2.6 -5.8,-5.8 v 0 c 0,-3.2 2.6,-5.8 5.8,-5.8 h 29.3 c 3.2,0 5.8,2.6 5.8,5.8 z"
   id="path208" />
		<path
   class="st7"
   d="m 1720.9,781.8 c 0,3.4 -2.8,6.2 -6.2,6.2 -3.4,0 -6.2,-2.8 -6.2,-6.2 0,-3.4 2.8,-6.2 6.2,-6.2 3.4,0 6.2,2.8 6.2,6.2 z"
   id="path209" />
	</g>
	<g
   id="g210">
		<path
   class="st5"
   d="m 1712.2,803.3 c 0,3.2 -2.6,5.8 -5.8,5.8 h -29.3 c -3.2,0 -5.8,-2.6 -5.8,-5.8 v 0 c 0,-3.2 2.6,-5.8 5.8,-5.8 h 29.3 c 3.2,0 5.8,2.6 5.8,5.8 z"
   id="path210" />
		<circle
   class="st7"
   cx="1660.8"
   cy="803.70001"
   r="6.1999998"
   id="circle210" />
	</g>
	<g
   id="g212">
		<path
   class="st5"
   d="m 1712.2,825.1 c 0,3.2 -2.6,5.8 -5.8,5.8 h -29.3 c -3.2,0 -5.8,-2.6 -5.8,-5.8 v 0 c 0,-3.2 2.6,-5.8 5.8,-5.8 h 29.3 c 3.2,0.1 5.8,2.6 5.8,5.8 z"
   id="path211" />
		<path
   class="st7"
   d="m 1667,825.6 c 0,3.4 -2.8,6.2 -6.2,6.2 -3.4,0 -6.2,-2.8 -6.2,-6.2 0,-3.4 2.8,-6.2 6.2,-6.2 3.4,0 6.2,2.8 6.2,6.2 z"
   id="path212" />
	</g>
	<g
   id="g214">
		<path
   class="st5"
   d="m 1712.2,847 c 0,3.2 -2.6,5.8 -5.8,5.8 h -29.3 c -3.2,0 -5.8,-2.6 -5.8,-5.8 v 0 c 0,-3.2 2.6,-5.8 5.8,-5.8 h 29.3 c 3.2,0 5.8,2.6 5.8,5.8 z"
   id="path213" />
		<path
   class="st7"
   d="m 1667,847.4 c 0,3.4 -2.8,6.2 -6.2,6.2 -3.4,0 -6.2,-2.8 -6.2,-6.2 0,-3.4 2.8,-6.2 6.2,-6.2 3.4,0.1 6.2,2.8 6.2,6.2 z"
   id="path214" />
	</g>
	<g
   id="g216">
		<path
   class="st5"
   d="m 1712.2,868.9 c 0,3.2 -2.6,5.8 -5.8,5.8 h -29.3 c -3.2,0 -5.8,-2.6 -5.8,-5.8 v 0 c 0,-3.2 2.6,-5.8 5.8,-5.8 h 29.3 c 3.2,0 5.8,2.6 5.8,5.8 z"
   id="path215" />
		<path
   class="st7"
   d="m 1667,869.3 c 0,3.4 -2.8,6.2 -6.2,6.2 -3.4,0 -6.2,-2.8 -6.2,-6.2 0,-3.4 2.8,-6.2 6.2,-6.2 3.4,0 6.2,2.8 6.2,6.2 z"
   id="path216" />
	</g>
</g><path
     class="st5"
     d="m 1908.3,518.4 c 0,6.2 -5.1,11.3 -11.3,11.3 -6.2,0 -11.3,-5.1 -11.3,-11.3 0,-6.2 5.1,-11.3 11.3,-11.3 6.3,0.1 11.3,5.1 11.3,11.3 z"
     id="path217" /><g
     id="g225"
     transform="translate(0,-42)">
	<g
   id="g221">
		<g
   id="g220">
			<linearGradient
   id="SVGID_29_"
   gradientUnits="userSpaceOnUse"
   x1="1581.3961"
   y1="938.45349"
   x2="1672.1561"
   y2="938.45349">
				<stop
   offset="0"
   style="stop-color:#4A7AB7"
   id="stop217" />
				<stop
   offset="1"
   style="stop-color:#9ECBE1"
   id="stop218" />
			</linearGradient>
			<path
   class="st45"
   d="m 1583.4,1015.1 c 0,0 -5.5,-92.2 1.5,-106.7 6.9,-14.6 17.1,-23.6 27.1,-12.7 10,10.9 14.1,12.6 14.3,-0.5 0.2,-13.1 17.1,-41.7 35.7,-31 18.6,10.7 4.9,29 -0.6,36.8 -5.5,7.8 -13.7,18.4 -5.6,16.5 8.1,-1.9 17.3,-4.7 16.3,3.5 -1,8.2 -20.4,13 -30.1,21.1 -9.7,8.2 -10.4,14.9 -1.5,13.5 9,-1.4 23,8.6 13.7,15.9 -9.2,7.3 -58.2,39.6 -58.2,39.6 z"
   id="path218"
   style="fill:url(#SVGID_29_)" />
			<g
   id="g219">
				<path
   class="st25"
   d="m 1589.7,1008 c 0.4,-1.7 1,-3.7 1.7,-6.1 0.6,-2.4 1.6,-4.9 2.5,-7.8 0.9,-2.9 2.1,-5.9 3.4,-9.1 1.2,-3.2 2.6,-6.5 4.1,-10 0.1,-0.3 0.3,-0.7 0.4,-1 -0.4,-1.2 -0.9,-3 -1.5,-5.1 -0.6,-2.1 -1.1,-4.5 -1.7,-7.1 -0.3,-1.3 -0.6,-2.6 -0.8,-4 -0.3,-1.4 -0.5,-2.8 -0.8,-4.2 -0.2,-1.4 -0.5,-2.8 -0.7,-4.2 -0.2,-1.4 -0.4,-2.7 -0.6,-4.1 -0.4,-2.6 -0.7,-5.1 -0.9,-7.2 -0.4,-4.2 -0.5,-7.1 -0.5,-7.1 0,0 1,2.7 2,6.9 0.6,2.1 1.1,4.5 1.7,7.1 0.3,1.3 0.6,2.6 0.8,4 0.3,1.4 0.5,2.8 0.8,4.2 0.2,1.4 0.5,2.8 0.7,4.2 0.2,1.4 0.4,2.7 0.6,4.1 0.4,2.6 0.7,5.1 0.9,7.2 0.2,1.7 0.3,3.2 0.4,4.4 1.2,-2.8 2.5,-5.7 3.7,-8.5 1.6,-3.6 3.3,-7.2 5,-10.8 3.5,-7.2 6.9,-14.3 10.4,-21 3.4,-6.6 6.7,-12.8 9.6,-18 2.9,-5.2 5.4,-9.5 7.1,-12.6 1.7,-3 2.8,-4.7 2.8,-4.7 0,0 -0.8,1.8 -2.3,5 -1.5,3.1 -3.6,7.6 -6.2,13 -3.8,7.9 -8.5,17.8 -13.5,28.2 0.1,-0.1 0.2,-0.2 0.3,-0.3 1.1,-1.1 2.4,-2.4 3.8,-3.7 1.4,-1.3 3,-2.7 4.6,-4 1.6,-1.3 3.3,-2.6 4.8,-3.7 1.6,-1.2 3.1,-2.2 4.4,-3 2.6,-1.7 4.5,-2.7 4.5,-2.7 0,0 -1.3,1.7 -3.5,3.9 -1.1,1.1 -2.4,2.4 -3.9,3.7 -1.4,1.3 -3,2.7 -4.6,4 -1.6,1.3 -3.3,2.6 -4.8,3.7 -1.6,1.2 -3.1,2.2 -4.4,3 -0.9,0.6 -1.8,1.1 -2.4,1.5 -1.4,2.9 -2.8,5.8 -4.2,8.8 -1.7,3.6 -3.4,7.2 -5,10.7 -1.6,3.6 -3.2,7 -4.8,10.4 -1.5,3.4 -3.1,6.7 -4.4,9.8 -1.3,3.1 -2.7,6.1 -3.8,8.8 -0.6,1.4 -1.1,2.7 -1.6,4 -0.5,1.2 -1,2.4 -1.4,3.6 -0.8,2.3 -1.6,4.2 -2.1,5.9 -1,3.3 -1.6,5.2 -1.6,5.2 0,0 0.3,-1.8 1,-5.3 z"
   id="path219" />
			</g>
			<path
   class="st25"
   d="m 1624.7,976.5 c 0,0 -1.6,1.3 -4.1,2.8 -1.3,0.8 -2.7,1.7 -4.4,2.5 -1.6,0.9 -3.4,1.8 -5.1,2.6 -1.8,0.8 -3.6,1.6 -5.3,2.3 -1.7,0.7 -3.3,1.3 -4.7,1.8 -2.8,1 -4.8,1.4 -4.8,1.4 0,0 1.6,-1.3 4.1,-2.8 1.3,-0.8 2.7,-1.7 4.4,-2.5 1.6,-0.9 3.4,-1.8 5.1,-2.6 1.8,-0.8 3.6,-1.6 5.3,-2.3 1.7,-0.7 3.3,-1.3 4.7,-1.8 2.9,-1 4.8,-1.4 4.8,-1.4 z"
   id="path220" />
		</g>
	</g>
	<g
   id="g223">
		<linearGradient
   id="SVGID_30_"
   gradientUnits="userSpaceOnUse"
   x1="1471.6517"
   y1="878.34528"
   x2="1618.1876"
   y2="878.34528">
			<stop
   offset="0"
   style="stop-color:#4A7AB7"
   id="stop221" />
			<stop
   offset="1"
   style="stop-color:#9ECBE1"
   id="stop222" />
		</linearGradient>
		<path
   class="st46"
   d="m 1580.5,1015.8 c 0,0 42.9,-147.3 37.1,-173.5 -5.8,-26.2 -18.9,-44.5 -39.1,-30.5 -20.2,14 -27.6,15.3 -23,-6.1 4.6,-21.3 -12.3,-73.8 -46.4,-63.3 -34.1,10.5 -18.6,45.2 -12.6,59.8 6,14.6 15.4,34.8 3,28.8 -12.4,-6 -26.3,-14 -27.7,-0.3 -1.4,13.7 28.3,28.6 41,45.4 12.7,16.8 11.4,28 -2.6,22.4 -14,-5.6 -40.4,5.4 -28.1,20.6 12.3,15.2 79.7,85.7 79.7,85.7 z"
   id="path222"
   style="fill:url(#SVGID_30_)" />
		<path
   class="st47"
   d="m 1562.4,945.3 c -1.3,-6 -2.6,-12.3 -3.9,-18.7 -1.4,-6.3 -2.8,-12.8 -4.2,-19.2 -1.2,-5.3 -2.4,-10.5 -3.5,-15.7 -1,-0.9 -2.1,-2 -3.4,-3.4 -1.8,-1.9 -3.9,-4.1 -6,-6.5 -2.1,-2.4 -4.3,-5.1 -6.4,-7.8 -2.1,-2.7 -4.2,-5.5 -6,-8.2 -1.9,-2.6 -3.5,-5.2 -4.9,-7.4 -2.7,-4.4 -4.3,-7.6 -4.3,-7.6 0,0 2.7,2.2 6.3,6 1.8,1.9 3.9,4.1 6,6.5 2.1,2.4 4.3,5.1 6.5,7.8 2.1,2.7 4.2,5.5 6,8.1 1.9,2.6 3.5,5.2 4.9,7.4 0.1,0.2 0.2,0.4 0.3,0.6 -4.2,-18.7 -8.2,-36.4 -11.4,-50.7 -2.1,-9.7 -3.9,-17.8 -5.2,-23.4 -1.2,-5.7 -1.9,-8.9 -1.9,-8.9 0,0 1.1,3.1 2.8,8.7 1.7,5.6 4.2,13.4 6.8,23 2.7,9.5 5.8,20.7 8.8,32.7 3.1,12 6.1,24.9 9.1,37.8 1.4,6.5 2.7,13 4.1,19.3 1,5.2 2,10.2 2.9,15.2 0.5,-1.9 1.3,-4.2 2.2,-6.9 1.1,-3.4 2.5,-7.3 4.1,-11.4 0.8,-2.1 1.6,-4.2 2.5,-6.4 0.9,-2.2 1.8,-4.3 2.7,-6.5 0.9,-2.2 1.9,-4.3 2.8,-6.5 0.9,-2.1 1.9,-4.2 2.8,-6.2 1.9,-4 3.7,-7.7 5.4,-10.8 3.3,-6.3 5.8,-10.4 5.8,-10.4 0,0 -1.1,4.6 -3.4,11.4 -1.1,3.4 -2.5,7.3 -4.1,11.4 -0.8,2 -1.6,4.2 -2.5,6.3 -0.9,2.1 -1.8,4.3 -2.7,6.5 -0.9,2.2 -1.9,4.3 -2.8,6.4 -0.9,2.1 -1.9,4.2 -2.8,6.2 -1.9,4 -3.7,7.7 -5.4,10.9 -1.7,3.3 -3.2,5.9 -4.3,7.8 0.1,0.6 0.2,1.2 0.3,1.7 1,6.1 2.1,12 2.9,17.7 0.8,5.6 1.6,11 2.1,15.9 0.5,5 1.1,9.5 1.2,13.5 0.2,4 0.5,7.5 0.4,10.5 -0.1,5.8 -0.3,9.1 -0.3,9.1 0,0 -0.3,-3.3 -0.6,-9.1 -0.2,-2.9 -0.8,-6.3 -1.2,-10.3 -0.2,-2 -0.5,-4.1 -1,-6.3 -0.4,-2.2 -0.8,-4.6 -1.2,-7 -0.4,-2.9 -1,-5.9 -1.6,-9 -1.3,-0.7 -3.2,-1.7 -5.4,-3.1 -2.1,-1.3 -4.5,-2.9 -7,-4.6 -2.5,-1.8 -5.1,-3.7 -7.7,-5.7 -2.6,-2 -5.1,-4.1 -7.4,-6.2 -2.3,-2 -4.4,-4 -6.1,-5.7 -3.5,-3.5 -5.6,-6.1 -5.6,-6.1 0,0 3,1.4 7.2,4 2.1,1.3 4.5,2.9 7,4.6 2.5,1.8 5.1,3.7 7.7,5.7 2.6,2 5.1,4.1 7.4,6.2 2.3,2 4.4,4 6.1,5.7 1.4,1.4 2.6,2.7 3.5,3.7 -0.3,-1.7 -0.7,-3.4 -1,-5.2 -0.9,-5.5 -2.2,-11.3 -3.4,-17.4 z"
   id="path223" />
	</g>
	<g
   id="g224">
		<polygon
   class="st1"
   points="1629.6,997.5 1620.5,1077.1 1615.2,1077.1 1556.3,1077.1 1551,1077.1 1541.9,997.5 1556.3,997.5 1615.2,997.5 "
   id="polygon223" />
		<rect
   x="1536"
   y="995.70001"
   class="st34"
   width="101.2"
   height="16.200001"
   id="rect223" />
	</g>
</g><g
     id="g228"
     transform="translate(0,-42)">
	<linearGradient
   id="SVGID_31_"
   gradientUnits="userSpaceOnUse"
   x1="82.410103"
   y1="662.7019"
   x2="234.53081"
   y2="662.7019">
		<stop
   offset="0.1047"
   style="stop-color:#0A0245"
   id="stop225" />
		<stop
   offset="0.9543"
   style="stop-color:#300030"
   id="stop226" />
	</linearGradient>
	<circle
   class="st48"
   cx="158.5"
   cy="662.70001"
   r="76.099998"
   id="circle226"
   style="fill:url(#SVGID_31_)" />
	<linearGradient
   id="SVGID_32_"
   gradientUnits="userSpaceOnUse"
   x1="115.2281"
   y1="662.70172"
   x2="201.7128"
   y2="662.70172">
		<stop
   offset="0.1047"
   style="stop-color:#FC6F3D"
   id="stop227" />
		<stop
   offset="0.9543"
   style="stop-color:#F7426E"
   id="stop228" />
	</linearGradient>
	<path
   class="st49"
   d="m 201.7,662.7 c 0,-23.8 -19.4,-43.2 -43.2,-43.2 -23.8,0 -43.2,19.4 -43.2,43.2 0,11.9 4.9,23.3 13.6,31.5 v 0.1 l 1.2,1 c 0,0 0,0 0,0 l 5,4.4 v -0.6 c 6.9,4.5 15,6.9 23.4,6.9 8.3,0 16.4,-2.4 23.4,-6.9 v 0.6 l 5,-4.4 c 0,0 0,0 0,0 l 1.2,-1 v -0.1 c 8.7,-8.2 13.6,-19.6 13.6,-31.5 z m -79.9,0 c 0,-20.2 16.5,-36.7 36.7,-36.7 20.2,0 36.7,16.5 36.7,36.7 0,8.5 -3,16.7 -8.3,23.3 0,0 0,0 0,-0.1 -0.1,-0.5 -0.3,-1 -0.5,-1.5 0,-0.1 -0.1,-0.3 -0.1,-0.4 -0.1,-0.4 -0.3,-0.7 -0.4,-1.1 -0.1,-0.2 -0.1,-0.3 -0.2,-0.5 -0.1,-0.3 -0.3,-0.6 -0.4,-1 -0.1,-0.2 -0.1,-0.3 -0.2,-0.5 -0.2,-0.4 -0.4,-0.7 -0.6,-1.1 0,-0.1 -0.1,-0.2 -0.1,-0.3 -0.3,-0.4 -0.5,-0.9 -0.8,-1.3 -0.1,-0.1 -0.2,-0.2 -0.2,-0.4 -0.2,-0.3 -0.4,-0.6 -0.6,-0.9 -0.1,-0.1 -0.2,-0.3 -0.3,-0.4 -0.2,-0.3 -0.4,-0.6 -0.7,-0.8 -0.1,-0.1 -0.2,-0.3 -0.3,-0.4 -0.3,-0.4 -0.6,-0.7 -0.9,-1 0,0 -0.1,-0.1 -0.1,-0.1 -0.3,-0.4 -0.7,-0.7 -1.1,-1.1 -0.1,-0.1 -0.2,-0.2 -0.3,-0.3 -0.3,-0.3 -0.5,-0.5 -0.8,-0.7 -0.1,-0.1 -0.3,-0.2 -0.4,-0.3 -0.3,-0.2 -0.6,-0.5 -0.8,-0.7 -0.1,-0.1 -0.2,-0.2 -0.4,-0.3 -0.4,-0.3 -0.8,-0.6 -1.2,-0.9 0,0 0,0 0,0 -0.4,-0.3 -0.8,-0.5 -1.2,-0.8 -0.1,-0.1 -0.3,-0.2 -0.4,-0.2 -0.3,-0.2 -0.6,-0.4 -0.9,-0.5 -0.2,-0.1 -0.3,-0.2 -0.5,-0.2 -0.3,-0.2 -0.7,-0.3 -1,-0.5 -0.1,-0.1 -0.3,-0.1 -0.4,-0.2 -0.5,-0.2 -0.9,-0.4 -1.4,-0.6 0,0 0,0 0,0 0,0 0.1,-0.1 0.1,-0.2 0.2,-0.2 0.3,-0.4 0.5,-0.6 0.1,-0.1 0.2,-0.3 0.4,-0.4 0.2,-0.2 0.3,-0.4 0.5,-0.6 0.1,-0.2 0.2,-0.3 0.3,-0.5 0.1,-0.2 0.3,-0.5 0.4,-0.7 0.1,-0.2 0.2,-0.3 0.3,-0.5 0.1,-0.2 0.2,-0.5 0.3,-0.7 0.1,-0.2 0.2,-0.3 0.2,-0.5 0.1,-0.3 0.2,-0.5 0.3,-0.8 0.1,-0.2 0.1,-0.3 0.2,-0.5 0.1,-0.3 0.1,-0.6 0.2,-0.8 0,-0.2 0.1,-0.3 0.1,-0.5 0.1,-0.3 0.1,-0.6 0.1,-0.9 0,-0.2 0.1,-0.3 0.1,-0.5 0,-0.5 0.1,-0.9 0.1,-1.4 0,-8.2 -6.7,-14.9 -14.9,-14.9 -8.2,0 -14.9,6.7 -14.9,14.9 0,0.5 0,1 0.1,1.4 0,0.2 0,0.3 0.1,0.5 0,0.3 0.1,0.6 0.1,0.9 0,0.2 0.1,0.4 0.1,0.5 0.1,0.3 0.1,0.5 0.2,0.8 0.1,0.2 0.1,0.4 0.2,0.6 0.1,0.3 0.2,0.5 0.3,0.7 0.1,0.2 0.2,0.4 0.2,0.5 0.1,0.2 0.2,0.5 0.3,0.7 0.1,0.2 0.2,0.3 0.3,0.5 0.1,0.2 0.2,0.4 0.4,0.7 0.1,0.2 0.2,0.3 0.3,0.5 0.1,0.2 0.3,0.4 0.4,0.6 0.1,0.2 0.3,0.3 0.4,0.5 0.2,0.2 0.3,0.4 0.5,0.6 0,0.1 0.1,0.1 0.1,0.2 0,0 0,0 0,0 -0.5,0.2 -1,0.4 -1.4,0.6 -0.1,0.1 -0.3,0.1 -0.4,0.2 -0.3,0.2 -0.7,0.3 -1,0.5 -0.2,0.1 -0.3,0.2 -0.5,0.2 -0.3,0.2 -0.6,0.3 -0.9,0.5 -0.1,0.1 -0.3,0.2 -0.4,0.2 -0.4,0.3 -0.9,0.5 -1.3,0.8 0,0 0,0 0,0 -0.4,0.3 -0.8,0.6 -1.2,0.9 -0.1,0.1 -0.2,0.2 -0.3,0.3 -0.3,0.2 -0.6,0.5 -0.9,0.7 -0.1,0.1 -0.2,0.2 -0.4,0.3 -0.3,0.2 -0.6,0.5 -0.8,0.8 -0.1,0.1 -0.2,0.2 -0.3,0.3 -0.4,0.4 -0.7,0.7 -1.1,1.1 0,0 0,0 0,0.1 -0.3,0.4 -0.6,0.7 -1,1.1 -0.1,0.1 -0.2,0.2 -0.3,0.4 -0.2,0.3 -0.5,0.6 -0.7,0.9 -0.1,0.1 -0.2,0.3 -0.3,0.4 -0.2,0.3 -0.4,0.6 -0.6,0.9 -0.1,0.1 -0.2,0.2 -0.2,0.3 -0.3,0.4 -0.5,0.9 -0.8,1.3 0,0.1 -0.1,0.2 -0.1,0.2 -0.2,0.4 -0.4,0.7 -0.6,1.1 -0.1,0.2 -0.2,0.3 -0.2,0.5 -0.2,0.3 -0.3,0.6 -0.4,1 -0.1,0.2 -0.1,0.3 -0.2,0.5 -0.1,0.3 -0.3,0.7 -0.4,1.1 -0.1,0.1 -0.1,0.3 -0.2,0.4 -0.2,0.5 -0.3,1 -0.5,1.5 0,0 0,0.1 0,0.1 -5.8,-6.8 -8.8,-15 -8.8,-23.5 z m 44.9,-5.3 c 0,0.1 0,0.2 0,0.2 0,0.2 0,0.3 -0.1,0.5 0,0.1 0,0.2 -0.1,0.3 0,0.2 -0.1,0.3 -0.1,0.5 0,0.1 -0.1,0.2 -0.1,0.3 0,0.1 -0.1,0.3 -0.1,0.4 0,0.1 -0.1,0.2 -0.1,0.3 -0.1,0.1 -0.1,0.3 -0.2,0.4 0,0.1 -0.1,0.2 -0.1,0.3 -0.1,0.1 -0.1,0.3 -0.2,0.4 0,0.1 -0.1,0.2 -0.2,0.2 -0.1,0.1 -0.2,0.2 -0.2,0.4 -0.1,0.1 -0.1,0.2 -0.2,0.2 -0.1,0.1 -0.2,0.2 -0.3,0.3 -0.1,0.1 -0.1,0.1 -0.2,0.2 -0.1,0.1 -0.2,0.2 -0.3,0.3 -0.1,0.1 -0.2,0.1 -0.2,0.2 -0.1,0.1 -0.2,0.2 -0.3,0.3 -0.1,0.1 -0.2,0.1 -0.3,0.2 -0.1,0.1 -0.2,0.2 -0.3,0.2 -0.1,0.1 -0.2,0.1 -0.3,0.2 -0.1,0.1 -0.2,0.1 -0.3,0.2 -0.1,0.1 -0.2,0.1 -0.3,0.2 -0.1,0.1 -0.2,0.1 -0.4,0.2 -0.1,0 -0.2,0.1 -0.3,0.1 -0.1,0 -0.2,0.1 -0.4,0.1 -0.1,0 -0.2,0.1 -0.3,0.1 -0.1,0 -0.3,0.1 -0.4,0.1 -0.1,0 -0.2,0 -0.4,0.1 -0.1,0 -0.2,0 -0.3,0 h -0.1 c -0.4,0 -0.7,0 -1.1,0 -0.4,0 -0.7,0 -1.1,0 h -0.1 c -0.1,0 -0.2,0 -0.3,-0.1 -0.1,0 -0.2,0 -0.4,-0.1 -0.1,0 -0.3,-0.1 -0.4,-0.1 -0.1,0 -0.2,-0.1 -0.3,-0.1 -0.1,0 -0.3,-0.1 -0.4,-0.1 -0.1,0 -0.2,-0.1 -0.3,-0.1 -0.1,-0.1 -0.2,-0.1 -0.4,-0.2 -0.1,0 -0.2,-0.1 -0.3,-0.2 -0.1,-0.1 -0.2,-0.1 -0.4,-0.2 -0.1,-0.1 -0.2,-0.1 -0.3,-0.2 -0.1,-0.1 -0.2,-0.2 -0.3,-0.2 -0.1,-0.1 -0.2,-0.1 -0.3,-0.2 -0.1,-0.1 -0.2,-0.2 -0.3,-0.3 -0.1,-0.1 -0.2,-0.1 -0.2,-0.2 -0.1,-0.1 -0.2,-0.2 -0.3,-0.3 -0.1,-0.1 -0.2,-0.2 -0.2,-0.2 -0.1,-0.1 -0.2,-0.2 -0.3,-0.3 -0.1,-0.1 -0.1,-0.2 -0.2,-0.3 -0.1,-0.1 -0.2,-0.2 -0.2,-0.3 -0.1,-0.1 -0.1,-0.2 -0.2,-0.3 -0.1,-0.1 -0.1,-0.2 -0.2,-0.4 -0.1,-0.1 -0.1,-0.2 -0.1,-0.3 -0.1,-0.1 -0.1,-0.3 -0.2,-0.4 0,-0.1 -0.1,-0.2 -0.1,-0.3 -0.1,-0.1 -0.1,-0.3 -0.1,-0.4 0,-0.1 -0.1,-0.2 -0.1,-0.3 0,-0.1 -0.1,-0.3 -0.1,-0.4 0,-0.1 0,-0.2 -0.1,-0.3 0,-0.2 -0.1,-0.3 -0.1,-0.5 0,-0.1 0,-0.2 0,-0.2 0,-0.3 0,-0.5 0,-0.8 0,-4.6 3.7,-8.3 8.3,-8.3 4.6,0 8.3,3.7 8.3,8.3 0,0.4 0,0.6 -0.1,0.9 z m -31.1,34 c 0,-0.1 0,-0.2 0,-0.3 0,-0.3 0.1,-0.6 0.2,-1 0.1,-0.4 0.1,-0.7 0.2,-1.1 0.1,-0.3 0.2,-0.6 0.3,-0.9 0.1,-0.4 0.2,-0.7 0.3,-1 0.1,-0.3 0.2,-0.6 0.3,-0.9 0.1,-0.3 0.3,-0.7 0.4,-1 0.1,-0.3 0.3,-0.6 0.4,-0.9 0.2,-0.3 0.3,-0.6 0.5,-1 0.2,-0.3 0.3,-0.6 0.5,-0.8 0.2,-0.3 0.4,-0.6 0.6,-0.9 0.2,-0.3 0.4,-0.5 0.5,-0.8 0.2,-0.3 0.4,-0.6 0.7,-0.9 0.2,-0.2 0.4,-0.5 0.6,-0.7 0.2,-0.3 0.5,-0.5 0.7,-0.8 0.2,-0.2 0.4,-0.4 0.6,-0.7 0.3,-0.3 0.5,-0.5 0.8,-0.7 0.2,-0.2 0.5,-0.4 0.7,-0.6 0.3,-0.2 0.6,-0.5 0.9,-0.7 0.2,-0.2 0.5,-0.4 0.7,-0.5 0.3,-0.2 0.6,-0.4 1,-0.6 0.3,-0.2 0.5,-0.3 0.8,-0.5 0.3,-0.2 0.7,-0.4 1.1,-0.5 0.3,-0.1 0.5,-0.3 0.8,-0.4 0.4,-0.2 0.8,-0.3 1.2,-0.5 0.2,-0.1 0.5,-0.2 0.7,-0.3 0.6,-0.2 1.3,-0.4 2,-0.6 0.1,0 0.2,0 0.4,-0.1 0.6,-0.1 1.1,-0.2 1.7,-0.3 0.3,0 0.5,-0.1 0.8,-0.1 0.4,0 0.8,-0.1 1.3,-0.1 0,0 0,0 0.1,0 0.4,0 0.8,0.1 1.3,0.1 0.5,0 0.9,0 1.3,-0.1 0,0 0,0 0.1,0 0.4,0 0.8,0.1 1.3,0.1 0.3,0 0.5,0 0.8,0.1 0.6,0.1 1.1,0.2 1.7,0.3 0.1,0 0.3,0.1 0.4,0.1 0.7,0.2 1.3,0.3 1.9,0.6 0.2,0.1 0.5,0.2 0.7,0.3 0.4,0.2 0.8,0.3 1.2,0.5 0.3,0.1 0.5,0.3 0.8,0.4 0.3,0.2 0.7,0.3 1,0.5 0.3,0.1 0.5,0.3 0.8,0.5 0.3,0.2 0.6,0.4 0.9,0.6 0.3,0.2 0.5,0.4 0.8,0.5 0.3,0.2 0.6,0.4 0.9,0.7 0.2,0.2 0.5,0.4 0.7,0.6 0.3,0.2 0.5,0.5 0.8,0.7 0.2,0.2 0.4,0.4 0.7,0.7 0.2,0.3 0.5,0.5 0.7,0.8 0.2,0.2 0.4,0.5 0.6,0.7 0.2,0.3 0.4,0.5 0.6,0.8 0.2,0.3 0.4,0.5 0.6,0.8 0.2,0.3 0.4,0.6 0.6,0.9 0.2,0.3 0.3,0.6 0.5,0.8 0.2,0.3 0.3,0.6 0.5,0.9 0.1,0.3 0.3,0.6 0.4,0.9 0.1,0.3 0.3,0.7 0.4,1 0.1,0.3 0.2,0.6 0.3,0.9 0.1,0.3 0.2,0.7 0.3,1 0.1,0.3 0.2,0.6 0.3,1 0.1,0.4 0.2,0.7 0.2,1.1 0.1,0.3 0.1,0.6 0.2,1 0,0.1 0,0.2 0,0.3 -6.5,5.2 -14.5,8 -22.8,8 -8.7,0.1 -16.8,-2.7 -23.3,-7.9 z"
   id="path228"
   style="fill:url(#SVGID_32_)" />
</g><path
     class="st50"
     d="m 758.9,801.1 c 0,28.5 -23.1,51.6 -51.6,51.6 -28.5,0 -51.6,-23.1 -51.6,-51.6 0,-28.5 23.1,-51.6 51.6,-51.6 28.5,0.1 51.6,23.1 51.6,51.6 z"
     id="path230"
     style="fill:#ffd42a" /><path
     class="st50"
     d="m 389.06349,172.32833 c 0,28.5 -23.1,51.6 -51.6,51.6 -28.5,0 -51.6,-23.1 -51.6,-51.6 0,-28.5 23.1,-51.6 51.6,-51.6 28.5,0.1 51.6,23.1 51.6,51.6 z"
     id="path230-7"
     style="fill:url(#SVGID_33_-6)" /><g
     id="g239"
     transform="translate(0,-42)">
	<path
   class="st2"
   d="m 1730.8,554.8 c 0,8.2 -6.6,14.8 -14.8,14.8 h -259.8 c -8.2,0 -14.8,-6.6 -14.8,-14.8 V 292 c 0,-8.2 6.6,-14.8 14.8,-14.8 H 1716 c 8.2,0 14.8,6.6 14.8,14.8 z"
   id="path231" />
	<path
   class="st5"
   d="m 1714.7,538.1 c 0,8.2 -6.6,14.8 -14.8,14.8 h -259.8 c -8.2,0 -14.8,-6.6 -14.8,-14.8 V 275.4 c 0,-8.2 6.6,-14.8 14.8,-14.8 h 259.8 c 8.2,0 14.8,6.6 14.8,14.8 z"
   id="path232" />
	<g
   id="g238">
		<g
   id="g233">
			<linearGradient
   id="SVGID_34_"
   gradientUnits="userSpaceOnUse"
   x1="1469.6848"
   y1="406.71539"
   x2="1670.4199"
   y2="406.71539">
				<stop
   offset="0.1047"
   style="stop-color:#FC6F3D"
   id="stop232" />
				<stop
   offset="0.9543"
   style="stop-color:#F7426E"
   id="stop233" />
			</linearGradient>
			<path
   class="st53"
   d="m 1570.1,507.1 c -55.3,0 -100.4,-45 -100.4,-100.4 0,-55.3 45,-100.4 100.4,-100.4 55.3,0 100.4,45 100.4,100.4 -0.1,55.4 -45.1,100.4 -100.4,100.4 z m 0,-177 c -42.2,0 -76.6,34.4 -76.6,76.6 0,42.2 34.4,76.6 76.6,76.6 42.2,0 76.6,-34.4 76.6,-76.6 -0.1,-42.2 -34.4,-76.6 -76.6,-76.6 z"
   id="path233"
   style="fill:url(#SVGID_34_)" />
		</g>
		<g
   id="g237">
			<linearGradient
   id="SVGID_35_"
   gradientUnits="userSpaceOnUse"
   x1="1504.9036"
   y1="406.50711"
   x2="1639.9374"
   y2="406.50711">
				<stop
   offset="0.1047"
   style="stop-color:#FC6F3D"
   id="stop234" />
				<stop
   offset="0.9543"
   style="stop-color:#F7426E"
   id="stop235" />
			</linearGradient>
			<line
   class="st54"
   x1="1639.9"
   y1="340.29999"
   x2="1504.9"
   y2="472.70001"
   id="line235"
   style="fill:url(#SVGID_35_)" />
			<linearGradient
   id="SVGID_36_"
   gradientUnits="userSpaceOnUse"
   x1="1496.4329"
   y1="406.50809"
   x2="1648.4081"
   y2="406.50809">
				<stop
   offset="0.1047"
   style="stop-color:#FC6F3D"
   id="stop236" />
				<stop
   offset="0.9543"
   style="stop-color:#F7426E"
   id="stop237" />
			</linearGradient>
			<polygon
   class="st55"
   points="1631.5,331.9 1648.4,348.6 1513.4,481.1 1496.4,464.4 "
   id="polygon237"
   style="fill:url(#SVGID_36_)" />
		</g>
	</g>
</g><g
     id="g240"
     transform="translate(1082.1089,289.89283)"><rect
       style="fill:#ff0000"
       id="rect239"
       width="141.7459"
       height="82.973206"
       x="653.414"
       y="122.7312"
       ry="41.486603" /><text
       xml:space="preserve"
       style="font-size:30.6666px;fill:#ffffff;stroke-width:2.55555"
       x="681.58508"
       y="176.33215"
       id="text239"><tspan
         id="tspan239"
         x="681.58508"
         y="176.33215"
         style="font-style:normal;font-variant:normal;font-weight:bold;font-stretch:normal;font-family:Sans;-inkscape-font-specification:'Sans Bold';stroke-width:2.55555">JAVA</tspan></text></g><rect
     style="fill:#ff6600"
     id="rect239-4"
     width="141.7459"
     height="82.973206"
     x="1362.1093"
     y="957.77411"
     ry="26.687777" /><text
     xml:space="preserve"
     style="font-size:30.6666px;fill:#ffffff;stroke-width:2.55555"
     x="1384.9951"
     y="1010.318"
     id="text239-7"><tspan
       id="tspan239-8"
       x="1384.9951"
       y="1010.318"
       style="font-style:normal;font-variant:normal;font-weight:bold;font-stretch:normal;font-family:Sans;-inkscape-font-specification:'Sans Bold';stroke-width:2.55555">HTML</tspan></text><text
     xml:space="preserve"
     style="font-size:30.6666px;fill:#ffffff;stroke-width:2.55555"
     x="303.60056"
     y="185.16806"
     id="text239-0"><tspan
       id="tspan239-3"
       x="303.60056"
       y="185.16806"
       style="font-style:normal;font-variant:normal;font-weight:bold;font-stretch:normal;font-family:Sans;-inkscape-font-specification:'Sans Bold';stroke-width:2.55555">PHP</tspan></text><path
     class="st50"
     d="m 412.2,621.6 c 0,28.5 -23.1,51.6 -51.6,51.6 -28.5,0 -51.6,-23.1 -51.6,-51.6 0,-28.5 23.1,-51.6 51.6,-51.6 28.5,0.1 51.6,23.1 51.6,51.6 z"
     id="path230-7-7"
     style="fill:#00adff;fill-opacity:1" /><text
     xml:space="preserve"
     style="font-size:30.6666px;fill:#ffffff;stroke-width:2.55555"
     x="326.73709"
     y="634.43976"
     id="text239-0-9"><tspan
       id="tspan239-3-1"
       x="326.73709"
       y="634.43976"
       style="font-style:normal;font-variant:normal;font-weight:bold;font-stretch:normal;font-family:Sans;-inkscape-font-specification:'Sans Bold';stroke-width:2.55555">CSS</tspan></text><text
     xml:space="preserve"
     style="font-size:30.6666px;fill:#ffffff;stroke-width:2.55555"
     x="687.4577"
     y="814.73041"
     id="text239-0-9-7"><tspan
       id="tspan239-3-1-8"
       x="687.4577"
       y="814.73041"
       style="font-style:normal;font-variant:normal;font-weight:bold;font-stretch:normal;font-family:Sans;-inkscape-font-specification:'Sans Bold';stroke-width:2.55555">JS</tspan></text><path
     style="fill:#4f7fba;fill-opacity:1;stroke-width:0.60175"
     id="path240"
     d="m 501.68178,450.7253 -66.57564,-1.7887 -31.73875,-58.55055 34.83688,-56.76184 66.57564,1.78871 31.73875,58.55054 z" /><text
     xml:space="preserve"
     style="font-size:62.7802px;fill:#ffffff;stroke-width:5.23168"
     x="443.49271"
     y="416.01328"
     id="text239-0-9-0"><tspan
       id="tspan239-3-1-9"
       x="443.49271"
       y="416.01328"
       style="font-style:normal;font-variant:normal;font-weight:bold;font-stretch:normal;font-family:Sans;-inkscape-font-specification:'Sans Bold';stroke-width:5.23168">C</tspan></text></g></svg>
