<?xml version="1.0" encoding="UTF-8" standalone="no"?>
<svg
   viewBox="0 0 4000 2666.6667"
   height="2666.6667"
   width="4000"
   xml:space="preserve"
   id="svg2"
   version="1.1"
   sodipodi:docname="programer-learning.svg"
   inkscape:version="1.3.2 (091e20e, 2023-11-25, custom)"
   inkscape:export-filename="programer-learning.webp"
   inkscape:export-xdpi="96"
   inkscape:export-ydpi="96"
   xmlns:inkscape="http://www.inkscape.org/namespaces/inkscape"
   xmlns:sodipodi="http://sodipodi.sourceforge.net/DTD/sodipodi-0.dtd"
   xmlns="http://www.w3.org/2000/svg"
   xmlns:svg="http://www.w3.org/2000/svg"
   xmlns:rdf="http://www.w3.org/1999/02/22-rdf-syntax-ns#"
   xmlns:cc="http://creativecommons.org/ns#"
   xmlns:dc="http://purl.org/dc/elements/1.1/"><sodipodi:namedview
     id="namedview1"
     pagecolor="#ffffff"
     bordercolor="#000000"
     borderopacity="0.25"
     inkscape:showpageshadow="2"
     inkscape:pageopacity="0.0"
     inkscape:pagecheckerboard="0"
     inkscape:deskcolor="#d1d1d1"
     inkscape:zoom="0.10978674"
     inkscape:cx="4540.6212"
     inkscape:cy="582.94836"
     inkscape:window-width="1920"
     inkscape:window-height="991"
     inkscape:window-x="-9"
     inkscape:window-y="-9"
     inkscape:window-maximized="1"
     inkscape:current-layer="svg2" /><metadata
     id="metadata8"><rdf:RDF><cc:Work
         rdf:about=""><dc:format>image/svg+xml</dc:format><dc:type
           rdf:resource="http://purl.org/dc/dcmitype/StillImage" /></cc:Work></rdf:RDF></metadata><defs
     id="defs6"><clipPath
       id="clipPath94"
       clipPathUnits="userSpaceOnUse"><path
         id="path92"
         d="m 24802.8,5163.9 c 23,39.8 45.2,80 66.5,120.5 648.1,1232.4 1020.6,2608.7 1082.5,3999.7 C 25284.6,8672 24613.4,8041 24048.3,7333.6 c -431.8,-540.5 -802.2,-1140.5 -1037.6,-1788.3 414.6,1531.4 632.3,3121.3 587.9,4705.5 C 22023,8064.2 20963.1,5514.6 20507.5,2858.3 l 3682.1,41.7 c 1354.5,806.2 2407.4,2106.6 2914.3,3599.1 -842.6,-284.3 -1637.9,-739.4 -2301.1,-1335.2" /></clipPath><clipPath
       id="clipPath114"
       clipPathUnits="userSpaceOnUse"><path
         id="path112"
         d="m 14550.8,8656.6 c -1459.7,-1482.2 -3844.4,-1500.5 -5326.61,-40.8 -1482.17,1459.6 -1500.46,3844.3 -40.85,5326.5 1459.56,1482.2 3844.36,1500.5 5326.56,40.9 1482.2,-1459.6 1500.5,-3844.4 40.9,-5326.6" /></clipPath><clipPath
       id="clipPath154"
       clipPathUnits="userSpaceOnUse"><path
         id="path152"
         d="m 21771.4,5371.6 c 0,0 1157.8,-493.6 603.3,-1979.9 -522.3,-1400.2 -8639.6,-740.8 -8683.2,-621 -52.6,144.2 -214.3,1290 -45.7,1357.1 168.6,67.1 6222.7,1293.2 6222.7,1293.2 l 1902.9,-49.4" /></clipPath><clipPath
       id="clipPath174"
       clipPathUnits="userSpaceOnUse"><path
         id="path172"
         d="m 20386.9,11841.6 c 0,0 1305.1,-545.8 1689.2,-1332.2 384.1,-786.5 -987.6,-4864.9 -1243.6,-4938.1 -256.1,-73.1 -2908,-128 -3109.2,0 -201.2,128 -101.7,4723.4 172.6,5107.5 274.4,384.1 1310.3,1162.8 1310.3,1162.8 h 1180.7" /></clipPath><clipPath
       id="clipPath202"
       clipPathUnits="userSpaceOnUse"><path
         id="path200"
         d="m 20119.1,14731.2 c 207.8,-107.5 497,-563.9 305,-937.8 -214.7,-418.1 -677.5,-848 -739.6,-857.9 -62.1,-9.9 -145.6,486.1 -145.6,486.1 448,89.3 244.4,529.8 174.3,527 -70.1,-2.7 -209.5,-291.3 -251.4,-237.4 -32.1,41.4 16.3,491.8 40.7,700.1 0,0 -943.4,-583.2 -1556.1,-354.1 0,0 -298.5,1009.5 594.7,1213.8 893.2,204.2 1578,-539.8 1578,-539.8" /></clipPath><clipPath
       id="clipPath270"
       clipPathUnits="userSpaceOnUse"><path
         id="path268"
         d="m 14906.1,5548.8 c 0,0 6957.5,151.5 6995,82.2 37.5,-69.3 24.6,-315.2 -41.8,-326.8 -66.5,-11.5 -6789.5,-155.5 -6881.9,-97.8 -92.5,57.8 -71.3,342.4 -71.3,342.4" /></clipPath></defs><g
     id="g1"
     inkscape:export-filename=".\g1.webp"
     inkscape:export-xdpi="96"
     inkscape:export-ydpi="96"><path
       id="path20"
       style="fill:#2dffff;fill-opacity:1;fill-rule:nonzero;stroke:none;stroke-width:0.229357"
       d="m 3623.066,1826.0423 c 13.8532,-28.8807 26.1697,-58.5595 36.8119,-88.9609 78.6466,-224.8527 44.6788,-505.4508 -102.9127,-698.2554 -74.8622,-97.79339 -179.518,-168.64417 -300.7792,-193.73127 -102.775,-21.25913 -204.1968,-4.80962 -305.8021,11.63988 -78.3026,12.67429 -156.6969,25.35087 -235.894,20.77749 -118.853,-6.86696 -231.5363,-53.7132 -338.5773,-105.79566 C 2086.8214,631.05618 1813.1293,449.40288 1499.3157,366.05213 1253.3644,300.70823 962.20216,314.72196 753.36773,473.41659 400.93955,741.24861 420.96703,1240.8806 571.00801,1611.6551 c 43.61688,107.7865 100.97915,211.1601 175.41937,300.7998 257.41462,310.0132 638.62252,425.9327 1029.50252,451.4532 340.7057,22.2523 692.6889,10.1193 1034.0185,-2.2683 342.4076,-12.4266 665.4803,-227.972 813.1176,-535.5975" /><path
       id="path22"
       style="fill:#cccccc;fill-opacity:1;fill-rule:nonzero;stroke:none;stroke-width:0.133333"
       d="M 934.74131,1746.7601 H 364.04399 c -16.224,0 -29.376,-13.16 -29.376,-29.3734 v -225.0666 c 0,-16.2267 13.152,-29.3734 29.376,-29.3734 h 570.69732 c 16.224,0 29.376,13.1467 29.376,29.3734 v 225.0666 c 0,16.2134 -13.152,29.3734 -29.376,29.3734" /><path
       id="path24"
       style="fill:#ffffff;fill-opacity:1;fill-rule:nonzero;stroke:none;stroke-width:0.133333"
       d="m 489.63332,1520.5601 h -111.052 c -1.808,0 -3.27333,-1.4667 -3.27333,-3.2667 v -20.8933 c 0,-1.8 1.46533,-3.2667 3.27333,-3.2667 h 111.052 c 1.808,0 3.27467,1.4667 3.27467,3.2667 v 20.8933 c 0,1.8 -1.46667,3.2667 -3.27467,3.2667" /><path
       id="path26"
       style="fill:#d0ffff;fill-opacity:1;fill-rule:nonzero;stroke:none;stroke-width:0.133333"
       d="M 909.37064,1520.5601 H 515.84932 c -3.35733,0 -6.08,-2.72 -6.08,-6.08 v -15.2667 c 0,-3.36 2.72267,-6.08 6.08,-6.08 h 393.52132 c 3.35867,0 6.08,2.72 6.08,6.08 v 15.2667 c 0,3.36 -2.72133,6.08 -6.08,6.08" /><path
       id="path28"
       style="fill:#ffffff;fill-opacity:1;fill-rule:nonzero;stroke:none;stroke-width:0.133333"
       d="M 644.39465,1566.2667 H 380.30532 c -2.76,0 -4.99733,-2.24 -4.99733,-5 v -17.44 c 0,-2.76 2.23733,-5 4.99733,-5 h 264.08933 c 2.76,0 4.99733,2.24 4.99733,5 v 17.44 c 0,2.76 -2.23733,5 -4.99733,5" /><path
       id="path30"
       style="fill:#ffffff;fill-opacity:1;fill-rule:nonzero;stroke:none;stroke-width:0.133333"
       d="M 910.68131,1566.2667 H 670.53732 c -2.63467,0 -4.76934,-2.1466 -4.76934,-4.7733 v -17.8933 c 0,-2.6267 2.13467,-4.7734 4.76934,-4.7734 h 240.14399 c 2.63467,0 4.76933,2.1467 4.76933,4.7734 v 17.8933 c 0,2.6267 -2.13466,4.7733 -4.76933,4.7733" /><path
       id="path32"
       style="fill:#d0ffff;fill-opacity:1;fill-rule:nonzero;stroke:none;stroke-width:0.133333"
       d="M 564.37332,1611.9601 H 379.50399 c -2.31733,0 -4.196,-1.88 -4.196,-4.2 v -19.04 c 0,-2.3067 1.87867,-4.1867 4.196,-4.1867 h 184.86933 c 2.31733,0 4.196,1.88 4.196,4.1867 v 19.04 c 0,2.32 -1.87867,4.2 -4.196,4.2" /><path
       id="path34"
       style="fill:#d0ffff;fill-opacity:1;fill-rule:nonzero;stroke:none;stroke-width:0.133333"
       d="M 771.97465,1611.9601 H 587.10532 c -2.31733,0 -4.196,-1.88 -4.196,-4.2 v -19.0267 c 0,-2.32 1.87867,-4.2 4.196,-4.2 h 184.86933 c 2.316,0 4.19466,1.88 4.19466,4.2 v 19.0267 c 0,2.32 -1.87866,4.2 -4.19466,4.2" /><path
       id="path36"
       style="fill:#ffffff;fill-opacity:1;fill-rule:nonzero;stroke:none;stroke-width:0.133333"
       d="M 912.14664,1611.9601 H 798.92798 c -1.824,0 -3.304,-1.48 -3.304,-3.3067 v -20.8133 c 0,-1.8267 1.48,-3.3067 3.304,-3.3067 h 113.21866 c 1.82534,0 3.304,1.48 3.304,3.3067 v 20.8133 c 0,1.8267 -1.47866,3.3067 -3.304,3.3067" /><path
       id="path38"
       style="fill:#d0ffff;fill-opacity:1;fill-rule:nonzero;stroke:none;stroke-width:0.133333"
       d="M 908.43464,1657.6534 H 382.32399 c -3.87467,0 -7.016,-3.1333 -7.016,-7.0133 v -13.4 c 0,-3.8667 3.14133,-7.0134 7.016,-7.0134 h 526.11065 c 3.876,0 7.016,3.1467 7.016,7.0134 v 13.4 c 0,3.88 -3.14,7.0133 -7.016,7.0133" /><path
       id="path40"
       style="fill:#ffffff;fill-opacity:1;fill-rule:nonzero;stroke:none;stroke-width:0.133333"
       d="M 644.39465,1703.3601 H 380.30532 c -2.76,0 -4.99733,-2.24 -4.99733,-5 v -17.44 c 0,-2.76 2.23733,-4.9867 4.99733,-4.9867 h 264.08933 c 2.76,0 4.99733,2.2267 4.99733,4.9867 v 17.44 c 0,2.76 -2.23733,5 -4.99733,5" /><path
       id="path42"
       style="fill:#d0ffff;fill-opacity:1;fill-rule:nonzero;stroke:none;stroke-width:0.133333"
       d="M 910.77864,1703.3601 H 680.46932 c -2.58,0 -4.672,-2.0934 -4.672,-4.68 v -18.08 c 0,-2.5734 2.092,-4.6667 4.672,-4.6667 h 230.30932 c 2.58,0 4.672,2.0933 4.672,4.6667 v 18.08 c 0,2.5866 -2.092,4.68 -4.672,4.68" /><path
       id="path44"
       style="fill:#cccccc;fill-opacity:1;fill-rule:nonzero;stroke:none;stroke-width:0.133333"
       d="M 784.88798,1420.4401 H 363.62266 c -15.99067,0 -28.95467,-12.9734 -28.95467,-28.96 V 658.21342 c 0,-16 12.964,-28.96 28.95467,-28.96 h 421.26532 c 15.99333,0 28.95733,12.96 28.95733,28.96 v 733.26668 c 0,15.9866 -12.964,28.96 -28.95733,28.96" /><path
       id="path46"
       style="fill:#d0ffff;fill-opacity:1;fill-rule:nonzero;stroke:none;stroke-width:0.133333"
       d="M 769.22531,698.12008 H 379.28666 c -3.016,0 -5.46134,-2.44 -5.46134,-5.46666 v -17.98667 c 0,-3.01333 2.44534,-5.45333 5.46134,-5.45333 h 389.93865 c 3.016,0 5.46134,2.44 5.46134,5.45333 v 17.98667 c 0,3.02666 -2.44534,5.46666 -5.46134,5.46666" /><path
       id="path48"
       style="fill:#f6f9ff;fill-opacity:1;fill-rule:nonzero;stroke:none;stroke-width:0.133333"
       d="M 769.22531,744.44008 H 379.28666 c -3.016,0 -5.46134,-2.45333 -5.46134,-5.46667 v -17.98666 c 0,-3.01333 2.44534,-5.46667 5.46134,-5.46667 h 389.93865 c 3.016,0 5.46134,2.45334 5.46134,5.46667 v 17.98666 c 0,3.01334 -2.44534,5.46667 -5.46134,5.46667" /><path
       id="path50"
       style="fill:#d0ffff;fill-opacity:1;fill-rule:nonzero;stroke:none;stroke-width:0.133333"
       d="M 645.24265,790.74675 H 378.35599 c -2.50267,0 -4.53067,-2.02667 -4.53067,-4.52 v -19.85334 c 0,-2.50666 2.028,-4.53333 4.53067,-4.53333 h 266.88666 c 2.504,0 4.532,2.02667 4.532,4.53333 v 19.85334 c 0,2.49333 -2.028,4.52 -4.532,4.52" /><path
       id="path52"
       style="fill:#f6f9ff;fill-opacity:1;fill-rule:nonzero;stroke:none;stroke-width:0.133333"
       d="M 769.22531,837.06675 H 379.28666 c -3.016,0 -5.46134,-2.44 -5.46134,-5.45334 v -18 c 0,-3.01333 2.44534,-5.45333 5.46134,-5.45333 h 389.93865 c 3.016,0 5.46134,2.44 5.46134,5.45333 v 18 c 0,3.01334 -2.44534,5.45334 -5.46134,5.45334" /><path
       id="path54"
       style="fill:#f6f9ff;fill-opacity:1;fill-rule:nonzero;stroke:none;stroke-width:0.133333"
       d="m 770.69465,883.38674 h -206.168 c -2.20533,0 -3.992,-1.78666 -3.992,-4 v -20.91999 c 0,-2.21334 1.78667,-4 3.992,-4 h 206.168 c 2.20533,0 3.992,1.78666 3.992,4 v 20.91999 c 0,2.21334 -1.78667,4 -3.992,4" /><path
       id="path56"
       style="fill:#d0ffff;fill-opacity:1;fill-rule:nonzero;stroke:none;stroke-width:0.133333"
       d="m 535.57599,883.38674 h -158.244 c -1.93733,0 -3.50667,-1.57333 -3.50667,-3.50666 v -21.90667 c 0,-1.93333 1.56934,-3.50666 3.50667,-3.50666 h 158.244 c 1.936,0 3.50666,1.57333 3.50666,3.50666 v 21.90667 c 0,1.93333 -1.57066,3.50666 -3.50666,3.50666" /><path
       id="path58"
       style="fill:#f6f9ff;fill-opacity:1;fill-rule:nonzero;stroke:none;stroke-width:0.133333"
       d="M 769.22531,929.70674 H 379.28666 c -3.016,0 -5.46134,-2.45333 -5.46134,-5.46666 v -17.98667 c 0,-3.02667 2.44534,-5.46667 5.46134,-5.46667 h 389.93865 c 3.016,0 5.46134,2.44 5.46134,5.46667 v 17.98667 c 0,3.01333 -2.44534,5.46666 -5.46134,5.46666" /><path
       id="path60"
       style="fill:#f6f9ff;fill-opacity:1;fill-rule:nonzero;stroke:none;stroke-width:0.133333"
       d="M 769.22531,976.01341 H 379.28666 c -3.016,0 -5.46134,-2.44 -5.46134,-5.45333 v -18 c 0,-3.01334 2.44534,-5.45334 5.46134,-5.45334 h 389.93865 c 3.016,0 5.46134,2.44 5.46134,5.45334 v 18 c 0,3.01333 -2.44534,5.45333 -5.46134,5.45333" /><path
       id="path62"
       style="fill:#d0ffff;fill-opacity:1;fill-rule:nonzero;stroke:none;stroke-width:0.133333"
       d="M 769.22531,1022.3334 H 379.28666 c -3.016,0 -5.46134,-2.44 -5.46134,-5.4533 v -18.00002 c 0,-3.01334 2.44534,-5.46667 5.46134,-5.46667 h 389.93865 c 3.016,0 5.46134,2.45333 5.46134,5.46667 v 18.00002 c 0,3.0133 -2.44534,5.4533 -5.46134,5.4533" /><path
       id="path64"
       style="fill:#f6f9ff;fill-opacity:1;fill-rule:nonzero;stroke:none;stroke-width:0.133333"
       d="M 769.22531,1068.6534 H 379.28666 c -3.016,0 -5.46134,-2.4533 -5.46134,-5.4667 v -17.9866 c 0,-3.0267 2.44534,-5.4667 5.46134,-5.4667 h 389.93865 c 3.016,0 5.46134,2.44 5.46134,5.4667 v 17.9866 c 0,3.0134 -2.44534,5.4667 -5.46134,5.4667" /><path
       id="path66"
       style="fill:#f6f9ff;fill-opacity:1;fill-rule:nonzero;stroke:none;stroke-width:0.133333"
       d="m 497.94932,1114.9601 h -121.048 c -1.69866,0 -3.076,-1.3734 -3.076,-3.0667 v -22.76 c 0,-1.7067 1.37734,-3.08 3.076,-3.08 h 121.048 c 1.69867,0 3.07733,1.3733 3.07733,3.08 v 22.76 c 0,1.6933 -1.37866,3.0667 -3.07733,3.0667" /><path
       id="path68"
       style="fill:#d0ffff;fill-opacity:1;fill-rule:nonzero;stroke:none;stroke-width:0.133333"
       d="M 680.90798,1114.9601 H 533.56132 c -1.87067,0 -3.38667,-1.5067 -3.38667,-3.3734 v -22.1466 c 0,-1.8667 1.516,-3.3867 3.38667,-3.3867 h 147.34666 c 1.87067,0 3.38667,1.52 3.38667,3.3867 v 22.1466 c 0,1.8667 -1.516,3.3734 -3.38667,3.3734" /><path
       id="path70"
       style="fill:#f6f9ff;fill-opacity:1;fill-rule:nonzero;stroke:none;stroke-width:0.133333"
       d="M 769.22531,1161.2801 H 379.28666 c -3.016,0 -5.46134,-2.44 -5.46134,-5.4534 v -18 c 0,-3.0133 2.44534,-5.4533 5.46134,-5.4533 h 389.93865 c 3.016,0 5.46134,2.44 5.46134,5.4533 v 18 c 0,3.0134 -2.44534,5.4534 -5.46134,5.4534" /><path
       id="path72"
       style="fill:#d0ffff;fill-opacity:1;fill-rule:nonzero;stroke:none;stroke-width:0.133333"
       d="M 716.59598,1207.6001 H 378.91332 c -2.81066,0 -5.088,-2.28 -5.088,-5.0934 v -18.7333 c 0,-2.8133 2.27734,-5.0933 5.088,-5.0933 h 337.68266 c 2.80934,0 5.08667,2.28 5.08667,5.0933 v 18.7333 c 0,2.8134 -2.27733,5.0934 -5.08667,5.0934" /><path
       id="path74"
       style="fill:#f6f9ff;fill-opacity:1;fill-rule:nonzero;stroke:none;stroke-width:0.133333"
       d="M 769.22531,1253.9201 H 379.28666 c -3.016,0 -5.46134,-2.4534 -5.46134,-5.4667 v -17.9867 c 0,-3.0266 2.44534,-5.4666 5.46134,-5.4666 h 389.93865 c 3.016,0 5.46134,2.44 5.46134,5.4666 v 17.9867 c 0,3.0133 -2.44534,5.4667 -5.46134,5.4667" /><path
       id="path76"
       style="fill:#d0ffff;fill-opacity:1;fill-rule:nonzero;stroke:none;stroke-width:0.133333"
       d="m 526.76399,1300.2267 h -149.528 c -1.884,0 -3.41067,-1.52 -3.41067,-3.4 v -22.1066 c 0,-1.88 1.52667,-3.4 3.41067,-3.4 h 149.528 c 1.884,0 3.41066,1.52 3.41066,3.4 v 22.1066 c 0,1.88 -1.52666,3.4 -3.41066,3.4" /><path
       id="path78"
       style="fill:#d0ffff;fill-opacity:1;fill-rule:nonzero;stroke:none;stroke-width:0.133333"
       d="M 770.56265,1300.2267 H 550.10799 c -2.27867,0 -4.12534,-1.84 -4.12534,-4.12 v -20.6666 c 0,-2.28 1.84667,-4.12 4.12534,-4.12 h 220.45466 c 2.27733,0 4.124,1.84 4.124,4.12 v 20.6666 c 0,2.28 -1.84667,4.12 -4.124,4.12" /><path
       id="path80"
       style="fill:#f6f9ff;fill-opacity:1;fill-rule:nonzero;stroke:none;stroke-width:0.133333"
       d="M 769.22531,1346.5467 H 379.28666 c -3.016,0 -5.46134,-2.44 -5.46134,-5.4666 v -17.9867 c 0,-3.0133 2.44534,-5.4667 5.46134,-5.4667 h 389.93865 c 3.016,0 5.46134,2.4534 5.46134,5.4667 v 17.9867 c 0,3.0266 -2.44534,5.4666 -5.46134,5.4666" /><path
       id="path82"
       style="fill:#f6f9ff;fill-opacity:1;fill-rule:nonzero;stroke:none;stroke-width:0.133333"
       d="M 769.22531,1392.8667 H 379.28666 c -3.016,0 -5.46134,-2.4533 -5.46134,-5.4666 v -17.9867 c 0,-3.0133 2.44534,-5.4667 5.46134,-5.4667 h 389.93865 c 3.016,0 5.46134,2.4534 5.46134,5.4667 v 17.9867 c 0,3.0133 -2.44534,5.4666 -5.46134,5.4666" /><path
       id="path86"
       style="fill:#00ff00;fill-opacity:1;fill-rule:nonzero;stroke:none;stroke-width:0.221709"
       d="m 3307.0385,1978.1439 c 3.0818,-5.3055 6.0305,-10.6664 8.8684,-16.065 86.4223,-164.3221 136.0852,-347.8287 144.3328,-533.2952 -88.9498,81.6134 -178.4539,165.7477 -253.7907,260.0673 -57.5779,72.0666 -106.9526,152.066 -138.3466,238.4395 55.2721,-204.1855 84.3161,-416.1728 78.3964,-627.3931 -210.0917,291.5411 -351.4093,631.488 -412.1576,985.662 l 490.9531,-5.5604 c 180.6044,-107.4936 320.9908,-280.8814 388.5678,-479.881 -112.3401,37.9056 -218.3837,98.5875 -306.8236,178.0259" /><g
       clip-path="url(#clipPath94)"
       id="g90"
       transform="matrix(0.13333333,0,0,-0.13333333,0,2666.6667)"><g
         transform="scale(1.66282)"
         id="g96"><path
           id="path98"
           style="fill:#6880e4;fill-opacity:1;fill-rule:nonzero;stroke:none"
           d="m 13616.1,1779.69 5.3,10.7 c 79.2,158.71 1941.2,3889.59 2136,4084.38 2.6,2.59 6.8,2.59 9.4,0 2.5,-2.58 2.5,-6.79 0,-9.38 -188.2,-188.17 -2013.6,-3840.76 -2128.1,-4069.95 327.6,43.96 1025,609.93 1555.8,1080.27 582.8,516.53 1095.6,1032.29 1100.7,1037.4 2.6,2.64 6.8,2.64 9.4,0.06 2.6,-2.59 2.6,-6.8 0,-9.38 -5.1,-5.18 -518.2,-521.17 -1101.3,-1037.94 -342.6,-303.64 -642,-548.1 -889.8,-726.72 -310.6,-223.71 -541.3,-344.29 -685.5,-358.3 l -11.9,-1.14" /></g><g
         transform="scale(1.44852)"
         id="g100"><path
           id="path102"
           style="fill:#6880e4;fill-opacity:1;fill-rule:nonzero;stroke:none"
           d="m 15040,1840.77 c -4.1,0 -7.5,3.32 -7.6,7.46 -5.6,283.81 203.4,1250.17 621,2872.24 310.9,1207.85 627.6,2346.9 630.8,2358.26 1.2,4.07 5.4,6.42 9.4,5.29 4.1,-1.12 6.4,-5.31 5.3,-9.37 -3.2,-11.36 -319.8,-1150.33 -630.8,-2358.05 -286.8,-1114.24 -627.4,-2516.29 -620.5,-2868.09 0.1,-4.22 -3.2,-7.67 -7.4,-7.74 h -0.2" /></g></g><path
       id="path104"
       style="fill:#1a1a1a;fill-opacity:1;fill-rule:nonzero;stroke:none;stroke-width:0.133333"
       d="m 1174.8133,1662.0801 -90.728,-89.3467 47.076,-47.8 90.728,89.3467 -47.076,47.8" /><path
       id="path106"
       style="fill:#eafffc;fill-opacity:1;fill-rule:nonzero;stroke:none;stroke-width:0.133333"
       d="m 1940.1066,1512.4534 c -194.6266,197.6267 -512.5866,200.0667 -710.2146,5.44 -197.6227,-194.6133 -200.0614,-512.5733 -5.4467,-710.19999 194.608,-197.62666 512.5813,-200.06666 710.208,-5.45333 197.6266,194.61333 200.0666,512.58662 5.4533,710.21332" /><g
       clip-path="url(#clipPath114)"
       id="g110"
       style="fill:#d0ffff;fill-opacity:1"
       transform="matrix(0.13333333,0,0,-0.13333333,0,2666.6667)"><path
         id="path116"
         style="fill:#d0ffff;fill-opacity:1;fill-rule:nonzero;stroke:none"
         d="m 10776.5,7693.4 c -566.8,170.9 -1101.25,478.2 -1552.31,922.4 -222.36,218.9 -411.82,458.8 -568.24,713.3 l 2521.15,177.5 c 0,0 -1214.16,8.7 -2209.51,144.5 -176.09,24 -348.25,36.2 -508.03,41 -239.12,507 -358.95,1056.8 -359.07,1606.7 -0.07,324.1 41.38,648.1 124.49,963.6 l 4889.22,-212.2 -4711.74,729.5 c 179.84,421.3 440.03,816.5 780.88,1162.6 361.51,367.1 780.01,644.5 1227.26,831.8 l 4098,-789.6 c 0.4,-0.5 0.8,-0.9 1.3,-1.3 748.3,-737 1123.5,-1709.7 1123.7,-2683.1 0.1,-485.4 -93,-970.7 -279.6,-1427.3 h -2541.7 l 2410,-287.1 C 15051.6,9251.8 14827.8,8938 14550.8,8656.6 14109,8208 13582.2,7893.4 13021.6,7713.4 l -2245.1,-20" /></g><path
       id="path118"
       style="fill:#ffffff;fill-opacity:1;fill-rule:nonzero;stroke:none;stroke-width:0.133333"
       d="m 1930.4666,806.49341 c -94.44,-92.99999 -219.4533,-143.66666 -352,-142.65333 -132.5466,1.02667 -256.764,53.6 -349.7706,148.04 -93.004,94.44 -143.6654,219.45332 -142.648,352.00002 1.016,132.5466 53.588,256.76 148.032,349.7733 94.444,93 219.4533,143.6667 352,142.64 132.5466,-1.0133 256.76,-53.5867 349.7733,-148.0267 93,-94.44 143.6666,-219.4533 142.64,-352 -1.0134,-132.5466 -53.5867,-256.75996 -148.0267,-349.77329 z m -761.6093,773.38669 c -56.66,-55.8 -100.7067,-121.04 -130.916,-193.9334 -29.1707,-70.3866 -44.25866,-144.8533 -44.84532,-221.36 -0.588,-76.4933 13.35602,-151.1866 41.44402,-222.01329 29.0893,-73.34667 72.1293,-139.25333 127.9253,-195.92 55.7973,-56.65333 121.0453,-100.70666 193.9347,-130.90666 70.3733,-29.17333 144.8533,-44.26666 221.3466,-44.85333 76.5067,-0.58667 151.2,13.36 222.0267,41.44 73.3333,29.09333 139.2533,72.13333 195.92,127.93333 56.6533,55.8 100.7066,121.04 130.9066,193.93333 29.1734,70.37332 44.2667,144.85332 44.8534,221.34662 0.5866,76.5067 -13.36,151.2 -41.4534,222.0267 -29.08,73.3333 -72.12,139.2533 -127.92,195.92 -55.7999,56.6533 -121.0399,100.6933 -193.9333,130.9067 -70.3733,29.1733 -144.8533,44.2666 -221.36,44.8533 -76.4933,0.5867 -151.1866,-13.36 -222.0133,-41.4533 -73.34,-29.08 -139.256,-72.12 -195.916,-127.92" /><path
       id="path120"
       style="fill:#000000;fill-opacity:1;fill-rule:nonzero;stroke:none;stroke-width:0.133333"
       d="m 789.81998,2052.36 -87.568,-86.2399 c -16.03066,-15.7867 -16.22933,-41.5867 -0.44266,-57.6134 L 1038.068,1567.0534 c 15.7866,-16.0267 41.5813,-16.2267 57.612,-0.44 l 87.568,86.2267 c 16.032,15.7866 16.2293,41.5866 0.4426,57.6133 L 847.43198,2051.92 c -15.78667,16.0267 -41.58133,16.2267 -57.612,0.44" /><path
       id="path122"
       style="fill:#1a1a1a;fill-opacity:1;fill-rule:nonzero;stroke:none;stroke-width:0.133333"
       d="m 1582.3866,619.86675 c -1.4266,0 -2.84,0 -4.2533,0.0133 -70.16,0.53334 -138.4533,14.37334 -202.9733,41.10667 -66.8027,27.69333 -126.62,68.08 -177.7907,120.04 -51.172,51.96 -90.6347,112.38666 -117.2933,179.61333 -25.7507,64.92005 -38.5334,133.41335 -37.996,203.57335 0.5386,70.16 14.3706,138.4533 41.1146,202.9733 27.6867,66.8 68.072,126.6134 120.0347,177.7867 51.9627,51.1733 112.3907,90.64 179.6107,117.2933 64.92,25.7467 133.4133,38.4934 203.5733,38 70.16,-0.5466 138.4533,-14.3733 202.9733,-41.12 66.8,-27.68 126.6134,-68.0666 177.7867,-120.0266 51.1733,-51.9734 90.64,-112.4 117.2933,-179.6134 25.76,-64.92 38.5333,-133.4133 38,-203.5733 -0.5333,-70.1733 -14.3733,-138.4533 -41.12,-202.97335 -27.68,-66.8 -68.0667,-126.61333 -120.0266,-177.78667 -51.96,-51.17333 -112.4,-90.63999 -179.6134,-117.29333 -63.6133,-25.24 -130.6533,-38.01333 -199.32,-38.01333 z M 1582.16,1707.0667 c -69.5334,0 -137.4134,-12.9466 -201.8267,-38.4933 -68.0627,-26.9867 -129.252,-66.9467 -181.864,-118.76 -52.6133,-51.8133 -93.5067,-112.3867 -121.5427,-180.0267 -27.08,-65.3333 -41.0866,-134.48 -41.6306,-205.52 -0.5454,-71.04 12.3986,-140.3866 38.472,-206.13329 26.996,-68.06667 66.9546,-129.25333 118.7666,-181.86666 51.812,-52.61333 112.38,-93.50667 180.0254,-121.54667 65.3333,-27.08 134.48,-41.08 205.52,-41.62666 71.0266,-0.54667 140.3866,12.4 206.1333,38.48 68.0667,26.98666 129.2533,66.94666 181.8667,118.75999 52.6133,51.81334 93.5066,112.38667 121.5333,180.02667 27.08,65.33332 41.0933,134.48002 41.64,205.52002 0.5466,71.04 -12.4,140.3866 -38.48,206.1333 -26.9867,68.0667 -66.9467,129.2533 -118.76,181.8667 l -2.4133,-2.3867 2.4133,2.3867 c -51.8133,52.6133 -112.3867,93.5066 -180.0267,121.5333 -65.3333,27.08 -134.48,41.0933 -205.52,41.64 -1.4266,0 -2.8666,0.013 -4.3066,0.013" /><path
       id="path124"
       style="fill:#1a1a1a;fill-opacity:1;fill-rule:nonzero;stroke:none;stroke-width:0.133333"
       d="M 848.24798,2038.1067 715.60932,1907.4801 c -6.43734,-6.3334 -6.51734,-16.6934 -0.17734,-23.1334 l 10.50134,-10.6666 c 6.33866,-6.44 16.69599,-6.52 23.13333,-0.1734 L 881.70531,2004.12 c 6.43733,6.3467 6.51733,16.7067 0.17733,23.1334 l -10.50133,10.6666 c -6.33866,6.44 -16.696,6.52 -23.13333,0.1867" /><path
       id="path128"
       style="fill:#b3b3b3;fill-opacity:1;fill-rule:nonzero;stroke:none;stroke-width:0.211349"
       d="m 3444.9941,2281.1063 c 0,56.2803 -559.1669,101.9064 -1248.9055,101.9064 -689.7575,0 -1248.91178,-45.6261 -1248.91178,-101.9064 0,-56.2928 559.15428,-101.9189 1248.91178,-101.9189 689.7386,0 1248.9055,45.6261 1248.9055,101.9189" /><path
       id="path132"
       style="fill:#550000;fill-opacity:1;fill-rule:nonzero;stroke:none;stroke-width:0.147267"
       d="m 2386.1322,1242.8219 c 0,0 -55.3428,65.8813 -85.7239,175.9881 -28.069,101.6538 -109.8904,476.9614 -109.8904,476.9614 h 209.9287 l -14.3144,-652.9495" /><path
       id="path134"
       style="fill:#666666;fill-opacity:1;fill-rule:nonzero;stroke:none;stroke-width:0.133333"
       d="m 1574.4133,2088.1734 c 0,0 -37.6667,-1.36 -57.0667,20.0666 -18.68,20.6267 -23.5333,77.2534 5.1867,118.52 0,0 20.1067,21.4267 50.1067,30.28 0,0 -25.5867,-59.4266 -24.5867,-99.7333 1.0133,-40.3067 26.36,-69.1333 26.36,-69.1333" /><path
       id="path136"
       style="fill:#2b0000;fill-opacity:1;fill-rule:nonzero;stroke:none;stroke-width:0.133333"
       d="m 1549.32,2231.9334 c -31.8934,-51.5067 -22.9734,-148.6667 25.0933,-143.76 69.2667,7.08 250.36,63.92 250.36,63.92 l 10.6667,116.4133 c 0,0 -161.4934,8.3067 -258.2267,-10.12 -13.0667,-2.48 -21.0133,-15.3467 -27.8933,-26.4533" /><path
       id="path138"
       style="fill:#916f6f;fill-opacity:1;fill-rule:nonzero;stroke:none;stroke-width:0.133333"
       d="m 1821.56,2163.0134 c 0,0 -78.4667,-24.5867 -86.6667,0 -8.2,24.6 -1.8933,68.72 19.1867,81.6133 21.08,12.88 73.32,4.8267 73.32,4.8267 l -5.84,-86.44" /><path
       id="path142"
       style="fill:#1c056d;fill-opacity:1;fill-rule:nonzero;stroke:none;stroke-width:0.164245"
       d="m 2013.1222,1932.3078 c 0,0 -95.1638,-12.215 -141.2017,76.1999 -42.4739,81.5462 -2.4637,217.9322 167.4481,232.7192 169.9282,14.7739 637.8303,-23.4 637.8303,-23.4 v -252.6536 l -664.0767,-32.8655" /><path
       id="path146"
       style="fill:#1b3d9e;fill-opacity:1;fill-rule:nonzero;stroke:none;stroke-width:0.18756"
       d="m 2902.8474,1950.452 c 0,0 154.3806,65.8148 80.4444,263.9869 -69.641,186.6935 -1151.9447,98.7747 -1157.7572,82.8002 -7.0129,-19.2267 -28.5729,-172 -6.0938,-180.9466 22.4791,-8.9466 829.6942,-172.4258 829.6942,-172.4258 l 253.7124,6.5853" /><g
       clip-path="url(#clipPath154)"
       id="g150"
       transform="matrix(0.13333333,0,0,-0.13333333,0,2666.6667)"><g
         transform="scale(1.35751)"
         id="g156"><path
           id="path158"
           style="fill:#1b2387;fill-opacity:1;fill-rule:nonzero;stroke:none"
           d="m 14773.8,3561.89 c -563,0 -1135.5,92.23 -1476.7,159.12 752.9,153.66 1338.9,272.33 1338.9,272.33 l 1401.8,-36.39 c 0,0 128.7,-54.88 262.2,-186.22 -204.9,-62.84 -615.5,-162.51 -1250.9,-200.88 -90.8,-5.46 -182.9,-7.96 -275.3,-7.96" /></g><g
         transform="scale(1.3819)"
         id="g160"><path
           id="path162"
           style="fill:#1c056d;fill-opacity:1;fill-rule:nonzero;stroke:none"
           d="m 9820.52,2479.55 c -9.62,0 -17.51,7.68 -17.73,17.37 -0.21,9.77 7.53,17.95 17.37,18.17 13.1,0.28 1331.04,30.32 2791.94,124.1 1932.2,124.1 3235.9,302.84 3770.1,516.9 9.1,3.69 19.5,-0.73 23.1,-9.85 3.7,-9.11 -0.7,-19.46 -9.9,-23.08 -300.3,-120.41 -833.2,-229.1 -1583.6,-323.11 -599.6,-75.11 -1338.9,-141.18 -2197.5,-196.32 -1461.7,-93.85 -2780.24,-123.89 -2793.34,-124.18 h -0.44" /></g></g><path
       id="path166"
       style="fill:#800000;fill-opacity:1;fill-rule:nonzero;stroke:none;stroke-width:0.183724"
       d="m 2718.2517,1087.7794 c 0,0 174.0417,72.7749 225.2272,177.6335 51.2223,104.8642 -131.6749,648.6523 -165.8109,658.4117 -34.1359,9.7466 -387.7311,17.0662 -414.5548,0 -26.8237,-17.0661 -13.5588,-629.793 23.0206,-681.0024 36.5795,-51.2094 174.7032,-155.0428 174.7032,-155.0428 h 157.4147" /><g
       clip-path="url(#clipPath174)"
       id="g170"
       style="fill:#550000"
       transform="matrix(0.13333333,0,0,-0.13333333,0,2666.6667)"><g
         transform="scale(1.27125)"
         id="g176"
         style="fill:#550000"><path
           id="path178"
           style="fill:#550000;fill-opacity:1;fill-rule:nonzero;stroke:none"
           d="m 15453.3,7384.06 c 0,11.25 8.9,20.45 20.2,20.61 120.7,2.2 741.2,11.88 781.7,-20.92 44.8,-36.27 -12.2,-1052.59 -84.8,-1057.78 -72.6,-5.19 -674.1,-36.34 -694.9,15.58 -18.9,47.43 -21.8,899.58 -22.2,1042.51" /></g></g><path
       id="path182"
       style="fill:#916f6f;fill-opacity:1;fill-rule:nonzero;stroke:none;stroke-width:0.168481"
       d="m 2647.6841,724.58241 c -22.8292,-24.31186 -102.9758,-48.16881 -165.9204,-33.08973 -35.4822,8.49145 -62.0348,38.05993 -67.9654,74.04754 -7.3963,44.81603 -14.1019,89.86794 -17.0166,135.22312 -2.4598,37.8746 -6.7561,86.96332 12.7877,121.46666 12.8552,22.6775 45.0182,24.4348 68.1507,24.8173 3.8414,0.064 40.3345,-3.6477 39.4752,-8.7105 8.3061,48.7618 37.167,159.2805 42.1372,174.0075 6.9583,20.6962 143.2597,-57.3325 165.0948,-84.5389 21.8184,-27.208 -99.842,-185.86523 -99.842,-185.86523 12.0127,-33.88159 54.8575,-183.54356 23.0988,-217.35776" /><path
       id="path186"
       style="fill:#483737;fill-opacity:1;fill-rule:nonzero;stroke:none;stroke-width:0.152705"
       d="m 2479.9956,813.80131 c 0,0 -52.7749,74.53547 -40.6654,82.09438 12.1401,7.54365 49.7667,-11.04059 49.7667,-11.04059 -0.2902,5.25306 -3.6344,9.83422 -8.5668,11.69723 -14.2169,5.40576 -41.8718,14.69025 -48.1022,3.37478 -10.9489,-19.86696 47.5677,-86.1258 47.5677,-86.1258" /><path
       id="path190"
       style="fill:#916f6f;fill-opacity:1;fill-rule:nonzero;stroke:none;stroke-width:0.158167"
       d="m 2517.1908,1038.3409 c 0,0 32.5348,-20.2453 50.6449,-44.5397 0,0 10.2809,75.0185 -37.6595,105.8008 l -12.9854,-61.2611" /><path
       id="path194"
       style="fill:#1a1a1a;fill-opacity:1;fill-rule:nonzero;stroke:none;stroke-width:0.168639"
       d="m 2682.552,702.51536 c 27.6905,14.33429 66.2582,75.17912 40.6588,125.02871 -28.6348,55.75194 -90.3397,113.07222 -98.6199,114.3876 -8.2801,1.33224 -19.4103,-64.80784 -19.4103,-64.80784 59.7318,-11.90589 32.5979,-70.64273 23.2384,-70.27173 -9.3426,0.37101 -27.9265,38.85435 -33.5085,31.65348 -4.2834,-5.51449 2.1586,-65.56671 5.4133,-93.3415 l -207.4761,47.21883 c -16.6234,-11.08226 -3.3089,-135.75986 34.6741,-128.82375 5.6442,-1.46092 -51.0661,53.73418 -49.8342,47.76032 4.2379,-20.55014 25.4091,-40.71224 44.0442,-56.71773 12.3438,-10.60181 28.7485,-19.10761 50.4098,-24.06137 119.0926,-27.23514 210.4104,71.97498 210.4104,71.97498"
       sodipodi:nodetypes="cccccccccsssc" /><g
       clip-path="url(#clipPath202)"
       id="g198"
       transform="matrix(0.13333333,0,0,-0.13333333,0,2666.6667)"><g
         transform="scale(1.20625)"
         id="g204"><path
           id="path206"
           style="fill:#000000;fill-opacity:1;fill-rule:nonzero;stroke:none"
           d="m 16134.2,11366.9 v 0 0 c 0,0 -3.3,21.6 -8.6,55.4 -0.2,5.7 -0.3,11.7 -0.3,18.1 0,125.4 27.2,374.8 42.6,506.9 v 0 0 c 0,0 -546.4,-337.9 -1022.4,-337.9 -93.5,0 -184.2,13.1 -267.6,44.3 0,0 -22.1,0.09 -33.3,109.489 107.218,232.978 840.845,243.341 970.5,243.341 23,0 6.1,-9.53 -10.4,-43.93 -16.5,-34.4 -32.6,-68.8 -8.2,-68.8 5.4,0 13,1.8 22.9,5.6 95.4,36.7 404.5,141.2 460.3,141.2 4.6,0 7.5,-0.7 8.4,-2.2 11.9,-19.9 -153.9,-671.5 -153.9,-671.5"
           sodipodi:nodetypes="ccccssccsccssscscc" /></g></g><path
       id="path210"
       style="fill:#483737;fill-opacity:1;fill-rule:nonzero;stroke:none;stroke-width:0.154717"
       d="m 2520.1751,925.47787 -17.9627,-5.74001 c -1.1139,-0.35585 -2.2898,0.24754 -2.6456,1.36151 -0.3559,1.11396 0.263,2.28981 1.3615,2.64566 l 6.266,2.01133 c -6.7302,39.00424 -75.3628,37.19405 -76.0435,37.1631 -1.1449,-0.0928 -2.1351,0.88189 -2.1815,2.04227 -0.031,1.16038 0.8664,2.1351 2.0422,2.18152 0.1547,0 0.9747,0.0309 2.3517,0.0309 5.508,0 19.742,-0.40227 34.7495,-4.08454 24.9559,-6.12681 39.8397,-18.59702 43.1198,-36.04914 l 7.643,2.46001 c 0.2166,0.0619 0.4487,0.0928 0.6498,0.0928 0.8974,0 1.7328,-0.57245 2.0113,-1.46982 0.3559,-1.09849 -0.263,-2.28981 -1.3615,-2.64566" /><path
       id="path214"
       style="fill:#d1ffff;fill-opacity:1;fill-rule:nonzero;stroke:none;stroke-width:0.160409"
       d="m 2611.1752,815.79969 -40.6959,2.77508 c -1.7645,-19.44161 -18.0942,-34.6805 -38.001,-34.6805 -15.8003,0 -29.3549,9.59248 -35.1617,23.25935 -13.8594,-8.0365 -24.703,-5.2133 -30.6382,-2.21364 -2.6788,-18.43104 -18.5272,-32.61122 -37.7122,-32.61122 -21.0938,0 -38.1935,17.09963 -38.1935,38.17742 0,21.09383 17.0997,38.19346 38.1935,38.19346 20.5805,0 37.3112,-16.29759 38.0972,-36.66957 3.0799,-2.27782 13.2819,-8.05255 28.2802,1.31535 -0.6737,2.80717 -1.0427,5.71058 -1.0427,8.72627 0,21.07779 17.0836,38.17742 38.1774,38.17742 20.1154,0 36.5734,-15.57574 38.0331,-35.32213 l 41.0969,-2.82321 c 1.7484,-0.11228 3.0638,-1.63617 2.9515,-3.36859 -0.1283,-1.74846 -1.6683,-3.06382 -3.3846,-2.93549" /><path
       id="path218"
       style="fill:#550000;fill-opacity:1;fill-rule:nonzero;stroke:none;stroke-width:0.169019"
       d="m 2568.7456,1215.6736 25.6401,38.7526 c 13.3694,20.1994 41.7138,23.5764 59.3594,6.9872 40.7842,-38.352 101.2591,-106.4259 87.9066,-162.8596 l -23.4091,-10.7648 c 0,0 -74.4865,110.0954 -149.497,127.8846" /><path
       id="path222"
       style="fill:#550000;fill-opacity:1;fill-rule:nonzero;stroke:none;stroke-width:0.157015"
       d="m 2559.339,1212.3373 -31.5129,24.9402 c -15.4188,12.2031 -38.343,3.1528 -41.1064,-16.3139 -4.3022,-30.164 -5.4641,-70.5451 10.9596,-99.7247 l 33.3499,-18.0708 28.3098,109.1692" /><path
       id="path226"
       style="fill:#2b0000;fill-opacity:1;fill-rule:nonzero;stroke:none;stroke-width:0.157592"
       d="m 2568.7496,1325.1223 c 0,9.0568 -7.3438,16.4021 -16.4053,16.4021 -9.0616,0 -16.4054,-7.3453 -16.4054,-16.4021 0,-9.0632 7.3438,-16.4101 16.4054,-16.4101 9.0615,0 16.4053,7.3469 16.4053,16.4101" /><path
       id="path230"
       style="fill:#2b0000;fill-opacity:1;fill-rule:nonzero;stroke:none;stroke-width:0.157328"
       d="m 2564.4464,1446.1239 c 0,9.0653 -7.3472,16.4125 -16.4093,16.4125 -9.0778,0 -16.4251,-7.3472 -16.4251,-16.4125 0,-9.0668 7.3473,-16.414 16.4251,-16.414 9.0621,0 16.4093,7.3472 16.4093,16.414" /><path
       id="path234"
       style="fill:#2b0000;fill-opacity:1;fill-rule:nonzero;stroke:none;stroke-width:0.156941"
       d="m 2558.1437,1567.1216 c 0,9.0665 -7.3449,16.4129 -16.4161,16.4129 -9.0712,0 -16.416,-7.3464 -16.416,-16.4129 0,-9.0539 7.3448,-16.4004 16.416,-16.4004 9.0712,0 16.4161,7.3465 16.4161,16.4004" /><path
       id="path238"
       style="fill:#2b0000;fill-opacity:1;fill-rule:nonzero;stroke:none;stroke-width:0.156587"
       d="m 2552.3626,1688.1332 c 0,9.0663 -7.344,16.4134 -16.4103,16.4134 -9.0664,0 -16.4103,-7.3471 -16.4103,-16.4134 0,-9.068 7.3439,-16.415 16.4103,-16.415 9.0663,0 16.4103,7.347 16.4103,16.415" /><path
       id="path242"
       style="fill:#2b0000;fill-opacity:1;fill-rule:nonzero;stroke:none;stroke-width:0.156587"
       d="m 2552.3626,1809.1324 c 0,9.0664 -7.344,16.4134 -16.4103,16.4134 -9.0664,0 -16.4103,-7.347 -16.4103,-16.4134 0,-9.0523 7.3439,-16.3993 16.4103,-16.3993 9.0663,0 16.4103,7.347 16.4103,16.3993" /><path
       id="path246"
       style="fill:#800000;fill-opacity:1;fill-rule:nonzero;stroke:none;stroke-width:0.188975"
       d="m 2943.4882,1265.4139 c 0,0 136.7988,318.1181 122.2288,485.6914 -10.5448,121.2385 -544.0769,199.3455 -544.0769,199.3455 l -59.1302,-95.332 395.5996,-193.6404 c 0,0 -152.9183,-343.4709 85.3787,-396.0645" /><path
       id="path250"
       style="fill:#550000;fill-opacity:1;fill-rule:nonzero;stroke:none;stroke-width:0.175344"
       d="m 2589.9712,1792.7329 268.136,-131.2537 c 0,0 -67.6126,-139.4266 -53.3747,-231.7732 0,0 -36.454,136.1213 22.3213,217.6545 0,0 -232.1379,133.4788 -237.0826,145.3724" /><path
       id="path254"
       style="fill:#550000;fill-opacity:1;fill-rule:nonzero;stroke:none;stroke-width:0.180581"
       d="m 2943.4757,1265.4188 c 0,0 -111.202,-23.5081 -138.7407,164.2893 0,0 -10.6362,-178.4397 125.5763,-186.88 l 13.1644,22.5907" /><path
       id="path258"
       style="fill:#550000;fill-opacity:1;fill-rule:nonzero;stroke:none;stroke-width:0.171669"
       d="m 2798.2101,1894.038 -163.0172,34.066 c 0,0 122.8981,2.9339 142.4855,-4.2797 0,0 16.7721,-14.4803 20.5317,-29.7863" /><path
       id="path262"
       style="fill:#1b3d9e;fill-opacity:1;fill-rule:nonzero;stroke:none;stroke-width:0.179457"
       d="m 1987.4899,1926.8251 c 0,0 927.6688,-20.1997 932.6577,-10.9612 5.0069,9.2402 3.2841,42.0271 -5.5632,43.574 -8.8651,1.5344 -905.2725,20.7345 -917.6012,13.0394 -12.3287,-7.7059 -9.4933,-45.6522 -9.4933,-45.6522" /><g
       clip-path="url(#clipPath270)"
       id="g266"
       transform="matrix(0.13333333,0,0,-0.13333333,0,2666.6667)"><g
         transform="scale(1.18869)"
         id="g272"><path
           id="path274"
           style="fill:#1c056d;fill-opacity:1;fill-rule:nonzero;stroke:none"
           d="m 16270.3,4815.14 c 0,0 29.7,-435.1 0,-446.62 -29.7,-11.53 -3634.1,-83.63 -3732.1,-37.27 -98,46.44 -132.2,362.5 -62.9,384.12 69.3,21.62 3795,99.77 3795,99.77" /></g></g><path
       id="path278"
       style="fill:#000000;fill-opacity:1;fill-rule:nonzero;stroke:none;stroke-width:0.158744"
       d="m 1750.3272,1561.0957 c -1.7303,-3.7067 0.9525,-7.9594 5.0481,-7.9991 73.7842,-0.7874 599.0363,-6.1212 615.8315,2.3732 18.065,9.1326 216.3204,357.7582 207.1926,363.8524 -9.1436,6.0799 -571.399,15.0394 -590.9245,7.5054 -34.9396,-13.4917 -200.1127,-286.4393 -237.1477,-365.7319" /><path
       id="path282"
       style="fill:#1a1a1a;fill-opacity:1;fill-rule:nonzero;stroke:none;stroke-width:0.136419"
       d="m 2207.7996,1738.6679 c 15.8246,20.8666 13.8192,49.0124 -4.4745,62.8794 -18.2801,13.867 -45.9322,8.2001 -61.7431,-12.6665 -15.8246,-20.8666 -13.8192,-49.0125 4.4609,-62.8794 18.2937,-13.867 45.9321,-8.2001 61.7567,12.6665" /><path
       id="path284"
       style="fill:#ffffff;fill-opacity:1;fill-rule:nonzero;stroke:none;stroke-width:0.133333"
       d="m 996.27731,1128.7067 c -43.95333,0 -79.712,-35.76 -79.712,-79.7066 V 855.72008 c 0,-43.96 35.75867,-79.70667 79.712,-79.70667 h 480.54929 c 43.96,0 79.72,35.74667 79.72,79.70667 v 193.28002 c 0,43.9466 -35.76,79.7066 -79.72,79.7066 H 996.27731" /><path
       id="path286"
       style="fill:#ff6600;fill-opacity:1;fill-rule:nonzero;stroke:none;stroke-width:0.133333"
       d="M 1476.8266,1101.6934 H 996.27731 c -29.09867,0 -52.688,-23.6 -52.688,-52.6933 V 855.72008 c 0,-29.10667 23.58933,-52.69333 52.688,-52.69333 h 480.54929 c 29.1067,0 52.6934,23.58666 52.6934,52.69333 v 193.28002 c 0,29.0933 -23.5867,52.6933 -52.6934,52.6933" /><path
       id="path288"
       style="fill:#ffffff;fill-opacity:1;fill-rule:nonzero;stroke:none;stroke-width:0.133333"
       d="m 1093.384,895.94674 c 0.492,-2.29333 1.5186,-4.04 3.08,-5.24 1.56,-1.18666 3.2653,-1.8 5.1146,-1.84 1.848,-0.04 3.592,0.46667 5.236,1.53334 1.6427,1.06666 2.792,2.72 3.4507,4.93333 2.2173,19.54667 3.7587,38.89333 4.62,58.04 0.8627,19.13333 1.3347,38.56 1.4173,58.27999 -0.083,1.8133 -0.576,3.3067 -1.4786,4.4933 -0.9054,1.2 -2.0334,2.08 -3.388,2.6534 -1.356,0.5733 -2.8347,0.8666 -4.4374,0.8666 -1.6013,0 -3.1013,-0.3066 -4.4973,-0.9333 -1.3973,-0.6133 -2.588,-1.4933 -3.5733,-2.64 -0.9854,-1.1467 -1.6014,-2.6267 -1.848,-4.44 -0.083,-9.28 0.081,-18.37332 0.4933,-27.29332 0.4093,-8.90667 0.4093,-18.01334 0,-27.29334 -0.412,0.16 -0.8627,0.33334 -1.356,0.49334 -0.4933,0.16 -1.028,0.33333 -1.6013,0.49333 -4.6014,-0.08 -9.0374,-0.29333 -13.308,-0.61333 -4.272,-0.33334 -8.5027,-0.57334 -12.692,-0.74667 -4.1894,-0.16 -8.4,-0.12 -12.6294,0.12 -4.2333,0.25333 -8.564,0.86667 -13,1.85333 l -1.2333,49.29336 c -0.1653,2.7066 -1.0467,4.72 -2.648,6.04 -1.6027,1.3066 -3.3693,1.96 -5.2987,1.96 -1.932,0 -3.7586,-0.6534 -5.484,-1.96 -1.7253,-1.32 -2.7533,-3.2934 -3.08,-5.92 V 895.94674 c 0.492,-2.29333 1.5187,-3.98666 3.08,-5.05333 1.56,-1.06667 3.2654,-1.57333 5.1147,-1.53333 1.848,0.04 3.6133,0.65333 5.2973,1.84 1.6827,1.2 2.8534,2.90666 3.512,5.12 l 0.74,45.46666 c 4.516,-0.81333 8.8907,-1.30666 13.1227,-1.48 4.2293,-0.16 8.4413,-0.14666 12.6307,0.0667 4.1893,0.2 8.4186,0.46667 12.6906,0.8 4.2707,0.32 8.7067,0.53333 13.308,0.61333 0.328,0.16 0.6174,0.26667 0.8627,0.30667 0.2467,0.04 0.5333,0.14667 0.8627,0.30667 -0.4934,-8.13334 -0.924,-15.86667 -1.2934,-23.22667 -0.3693,-7.34667 -0.9666,-15.09333 -1.7866,-23.22667" /><path
       id="path290"
       style="fill:#ffffff;fill-opacity:1;fill-rule:nonzero;stroke:none;stroke-width:0.133333"
       d="m 1136.6346,906.78674 c -2.3013,-0.32 -4.1093,-1.10666 -5.4213,-2.33333 -1.316,-1.24 -2.076,-2.61333 -2.28,-4.13333 -0.2067,-1.52 0.164,-3.04 1.1093,-4.56 0.9427,-1.52 2.5254,-2.68 4.7427,-3.50667 8.544,-1.06667 16.2667,-1.77333 23.1667,-2.09333 6.9,-0.33334 13.6346,-0.48 20.208,-0.44 6.5706,0.0533 13.3266,0.21333 20.2693,0.49333 6.9413,0.29333 14.6827,0.48 23.228,0.56 2.2173,0.65333 3.86,1.70667 4.928,3.14667 1.0667,1.44 1.5813,2.93333 1.54,4.49333 -0.041,1.56 -0.6573,3 -1.848,4.30667 -1.192,1.32 -2.9373,2.22666 -5.236,2.72 -3.4507,0 -6.532,0.0133 -9.2413,0.0533 -2.712,0.0533 -5.3614,0.0933 -7.948,0.13333 -2.588,0.04 -5.2374,0.0933 -7.948,0.18667 -2.712,0.08 -5.792,0.12 -9.2414,0.12 0.08,8.62667 0.1414,17.18667 0.184,25.69333 0.04,8.49334 0.1427,16.96 0.308,25.37334 0.164,8.42666 0.4107,16.88 0.74,25.38666 0.3267,8.50667 0.8627,17.06667 1.6014,25.69339 -0.083,2.3066 -0.8427,4.2266 -2.2787,5.7866 -1.4387,1.56 -3.0813,2.64 -4.9293,3.2134 -1.848,0.5733 -3.7187,0.5333 -5.6067,-0.1334 -1.8907,-0.6533 -3.3267,-2.0533 -4.3133,-4.1866 -0.8214,-8.8667 -1.2934,-17.76005 -1.4174,-26.68005 -0.1226,-8.90667 -0.1026,-17.81334 0.063,-26.73334 0.1627,-8.90666 0.388,-17.82666 0.6773,-26.73333 0.2867,-8.92 0.4307,-17.81333 0.4307,-26.68 -3.696,0.08 -6.9427,0.08 -9.7347,0 -2.7933,-0.08 -5.4826,-0.14667 -8.0706,-0.18667 -2.5867,-0.04 -5.2574,0 -8.0094,0.12 -2.7533,0.12 -5.976,0.42667 -9.672,0.92" /><path
       id="path292"
       style="fill:#ffffff;fill-opacity:1;fill-rule:nonzero;stroke:none;stroke-width:0.133333"
       d="m 1312.5933,1006.7201 c -1.7253,2.96 -3.4507,4.7466 -5.1747,5.36 -1.7253,0.6266 -3.308,0.6266 -4.744,0 -1.4386,-0.6134 -2.6493,-1.56 -3.636,-2.8267 -0.9853,-1.28 -1.644,-2.32 -1.9706,-3.1467 -1.4787,-3.4533 -2.896,-7.49329 -4.252,-12.13329 -1.3547,-4.64 -2.6694,-9.54667 -3.9427,-14.73333 -1.2747,-5.17334 -2.588,-10.49334 -3.9427,-15.94667 -1.356,-5.46667 -2.7533,-10.74667 -4.1893,-15.84 -1.4387,-5.09333 -2.9573,-9.88 -4.56,-14.36 -1.6013,-4.46667 -3.348,-8.34667 -5.236,-11.64 -1.972,7.14667 -3.512,14.33333 -4.6213,21.56 -1.108,7.24 -2.0134,14.48 -2.7107,21.76 -0.6987,7.26667 -1.3147,14.52 -1.848,21.74667 -0.536,7.22666 -1.2533,14.41332 -2.1573,21.56002 -0.412,2.96 -1.3347,5.1333 -2.772,6.5333 -1.4387,1.4 -3.08,2.1067 -4.928,2.16 -1.8494,0.04 -3.6974,-0.5733 -5.5454,-1.8533 -1.848,-1.28 -3.348,-3.1467 -4.4986,-5.6134 0.328,-10.09329 1.068,-20.35996 2.2186,-30.79996 1.1494,-10.42666 2.484,-20.53333 4.004,-30.30666 1.52,-9.78667 3.1014,-19 4.744,-27.66667 1.6427,-8.66667 3.0814,-16.2 4.3134,-22.61333 0.74,-1.8 1.9906,-3.22667 3.7586,-4.25334 1.7654,-1.02666 3.676,-1.61333 5.7294,-1.78666 2.0533,-0.16 4.0453,0.0667 5.976,0.68 1.9293,0.61333 3.3466,1.66666 4.2506,3.14666 4.684,6.32 8.6054,13.10667 11.768,20.33334 3.1614,7.22666 5.812,14.41333 7.948,21.56 2.136,7.14666 3.9227,13.98666 5.36,20.52 1.436,6.52 2.8534,12.25333 4.252,17.18666 1.8054,-7.81333 3.9614,-15.53333 6.4694,-23.17333 2.504,-7.64 4.9893,-14.84 7.4533,-21.62667 2.4653,-6.77333 4.7453,-12.93333 6.84,-18.48 2.0947,-5.54666 3.592,-10.12 4.4973,-13.73333 0.4934,-1.89333 1.5187,-3.53333 3.0867,-4.93333 1.5467,-1.4 3.2533,-2.28 5.1067,-2.65334 1.8533,-0.36 3.6133,-0.13333 5.2933,0.68 1.6933,0.82667 2.9067,2.46667 3.64,4.93334 1.48,10.02666 3.1867,19.81333 5.12,29.38666 1.92,9.57334 3.84,19 5.72,28.28 1.8933,9.28 3.6533,18.52 5.3067,27.72 1.64,9.2 2.8266,18.39996 3.5733,27.59996 0.24,2.72 -0.36,4.7867 -1.7867,6.2267 -1.44,1.44 -3.1066,2.2 -5,2.28 -1.88,0.08 -3.7466,-0.5067 -5.6,-1.7867 -1.8533,-1.2666 -3.0666,-3.3066 -3.64,-6.0933 -1.64,-7.2267 -3.1866,-14.27999 -4.6133,-21.13332 -1.44,-6.86667 -2.7733,-13.68 -4.0133,-20.45334 -1.2267,-6.78666 -2.36,-13.62666 -3.3867,-20.52 -1.0267,-6.90666 -1.9467,-14.01333 -2.7733,-21.32 -1.8,6.49334 -3.5334,13 -5.1707,19.53334 -1.6453,6.53333 -3.3893,13.10666 -5.2373,19.70666 -1.848,6.62667 -3.9427,13.33334 -6.284,20.14667 -2.3414,6.82667 -5.0734,13.77333 -8.1947,20.82669" /><path
       id="path294"
       style="fill:#ffffff;fill-opacity:1;fill-rule:nonzero;stroke:none;stroke-width:0.133333"
       d="m 1391.8266,898.04008 c 0.4934,-2.29334 1.6,-3.98667 3.32,-5.05334 1.7334,-1.06666 3.6134,-1.56 5.68,-1.48 2.04,0.0933 4,0.74667 5.84,1.97334 1.8534,1.24 3.1067,2.96 3.76,5.17333 0,9.21333 -0.08,18.08 -0.24,26.62667 -0.1733,8.53333 -0.3466,17.02666 -0.56,25.44 -0.2,8.42666 -0.3866,16.92 -0.5466,25.50666 -0.1734,8.58667 -0.2934,17.48 -0.3734,26.67996 4.6,0.6534 9.5067,1.0667 14.72,1.2267 5.2267,0.1733 10.52,0.2267 15.9067,0.1867 5.3733,-0.04 10.6667,-0.1467 15.8933,-0.3067 5.2134,-0.16 10.16,-0.24 14.84,-0.24 2.2267,0.6533 3.8667,1.7067 4.9334,3.1333 1.0666,1.44 1.5866,2.9467 1.5333,4.5067 -0.04,1.56 -0.6533,3 -1.84,4.3067 -1.2,1.32 -2.9467,2.2133 -5.24,2.7066 -5.1733,0 -10.76,0.1734 -16.76,0.4934 -6,0.3333 -12.0667,0.5733 -18.24,0.7466 -6.16,0.16 -12.2133,0.1867 -18.1733,0.053 -5.9467,-0.12 -11.48,-0.5467 -16.5734,-1.2934 -1.88,0.4134 -3.7066,-0.013 -5.48,-1.2933 -1.76,-1.2667 -2.8533,-3.3867 -3.2666,-6.3467 0,-9.6933 0.04,-19.19996 0.12,-28.51996 0.093,-9.32 0.1866,-18.61333 0.32,-27.85333 0.12,-9.24 0.2133,-18.52 0.3066,-27.84 0.08,-9.33333 0.12,-18.84 0.12,-28.53333" /><path
       id="path296"
       style="fill:#ffffff;fill-opacity:1;fill-rule:nonzero;stroke:none;stroke-width:0.133333"
       d="m 1646.2,1344.2667 c -28.2667,0 -51.2667,-23 -51.2667,-51.2666 v -150.16 c 0,-28.2667 23,-51.2667 51.2667,-51.2667 h 339.04 c 28.2666,0 51.2533,23 51.2533,51.2667 v 150.16 c 0,28.2666 -22.9867,51.2666 -51.2533,51.2666 H 1646.2" /><path
       id="path298"
       style="fill:#803300;fill-opacity:1;fill-rule:nonzero;stroke:none;stroke-width:0.133333"
       d="M 1985.24,1322.8534 H 1646.2 c -16.4934,0 -29.8534,-13.36 -29.8534,-29.8533 v -150.16 c 0,-16.4934 13.36,-29.8667 29.8534,-29.8667 h 339.04 c 16.4799,0 29.8533,13.3733 29.8533,29.8667 v 150.16 c 0,16.4933 -13.3734,29.8533 -29.8533,29.8533" /><path
       id="path300"
       style="fill:#ffffff;fill-opacity:1;fill-rule:nonzero;stroke:none;stroke-width:0.133333"
       d="m 1689.5333,1183.9601 c -1.8267,-0.2534 -3.2533,-0.88 -4.2933,-1.8534 -1.0534,-0.9733 -1.6534,-2.0666 -1.8134,-3.2666 -0.16,-1.2 0.1334,-2.4134 0.88,-3.6134 0.7467,-1.2 2,-2.1333 3.76,-2.7866 2.6667,-0.1867 5.6134,-0.4534 8.8267,-0.7734 3.2267,-0.32 6.4533,-0.5333 9.6667,-0.64 3.2266,-0.093 6.3333,0.027 9.32,0.3467 3,0.32 5.6,1.0133 7.8133,2.0533 1.76,1.2267 2.84,2.68 3.2667,4.3334 0.4266,1.6666 0.3733,3.16 -0.1467,4.4933 -0.52,1.3333 -1.4667,2.2933 -2.8267,2.88 -1.3733,0.5867 -3.0266,0.4267 -4.9733,-0.4933 -1.5733,-0.7067 -3.72,-1.0667 -6.4533,-1.0667 0.3333,3.64 0.7733,7.6533 1.32,12 0.56,4.3733 1.0933,8.9067 1.6133,13.6267 0.52,4.72 0.9333,9.48 1.2267,14.2933 0.28,4.8133 0.3333,9.5067 0.1466,14.0533 -0.2,4.56 -0.7333,8.8667 -1.6133,12.9334 -0.88,4.08 -2.24,7.7066 -4.0533,10.8933 -1.3734,2.3333 -3.2534,4.2133 -5.6667,5.6133 -2.4,1.4 -5.0533,2.3734 -7.9467,2.92 -2.9066,0.56 -5.92,0.72 -9.08,0.4934 -3.16,-0.2267 -6.2,-0.7867 -9.1333,-1.6667 -2.92,-0.8667 -5.6133,-2.04 -8.0533,-3.5067 -2.44,-1.4666 -4.3734,-3.1733 -5.8,-5.12 -1.1067,-1.5066 -1.96,-3.16 -2.5334,-4.9866 -0.6,-1.8134 -1.0266,-3.7067 -1.32,-5.6534 -0.2933,-1.96 -0.48,-3.8933 -0.5466,-5.8133 -0.067,-1.92 -0.12,-3.76 -0.1867,-5.52 0.3867,-1.8133 1.2133,-3.1733 2.48,-4.04 1.28,-0.88 2.6533,-1.32 4.16,-1.32 1.4933,0 2.92,0.4533 4.2933,1.36 1.36,0.92 2.3067,2.2533 2.8267,4 0.067,2.6133 0.053,4.84 -0.053,6.6933 -0.093,1.8534 0.053,3.4667 0.44,4.8267 0.3866,1.3733 1.1733,2.5733 2.3466,3.6133 1.1734,1.04 3.0934,2.0534 5.76,3.0267 5.5334,1.8933 9.7867,1.8933 12.7867,0 2.9867,-1.88 5.08,-5.72 6.24,-11.52 0.92,-4.4933 1.3733,-9.2667 1.3733,-14.3467 0,-5.08 -0.2266,-10.2133 -0.68,-15.4266 -0.4666,-5.2 -1.0266,-10.4134 -1.7066,-15.6134 -0.6934,-5.2 -1.2267,-10.2133 -1.6134,-15.04 -1.8933,0.2667 -3.7466,0.24 -5.5733,-0.093 -1.8133,-0.32 -3.3067,-0.4267 -4.48,-0.2933" /><path
       id="path302"
       style="fill:#ffffff;fill-opacity:1;fill-rule:nonzero;stroke:none;stroke-width:0.133333"
       d="m 1770.5466,1186.4001 c -0.9066,-0.2534 -1.8266,0.3333 -2.7333,1.76 -0.9067,1.4266 -1.8,3.3866 -2.68,5.8533 -0.88,2.48 -1.7467,5.3067 -2.5867,8.4933 -0.8533,3.1867 -1.68,6.4134 -2.4933,9.6667 -0.8133,3.2533 -1.5733,6.36 -2.2933,9.32 -0.72,2.96 -1.4,5.48 -2.0534,7.56 2.8,0.067 5.3867,0.1333 7.76,0.2 2.3734,0.067 4.72,0.1467 7.0267,0.24 2.32,0.1067 4.6533,0.2 7.0267,0.2933 2.3866,0.1067 4.9333,0.1867 7.6666,0.2534 -1.56,-3.84 -2.88,-7.5734 -3.9466,-11.1867 -1.08,-3.6 -2.12,-7.2 -3.1334,-10.7733 -1,-3.5867 -2.0933,-7.16 -3.2666,-10.7467 -1.1734,-3.5733 -2.6,-7.2133 -4.2934,-10.9333 z m -37.28,79.36 c 1.16,-2.7334 2.2667,-6.16 3.3067,-10.2934 1.04,-4.1333 2.0933,-8.6666 3.1333,-13.6133 1.04,-4.9467 2.1467,-10.12 3.32,-15.52 1.16,-5.4133 2.4134,-10.72 3.7467,-15.96 1.3333,-5.24 2.8133,-10.2267 4.4533,-14.9467 1.6267,-4.7066 3.44,-8.8533 5.4667,-12.44 2.0133,-3.5733 4.2533,-6.4266 6.7333,-8.5333 2.4667,-2.12 5.2267,-3.1733 8.2934,-3.1733 1.76,0 3.4933,1.0533 5.2266,3.1733 1.72,2.1067 3.4134,4.9333 5.0667,8.48 1.6667,3.5467 3.32,7.6667 4.9867,12.36 1.6533,4.68 3.2933,9.5867 4.92,14.7333 1.6266,5.1334 3.2533,10.3734 4.88,15.72 1.6266,5.3334 3.24,10.4 4.84,15.2267 1.5866,4.8133 3.1866,9.24 4.7733,13.2667 1.6,4.04 3.2133,7.32 4.84,9.8666 0.52,1.7467 0.4533,3.2934 -0.2,4.6267 -0.6533,1.3467 -1.5733,2.3333 -2.7733,2.9867 -1.2134,0.6533 -2.5867,0.8533 -4.16,0.6266 -1.56,-0.2266 -2.9867,-0.9866 -4.2934,-2.2933 -1.56,-2.4 -2.9866,-4.9733 -4.2933,-7.7067 -1.2933,-2.7333 -2.4267,-5.3733 -3.36,-7.9066 -0.9467,-2.5334 -1.72,-4.8267 -2.2933,-6.88 -0.5867,-2.0534 -0.9867,-3.6267 -1.1734,-4.7334 -3.2533,0 -6.3866,-0.013 -9.3733,-0.053 -3,-0.027 -5.96,-0.053 -8.88,-0.053 -2.9333,0 -5.88,-0.013 -8.84,-0.04 -2.96,-0.04 -6.0933,-0.08 -9.4133,-0.1467 -0.7867,2.9867 -1.3867,5.6133 -1.8134,7.8533 -0.4266,2.24 -0.8266,4.4134 -1.2133,6.4934 -0.3867,2.08 -0.88,4.2266 -1.4667,6.44 -0.5866,2.2133 -1.4266,4.7466 -2.5333,7.6133 -1.1733,1.44 -2.5333,2.3067 -4.0533,2.64 -1.5334,0.32 -2.9334,0.2133 -4.2,-0.3467 -1.2667,-0.5466 -2.2934,-1.48 -3.08,-2.7733 -0.7734,-1.3067 -0.9734,-2.8667 -0.5734,-4.6933" /><path
       id="path304"
       style="fill:#ffffff;fill-opacity:1;fill-rule:nonzero;stroke:none;stroke-width:0.133333"
       d="m 1855.6666,1270.6401 c -0.9733,1.1066 -1.9866,1.84 -3.0266,2.2 -1.04,0.36 -2.04,0.44 -2.9734,0.24 -0.9466,-0.1867 -1.8133,-0.6267 -2.5866,-1.32 -0.7867,-0.68 -1.4667,-1.5067 -2.0534,-2.48 -5.4,-15.36 -10.8666,-30.3334 -16.4,-44.9067 -5.5333,-14.5733 -11.2266,-29.3733 -17.08,-44.4133 -0.2,-1.8134 0.2267,-3.32 1.2667,-4.4934 1.04,-1.1733 2.3467,-1.9466 3.9067,-2.3333 1.56,-0.4 3.1733,-0.3333 4.8266,0.1867 1.6667,0.52 3.04,1.5333 4.1467,3.0266 2.4133,6.64 4.7467,12.84 7.0267,18.6 2.28,5.76 4.48,11.48 6.6,17.1734 2.1066,5.6933 4.16,11.52 6.1466,17.48 1.9867,5.9466 3.92,12.44 5.8,19.4666 2.5467,-6.24 4.9867,-12.4266 7.32,-18.5466 2.3467,-6.1067 4.6134,-12.2267 6.7867,-18.3467 2.1867,-6.12 4.3067,-12.2533 6.4,-18.4 2.08,-6.1467 4.16,-12.3867 6.24,-18.6933 0.92,-1.56 2.12,-2.5334 3.6133,-2.9334 1.4934,-0.3866 2.9334,-0.28 4.2934,0.2934 1.3733,0.5866 2.52,1.5733 3.4666,2.9333 0.9467,1.3733 1.3867,2.96 1.32,4.7867 -2.1466,7.6133 -4.5866,15.1733 -7.32,22.6933 -2.7333,7.52 -5.6533,15.0267 -8.7333,22.5467 -3.0933,7.52 -6.2533,15.0266 -9.4667,22.5466 -3.2266,7.52 -6.4,15.08 -9.52,22.6934" /><path
       id="path306"
       style="fill:#ffffff;fill-opacity:1;fill-rule:nonzero;stroke:none;stroke-width:0.133333"
       d="m 1937.2666,1186.4001 c -0.9066,-0.2534 -1.8266,0.3333 -2.7333,1.76 -0.9067,1.4266 -1.8,3.3866 -2.68,5.8533 -0.88,2.48 -1.7467,5.3067 -2.5867,8.4933 -0.8533,3.1867 -1.68,6.4134 -2.4933,9.6667 -0.8133,3.2533 -1.5733,6.36 -2.2933,9.32 -0.72,2.96 -1.4,5.48 -2.0534,7.56 2.8,0.067 5.3867,0.1333 7.76,0.2 2.3734,0.067 4.72,0.1467 7.0267,0.24 2.32,0.1067 4.6533,0.2 7.0267,0.2933 2.3733,0.1067 4.9333,0.1867 7.6666,0.2534 -1.56,-3.84 -2.88,-7.5734 -3.9466,-11.1867 -1.08,-3.6 -2.12,-7.2 -3.1334,-10.7733 -1,-3.5867 -2.0933,-7.16 -3.2666,-10.7467 -1.1734,-3.5733 -2.6,-7.2133 -4.2934,-10.9333 z m -37.2933,79.36 c 1.1733,-2.7334 2.28,-6.16 3.32,-10.2934 1.04,-4.1333 2.08,-8.6666 3.1333,-13.6133 1.04,-4.9467 2.1467,-10.12 3.32,-15.52 1.16,-5.4133 2.4134,-10.72 3.7467,-15.96 1.3333,-5.24 2.8133,-10.2267 4.44,-14.9467 1.6267,-4.7066 3.4533,-8.8533 5.4667,-12.44 2.0266,-3.5733 4.2666,-6.4266 6.7466,-8.5333 2.4667,-2.12 5.2267,-3.1733 8.2934,-3.1733 1.76,0 3.4933,1.0533 5.2133,3.1733 1.7333,2.1067 3.4267,4.9333 5.08,8.48 1.6667,3.5467 3.32,7.6667 4.9733,12.36 1.6667,4.68 3.3067,9.5867 4.9334,14.7333 1.6266,5.1334 3.2533,10.3734 4.88,15.72 1.6266,5.3334 3.24,10.4 4.84,15.2267 1.5866,4.8133 3.1866,9.24 4.7733,13.2667 1.6,4.04 3.2133,7.32 4.84,9.8666 0.52,1.7467 0.4533,3.2934 -0.2,4.6267 -0.6533,1.3467 -1.5733,2.3333 -2.7867,2.9867 -1.2,0.6533 -2.5733,0.8533 -4.1466,0.6266 -1.56,-0.2266 -2.9867,-0.9866 -4.2934,-2.2933 -1.56,-2.4 -2.9866,-4.9733 -4.2933,-7.7067 -1.3067,-2.7333 -2.4267,-5.3733 -3.36,-7.9066 -0.9467,-2.5334 -1.72,-4.8267 -2.2933,-6.88 -0.5867,-2.0534 -0.9867,-3.6267 -1.1734,-4.7334 -3.2533,0 -6.3866,-0.013 -9.3733,-0.053 -3,-0.027 -5.96,-0.053 -8.88,-0.053 -2.9333,0 -5.88,-0.013 -8.84,-0.04 -2.96,-0.04 -6.0933,-0.08 -9.4133,-0.1467 -0.7867,2.9867 -1.3867,5.6133 -1.8134,7.8533 -0.4266,2.24 -0.8266,4.4134 -1.2133,6.4934 -0.3867,2.08 -0.88,4.2266 -1.4667,6.44 -0.5866,2.2133 -1.4266,4.7466 -2.5333,7.6133 -1.1733,1.44 -2.5333,2.3067 -4.0533,2.64 -1.5334,0.32 -2.9334,0.2133 -4.2,-0.3467 -1.2667,-0.5466 -2.2934,-1.48 -3.08,-2.7733 -0.7734,-1.3067 -0.9734,-2.8667 -0.5867,-4.6933" /><path
       id="path308"
       style="fill:#ffffff;fill-opacity:1;fill-rule:nonzero;stroke:none;stroke-width:0.133333"
       d="m 1710.0133,993.98674 c -32.6667,0 -59.24,-26.58666 -59.24,-59.25333 v -159.96 c 0,-32.66666 26.5733,-59.25333 59.24,-59.25333 h 377.0133 c 32.6667,0 59.24,26.58667 59.24,59.25333 v 159.96 c 0,32.66667 -26.5733,59.25333 -59.24,59.25333 h -377.0133" /><path
       id="path310"
       style="fill:#0077fd;fill-opacity:1;fill-rule:nonzero;stroke:none;stroke-width:0.133333"
       d="m 2087.0266,967.48008 h -377.0133 c -18.08,0 -32.7333,-14.66667 -32.7333,-32.74667 v -159.96 c 0,-18.08 14.6533,-32.74666 32.7333,-32.74666 h 377.0133 c 18.08,0 32.7333,14.66666 32.7333,32.74666 v 159.96 c 0,18.08 -14.6533,32.74667 -32.7333,32.74667" /><path
       id="path312"
       style="fill:#ffffff;fill-opacity:1;fill-rule:nonzero;stroke:none;stroke-width:0.133333"
       d="m 1779.8133,818.84008 c 0.32,3.94667 0.5733,7.69333 0.7333,11.24 0.16,3.54667 0.2534,7.08 0.2934,10.57333 0.04,3.50667 0.04,7.04 0,10.58667 -0.04,3.54667 -0.093,7.29333 -0.1734,11.24 1.12,-0.16 2.4134,-0.04 3.8667,0.36 2.4133,2.33333 5.24,3.93333 8.4533,4.77333 3.2267,0.85333 6.5067,1.09333 9.8534,0.73333 3.3466,-0.37333 6.6533,-1.29333 9.92,-2.78666 3.2666,-1.49333 6.16,-3.44 8.6933,-5.86667 2.5467,-2.41333 4.6,-5.22666 6.1733,-8.45333 1.5734,-3.22667 2.36,-6.77333 2.36,-10.64 0,-4.10667 -0.8933,-7.76 -2.6666,-10.93333 -1.7734,-3.18667 -4.0934,-5.90667 -6.9467,-8.16 -2.8667,-2.26667 -6.1067,-4.01334 -9.7333,-5.26667 -3.6267,-1.24 -7.2934,-1.98667 -11,-2.22667 -3.7067,-0.25333 -7.2934,0.04 -10.76,0.84 -3.4667,0.8 -6.48,2.13334 -9.0667,3.98667 z m -15.9467,-10.88 c -0.1733,-2.41333 0.2534,-4.38667 1.2667,-5.92 1,-1.53333 2.24,-2.53333 3.68,-3.02667 1.4533,-0.48 2.96,-0.41333 4.5333,0.18667 1.5734,0.6 2.84,1.86667 3.8134,3.81333 2.4133,-1.86666 5.8,-3.18666 10.1466,-4 4.36,-0.8 9.1067,-1.04 14.2667,-0.72 5.16,0.32 10.4133,1.26667 15.7733,2.84 5.36,1.57334 10.24,3.86667 14.6267,6.89334 4.4,3.01333 8.0267,6.78666 10.88,11.29333 2.8667,4.52 4.3733,9.88 4.5333,16.08 0.16,7.57333 -0.84,14.30667 -3.0266,20.18667 -2.1734,5.88 -5.1067,10.88 -8.8134,14.98666 -3.7066,4.12 -7.9866,7.37333 -12.8133,9.8 -4.84,2.41333 -9.76,3.90667 -14.7467,4.46667 -5,0.57333 -9.92,0.2 -14.7466,-1.08 -4.84,-1.29334 -9.1467,-3.50667 -12.9334,-6.65334 -0.1733,3.46667 -0.2133,6.78667 -0.12,9.97334 0.067,3.18666 0.16,6.32 0.24,9.42666 0.08,3.10667 0.16,6.24 0.24,9.42667 0.08,3.18667 0.08,6.50667 0,9.97333 -0.16,2.65334 -0.9333,4.68 -2.2933,6.04 -1.3733,1.37334 -2.9067,2.08 -4.6,2.12 -1.6933,0.04 -3.28,-0.56 -4.7733,-1.81333 -1.4934,-1.25333 -2.4,-3.16 -2.72,-5.74667 0,-9.66666 -0.027,-19.09333 -0.067,-28.28 -0.04,-9.18666 -0.1333,-18.25333 -0.2933,-27.19999 -0.16,-8.94667 -0.4134,-17.81334 -0.7334,-26.58667 -0.32,-8.78667 -0.76,-17.61333 -1.32,-26.48" /><path
       id="path314"
       style="fill:#ffffff;fill-opacity:1;fill-rule:nonzero;stroke:none;stroke-width:0.133333"
       d="m 1932,803.49341 c 0.4933,-2.25333 1.4933,-3.97333 3.0266,-5.14666 1.5334,-1.16 3.2,-1.76 5.0134,-1.8 1.8133,-0.0533 3.5333,0.45333 5.1333,1.50666 1.6133,1.04 2.7467,2.65334 3.3867,4.82667 2.1733,19.18667 3.6933,38.16 4.5333,56.93333 0.8533,18.78667 1.3067,37.84 1.3867,57.18667 -0.08,1.77333 -0.56,3.24 -1.44,4.41333 -0.8934,1.16 -2,2.02667 -3.3334,2.6 -1.32,0.56 -2.7733,0.84 -4.3466,0.84 -1.5734,0 -3.04,-0.30667 -4.4134,-0.90667 -1.3733,-0.6 -2.5333,-1.46666 -3.5066,-2.6 -0.96,-1.13333 -1.5734,-2.57333 -1.8134,-4.34666 -0.08,-9.10667 0.08,-18.04 0.48,-26.77334 0.4134,-8.74666 0.4134,-17.68 0,-26.78666 -0.4,0.17333 -0.84,0.33333 -1.32,0.49333 -0.4933,0.16 -1.0133,0.32 -1.5733,0.48 -4.52,-0.08 -8.8667,-0.28 -13.0533,-0.6 -4.2,-0.32 -8.3467,-0.57333 -12.4534,-0.73333 -4.1066,-0.16 -8.24,-0.12 -12.3866,0.12 -4.16,0.24 -8.4,0.85333 -12.76,1.81333 l -1.2,48.36 c -0.1734,2.65333 -1.0267,4.62667 -2.6,5.92 -1.5734,1.29333 -3.3067,1.93333 -5.2,1.93333 -1.8934,0 -3.6934,-0.64 -5.3734,-1.93333 -1.6933,-1.29333 -2.7066,-3.22667 -3.0266,-5.8 v -110 c 0.48,-2.25333 1.4933,-3.90666 3.0266,-4.96 1.52,-1.04 3.2,-1.54666 5.0134,-1.50666 1.8133,0.04 3.5466,0.64 5.2,1.81333 1.64,1.16 2.7866,2.84 3.44,5.01333 l 0.72,44.6 c 4.44,-0.8 8.7333,-1.28 12.88,-1.44 4.1466,-0.17333 8.28,-0.14666 12.3866,0.0533 4.1067,0.2 8.2667,0.46666 12.4534,0.78666 4.1866,0.32 8.5333,0.52 13.0533,0.6 0.32,0.16 0.6,0.26667 0.84,0.30667 0.2533,0.04 0.5333,0.14667 0.8533,0.30667 -0.48,-7.98667 -0.9066,-15.57334 -1.2666,-22.78667 -0.36,-7.21333 -0.9467,-14.81333 -1.76,-22.78667" /><path
       id="path316"
       style="fill:#ffffff;fill-opacity:1;fill-rule:nonzero;stroke:none;stroke-width:0.133333"
       d="m 1988.0933,818.84008 c 0.32,3.94667 0.56,7.69333 0.72,11.24 0.16,3.54667 0.2667,7.08 0.3067,10.57333 0.04,3.50667 0.04,7.04 0,10.58667 -0.04,3.54667 -0.1067,7.29333 -0.1867,11.24 1.1333,-0.16 2.4267,-0.04 3.8667,0.36 2.4266,2.33333 5.24,3.93333 8.4666,4.77333 3.2267,0.85333 6.5067,1.09333 9.8533,0.73333 3.3467,-0.37333 6.64,-1.29333 9.9067,-2.78666 3.2667,-1.49333 6.1733,-3.44 8.7067,-5.86667 2.5333,-2.41333 4.6,-5.22666 6.16,-8.45333 1.5733,-3.22667 2.36,-6.77333 2.36,-10.64 0,-4.10667 -0.88,-7.76 -2.6534,-10.93333 -1.7733,-3.18667 -4.0933,-5.90667 -6.96,-8.16 -2.8533,-2.26667 -6.0933,-4.01334 -9.72,-5.26667 -3.6266,-1.24 -7.2933,-1.98667 -11,-2.22667 -3.7066,-0.25333 -7.2933,0.04 -10.7599,0.84 -3.4667,0.8 -6.4934,2.13334 -9.0667,3.98667 z m -15.96,-10.88 c -0.16,-2.41333 0.2667,-4.38667 1.2667,-5.92 1.0133,-1.53333 2.24,-2.53333 3.6933,-3.02667 1.4533,-0.48 2.96,-0.41333 4.5333,0.18667 1.5734,0.6 2.84,1.86667 3.8,3.81333 2.4267,-1.86666 5.8134,-3.18666 10.16,-4 4.3467,-0.8 9.1067,-1.04 14.2667,-0.72 5.1466,0.32 10.4133,1.26667 15.7733,2.84 5.36,1.57334 10.2267,3.86667 14.6267,6.89334 4.3866,3.01333 8.0133,6.78666 10.88,11.29333 2.8533,4.52 4.36,9.88 4.5333,16.08 0.16,7.57333 -0.8533,14.30667 -3.0267,20.18667 -2.1733,5.88 -5.12,10.88 -8.8266,14.98666 -3.7067,4.12 -7.9734,7.37333 -12.8134,9.8 -4.8266,2.41333 -9.7466,3.90667 -14.7466,4.46667 -5,0.57333 -9.9067,0.2 -14.7467,-1.08 -4.8266,-1.29334 -9.1466,-3.50667 -12.9333,-6.65334 -0.16,3.46667 -0.2,6.78667 -0.12,9.97334 0.08,3.18666 0.16,6.32 0.24,9.42666 0.08,3.10667 0.16,6.24 0.24,9.42667 0.08,3.18667 0.08,6.50667 0,9.97333 -0.16,2.65334 -0.92,4.68 -2.2933,6.04 -1.3734,1.37334 -2.9067,2.08 -4.5867,2.12 -1.6933,0.04 -3.2933,-0.56 -4.7867,-1.81333 -1.4933,-1.25333 -2.3866,-3.16 -2.72,-5.74667 0,-9.66666 -0.013,-19.09333 -0.053,-28.28 -0.04,-9.18666 -0.1467,-18.25333 -0.3067,-27.19999 -0.16,-8.94667 -0.4,-17.81334 -0.72,-26.58667 -0.32,-8.78667 -0.7733,-17.61333 -1.3333,-26.48" /><path
       id="path318"
       style="fill:#ffffff;fill-opacity:1;fill-rule:nonzero;stroke:none;stroke-width:0.133333"
       d="m 1111.4773,1383.9334 v -136.9467 c 0,-26.32 21.3387,-47.6533 47.66,-47.6533 h 282.1693 c 26.32,0 47.6534,21.3333 47.6534,47.6533 v 136.9467 c 0,26.32 -21.3334,47.6533 -47.6534,47.6533 H 1159.136 c -26.3214,0 -47.6587,-21.3333 -47.6587,-47.6533" /><path
       id="path320"
       style="fill:#ffcc00;fill-opacity:1;fill-rule:nonzero;stroke:none;stroke-width:0.133333"
       d="m 1446.56,1408.3734 h -293.4587 c -12.3413,0 -22.3467,-10.0133 -22.3467,-22.3467 v -141.1333 c 0,-12.3333 10.0054,-22.3467 22.3467,-22.3467 H 1446.56 c 12.3466,0 22.3466,10.0134 22.3466,22.3467 v 141.1333 c 0,12.3334 -10,22.3467 -22.3466,22.3467" /><path
       id="path322"
       style="fill:#ffffff;fill-opacity:1;fill-rule:nonzero;stroke:none;stroke-width:0.133333"
       d="m 1237.3373,1264.2801 c -0.28,-2.24 0.088,-4.04 1.1027,-5.4 1.0133,-1.3734 2.2373,-2.2134 3.6706,-2.52 1.4347,-0.32 2.8854,-0.04 4.3547,0.84 1.4693,0.8666 2.5187,2.3866 3.148,4.56 0.6293,3.64 1.084,7.28 1.364,10.92 0.2787,3.6266 0.42,7.3333 0.42,11.1066 -0.1413,2.32 -0.892,4.0934 -2.256,5.36 -1.364,1.2534 -2.8853,1.9734 -4.564,2.1467 -1.6787,0.1733 -3.2533,-0.2267 -4.7213,-1.2 -1.4694,-0.9867 -2.344,-2.5867 -2.6227,-4.8267 v -0.84 c -3.3573,-4.4133 -7.188,-7.52 -11.4893,-9.3466 -4.3014,-1.8134 -8.708,-2.56 -13.22,-2.2534 -4.5107,0.32 -8.9707,1.5734 -13.3774,3.7867 -4.4066,2.2 -8.3933,5.08 -11.9613,8.6533 -2.2387,2.24 -4.0747,4.9334 -5.5067,8.08 -1.4346,3.1467 -2.5186,6.48 -3.2533,10.0134 -0.7347,3.5333 -1.1373,7.1333 -1.2067,10.8133 -0.071,3.6667 0.1214,7.2 0.5774,10.5867 0.4546,3.4 1.1546,6.5333 2.0986,9.4 0.944,2.8666 2.08,5.2133 3.4094,7.0266 2.028,2.8667 4.564,5.24 7.6066,7.1334 3.0427,1.8933 6.312,3.3066 9.8107,4.2533 3.496,0.9333 7.116,1.4267 10.8587,1.4667 3.74,0.04 7.3786,-0.3734 10.912,-1.2134 3.5306,-0.84 6.8013,-2.1066 9.8093,-3.8266 3.0067,-1.7067 5.56,-3.8667 7.6587,-6.4534 0.9786,-1.2533 1.6786,-2.6666 2.1,-4.2533 0.4186,-1.5733 0.9426,-3.0933 1.572,-4.56 1.1186,-1.96 2.3613,-3.2 3.7253,-3.72 1.364,-0.5333 2.6053,-0.4933 3.7253,0.1067 1.1174,0.5866 2.0454,1.6933 2.78,3.3066 0.7347,1.6 1.0654,3.56 0.996,5.8667 -0.14,4.9733 -1.8186,9.4133 -5.036,13.3333 -3.2173,3.9067 -7.3626,7.1467 -12.4333,9.6934 -5.0707,2.56 -10.7187,4.3733 -16.944,5.4666 -6.2267,1.08 -12.432,1.2534 -18.6227,0.52 -6.1906,-0.7333 -12.0133,-2.4266 -17.4693,-5.0933 -5.456,-2.6533 -9.9333,-6.4667 -13.4293,-11.4267 -1.96,-2.8 -3.6387,-6.1733 -5.0374,-10.1333 -1.4,-3.9467 -2.4293,-8.2133 -3.0933,-12.8 -0.6667,-4.5733 -0.964,-9.3333 -0.892,-14.2667 0.068,-4.9333 0.576,-9.76 1.52,-14.48 0.944,-4.72 2.3613,-9.1733 4.2493,-13.3733 1.8894,-4.2 4.3027,-7.8667 7.24,-11.0133 2.308,-2.4534 5.0694,-4.72 8.2894,-6.8267 3.2146,-2.0933 6.6773,-3.88 10.3866,-5.3467 3.7067,-1.4666 7.5707,-2.5866 11.592,-3.36 4.0227,-0.7733 7.976,-1.08 11.8574,-0.9466 3.8813,0.1466 7.6066,0.8133 11.1733,2 3.568,1.1866 6.7493,3 9.548,5.4533 -0.071,-0.4267 -0.1413,-0.8267 -0.2107,-1.2133 -0.071,-0.3734 -0.14,-0.7867 -0.2093,-1.2" /><path
       id="path324"
       style="fill:#ffffff;fill-opacity:1;fill-rule:nonzero;stroke:none;stroke-width:0.133333"
       d="m 1338.6933,1286.2134 c 0.56,1.88 0.36,3.44 -0.5867,4.6667 -0.9333,1.2266 -2.2266,2.04 -3.88,2.4666 -1.64,0.4134 -3.4413,0.4 -5.4,-0.053 -1.9586,-0.4533 -3.6373,-1.3867 -5.036,-2.7867 -0.14,-2.16 -0.6653,-4.3866 -1.5733,-6.6666 -0.9107,-2.2667 -2.1333,-4.3067 -3.672,-6.1334 -1.5387,-1.8133 -3.3573,-3.32 -5.456,-4.5066 -2.0987,-1.1867 -4.3373,-1.7467 -6.7147,-1.68 -3.2893,0.1333 -6.2266,1 -8.8133,2.5733 -2.5893,1.5733 -4.6173,3.6267 -6.0853,6.1867 -1.468,2.5466 -2.308,5.44 -2.5174,8.6533 -0.2106,3.2133 0.4534,6.5067 1.9934,9.8667 0.5586,1.3333 2.08,2.3466 4.5626,3.04 2.4827,0.7066 5.4387,1.4533 8.8667,2.2533 3.4267,0.8 7.0987,1.8 11.016,2.9867 3.916,1.2 7.6413,2.9466 11.1747,5.2533 3.5306,2.3067 6.6093,5.3333 9.228,9.08 2.6266,3.7333 4.3866,8.5467 5.3066,14.4267 0.6934,4.96 0.2267,9.3333 -1.4133,13.1066 -1.6533,3.7734 -4.08,6.9734 -7.3,9.6 -3.2173,2.6267 -6.9947,4.6534 -11.3307,6.0934 -4.3373,1.4266 -8.848,2.24 -13.5333,2.4133 -4.688,0.1733 -9.304,-0.28 -13.8507,-1.3733 -4.548,-1.08 -8.62,-2.8134 -12.2226,-5.1867 -3.6027,-2.3733 -6.5227,-5.44 -8.7614,-9.1867 -2.2386,-3.7333 -3.3933,-8.16 -3.4613,-13.2666 0,-1.4 0.068,-2.7467 0.2107,-4.04 0.1386,-1.2934 0.4533,-2.4667 0.9426,-3.52 0.4894,-1.0534 1.1894,-1.9334 2.1,-2.6667 0.9067,-0.7333 2.132,-1.2133 3.6707,-1.4267 1.3987,-0.067 2.588,0.1734 3.568,0.7334 0.9787,0.56 1.7653,1.32 2.36,2.2666 0.5933,0.9334 0.9787,2.0534 1.1547,3.36 0.1733,1.2934 0.192,2.6667 0.052,4.1334 -0.3507,3.08 0.087,5.72 1.3106,7.92 1.224,2.2133 2.8854,4.0266 4.984,5.4666 2.1,1.4267 4.4774,2.48 7.1347,3.1467 2.6573,0.6667 5.2467,0.92 7.7653,0.7867 2.5174,-0.1467 5.0707,-0.5067 7.6587,-1.1067 2.5867,-0.5867 4.932,-1.5333 7.0293,-2.8267 2.0987,-1.3066 3.7774,-3 5.036,-5.0933 1.2587,-2.0933 1.748,-4.72 1.4694,-7.8667 -0.1414,-1.68 -0.6134,-3.4266 -1.4174,-5.2533 -0.804,-1.8133 -1.872,-3.5067 -3.2,-5.08 -1.3293,-1.5733 -2.832,-3 -4.5106,-4.2533 -1.68,-1.2667 -3.4627,-2.1734 -5.3507,-2.7334 -2.8,-0.84 -5.7027,-1.64 -8.7093,-2.4133 -3.008,-0.76 -5.928,-1.64 -8.76,-2.6133 -2.8334,-0.9867 -5.5094,-2.1334 -8.0267,-3.4667 -2.5173,-1.3333 -4.7387,-2.9733 -6.6627,-4.9333 -1.924,-1.96 -3.4453,-4.32 -4.564,-7.08 -1.12,-2.76 -1.7146,-6.0667 -1.784,-9.92 -0.069,-4.68 0.788,-8.92 2.5707,-12.6934 1.784,-3.7733 4.1453,-6.9866 7.0827,-9.6533 2.9373,-2.6533 6.2253,-4.7067 9.8626,-6.1333 3.636,-1.44 7.2387,-2.1467 10.8067,-2.1467 4.8947,0 9.372,0.6267 13.4293,1.88 4.056,1.2667 7.6227,3.08 10.7014,5.4533 3.0773,2.3867 5.596,5.2667 7.5586,8.6667 1.96,3.3867 3.28,7.1467 3.9867,11.28" /><path
       id="path326"
       style="fill:#ffffff;fill-opacity:1;fill-rule:nonzero;stroke:none;stroke-width:0.133333"
       d="m 1417.6933,1286.2134 c 0.56,1.88 0.3733,3.44 -0.5733,4.6667 -0.9467,1.2266 -2.24,2.04 -3.88,2.4666 -1.6534,0.4134 -3.4534,0.4 -5.4134,-0.053 -1.9466,-0.4533 -3.6266,-1.3867 -5.0266,-2.7867 -0.1467,-2.16 -0.6667,-4.3866 -1.5734,-6.6666 -0.92,-2.2667 -2.1333,-4.3067 -3.68,-6.1334 -1.5333,-1.8133 -3.36,-3.32 -5.4533,-4.5066 -2.0933,-1.1867 -4.3333,-1.7467 -6.72,-1.68 -3.28,0.1333 -6.2267,1 -8.8133,2.5733 -2.5867,1.5733 -4.6134,3.6267 -6.08,6.1867 -1.4667,2.5466 -2.3067,5.44 -2.52,8.6533 -0.2134,3.2133 0.4533,6.5067 2,9.8667 0.56,1.3333 2.08,2.3466 4.56,3.04 2.48,0.7066 5.44,1.4533 8.8666,2.2533 3.4267,0.8 7.0934,1.8 11.0134,2.9867 3.92,1.2 7.64,2.9466 11.1733,5.2533 3.5333,2.3067 6.6133,5.3333 9.24,9.08 2.6133,3.7333 4.3867,8.5467 5.2933,14.4267 0.6934,4.96 0.2267,9.3333 -1.4133,13.1066 -1.64,3.7734 -4.08,6.9734 -7.2933,9.6 -3.2134,2.6267 -7,4.6534 -11.3334,6.0934 -4.3333,1.4266 -8.8533,2.24 -13.5333,2.4133 -4.6933,0.1733 -9.3067,-0.28 -13.8533,-1.3733 -4.5467,-1.08 -8.6134,-2.8134 -12.2134,-5.1867 -3.6133,-2.3733 -6.5333,-5.44 -8.7733,-9.1867 -2.2267,-3.7333 -3.3867,-8.16 -3.4533,-13.2666 0,-1.4 0.067,-2.7467 0.2133,-4.04 0.1333,-1.2934 0.4533,-2.4667 0.9333,-3.52 0.4934,-1.0534 1.2,-1.9334 2.1067,-2.6667 0.9067,-0.7333 2.1333,-1.2133 3.6667,-1.4267 1.4,-0.067 2.5866,0.1734 3.5733,0.7334 0.9733,0.56 1.76,1.32 2.36,2.2666 0.5867,0.9334 0.9733,2.0534 1.1467,3.36 0.1733,1.2934 0.2,2.6667 0.053,4.1334 -0.3467,3.08 0.093,5.72 1.32,7.92 1.2133,2.2133 2.88,4.0266 4.9733,5.4666 2.1067,1.4267 4.48,2.48 7.1334,3.1467 2.6666,0.6667 5.2533,0.92 7.7733,0.7867 2.52,-0.1467 5.0667,-0.5067 7.6533,-1.1067 2.5867,-0.5867 4.9334,-1.5333 7.0267,-2.8267 2.1067,-1.3066 3.7867,-3 5.04,-5.0933 1.2667,-2.0933 1.7467,-4.72 1.4667,-7.8667 -0.1334,-1.68 -0.6134,-3.4266 -1.4134,-5.2533 -0.8,-1.8133 -1.8666,-3.5067 -3.2,-5.08 -1.3333,-1.5733 -2.8266,-3 -4.5066,-4.2533 -1.68,-1.2667 -3.4667,-2.1734 -5.36,-2.7334 -2.7867,-0.84 -5.6934,-1.64 -8.7067,-2.4133 -3,-0.76 -5.92,-1.64 -8.76,-2.6133 -2.8267,-0.9867 -5.5067,-2.1334 -8.0267,-3.4667 -2.52,-1.3333 -4.7333,-2.9733 -6.6533,-4.9333 -1.9333,-1.96 -3.4533,-4.32 -4.5733,-7.08 -1.12,-2.76 -1.7067,-6.0667 -1.7867,-9.92 -0.067,-4.68 0.8,-8.92 2.5733,-12.6934 1.7867,-3.7733 4.1467,-6.9866 7.08,-9.6533 2.9467,-2.6533 6.2267,-4.7067 9.8667,-6.1333 3.64,-1.44 7.24,-2.1467 10.8133,-2.1467 4.8934,0 9.3734,0.6267 13.4267,1.88 4.0533,1.2667 7.6267,3.08 10.6933,5.4533 3.08,2.3867 5.6,5.2667 7.56,8.6667 1.96,3.3867 3.2934,7.1467 3.9867,11.28" /><path
       id="path330"
       style="fill:#ffffff;fill-opacity:1;fill-rule:nonzero;stroke:none;stroke-width:0.195701"
       d="m 2752.0891,510.84042 c 22.3295,-12.19219 386.5493,-73.25101 393.9272,-31.91889 0,0 43.9154,231.84345 21.8794,239.85742 -13.8361,5.03736 -164.2325,25.39225 -277.9154,34.38081 -23.6799,36.96798 -53.0351,74.9086 -61.8808,79.81875 -9.5894,5.33873 -4.1489,-36.05797 3.0725,-76.14348 -37.8878,1.5343 -64.5423,0.41098 -68.5542,-5.12541 -15.8909,-21.8344 -32.8778,-228.67701 -10.5287,-240.8692" /><path
       id="path334"
       style="fill:#333333;fill-opacity:1;fill-rule:nonzero;stroke:none;stroke-width:0.18992"
       d="m 3052.85,604.30643 c 3.2287,10.93939 14.7188,17.20675 25.6582,13.95912 10.9394,-3.22864 17.1878,-14.69981 13.9592,-25.65819 -3.2287,-10.9394 -14.7188,-17.18776 -25.6582,-13.95912 -10.9394,3.24763 -17.1878,14.7188 -13.9592,25.65819" /><path
       id="path338"
       style="fill:#333333;fill-opacity:1;fill-rule:nonzero;stroke:none;stroke-width:0.183225"
       d="m 2943.7165,615.00107 c 3.2431,10.93855 14.7313,17.18653 25.6698,13.96177 10.9386,-3.24309 17.1866,-14.73132 13.9618,-25.66987 -3.2431,-10.93855 -14.713,-17.18654 -25.6699,-13.96177 -10.9385,3.24309 -17.1865,14.73132 -13.9617,25.66987" /><path
       id="path342"
       style="fill:#333333;fill-opacity:1;fill-rule:nonzero;stroke:none;stroke-width:0.176288"
       d="m 2830.6564,626.85588 c 3.2261,10.92986 14.7024,17.18808 25.6499,13.94438 10.9299,-3.22607 17.1881,-14.70242 13.962,-25.6499 -3.226,-10.94749 -14.72,-17.18808 -25.6675,-13.96201 -10.9299,3.22607 -17.1881,14.72005 -13.9444,25.66753" /><path
       id="path344"
       style="fill:#f6f9ff;fill-opacity:1;fill-rule:nonzero;stroke:none;stroke-width:0.133333"
       d="m 770.75489,1114.4956 h -69.67066 c -2.52933,0 -4.58133,-2.0533 -4.58133,-4.5866 v -19.7467 c 0,-2.5333 2.052,-4.5867 4.58133,-4.5867 h 69.67066 c 2.52934,0 4.58,2.0534 4.58,4.5867 v 19.7467 c 0,2.5333 -2.05066,4.5866 -4.58,4.5866" /></g></svg>
